<?xml version="1.0" encoding="UTF-8"?>
<!DOCTYPE svg PUBLIC "-//W3C//DTD SVG 1.1//EN" "http://www.w3.org/Graphics/SVG/1.1/DTD/svg11.dtd">
<svg xmlns="http://www.w3.org/2000/svg" version="1.1" width="301px" height="298px" style="shape-rendering:geometricPrecision; text-rendering:geometricPrecision; image-rendering:optimizeQuality; fill-rule:evenodd; clip-rule:evenodd" xmlns:xlink="http://www.w3.org/1999/xlink">
<g><path style="opacity:0.536" fill="#203d19" d="M 258.5,61.5 C 259.531,62.2485 260.698,62.9152 262,63.5C 264.248,69.8238 265.748,75.9904 266.5,82C 266.123,87.3178 266.123,92.6512 266.5,98C 266.037,106.154 264.37,113.987 261.5,121.5C 261.624,123.951 261.958,126.451 262.5,129C 260.575,131.465 260.575,134.132 262.5,137C 261.572,137.388 260.905,138.055 260.5,139C 260.819,147.332 261.152,155.332 261.5,163C 260.833,167 260.167,171 259.5,175C 260.301,190.844 260.634,206.51 260.5,222C 259.721,225.842 258.887,229.675 258,233.5C 257.302,234.691 256.469,235.691 255.5,236.5C 253.973,236.427 252.973,237.094 252.5,238.5C 250.797,237.34 250.131,238.007 250.5,240.5C 249.833,240.5 249.5,240.833 249.5,241.5C 245.321,242.429 241.655,244.096 238.5,246.5C 237.504,246.586 236.671,246.252 236,245.5C 234.238,247.463 232.571,248.796 231,249.5C 228.841,248.803 226.674,249.137 224.5,250.5C 222.419,249.965 220.253,249.631 218,249.5C 216.667,250.167 215.333,250.833 214,251.5C 209.482,250.589 205.315,250.589 201.5,251.5C 201.167,250.167 200.833,250.167 200.5,251.5C 197.302,251.48 194.469,251.147 192,250.5C 191.692,251.308 191.192,251.975 190.5,252.5C 188.629,251.233 186.796,251.233 185,252.5C 183.057,250.285 181.391,250.285 180,252.5C 178.333,251.167 176.667,251.167 175,252.5C 173.806,251.57 172.473,250.903 171,250.5C 161.453,250.894 152.12,250.894 143,250.5C 141.275,251.464 139.441,252.131 137.5,252.5C 132.099,251.175 126.599,251.175 121,252.5C 120.667,251.833 120.333,251.167 120,250.5C 112.852,251.177 105.352,251.511 97.5,251.5C 94.7719,250.795 91.9386,250.128 89,249.5C 85.6222,249.868 82.1222,249.868 78.5,249.5C 78.1667,248.167 77.8333,248.167 77.5,249.5C 75.8297,249.249 74.3297,248.582 73,247.5C 72.6174,248.056 72.1174,248.389 71.5,248.5C 71.1583,247.662 70.4916,247.328 69.5,247.5C 69.6716,246.508 69.3382,245.842 68.5,245.5C 67.7659,244.292 67.4326,242.959 67.5,241.5C 67.2826,236.491 67.6159,231.324 68.5,226C 66.9616,217.313 65.9616,208.813 65.5,200.5C 64.919,174.39 64.919,148.557 65.5,123C 63.1667,122.667 60.8333,122.333 58.5,122C 57.9781,121.439 57.6448,120.772 57.5,120C 57.1662,111.495 57.8329,102.995 59.5,94.5C 61.4842,88.9294 63.8175,83.9294 66.5,79.5C 67.3382,79.1583 67.6716,78.4916 67.5,77.5C 69.3264,75.8525 70.6597,73.8525 71.5,71.5C 73.2624,70.7377 74.2624,69.4044 74.5,67.5C 76.5259,65.9815 78.6926,64.6482 81,63.5C 83.0553,64.8503 84.5553,64.517 85.5,62.5C 95.9598,61.6789 107.126,61.6789 119,62.5C 131.266,60.9343 143.766,59.601 156.5,58.5C 159.055,60.4447 162.055,61.4447 165.5,61.5C 178.544,59.9563 191.71,58.9563 205,58.5C 222.793,59.0783 240.627,60.0783 258.5,61.5 Z"/></g>
<g><path style="opacity:0.004" fill="#1e3d18" d="M 258.5,60.5 C 259.833,61.1667 259.833,61.1667 258.5,60.5 Z"/></g>
<g><path style="opacity:0.008" fill="#1e3d18" d="M 74.5,67.5 C 73.8333,66.1667 73.8333,66.1667 74.5,67.5 Z"/></g>
<g><path style="opacity:0.004" fill="#1e3d18" d="M 73.5,67.5 C 72.8333,68.1667 72.8333,68.1667 73.5,67.5 Z"/></g>
<g><path style="opacity:0.004" fill="#1e3d18" d="M 71.5,71.5 C 70.8333,70.1667 70.8333,70.1667 71.5,71.5 Z"/></g>
<g><path style="opacity:0.004" fill="#1e3d18" d="M 67.5,77.5 C 66.8333,76.1667 66.8333,76.1667 67.5,77.5 Z"/></g>
<g><path style="opacity:0.004" fill="#1e3d18" d="M 66.5,79.5 C 65.8333,78.1667 65.8333,78.1667 66.5,79.5 Z"/></g>
<g><path style="opacity:0.004" fill="#1e3d18" d="M 59.5,94.5 C 58.8333,93.1667 58.8333,93.1667 59.5,94.5 Z"/></g>
<g><path style="opacity:0.8" fill="#688251" d="M 109.5,122.5 C 103.833,122.5 98.1667,122.5 92.5,122.5C 94.4338,121.468 96.6005,120.802 99,120.5C 101.217,121.532 103.383,121.532 105.5,120.5C 107.026,120.994 108.359,121.661 109.5,122.5 Z"/></g>
<g><path style="opacity:0.788" fill="#5e7849" d="M 141.5,122.5 C 133.849,123.152 125.849,123.485 117.5,123.5C 117.57,117.658 119.403,116.992 123,121.5C 123.561,120.978 124.228,120.645 125,120.5C 130.701,121.956 136.201,122.622 141.5,122.5 Z"/></g>
<g><path style="opacity:0.735" fill="#708957" d="M 167.5,122.5 C 160.322,122.769 152.989,122.769 145.5,122.5C 152.037,121.799 158.703,121.132 165.5,120.5C 166.522,120.855 167.189,121.522 167.5,122.5 Z"/></g>
<g><path style="opacity:0.643" fill="#546f41" d="M 180.5,121.5 C 177.257,121.877 173.924,122.21 170.5,122.5C 170.97,121.307 171.97,120.64 173.5,120.5C 176.043,121.371 178.376,121.705 180.5,121.5 Z"/></g>
<g><path style="opacity:0.722" fill="#66804f" d="M 201.5,123.5 C 195.108,123.751 188.775,123.418 182.5,122.5C 183.37,120.401 184.703,120.068 186.5,121.5C 187.281,120.263 188.281,119.263 189.5,118.5C 193.451,120.476 197.451,122.143 201.5,123.5 Z"/></g>
<g><path style="opacity:0.714" fill="#5e794a" d="M 75.5,122.5 C 77.5979,121.516 79.5979,121.849 81.5,123.5C 79.4352,123.483 77.4352,123.15 75.5,122.5 Z"/></g>
<g><path style="opacity:0.588" fill="#daeda9" d="M 180.5,121.5 C 181.167,121.833 181.833,122.167 182.5,122.5C 188.775,123.418 195.108,123.751 201.5,123.5C 206.687,124.051 212.02,124.051 217.5,123.5C 224.039,123.495 230.373,123.828 236.5,124.5C 237.647,128.646 237.814,132.98 237,137.5C 236.5,138 236,138.5 235.5,139C 236.167,151.333 236.833,163.667 237.5,176C 236.712,179.076 236.212,182.242 236,185.5C 235.659,201.98 235.492,218.313 235.5,234.5C 234.715,236.374 234.048,238.374 233.5,240.5C 232.833,241.167 232.167,241.833 231.5,242.5C 225.949,242.527 220.616,243.194 215.5,244.5C 211.5,244.5 207.5,244.5 203.5,244.5C 200.74,243.431 197.907,242.431 195,241.5C 194.601,241.728 194.435,242.062 194.5,242.5C 178.759,241.67 163.425,241.67 148.5,242.5C 143.233,242.424 138.4,243.091 134,244.5C 122.933,243.715 111.767,243.048 100.5,242.5C 96.775,241.294 92.775,241.294 88.5,242.5C 88.1667,242.5 87.8333,242.5 87.5,242.5C 85.7383,241.528 83.5716,241.528 81,242.5C 75.626,241.703 72.7927,238.536 72.5,233C 73.5804,231.545 73.5804,230.045 72.5,228.5C 71.184,198.163 70.5174,167.83 70.5,137.5C 70.8596,133.483 71.3596,129.483 72,125.5C 72.7234,123.21 73.89,122.21 75.5,122.5C 77.4352,123.15 79.4352,123.483 81.5,123.5C 85.0859,123.622 88.7526,123.288 92.5,122.5C 98.1667,122.5 103.833,122.5 109.5,122.5C 111.5,122.833 113.5,123.167 115.5,123.5C 115.833,124.833 116.167,124.833 116.5,123.5C 116.833,123.5 117.167,123.5 117.5,123.5C 125.849,123.485 133.849,123.152 141.5,122.5C 142.702,123.405 144.036,123.405 145.5,122.5C 152.989,122.769 160.322,122.769 167.5,122.5C 168.798,123.116 169.798,123.116 170.5,122.5C 173.924,122.21 177.257,121.877 180.5,121.5 Z"/></g>
<g><path style="opacity:0.857" fill="#678150" d="M 236.5,122.5 C 236.5,123.167 236.5,123.833 236.5,124.5C 230.373,123.828 224.039,123.495 217.5,123.5C 217.5,122.5 217.5,121.5 217.5,120.5C 221.972,121.597 226.472,121.597 231,120.5C 233.295,120.547 235.129,121.213 236.5,122.5 Z"/></g>
<g><path style="opacity:0.676" fill="#cade9c" d="M 245.5,120.5 C 243.501,134.181 243.167,147.681 244.5,161C 243.627,162.045 242.627,162.878 241.5,163.5C 241.189,149.799 241.689,136.132 243,122.5C 243.708,121.619 244.542,120.953 245.5,120.5 Z"/></g>
<g><path style="opacity:0.801" fill="#6f8856" d="M 253.5,117.5 C 252.87,121.004 252.203,124.504 251.5,128C 252.466,130.933 252.466,133.599 251.5,136C 252.167,137 252.833,138 253.5,139C 250.932,143.55 250.598,148.05 252.5,152.5C 251.285,156.033 251.285,159.699 252.5,163.5C 251.842,164.398 251.176,165.398 250.5,166.5C 249.832,163.694 249.166,161.028 248.5,158.5C 248.213,147.782 248.546,137.115 249.5,126.5C 249.586,125.504 249.252,124.671 248.5,124C 249.167,123.667 249.833,123.333 250.5,123C 249.359,122.259 249.359,121.425 250.5,120.5C 249.675,119.614 248.675,119.281 247.5,119.5C 249.214,118.262 251.214,117.595 253.5,117.5 Z"/></g>
<g><path style="opacity:0.669" fill="#aac083" d="M 253.5,117.5 C 254.179,126.568 254.845,135.735 255.5,145C 255.673,147.827 255.34,150.661 254.5,153.5C 254.657,152.127 254.49,150.793 254,149.5C 253.768,150.737 253.268,151.737 252.5,152.5C 250.598,148.05 250.932,143.55 253.5,139C 252.833,138 252.167,137 251.5,136C 252.466,133.599 252.466,130.933 251.5,128C 252.203,124.504 252.87,121.004 253.5,117.5 Z"/></g>
<g><path style="opacity:0.875" fill="#728b59" d="M 111.5,151.5 C 105.613,151.007 100.946,153.007 97.5,157.5C 98.1667,155.167 98.8333,152.833 99.5,150.5C 103.702,150.183 107.702,150.517 111.5,151.5 Z"/></g>
<g><path style="opacity:0.565" fill="#d5e9a5" d="M 249.5,126.5 C 248.546,137.115 248.213,147.782 248.5,158.5C 248.5,162.167 248.5,165.833 248.5,169.5C 248.5,169.833 248.5,170.167 248.5,170.5C 248.369,176.484 248.369,182.318 248.5,188C 247.906,188.464 247.239,188.631 246.5,188.5C 246.829,168.589 246.829,148.755 246.5,129C 247.191,127.933 247.691,126.766 248,125.5C 248.383,126.056 248.883,126.389 249.5,126.5 Z"/></g>
<g><path style="opacity:0.694" fill="#9bb278" d="M 248.5,158.5 C 249.166,161.028 249.832,163.694 250.5,166.5C 251.176,165.398 251.842,164.398 252.5,163.5C 252.419,172.808 251.419,181.975 249.5,191C 249.933,196.358 250.266,202.192 250.5,208.5C 249.5,208.5 248.5,208.5 247.5,208.5C 247.823,202.31 247.49,196.31 246.5,190.5C 246.5,189.833 246.5,189.167 246.5,188.5C 247.239,188.631 247.906,188.464 248.5,188C 248.369,182.318 248.369,176.484 248.5,170.5C 249.314,172.631 249.814,174.964 250,177.5C 251.057,174.451 251.224,171.451 250.5,168.5C 249.817,168.863 249.15,169.196 248.5,169.5C 248.5,165.833 248.5,162.167 248.5,158.5 Z"/></g>
<g><path style="opacity:0.782" fill="#688251" d="M 248.5,170.5 C 248.5,170.167 248.5,169.833 248.5,169.5C 249.15,169.196 249.817,168.863 250.5,168.5C 251.224,171.451 251.057,174.451 250,177.5C 249.814,174.964 249.314,172.631 248.5,170.5 Z"/></g>
<g><path style="opacity:0.878" fill="#466237" d="M 247.5,119.5 C 247.158,120.338 246.492,120.672 245.5,120.5C 244.542,120.953 243.708,121.619 243,122.5C 241.689,136.132 241.189,149.799 241.5,163.5C 239.389,166.76 239.389,170.26 241.5,174C 240.632,183.345 239.632,192.679 238.5,202C 239.148,207.933 239.814,213.766 240.5,219.5C 240.5,219.833 240.5,220.167 240.5,220.5C 239.563,226.908 238.563,233.241 237.5,239.5C 236.833,239.5 236.167,239.5 235.5,239.5C 235.5,237.833 235.5,236.167 235.5,234.5C 235.492,218.313 235.659,201.98 236,185.5C 236.212,182.242 236.712,179.076 237.5,176C 236.833,163.667 236.167,151.333 235.5,139C 236,138.5 236.5,138 237,137.5C 237.814,132.98 237.647,128.646 236.5,124.5C 236.5,123.833 236.5,123.167 236.5,122.5C 239.749,120.376 243.415,119.376 247.5,119.5 Z"/></g>
<g><path style="opacity:0.841" fill="#4f6b3e" d="M 177.5,180.5 C 177.011,177.676 175.344,176.343 172.5,176.5C 172.36,178.124 173.027,179.29 174.5,180C 173.934,180.995 173.267,181.828 172.5,182.5C 172.38,181.414 171.713,180.747 170.5,180.5C 167.717,181.098 165.051,180.431 162.5,178.5C 161.653,176.939 161.986,175.439 163.5,174C 165.218,173.654 166.885,173.154 168.5,172.5C 174.574,173.141 180.908,173.641 187.5,174C 188.935,176.267 188.602,178.267 186.5,180C 183.518,180.498 180.518,180.665 177.5,180.5 Z"/></g>
<g><path style="opacity:0.871" fill="#4e6a3d" d="M 214.5,182.5 C 213.883,180.32 212.883,178.32 211.5,176.5C 209.246,177.714 208.913,179.381 210.5,181.5C 209.167,180.833 208.167,179.833 207.5,178.5C 207.938,178.565 208.272,178.399 208.5,178C 205.587,174.97 203.42,174.804 202,177.5C 201.035,177.07 200.535,176.404 200.5,175.5C 201.312,174.007 202.645,173.34 204.5,173.5C 207.131,173.782 209.631,174.449 212,175.5C 212.333,174.833 212.667,174.167 213,173.5C 215.279,176.366 215.779,179.366 214.5,182.5 Z"/></g>
<g><path style="opacity:0.91" fill="#476338" d="M 111.5,151.5 C 112.93,151.421 114.264,151.754 115.5,152.5C 117.347,163.427 118.347,174.427 118.5,185.5C 118.5,185.833 118.5,186.167 118.5,186.5C 111.587,187.592 104.421,187.592 97,186.5C 95.7582,188.541 93.9249,189.707 91.5,190C 91.8333,190.333 92.1667,190.667 92.5,191C 96.6877,191.176 100.688,191.676 104.5,192.5C 99.4889,192.334 94.4889,192.501 89.5,193C 90.009,195.57 91.009,197.903 92.5,200C 91.7785,202.741 90.1118,203.741 87.5,203C 85.3457,198.907 84.0123,194.574 83.5,190C 84.3757,188.415 85.7091,187.415 87.5,187C 90.146,186.503 92.8127,186.336 95.5,186.5C 96.7619,176.879 97.4286,167.213 97.5,157.5C 100.946,153.007 105.613,151.007 111.5,151.5 Z"/></g>
<g><path style="opacity:0.594" fill="#d8eca7" d="M 102.5,155.5 C 105.833,155.5 109.167,155.5 112.5,155.5C 112.437,164.922 112.937,174.255 114,183.5C 113.5,184.667 112.667,185.5 111.5,186C 107.848,186.499 104.182,186.665 100.5,186.5C 101.461,176.187 102.127,165.854 102.5,155.5 Z"/></g>
<g><path style="opacity:0.929" fill="#3e5a30" d="M 141.5,172.5 C 145.858,173.162 150.025,173.495 154,173.5C 154.052,179.802 154.719,186.135 156,192.5C 156.557,194.615 157.391,196.615 158.5,198.5C 155.767,200.753 153.6,200.086 152,196.5C 148.917,197.952 145.917,198.952 143,199.5C 133.422,197.887 129.755,192.22 132,182.5C 134.624,178.615 137.79,175.281 141.5,172.5 Z"/></g>
<g><path style="opacity:0.535" fill="#d8eba6" d="M 143.5,177.5 C 145.991,177.829 148.157,178.829 150,180.5C 149.681,182.743 149.848,184.91 150.5,187C 149.005,192.807 145.339,194.807 139.5,193C 138.313,191.981 137.313,190.814 136.5,189.5C 136.404,183.961 138.738,179.961 143.5,177.5 Z"/></g>
<g><path style="opacity:0.804" fill="#8da46d" d="M 247.5,119.5 C 248.675,119.281 249.675,119.614 250.5,120.5C 249.359,121.425 249.359,122.259 250.5,123C 249.833,123.333 249.167,123.667 248.5,124C 249.252,124.671 249.586,125.504 249.5,126.5C 248.883,126.389 248.383,126.056 248,125.5C 247.691,126.766 247.191,127.933 246.5,129C 246.829,148.755 246.829,168.589 246.5,188.5C 246.5,189.167 246.5,189.833 246.5,190.5C 246.262,196.31 244.595,196.81 241.5,192C 242.833,190.16 242.666,189.66 241,190.5C 240.176,193.882 240.343,197.216 241.5,200.5C 242.429,199.311 242.762,197.978 242.5,196.5C 243.5,196.5 244.5,196.5 245.5,196.5C 245.83,201.484 245.83,206.317 245.5,211C 245.833,212.167 246.167,213.333 246.5,214.5C 247.167,212.833 247.833,211.167 248.5,209.5C 250.062,212.963 250.895,216.63 251,220.5C 251.383,221.056 251.883,221.389 252.5,221.5C 252.702,223.989 252.202,226.323 251,228.5C 248.48,230.946 245.98,233.279 243.5,235.5C 243.249,233.83 242.582,232.33 241.5,231C 242.818,221.227 242.818,211.394 241.5,201.5C 240.504,207.463 240.171,213.463 240.5,219.5C 239.814,213.766 239.148,207.933 238.5,202C 239.632,192.679 240.632,183.345 241.5,174C 239.389,170.26 239.389,166.76 241.5,163.5C 242.627,162.878 243.627,162.045 244.5,161C 243.167,147.681 243.501,134.181 245.5,120.5C 246.492,120.672 247.158,120.338 247.5,119.5 Z"/></g>
<g><path style="opacity:0.757" fill="#8da46d" d="M 127.5,187.5 C 124.57,186.701 121.57,186.368 118.5,186.5C 118.5,186.167 118.5,185.833 118.5,185.5C 122.095,183.817 125.095,184.483 127.5,187.5 Z"/></g>
<g><path style="opacity:0.919" fill="#324e27" d="M 118.5,186.5 C 120.369,187.165 122.369,187.831 124.5,188.5C 123.66,189.735 122.66,190.735 121.5,191.5C 115.741,191.214 110.075,191.548 104.5,192.5C 100.688,191.676 96.6877,191.176 92.5,191C 92.1667,190.667 91.8333,190.333 91.5,190C 93.9249,189.707 95.7582,188.541 97,186.5C 104.421,187.592 111.587,187.592 118.5,186.5 Z"/></g>
<g><path style="opacity:0.889" fill="#38542c" d="M 177.5,180.5 C 177.5,186.833 177.5,193.167 177.5,199.5C 175.856,199.714 174.356,199.38 173,198.5C 172.501,193.177 172.334,187.844 172.5,182.5C 173.267,181.828 173.934,180.995 174.5,180C 173.027,179.29 172.36,178.124 172.5,176.5C 175.344,176.343 177.011,177.676 177.5,180.5 Z"/></g>
<g><path style="opacity:0.924" fill="#486438" d="M 118.5,186.5 C 121.57,186.368 124.57,186.701 127.5,187.5C 130.21,192.376 129.876,197.043 126.5,201.5C 125.391,202.59 124.391,202.59 123.5,201.5C 121.922,198.063 122.255,194.896 124.5,192C 123.552,191.517 122.552,191.351 121.5,191.5C 122.66,190.735 123.66,189.735 124.5,188.5C 122.369,187.831 120.369,187.165 118.5,186.5 Z"/></g>
<g><path style="opacity:0.919" fill="#405c32" d="M 200.5,175.5 C 200.535,176.404 201.035,177.07 202,177.5C 203.42,174.804 205.587,174.97 208.5,178C 208.272,178.399 207.938,178.565 207.5,178.5C 199.728,179.375 196.228,183.708 197,191.5C 199.559,194.349 202.726,195.183 206.5,194C 208.578,192.514 209.911,190.514 210.5,188C 209.667,185.919 209.667,183.752 210.5,181.5C 208.913,179.381 209.246,177.714 211.5,176.5C 212.883,178.32 213.883,180.32 214.5,182.5C 215.114,186.135 215.448,189.802 215.5,193.5C 215.532,195.619 214.532,196.952 212.5,197.5C 207.181,199.716 201.848,200.216 196.5,199C 190.166,192.482 189.833,185.649 195.5,178.5C 197.029,177.237 198.695,176.237 200.5,175.5 Z"/></g>
<g><path style="opacity:0.622" fill="#d7eaa6" d="M 207.5,178.5 C 208.167,179.833 209.167,180.833 210.5,181.5C 209.667,183.752 209.667,185.919 210.5,188C 209.911,190.514 208.578,192.514 206.5,194C 202.726,195.183 199.559,194.349 197,191.5C 196.228,183.708 199.728,179.375 207.5,178.5 Z"/></g>
<g><path style="opacity:0.929" fill="#627c4c" d="M 215.5,193.5 C 216.642,195.374 217.975,197.207 219.5,199C 218.421,199.956 217.255,200.789 216,201.5C 214.471,200.343 213.304,199.009 212.5,197.5C 214.532,196.952 215.532,195.619 215.5,193.5 Z"/></g>
<g><path style="opacity:0.658" fill="#c9dd9b" d="M 254.5,153.5 C 254.667,174.836 254.5,196.169 254,217.5C 253.209,218.745 252.709,220.078 252.5,221.5C 251.883,221.389 251.383,221.056 251,220.5C 250.895,216.63 250.062,212.963 248.5,209.5C 247.833,211.167 247.167,212.833 246.5,214.5C 246.167,213.333 245.833,212.167 245.5,211C 245.83,206.317 245.83,201.484 245.5,196.5C 244.5,196.5 243.5,196.5 242.5,196.5C 242.762,197.978 242.429,199.311 241.5,200.5C 240.343,197.216 240.176,193.882 241,190.5C 242.666,189.66 242.833,190.16 241.5,192C 244.595,196.81 246.262,196.31 246.5,190.5C 247.49,196.31 247.823,202.31 247.5,208.5C 248.5,208.5 249.5,208.5 250.5,208.5C 250.266,202.192 249.933,196.358 249.5,191C 251.419,181.975 252.419,172.808 252.5,163.5C 251.285,159.699 251.285,156.033 252.5,152.5C 253.268,151.737 253.768,150.737 254,149.5C 254.49,150.793 254.657,152.127 254.5,153.5 Z"/></g>
<g><path style="opacity:0.004" fill="#1e3d18" d="M 65.5,200.5 C 64.8333,201.167 64.8333,201.167 65.5,200.5 Z"/></g>
<g><path style="opacity:0.645" fill="#cee29f" d="M 243.5,235.5 C 242.833,236.167 242.167,236.833 241.5,237.5C 240.624,237.631 239.957,237.298 239.5,236.5C 240.25,231.438 240.584,226.105 240.5,220.5C 240.5,220.167 240.5,219.833 240.5,219.5C 240.171,213.463 240.504,207.463 241.5,201.5C 242.818,211.394 242.818,221.227 241.5,231C 242.582,232.33 243.249,233.83 243.5,235.5 Z"/></g>
<g><path style="opacity:0.935" fill="#607a4a" d="M 240.5,220.5 C 240.584,226.105 240.25,231.438 239.5,236.5C 239.957,237.298 240.624,237.631 241.5,237.5C 240.713,239.104 239.38,239.771 237.5,239.5C 238.563,233.241 239.563,226.908 240.5,220.5 Z"/></g>
<g><path style="opacity:0.004" fill="#1e3d18" d="M 255.5,236.5 C 256.833,237.167 256.833,237.167 255.5,236.5 Z"/></g>
<g><path style="opacity:0.851" fill="#738c59" d="M 235.5,234.5 C 235.5,236.167 235.5,237.833 235.5,239.5C 235.158,240.338 234.492,240.672 233.5,240.5C 234.048,238.374 234.715,236.374 235.5,234.5 Z"/></g>
<g><path style="opacity:0.008" fill="#1e3d18" d="M 252.5,238.5 C 253.833,239.167 253.833,239.167 252.5,238.5 Z"/></g>
<g><path style="opacity:0.004" fill="#1e3d18" d="M 67.5,241.5 C 66.8333,240.167 66.8333,240.167 67.5,241.5 Z"/></g>
<g><path style="opacity:0.004" fill="#1e3d18" d="M 250.5,240.5 C 251.833,241.167 251.833,241.167 250.5,240.5 Z"/></g>
<g><path style="opacity:0.004" fill="#1e3d18" d="M 249.5,241.5 C 249.833,241.5 250.167,241.5 250.5,241.5C 250.315,242.17 249.981,242.17 249.5,241.5 Z"/></g>
<g><path style="opacity:0.792" fill="#859d67" d="M 100.5,242.5 C 100.833,243.167 101.167,243.833 101.5,244.5C 96.9515,244.376 92.6181,243.709 88.5,242.5C 92.775,241.294 96.775,241.294 100.5,242.5 Z"/></g>
<g><path style="opacity:0.855" fill="#708957" d="M 194.5,242.5 C 194.082,243.222 193.416,243.722 192.5,244C 193.737,244.232 194.737,244.732 195.5,245.5C 192.721,245.279 190.054,245.612 187.5,246.5C 184.301,245.909 181.134,244.909 178,243.5C 175.284,245.138 172.451,246.471 169.5,247.5C 169.167,247.5 168.833,247.5 168.5,247.5C 166.605,245.902 164.438,244.568 162,243.5C 161.309,245.891 160.309,245.891 159,243.5C 158.333,246.167 157.667,246.167 157,243.5C 155.605,244.43 154.105,244.43 152.5,243.5C 150.971,243.529 149.804,244.196 149,245.5C 148.517,244.552 148.351,243.552 148.5,242.5C 163.425,241.67 178.759,241.67 194.5,242.5 Z"/></g>
<g><path style="opacity:0.765" fill="#a7bd82" d="M 203.5,244.5 C 200.889,245.118 198.223,245.451 195.5,245.5C 194.737,244.732 193.737,244.232 192.5,244C 193.416,243.722 194.082,243.222 194.5,242.5C 194.435,242.062 194.601,241.728 195,241.5C 197.907,242.431 200.74,243.431 203.5,244.5 Z"/></g>
<g><path style="opacity:0.761" fill="#577244" d="M 231.5,242.5 C 230.426,244.216 228.759,245.216 226.5,245.5C 222.906,244.574 219.24,244.241 215.5,244.5C 220.616,243.194 225.949,242.527 231.5,242.5 Z"/></g>
<g><path style="opacity:0.004" fill="#1e3d18" d="M 68.5,245.5 C 67.8333,246.167 67.8333,246.167 68.5,245.5 Z"/></g>
<g><path style="opacity:0.773" fill="#496539" d="M 72.5,228.5 C 73.5804,230.045 73.5804,231.545 72.5,233C 72.7927,238.536 75.626,241.703 81,242.5C 83.5716,241.528 85.7383,241.528 87.5,242.5C 86.3398,243.265 85.3398,244.265 84.5,245.5C 85.9989,246.904 85.6656,247.57 83.5,247.5C 81.5448,246.547 79.8782,245.213 78.5,243.5C 76.7763,244.661 75.1096,244.495 73.5,243C 71.5658,238.143 71.2325,233.309 72.5,228.5 Z"/></g>
<g><path style="opacity:0.885" fill="#445f35" d="M 100.5,242.5 C 111.767,243.048 122.933,243.715 134,244.5C 138.4,243.091 143.233,242.424 148.5,242.5C 148.351,243.552 148.517,244.552 149,245.5C 149.804,244.196 150.971,243.529 152.5,243.5C 154.105,244.43 155.605,244.43 157,243.5C 157.667,246.167 158.333,246.167 159,243.5C 160.309,245.891 161.309,245.891 162,243.5C 164.438,244.568 166.605,245.902 168.5,247.5C 166.109,247.763 163.442,248.43 160.5,249.5C 147.429,247.259 134.596,247.592 122,250.5C 114.868,249.368 108.034,247.368 101.5,244.5C 101.167,243.833 100.833,243.167 100.5,242.5 Z"/></g>
<g><path style="opacity:0.855" fill="#3f5b31" d="M 187.5,246.5 C 183.241,246.003 179.241,246.669 175.5,248.5C 175.167,247.833 174.833,247.167 174.5,246.5C 173.035,248.424 171.368,248.757 169.5,247.5C 172.451,246.471 175.284,245.138 178,243.5C 181.134,244.909 184.301,245.909 187.5,246.5 Z"/></g>
<g><path style="opacity:0.004" fill="#1e3d18" d="M 238.5,246.5 C 239.833,247.167 239.833,247.167 238.5,246.5 Z"/></g>
<g><path style="opacity:0.004" fill="#1e3d18" d="M 69.5,247.5 C 68.8333,248.167 68.8333,248.167 69.5,247.5 Z"/></g>
<g><path style="opacity:0.004" fill="#1e3d18" d="M 71.5,248.5 C 70.8333,249.167 70.8333,249.167 71.5,248.5 Z"/></g>
<g><path style="opacity:0.004" fill="#1e3d18" d="M 77.5,249.5 C 77.8333,249.5 78.1667,249.5 78.5,249.5C 78.3147,250.17 77.9813,250.17 77.5,249.5 Z"/></g>
<g><path style="opacity:0.004" fill="#1e3d18" d="M 97.5,251.5 C 96.8333,252.167 96.8333,252.167 97.5,251.5 Z"/></g>
<g><path style="opacity:0.004" fill="#1e3d18" d="M 200.5,251.5 C 200.833,251.5 201.167,251.5 201.5,251.5C 201.315,252.17 200.981,252.17 200.5,251.5 Z"/></g>
<g><path style="opacity:0.004" fill="#1e3d18" d="M 137.5,252.5 C 136.833,253.167 136.833,253.167 137.5,252.5 Z"/></g>
</svg>
