<?xml version="1.0" encoding="UTF-8"?>
<!DOCTYPE svg PUBLIC "-//W3C//DTD SVG 1.1//EN" "http://www.w3.org/Graphics/SVG/1.1/DTD/svg11.dtd">
<svg xmlns="http://www.w3.org/2000/svg" version="1.1" width="301px" height="298px" style="shape-rendering:geometricPrecision; text-rendering:geometricPrecision; image-rendering:optimizeQuality; fill-rule:evenodd; clip-rule:evenodd" xmlns:xlink="http://www.w3.org/1999/xlink">
<g><path style="opacity:0.652" fill="#1e3d18" d="M 144.5,63.5 C 163.487,62.895 180.487,69.0617 195.5,82C 198.465,86.1042 201.299,90.2708 204,94.5C 208.043,109.571 209.043,124.571 207,139.5C 203.604,151.468 197.771,161.968 189.5,171C 182.934,174.724 176.101,176.557 169,176.5C 166.137,179.17 163.303,179.837 160.5,178.5C 158.44,180.892 156.273,180.892 154,178.5C 149.555,179.304 145.222,179.637 141,179.5C 138.332,177.55 135.498,177.217 132.5,178.5C 123.019,176.79 114.685,172.79 107.5,166.5C 94.6913,151.233 88.3579,133.733 88.5,114C 89.7748,111.612 90.1081,109.278 89.5,107C 90.3084,104.239 91.3084,101.572 92.5,99C 92.1667,98.6667 91.8333,98.3333 91.5,98C 103.616,77.6747 121.283,66.1747 144.5,63.5 Z"/></g>
<g><path style="opacity:0.709" fill="#1e3d18" d="M 142.5,192.5 C 159.133,191.499 175.133,193.999 190.5,200C 198.059,203.228 205.392,206.894 212.5,211C 227.645,224.479 241.812,238.979 255,254.5C 255.804,258.376 256.804,262.043 258,265.5C 255.436,267.077 252.603,268.077 249.5,268.5C 242.746,268.688 236.246,268.688 230,268.5C 229.333,269.167 228.667,269.833 228,270.5C 223.819,270.498 219.653,270.164 215.5,269.5C 214.522,269.977 213.689,270.643 213,271.5C 204.236,270.724 195.57,270.39 187,270.5C 182.531,270.978 178.198,271.978 174,273.5C 172.915,272.707 171.748,272.04 170.5,271.5C 167.298,272.127 164.131,272.794 161,273.5C 153.517,272.986 145.851,272.319 138,271.5C 118.017,272.874 98.0168,273.874 78,274.5C 74.7196,273.754 71.3862,273.087 68,272.5C 62.2184,272.641 56.5517,272.975 51,273.5C 47.1466,271.364 46.8133,269.031 50,266.5C 55.0121,251.312 63.8454,238.812 76.5,229C 76.1667,228.667 75.8333,228.333 75.5,228C 88.153,217.567 101.486,208.233 115.5,200C 121.461,198.115 127.294,195.948 133,193.5C 133.414,193.957 133.914,194.291 134.5,194.5C 137.311,193.92 139.977,193.254 142.5,192.5 Z"/></g>
</svg>
