<?xml version="1.0" encoding="UTF-8"?>
<!DOCTYPE svg PUBLIC "-//W3C//DTD SVG 1.1//EN" "http://www.w3.org/Graphics/SVG/1.1/DTD/svg11.dtd">
<svg xmlns="http://www.w3.org/2000/svg" version="1.1" width="301px" height="298px" style="shape-rendering:geometricPrecision; text-rendering:geometricPrecision; image-rendering:optimizeQuality; fill-rule:evenodd; clip-rule:evenodd" xmlns:xlink="http://www.w3.org/1999/xlink">
<g><path style="opacity:0.615" fill="#1e3d18" d="M 242.5,257.5 C 241.778,257.918 241.278,258.584 241,259.5C 239,259.5 237,259.5 235,259.5C 233.488,260.257 232.154,261.257 231,262.5C 228.267,260.109 225.6,260.109 223,262.5C 218.445,261.586 213.278,261.919 207.5,263.5C 204.044,263.377 200.544,263.377 197,263.5C 193.491,261.567 190.158,261.567 187,263.5C 184.599,262.534 181.933,262.534 179,263.5C 177.667,262.833 176.333,262.167 175,261.5C 171.691,262.251 168.357,263.251 165,264.5C 164,263.833 163,263.167 162,262.5C 159,263.167 156,263.833 153,264.5C 145.526,264.406 137.692,264.406 129.5,264.5C 127.618,263.907 125.785,263.24 124,262.5C 117.897,263.263 111.897,263.596 106,263.5C 105.333,262.833 104.667,262.167 104,261.5C 99.9458,262.328 95.9458,262.661 92,262.5C 91.6924,261.692 91.1924,261.025 90.5,260.5C 86.5,260.833 82.5,261.167 78.5,261.5C 72.7693,260.384 67.6026,258.051 63,254.5C 58.3506,246.386 55.184,237.72 53.5,228.5C 53.3851,221.696 53.3851,215.196 53.5,209C 52.3638,200.549 51.3638,191.882 50.5,183C 50.8333,182.667 51.1667,182.333 51.5,182C 50.7342,160.915 50.0675,139.915 49.5,119C 55.9871,108.169 63.6537,98.1689 72.5,89C 88.395,75.8098 104.062,61.4765 119.5,46C 129.667,37.8333 139.833,29.6667 150,21.5C 156.299,23.7963 162.132,26.963 167.5,31C 180.558,44.5496 194.892,56.7163 210.5,67.5C 218.024,73.8617 225.357,80.3617 232.5,87C 233.5,87.3333 234.5,87.6667 235.5,88C 239.559,93.9688 243.726,99.8022 248,105.5C 249.987,112.96 252.487,120.293 255.5,127.5C 254.371,131.474 254.705,135.64 256.5,140C 256.234,147.59 255.901,154.59 255.5,161C 256.167,163.667 256.833,166.333 257.5,169C 256.393,178.892 256.393,189.225 257.5,200C 256.74,201.441 256.074,202.941 255.5,204.5C 256.889,213.937 256.222,223.437 253.5,233C 253.924,236.607 253.924,240.44 253.5,244.5C 251.394,247.269 249.727,250.269 248.5,253.5C 246.435,254.857 244.435,256.19 242.5,257.5 Z M 133.5,144.5 C 138.442,145.203 143.275,145.537 148,145.5C 148.667,153.5 148.667,161.5 148,169.5C 146.34,169.676 144.674,169.009 143,167.5C 135.583,168.446 127.916,168.446 120,167.5C 117.532,169.65 115.699,169.484 114.5,167C 115.274,163.228 115.94,159.395 116.5,155.5C 115.805,151.287 117.638,148.287 122,146.5C 123.398,147.051 124.732,147.384 126,147.5C 128.378,146.033 130.878,145.033 133.5,144.5 Z M 159.5,144.5 C 166.206,144.448 172.872,144.948 179.5,146C 185.336,149.666 188.336,154.999 188.5,162C 188.906,163.803 188.406,165.636 187,167.5C 182.224,168.612 177.39,168.612 172.5,167.5C 167.833,168.167 163.167,168.833 158.5,169.5C 157.615,161.741 157.282,154.074 157.5,146.5C 158.243,145.818 158.909,145.151 159.5,144.5 Z M 116.5,179.5 C 122.593,180.718 128.593,180.718 134.5,179.5C 137.299,181.731 139.966,181.731 142.5,179.5C 143.748,180.04 144.915,180.707 146,181.5C 146.914,180.346 147.747,180.513 148.5,182C 147.309,188.784 147.309,195.784 148.5,203C 143.508,203.329 138.674,203.495 134,203.5C 119.615,201.73 113.782,193.73 116.5,179.5 Z M 176.5,180.5 C 178.03,181.067 179.53,181.733 181,182.5C 182.667,182.5 184.333,182.5 186,182.5C 187.712,187.108 187.879,191.775 186.5,196.5C 180.617,198.691 174.784,201.024 169,203.5C 165.247,201.528 161.413,201.195 157.5,202.5C 156.571,197.811 156.238,193.478 156.5,189.5C 157.213,187.224 157.713,184.891 158,182.5C 163.52,181.688 169.187,181.688 175,182.5C 175.717,181.956 176.217,181.289 176.5,180.5 Z"/></g>
<g><path style="opacity:0.004" fill="#1e3d18" d="M 242.5,257.5 C 243.833,258.167 243.833,258.167 242.5,257.5 Z"/></g>
</svg>
