<?xml version="1.0" encoding="UTF-8"?>
<!DOCTYPE svg PUBLIC "-//W3C//DTD SVG 1.1//EN" "http://www.w3.org/Graphics/SVG/1.1/DTD/svg11.dtd">
<svg xmlns="http://www.w3.org/2000/svg" version="1.1" width="651px" height="253px" style="shape-rendering:geometricPrecision; text-rendering:geometricPrecision; image-rendering:optimizeQuality; fill-rule:evenodd; clip-rule:evenodd" xmlns:xlink="http://www.w3.org/1999/xlink">
<g><path style="opacity:0.818" fill="#1f3d19" d="M 390.5,80.5 C 393.366,80.9545 396.699,81.1212 400.5,81C 402.137,82.951 403.637,82.7843 405,80.5C 406.908,82.9065 408.908,82.9065 411,80.5C 412.649,81.8977 413.982,81.5644 415,79.5C 416.715,79.5197 418.548,80.1864 420.5,81.5C 421.425,80.3595 422.259,80.3595 423,81.5C 423.667,80.8333 424.333,80.1667 425,79.5C 427.471,80.4011 429.971,81.4011 432.5,82.5C 434.042,81.2532 435.542,81.2532 437,82.5C 437.667,81.8333 438.333,81.1667 439,80.5C 440.873,79.9109 442.54,80.5776 444,82.5C 444.333,81.8333 444.667,81.1667 445,80.5C 445.667,81.8333 446.333,81.8333 447,80.5C 449.081,81.2146 451.247,82.2146 453.5,83.5C 455.706,81.496 457.872,81.1627 460,82.5C 461.512,81.7433 462.846,80.7433 464,79.5C 466.034,81.0316 468.201,82.3649 470.5,83.5C 471.748,82.9598 472.915,82.2931 474,81.5C 474.674,82.5784 475.674,83.2451 477,83.5C 478.865,83.2945 480.532,82.6278 482,81.5C 482.902,81.7432 483.735,82.0766 484.5,82.5C 486.398,83.485 487.898,82.8183 489,80.5C 489.708,81.3805 490.542,82.0472 491.5,82.5C 492.664,85.5785 494.164,85.9118 496,83.5C 499.039,84.966 501.872,84.6327 504.5,82.5C 507.188,84.1194 510.021,85.4527 513,86.5C 513.974,84.1224 514.641,84.4557 515,87.5C 518.042,84.918 521.042,84.918 524,87.5C 527.749,84.8278 530.416,85.8278 532,90.5C 533.667,87.8333 535.333,87.8333 537,90.5C 537.667,89.8333 538.333,89.1667 539,88.5C 539.741,89.6405 540.575,89.6405 541.5,88.5C 542.696,88.8457 542.696,89.3457 541.5,90C 543.112,90.7203 544.612,90.5536 546,89.5C 547.529,90.7287 548.696,92.2287 549.5,94C 552.057,95.1186 554.557,95.2853 557,94.5C 558,95.8333 559,97.1667 560,98.5C 560.914,97.3463 561.747,97.513 562.5,99C 562.167,99.3333 561.833,99.6667 561.5,100C 564.102,100.935 565.602,102.768 566,105.5C 566.414,105.043 566.914,104.709 567.5,104.5C 570.227,107.03 572.393,109.363 574,111.5C 574.21,112.803 574.043,114.136 573.5,115.5C 573.818,116.647 574.484,117.481 575.5,118C 574.748,118.671 574.414,119.504 574.5,120.5C 574.453,122.178 574.12,124.011 573.5,126C 573.639,127.301 574.305,128.134 575.5,128.5C 576.429,129.315 577.429,130.148 578.5,131C 574.908,133.971 574.575,137.304 577.5,141C 573.709,144.183 570.042,147.516 566.5,151C 566.833,151.333 567.167,151.667 567.5,152C 565.566,153.562 563.899,155.395 562.5,157.5C 560.994,158.747 559.494,158.747 558,157.5C 556.245,160.044 554.245,162.377 552,164.5C 551.667,164.167 551.333,163.833 551,163.5C 547.129,164.983 543.295,166.649 539.5,168.5C 537.837,167.125 536.503,167.458 535.5,169.5C 534.914,169.291 534.414,168.957 534,168.5C 533.221,169.728 532.221,170.728 531,171.5C 526.963,168.576 523.297,168.91 520,172.5C 517.608,171.575 514.942,171.241 512,171.5C 510.667,174.167 509.333,174.167 508,171.5C 506.559,172.26 505.059,172.926 503.5,173.5C 500.5,173.5 497.5,173.5 494.5,173.5C 493.808,172.975 493.308,172.308 493,171.5C 490.137,172.602 487.304,173.602 484.5,174.5C 483.167,173.167 481.833,173.167 480.5,174.5C 479.522,174.023 478.689,173.357 478,172.5C 477.581,173.672 476.915,174.672 476,175.5C 473.756,173.006 471.423,173.006 469,175.5C 466.724,172.936 464.724,173.27 463,176.5C 462.196,175.196 461.029,174.529 459.5,174.5C 455.542,174.396 451.875,175.063 448.5,176.5C 448.167,175.167 447.833,175.167 447.5,176.5C 446.312,175.316 445.145,175.316 444,176.5C 443,175.833 442,175.167 441,174.5C 439.384,175.545 437.717,176.545 436,177.5C 435.259,176.359 434.425,176.359 433.5,177.5C 432.808,176.975 432.308,176.308 432,175.5C 429.405,175.003 426.905,175.67 424.5,177.5C 422.002,174.809 419.835,175.142 418,178.5C 416.518,176.219 414.851,176.219 413,178.5C 411.108,177.87 409.441,176.87 408,175.5C 406.667,176.833 405.333,176.833 404,175.5C 402.333,178.167 400.667,178.167 399,175.5C 393.381,176.646 388.048,176.646 383,175.5C 382.333,176.167 381.667,176.833 381,177.5C 379.111,176.903 377.278,176.569 375.5,176.5C 373.41,179.009 371.577,178.675 370,175.5C 369,176.5 368,177.5 367,178.5C 366.292,177.619 365.458,176.953 364.5,176.5C 364.167,175.167 363.833,175.167 363.5,176.5C 360.03,175.875 357.196,176.875 355,179.5C 354.333,178.833 353.667,178.167 353,177.5C 351.667,177.5 350.333,177.5 349,177.5C 346.672,179.438 344.339,179.105 342,176.5C 339.227,178.047 336.227,179.047 333,179.5C 328.236,179.435 323.403,179.435 318.5,179.5C 316.405,177.411 314.572,177.411 313,179.5C 311.57,179.694 310.07,179.694 308.5,179.5C 306.139,181.564 303.806,181.23 301.5,178.5C 298.668,180.647 296.001,180.647 293.5,178.5C 291.039,179.264 288.539,180.264 286,181.5C 284.622,179.787 282.955,178.453 281,177.5C 279.266,179.451 277.099,180.451 274.5,180.5C 273.516,177.93 272.349,177.93 271,180.5C 270.692,179.692 270.192,179.025 269.5,178.5C 267.724,178.718 265.891,178.718 264,178.5C 260.666,181.338 257.666,181.004 255,177.5C 253.321,180.699 251.321,181.033 249,178.5C 246.733,179.935 244.733,179.602 243,177.5C 241.667,178.833 240.333,180.167 239,181.5C 237.192,181.112 235.525,181.112 234,181.5C 233,180.5 232,179.5 231,178.5C 230.646,180.807 229.646,181.141 228,179.5C 226.739,179.759 225.739,180.426 225,181.5C 222.333,180.167 219.667,180.167 217,181.5C 215.488,180.743 214.154,179.743 213,178.5C 210.808,180.737 208.308,181.404 205.5,180.5C 204.167,181.167 202.833,181.833 201.5,182.5C 200.494,182.062 200.494,181.396 201.5,180.5C 200.675,179.614 199.675,179.281 198.5,179.5C 198.167,178.167 197.833,178.167 197.5,179.5C 195.139,180.9 192.805,181.9 190.5,182.5C 189.033,181.305 187.533,181.305 186,182.5C 184.278,182.389 184.112,181.889 185.5,181C 183.899,180.727 182.399,180.227 181,179.5C 180.667,179.833 180.333,180.167 180,180.5C 179.779,177.057 178.779,176.724 177,179.5C 176.667,179.167 176.333,178.833 176,178.5C 173.903,179.991 171.57,180.991 169,181.5C 168.646,179.193 167.646,178.859 166,180.5C 164.532,179.372 162.865,178.706 161,178.5C 154.437,179.256 147.937,179.589 141.5,179.5C 138.947,176.956 136.447,176.956 134,179.5C 133.517,178.552 133.351,177.552 133.5,176.5C 132.5,176.5 131.5,176.5 130.5,176.5C 130.167,175.167 129.833,175.167 129.5,176.5C 126.857,176.858 124.19,177.191 121.5,177.5C 120.201,176.91 119.368,175.91 119,174.5C 118,175.5 117,176.5 116,177.5C 115.309,175.109 114.309,175.109 113,177.5C 112.632,176.09 111.799,175.09 110.5,174.5C 107.754,175.81 104.754,176.477 101.5,176.5C 99.5469,175.976 97.8802,174.976 96.5,173.5C 96.0024,174.603 95.6691,175.603 95.5,176.5C 93.7143,174.979 91.881,174.646 90,175.5C 89,174.167 88,172.833 87,171.5C 86.586,171.957 86.086,172.291 85.5,172.5C 83.9713,171.237 82.3046,170.237 80.5,169.5C 80.1583,168.662 79.4916,168.328 78.5,168.5C 77.1155,167.199 75.6155,167.199 74,168.5C 73.5172,167.552 73.3505,166.552 73.5,165.5C 70.8915,165.394 68.8915,164.228 67.5,162C 68.4428,159.625 68.7762,156.959 68.5,154C 67.536,152.036 66.2026,150.37 64.5,149C 65.2442,146.845 66.2442,144.845 67.5,143C 67.2614,141.219 66.9281,139.386 66.5,137.5C 67.0253,136.808 67.6919,136.308 68.5,136C 67.624,134.414 66.624,132.914 65.5,131.5C 66.8905,131.891 67.8905,131.058 68.5,129C 65.9041,127.203 66.2374,125.869 69.5,125C 68.5004,122.909 69.1671,121.243 71.5,120C 71.0426,119.586 70.7093,119.086 70.5,118.5C 71.5,117.667 72.5,116.833 73.5,116C 71.7223,111.849 73.3889,109.349 78.5,108.5C 79.5533,105.921 80.8866,103.421 82.5,101C 85.4245,100.012 88.4245,99.3457 91.5,99C 90.1118,98.1107 90.2785,97.6107 92,97.5C 94.0709,98.6673 95.5709,98.0006 96.5,95.5C 97.9621,96.4709 99.2954,96.1376 100.5,94.5C 103.987,93.3203 107.487,93.3203 111,94.5C 112.616,93.4552 114.283,92.4552 116,91.5C 117.333,94.1667 118.667,94.1667 120,91.5C 121.813,91.5934 123.646,91.9267 125.5,92.5C 127.029,92.4712 128.196,91.8045 129,90.5C 131.608,92.1818 134.275,92.8484 137,92.5C 138.697,88.9174 140.863,88.584 143.5,91.5C 147.201,91.0302 150.534,89.6969 153.5,87.5C 156.819,89.7769 159.985,90.1102 163,88.5C 164.316,91.028 165.483,91.028 166.5,88.5C 168.55,88.7437 170.55,89.077 172.5,89.5C 172.783,90.2891 173.283,90.9558 174,91.5C 175.57,90.386 176.903,89.0526 178,87.5C 178.333,87.8333 178.667,88.1667 179,88.5C 180.775,85.9557 182.608,85.9557 184.5,88.5C 185.333,87.5 186.167,86.5 187,85.5C 189.244,87.9938 191.577,87.9938 194,85.5C 195.268,85.6158 196.602,85.9491 198,86.5C 199.874,84.2241 201.541,84.5575 203,87.5C 203.915,86.6721 204.581,85.6721 205,84.5C 208.677,85.5206 212.343,86.5206 216,87.5C 219.873,84.5592 224.04,83.8925 228.5,85.5C 230.332,84.7515 231.999,83.7515 233.5,82.5C 234.719,83.2634 235.719,84.2634 236.5,85.5C 237.814,84.6872 238.981,83.6872 240,82.5C 242,85.1667 244,85.1667 246,82.5C 247.309,84.8912 248.309,84.8912 249,82.5C 251.336,85.3552 253.169,85.0218 254.5,81.5C 256.098,83.9734 257.598,83.9734 259,81.5C 260.912,82.6919 262.912,83.6919 265,84.5C 267.203,81.0797 269.703,80.4131 272.5,82.5C 272.897,83.525 273.563,83.6917 274.5,83C 275.791,78.9317 277.958,78.4317 281,81.5C 283.667,80.8333 286.333,80.1667 289,79.5C 290.333,80.1667 291.333,81.1667 292,82.5C 293,81.1667 294,81.1667 295,82.5C 297.737,78.3068 300.57,77.9735 303.5,81.5C 304.814,80.6872 305.981,79.6872 307,78.5C 309.762,79.9806 312.429,81.6473 315,83.5C 316,82.5 317,81.5 318,80.5C 319,80.8333 320,81.1667 321,81.5C 321.333,80.8333 321.667,80.1667 322,79.5C 324.575,80.5886 327.241,80.5886 330,79.5C 330.689,80.3567 331.522,81.0233 332.5,81.5C 336.25,78.4124 340.084,78.0791 344,80.5C 347.132,77.5797 349.799,77.913 352,81.5C 353.117,79.8757 354.617,78.8757 356.5,78.5C 359.326,79.5796 362.159,80.5796 365,81.5C 366,80.8333 367,80.1667 368,79.5C 370.667,79.5 373.333,79.5 376,79.5C 378.431,81.421 381.098,81.421 384,79.5C 385.657,80.4841 387.323,81.4841 389,82.5C 389.717,81.9558 390.217,81.2891 390.5,80.5 Z"/></g>
<g><path style="opacity:0.004" fill="#1e3d18" d="M 390.5,80.5 C 389.833,79.1667 389.833,79.1667 390.5,80.5 Z"/></g>
<g><path style="opacity:0.004" fill="#1e3d18" d="M 474.5,79.5 C 475.833,80.1667 475.833,80.1667 474.5,79.5 Z"/></g>
<g><path style="opacity:0.004" fill="#1e3d18" d="M 272.5,81.5 C 273.833,82.1667 273.833,82.1667 272.5,81.5 Z"/></g>
<g><path style="opacity:0.004" fill="#1e3d18" d="M 475.5,81.5 C 476.833,82.1667 476.833,82.1667 475.5,81.5 Z"/></g>
<g><path style="opacity:0.004" fill="#1e3d18" d="M 484.5,81.5 C 485.833,82.1667 485.833,82.1667 484.5,81.5 Z"/></g>
<g><path style="opacity:0.004" fill="#1e3d18" d="M 491.5,81.5 C 492.833,82.1667 492.833,82.1667 491.5,81.5 Z"/></g>
<g><path style="opacity:0.004" fill="#1e3d18" d="M 172.5,88.5 C 173.833,89.1667 173.833,89.1667 172.5,88.5 Z"/></g>
<g><path style="opacity:0.998" fill="#577c47" d="M 323.5,101.5 C 320.482,101.704 317.482,102.037 314.5,102.5C 315.74,101.027 316.74,99.3604 317.5,97.5C 316.364,97.0357 315.364,96.7024 314.5,96.5C 315.585,93.7059 317.418,93.0392 320,94.5C 320.423,93.0439 321.256,92.5439 322.5,93C 323.444,95.7191 323.777,98.5525 323.5,101.5 Z"/></g>
<g><path style="opacity:0.996" fill="#567a45" d="M 298.5,98.5 C 298.44,99.0431 298.107,99.3764 297.5,99.5C 293.181,97.7047 289.181,97.038 285.5,97.5C 286.222,97.0825 286.722,96.4158 287,95.5C 289.186,96.0217 291.519,96.0217 294,95.5C 294.324,97.5689 295.158,97.9023 296.5,96.5C 297.182,97.2427 297.849,97.9094 298.5,98.5 Z"/></g>
<g><path style="opacity:0.004" fill="#1e3d18" d="M 563.5,98.5 C 564.833,99.1667 564.833,99.1667 563.5,98.5 Z"/></g>
<g><path style="opacity:0.996" fill="#537743" d="M 260.5,99.5 C 259.292,98.7659 257.959,98.4326 256.5,98.5C 256.719,99.675 256.386,100.675 255.5,101.5C 253.785,101.405 252.119,101.072 250.5,100.5C 252.973,100.006 255.473,98.6725 258,96.5C 259.417,97.0779 260.25,98.0779 260.5,99.5 Z"/></g>
<g><path style="opacity:1" fill="#496c3b" d="M 190.5,103.5 C 189.534,106.125 188.534,106.125 187.5,103.5C 186.522,103.977 185.689,104.643 185,105.5C 184.536,104.906 184.369,104.239 184.5,103.5C 186.358,101.269 188.358,101.269 190.5,103.5 Z"/></g>
<g><path style="opacity:1" fill="#557945" d="M 219.5,101.5 C 217.582,102.868 215.415,103.868 213,104.5C 210.13,105.08 207.63,105.08 205.5,104.5C 205.47,103.503 205.97,102.836 207,102.5C 208.807,101.921 210.807,101.921 213,102.5C 214.89,102.215 216.223,101.215 217,99.5C 217.484,101.178 218.317,101.844 219.5,101.5 Z"/></g>
<g><path style="opacity:0.997" fill="#25441e" d="M 323.5,103.5 C 324.07,109.885 324.07,116.385 323.5,123C 325.906,125.582 325.906,128.248 323.5,131C 323.85,135.743 323.85,140.909 323.5,146.5C 320.484,144.797 317.817,142.797 315.5,140.5C 315.5,140.167 315.5,139.833 315.5,139.5C 318.287,137.795 317.954,136.628 314.5,136C 315.167,135 315.833,134 316.5,133C 316.87,131.39 316.203,129.89 314.5,128.5C 318.364,127.05 318.364,125.55 314.5,124C 315.833,123.667 317.167,123.333 318.5,123C 317.376,122.751 316.376,122.251 315.5,121.5C 316.326,120.549 316.492,119.549 316,118.5C 314.104,117.32 312.604,115.82 311.5,114C 311.667,113.5 311.833,113 312,112.5C 312.423,113.956 313.256,114.456 314.5,114C 312.934,110.788 313.268,107.454 315.5,104C 317.521,103.86 319.355,103.693 321,103.5C 321.333,104.167 321.667,104.833 322,105.5C 322.278,104.584 322.778,103.918 323.5,103.5 Z"/></g>
<g><path style="opacity:1" fill="#587c47" d="M 172.5,105.5 C 172.279,108.097 171.779,108.097 171,105.5C 169.559,106.26 168.059,106.926 166.5,107.5C 164.84,106.927 163.006,106.927 161,107.5C 159.319,107.392 158.152,106.725 157.5,105.5C 157.783,104.711 158.283,104.044 159,103.5C 161.027,104.212 162.027,105.212 162,106.5C 163.473,106.097 164.806,105.43 166,104.5C 166.333,104.833 166.667,105.167 167,105.5C 168.019,104.313 169.186,103.313 170.5,102.5C 170.088,103.782 170.754,104.782 172.5,105.5 Z"/></g>
<g><path style="opacity:0.004" fill="#1e3d18" d="M 571.5,105.5 C 572.833,106.167 572.833,106.167 571.5,105.5 Z"/></g>
<g><path style="opacity:1" fill="#547844" d="M 153.5,106.5 C 153.631,107.376 153.298,108.043 152.5,108.5C 151.583,107.873 150.583,107.539 149.5,107.5C 150.705,105.862 152.038,105.529 153.5,106.5 Z"/></g>
<g><path style="opacity:1" fill="#4f7340" d="M 129.5,109.5 C 130.239,109.369 130.906,109.536 131.5,110C 130.333,110.5 129.5,111.333 129,112.5C 128.612,111.572 127.945,110.905 127,110.5C 124.675,110.728 122.508,110.728 120.5,110.5C 123.166,110.02 125.666,109.02 128,107.5C 128.278,108.416 128.778,109.082 129.5,109.5 Z"/></g>
<g><path style="opacity:1" fill="#5e834c" d="M 113.5,112.5 C 114.658,113.95 114.158,114.95 112,115.5C 109.684,114.633 107.684,115.299 106,117.5C 105.617,116.944 105.117,116.611 104.5,116.5C 106.835,113.835 109.835,112.502 113.5,112.5 Z"/></g>
<g><path style="opacity:0.996" fill="#8fba74" d="M 304.5,116.5 C 304.263,120.41 305.096,124.077 307,127.5C 309.726,131.702 312.559,135.702 315.5,139.5C 315.5,139.833 315.5,140.167 315.5,140.5C 315.5,141.167 315.5,141.833 315.5,142.5C 315.053,145.524 314.22,145.857 313,143.5C 312.261,144.574 311.261,145.241 310,145.5C 306.588,145.824 303.422,145.491 300.5,144.5C 299.23,145.562 298.063,146.562 297,147.5C 295.507,145.652 293.674,144.819 291.5,145C 293.595,145.556 293.762,146.056 292,146.5C 289.677,146.189 287.344,145.856 285,145.5C 284.311,146.357 283.478,147.023 282.5,147.5C 279.833,146.167 277.167,146.167 274.5,147.5C 273.522,147.023 272.689,146.357 272,145.5C 271.333,146.833 270.667,146.833 270,145.5C 269.581,146.672 268.915,147.672 268,148.5C 266.301,147.594 264.467,147.261 262.5,147.5C 262.5,146.5 262.5,145.5 262.5,144.5C 267.053,139.441 271.053,133.941 274.5,128C 273.316,126.855 273.316,125.688 274.5,124.5C 276.866,123.218 279.033,121.551 281,119.5C 281.414,119.957 281.914,120.291 282.5,120.5C 285.276,120.054 287.776,119.054 290,117.5C 292.112,119.606 294.112,119.273 296,116.5C 297.154,117.743 298.488,118.743 300,119.5C 301.271,118.117 302.771,117.117 304.5,116.5 Z"/></g>
<g><path style="opacity:0.996" fill="#305027" d="M 323.5,101.5 C 323.5,102.167 323.5,102.833 323.5,103.5C 322.778,103.918 322.278,104.584 322,105.5C 321.667,104.833 321.333,104.167 321,103.5C 319.355,103.693 317.521,103.86 315.5,104C 313.268,107.454 312.934,110.788 314.5,114C 313.256,114.456 312.423,113.956 312,112.5C 311.833,113 311.667,113.5 311.5,114C 312.604,115.82 314.104,117.32 316,118.5C 316.492,119.549 316.326,120.549 315.5,121.5C 316.376,122.251 317.376,122.751 318.5,123C 317.167,123.333 315.833,123.667 314.5,124C 318.364,125.55 318.364,127.05 314.5,128.5C 316.203,129.89 316.87,131.39 316.5,133C 315.833,134 315.167,135 314.5,136C 317.954,136.628 318.287,137.795 315.5,139.5C 312.559,135.702 309.726,131.702 307,127.5C 305.096,124.077 304.263,120.41 304.5,116.5C 305.409,109.985 308.743,105.318 314.5,102.5C 317.482,102.037 320.482,101.704 323.5,101.5 Z"/></g>
<g><path style="opacity:0.996" fill="#2e4d25" d="M 243.5,118.5 C 243.938,118.435 244.272,118.601 244.5,119C 241.96,120.04 240.293,121.874 239.5,124.5C 239.331,123.603 238.998,122.603 238.5,121.5C 237.28,122.711 236.113,122.711 235,121.5C 234.138,123.087 233.471,124.754 233,126.5C 230.699,122.4 227.533,121.567 223.5,124C 226.931,127.082 225.931,129.082 220.5,130C 221.696,130.654 221.696,131.154 220.5,131.5C 219.772,129.807 218.772,128.307 217.5,127C 218.167,126.667 218.833,126.333 219.5,126C 218.549,125.282 218.383,124.449 219,123.5C 220.758,124.469 221.258,125.636 220.5,127C 221.725,127.563 222.725,127.23 223.5,126C 222.333,124.5 221.167,123 220,121.5C 218.636,122.258 217.469,121.758 216.5,120C 217.171,116.035 216.171,115.702 213.5,119C 216.078,121.157 216.078,122.323 213.5,122.5C 214.025,123.192 214.692,123.692 215.5,124C 214.333,124.5 213.5,125.333 213,126.5C 212.667,126.167 212.333,125.833 212,125.5C 211.517,126.448 211.351,127.448 211.5,128.5C 210.761,128.631 210.094,128.464 209.5,128C 211.248,124.871 211.915,121.704 211.5,118.5C 215.862,115.639 220.195,112.639 224.5,109.5C 227.034,110.788 229.534,110.788 232,109.5C 235.096,113.428 238.93,116.428 243.5,118.5 Z"/></g>
<g><path style="opacity:0.996" fill="#2a4922" d="M 182.5,134.5 C 180.946,135.693 179.279,136.86 177.5,138C 177.728,138.399 178.062,138.565 178.5,138.5C 178.056,140.113 177.056,141.28 175.5,142C 176.712,143.107 176.379,143.607 174.5,143.5C 174.565,143.062 174.399,142.728 174,142.5C 173.097,143.701 171.931,144.535 170.5,145C 170.833,145.333 171.167,145.667 171.5,146C 169.083,147.663 167.25,149.829 166,152.5C 164.871,154.141 163.371,155.141 161.5,155.5C 162.927,153.1 162.427,152.433 160,153.5C 156.557,150.69 157.057,148.69 161.5,147.5C 161.154,146.304 160.654,146.304 160,147.5C 157.235,146.324 155.402,144.824 154.5,143C 155.624,142.751 156.624,142.251 157.5,141.5C 157.167,141.167 156.833,140.833 156.5,140.5C 154.345,143.366 152.011,145.533 149.5,147C 149.93,147.92 150.264,148.753 150.5,149.5C 151.966,146.002 153.966,145.836 156.5,149C 155.124,151.543 153.957,151.709 153,149.5C 151.029,151.1 149.196,151.266 147.5,150C 147.5,148.333 147.5,146.667 147.5,145C 151.386,144.421 151.386,143.588 147.5,142.5C 146.199,144.444 145.199,146.444 144.5,148.5C 144.863,146.089 143.863,144.589 141.5,144C 143.893,142.137 146.56,140.804 149.5,140C 149.167,139.667 148.833,139.333 148.5,139C 149.308,138.692 149.975,138.192 150.5,137.5C 149.478,136.646 148.645,135.646 148,134.5C 147.577,135.956 146.744,136.456 145.5,136C 147.016,134.103 147.683,131.936 147.5,129.5C 144.05,128.756 142.384,130.09 142.5,133.5C 141.448,133.649 140.448,133.483 139.5,133C 140.258,131.636 139.758,130.469 138,129.5C 136.23,130.276 134.397,130.11 132.5,129C 133.833,128.333 133.833,127.667 132.5,127C 133.167,125.667 134.167,124.667 135.5,124C 134.572,123.612 133.905,122.945 133.5,122C 133.892,120.989 134.559,120.489 135.5,120.5C 134.494,119.604 134.494,118.938 135.5,118.5C 136.251,119.376 136.751,120.376 137,121.5C 137.5,121 138,120.5 138.5,120C 137.92,118.665 137.587,117.498 137.5,116.5C 142.215,111.667 147.548,111.167 153.5,115C 156.106,116.938 157.939,119.438 159,122.5C 165.226,114.083 173.392,111.75 183.5,115.5C 185.232,117.799 186.566,120.299 187.5,123C 186.262,127.087 184.596,130.92 182.5,134.5 Z"/></g>
<g><path style="opacity:0.004" fill="#1e3d18" d="M 574.5,120.5 C 575.833,121.167 575.833,121.167 574.5,120.5 Z"/></g>
<g><path style="opacity:0.996" fill="#2c4b23" d="M 274.5,124.5 C 273.316,125.688 273.316,126.855 274.5,128C 271.053,133.941 267.053,139.441 262.5,144.5C 260.309,146.598 257.976,148.598 255.5,150.5C 253.978,151.562 252.312,152.229 250.5,152.5C 249.404,150.897 248.07,149.397 246.5,148C 250.473,147.525 254.14,147.025 257.5,146.5C 255.082,145.543 252.916,144.209 251,142.5C 251.734,145.959 250.734,146.293 248,143.5C 247.667,143.833 247.333,144.167 247,144.5C 246.28,142.888 246.446,141.388 247.5,140C 246.672,139.085 245.672,138.419 244.5,138C 246.665,136.103 247.332,133.936 246.5,131.5C 245.833,132.167 245.167,132.833 244.5,133.5C 244.167,133 243.833,132.5 243.5,132C 244.232,130.235 245.565,129.068 247.5,128.5C 246.332,127.094 246.665,125.928 248.5,125C 247.707,123.915 247.04,122.748 246.5,121.5C 248.353,120.24 250.186,120.24 252,121.5C 253.214,119.951 254.714,118.785 256.5,118C 255.167,117.333 255.167,116.667 256.5,116C 254.122,115.026 254.456,114.359 257.5,114C 255.359,113.116 253.693,113.616 252.5,115.5C 253.025,116.192 253.692,116.692 254.5,117C 253.354,117.645 252.354,118.478 251.5,119.5C 249.304,117.591 246.97,116.925 244.5,117.5C 244.55,114.848 245.55,113.848 247.5,114.5C 249.585,113.229 251.752,112.229 254,111.5C 257.296,112.506 260.296,111.84 263,109.5C 265.571,111.353 268.238,113.019 271,114.5C 271.615,116.116 272.615,117.449 274,118.5C 273.716,120.679 273.883,122.679 274.5,124.5 Z"/></g>
<g><path style="opacity:0.004" fill="#1e3d18" d="M 575.5,127.5 C 576.833,128.167 576.833,128.167 575.5,127.5 Z"/></g>
<g><path style="opacity:0.996" fill="#759d5f" d="M 96.5,124.5 C 95.6022,128.027 94.6022,131.527 93.5,135C 93.7831,136.924 95.1164,138.591 97.5,140C 96.4844,140.519 95.8178,141.353 95.5,142.5C 95.8457,143.849 96.179,145.183 96.5,146.5C 95.1001,145.9 94.1001,144.9 93.5,143.5C 94.9526,142.175 94.6192,141.342 92.5,141C 93.2853,138.557 93.1186,136.057 92,133.5C 91.6174,134.056 91.1174,134.389 90.5,134.5C 92.5679,131.908 93.9013,128.908 94.5,125.5C 95.1835,125.137 95.8501,124.804 96.5,124.5 Z"/></g>
<g><path style="opacity:0.996" fill="#274620" d="M 250.5,152.5 C 250.672,153.492 250.338,154.158 249.5,154.5C 247.606,155.048 245.94,156.048 244.5,157.5C 243.692,157.192 243.025,156.692 242.5,156C 243.833,154.16 243.666,153.66 242,154.5C 241.5,154 241,153.5 240.5,153C 241.794,150.91 242.794,148.91 243.5,147C 242.216,146.316 241.049,146.483 240,147.5C 238.097,144.829 237.264,141.829 237.5,138.5C 236.448,138.649 235.448,138.483 234.5,138C 235.696,137.346 235.696,136.846 234.5,136.5C 232.38,137.403 232.046,138.737 233.5,140.5C 232.998,141.521 232.332,141.688 231.5,141C 230.761,138.765 230.761,136.765 231.5,135C 232.833,133.333 234.167,131.667 235.5,130C 233.406,129.555 231.906,130.388 231,132.5C 230.333,131.167 229.667,131.167 229,132.5C 228,131.167 227,129.833 226,128.5C 225.383,129.449 225.549,130.282 226.5,131C 224.321,131.442 223.655,132.442 224.5,134C 223.149,135.617 221.482,136.784 219.5,137.5C 221.335,138.192 223.168,137.858 225,136.5C 225.822,138.788 226.489,141.122 227,143.5C 228.716,143.589 230.549,143.256 232.5,142.5C 232.833,142.667 233.167,142.833 233.5,143C 232.643,143.689 231.977,144.522 231.5,145.5C 234.26,145.512 234.76,146.845 233,149.5C 231.667,148.833 230.667,147.833 230,146.5C 228.951,147.517 227.784,147.684 226.5,147C 226.833,146.667 227.167,146.333 227.5,146C 226.089,143.954 224.423,142.121 222.5,140.5C 222.167,140.667 221.833,140.833 221.5,141C 223.937,142.279 224.437,143.779 223,145.5C 222.221,142.903 221.721,142.903 221.5,145.5C 220.167,144.167 218.833,142.833 217.5,141.5C 216.833,140.5 216.167,139.5 215.5,138.5C 213.404,136.4 211.737,133.9 210.5,131C 211.252,130.329 211.586,129.496 211.5,128.5C 211.351,127.448 211.517,126.448 212,125.5C 212.333,125.833 212.667,126.167 213,126.5C 213.5,125.333 214.333,124.5 215.5,124C 214.692,123.692 214.025,123.192 213.5,122.5C 216.078,122.323 216.078,121.157 213.5,119C 216.171,115.702 217.171,116.035 216.5,120C 217.469,121.758 218.636,122.258 220,121.5C 221.167,123 222.333,124.5 223.5,126C 222.725,127.23 221.725,127.563 220.5,127C 221.258,125.636 220.758,124.469 219,123.5C 218.383,124.449 218.549,125.282 219.5,126C 218.833,126.333 218.167,126.667 217.5,127C 218.772,128.307 219.772,129.807 220.5,131.5C 221.696,131.154 221.696,130.654 220.5,130C 225.931,129.082 226.931,127.082 223.5,124C 227.533,121.567 230.699,122.4 233,126.5C 233.471,124.754 234.138,123.087 235,121.5C 236.113,122.711 237.28,122.711 238.5,121.5C 238.998,122.603 239.331,123.603 239.5,124.5C 240.293,121.874 241.96,120.04 244.5,119C 244.272,118.601 243.938,118.435 243.5,118.5C 243.5,117.833 243.833,117.5 244.5,117.5C 246.97,116.925 249.304,117.591 251.5,119.5C 252.354,118.478 253.354,117.645 254.5,117C 253.692,116.692 253.025,116.192 252.5,115.5C 253.693,113.616 255.359,113.116 257.5,114C 254.456,114.359 254.122,115.026 256.5,116C 255.167,116.667 255.167,117.333 256.5,118C 254.714,118.785 253.214,119.951 252,121.5C 250.186,120.24 248.353,120.24 246.5,121.5C 247.04,122.748 247.707,123.915 248.5,125C 246.665,125.928 246.332,127.094 247.5,128.5C 245.565,129.068 244.232,130.235 243.5,132C 243.833,132.5 244.167,133 244.5,133.5C 245.167,132.833 245.833,132.167 246.5,131.5C 247.332,133.936 246.665,136.103 244.5,138C 245.672,138.419 246.672,139.085 247.5,140C 246.446,141.388 246.28,142.888 247,144.5C 247.333,144.167 247.667,143.833 248,143.5C 250.734,146.293 251.734,145.959 251,142.5C 252.916,144.209 255.082,145.543 257.5,146.5C 254.14,147.025 250.473,147.525 246.5,148C 248.07,149.397 249.404,150.897 250.5,152.5 Z"/></g>
<g><path style="opacity:0.997" fill="#8fba74" d="M 215.5,138.5 C 216.167,139.5 216.833,140.5 217.5,141.5C 217.389,142.117 217.056,142.617 216.5,143C 218.107,144.049 218.773,145.549 218.5,147.5C 216.857,147.48 215.524,148.147 214.5,149.5C 212.629,148.233 210.796,148.233 209,149.5C 207.271,147.566 205.271,147.566 203,149.5C 199.71,149.574 196.543,149.24 193.5,148.5C 192.808,149.025 192.308,149.692 192,150.5C 191.692,149.692 191.192,149.025 190.5,148.5C 188.142,149.169 185.475,149.336 182.5,149C 181.874,148.25 181.374,147.416 181,146.5C 179.853,147.458 178.853,147.125 178,145.5C 175.607,147.994 174.44,147.327 174.5,143.5C 176.379,143.607 176.712,143.107 175.5,142C 177.056,141.28 178.056,140.113 178.5,138.5C 179.5,138.5 180.5,138.5 181.5,138.5C 181.433,137.041 181.766,135.708 182.5,134.5C 185.297,133.759 188.13,133.093 191,132.5C 195.497,133.369 199.831,133.369 204,132.5C 206.595,133.231 208.261,134.898 209,137.5C 209.333,136.5 209.667,135.5 210,134.5C 211.432,136.439 213.265,137.772 215.5,138.5 Z"/></g>
<g><path style="opacity:1" fill="#507440" d="M 93.5,143.5 C 90.4628,143.013 89.4628,141.513 90.5,139C 90.2409,137.739 89.5742,136.739 88.5,136C 89.4158,135.722 90.0825,135.222 90.5,134.5C 91.1174,134.389 91.6174,134.056 92,133.5C 93.1186,136.057 93.2853,138.557 92.5,141C 94.6192,141.342 94.9526,142.175 93.5,143.5 Z"/></g>
<g><path style="opacity:1" fill="#34552a" d="M 137.5,116.5 C 137.587,117.498 137.92,118.665 138.5,120C 138,120.5 137.5,121 137,121.5C 136.751,120.376 136.251,119.376 135.5,118.5C 134.494,118.938 134.494,119.604 135.5,120.5C 134.559,120.489 133.892,120.989 133.5,122C 133.905,122.945 134.572,123.612 135.5,124C 134.167,124.667 133.167,125.667 132.5,127C 133.833,127.667 133.833,128.333 132.5,129C 134.397,130.11 136.23,130.276 138,129.5C 139.758,130.469 140.258,131.636 139.5,133C 140.448,133.483 141.448,133.649 142.5,133.5C 142.384,130.09 144.05,128.756 147.5,129.5C 147.683,131.936 147.016,134.103 145.5,136C 146.744,136.456 147.577,135.956 148,134.5C 148.645,135.646 149.478,136.646 150.5,137.5C 149.975,138.192 149.308,138.692 148.5,139C 148.833,139.333 149.167,139.667 149.5,140C 146.56,140.804 143.893,142.137 141.5,144C 143.863,144.589 144.863,146.089 144.5,148.5C 143.533,147.194 142.199,146.527 140.5,146.5C 140.5,145.5 140.5,144.5 140.5,143.5C 137.777,142.648 135.11,141.481 132.5,140C 132.833,139.667 133.167,139.333 133.5,139C 132.584,138.626 131.75,138.126 131,137.5C 129.255,134.203 128.088,130.703 127.5,127C 128.928,125.084 129.928,122.917 130.5,120.5C 132.61,118.711 134.944,117.378 137.5,116.5 Z"/></g>
<g><path style="opacity:0.997" fill="#4c6f3d" d="M 315.5,140.5 C 317.817,142.797 320.484,144.797 323.5,146.5C 323.5,152.5 323.5,158.5 323.5,164.5C 322.178,164.67 321.011,164.337 320,163.5C 316.905,164.711 313.905,166.044 311,167.5C 310.517,166.552 310.351,165.552 310.5,164.5C 312.332,163.578 314.499,163.245 317,163.5C 317.739,156.275 317.239,149.275 315.5,142.5C 315.5,141.833 315.5,141.167 315.5,140.5 Z"/></g>
<g><path style="opacity:0.999" fill="#87b26d" d="M 314.5,96.5 C 315.364,96.7024 316.364,97.0357 317.5,97.5C 316.74,99.3604 315.74,101.027 314.5,102.5C 308.743,105.318 305.409,109.985 304.5,116.5C 302.771,117.117 301.271,118.117 300,119.5C 298.488,118.743 297.154,117.743 296,116.5C 294.112,119.273 292.112,119.606 290,117.5C 287.776,119.054 285.276,120.054 282.5,120.5C 281.914,120.291 281.414,119.957 281,119.5C 279.033,121.551 276.866,123.218 274.5,124.5C 273.883,122.679 273.716,120.679 274,118.5C 272.615,117.449 271.615,116.116 271,114.5C 268.238,113.019 265.571,111.353 263,109.5C 260.296,111.84 257.296,112.506 254,111.5C 251.752,112.229 249.585,113.229 247.5,114.5C 245.55,113.848 244.55,114.848 244.5,117.5C 243.833,117.5 243.5,117.833 243.5,118.5C 238.93,116.428 235.096,113.428 232,109.5C 229.534,110.788 227.034,110.788 224.5,109.5C 220.195,112.639 215.862,115.639 211.5,118.5C 211.915,121.704 211.248,124.871 209.5,128C 210.094,128.464 210.761,128.631 211.5,128.5C 211.586,129.496 211.252,130.329 210.5,131C 211.737,133.9 213.404,136.4 215.5,138.5C 213.265,137.772 211.432,136.439 210,134.5C 209.667,135.5 209.333,136.5 209,137.5C 208.261,134.898 206.595,133.231 204,132.5C 199.831,133.369 195.497,133.369 191,132.5C 188.13,133.093 185.297,133.759 182.5,134.5C 184.596,130.92 186.262,127.087 187.5,123C 186.566,120.299 185.232,117.799 183.5,115.5C 173.392,111.75 165.226,114.083 159,122.5C 157.939,119.438 156.106,116.938 153.5,115C 147.548,111.167 142.215,111.667 137.5,116.5C 134.944,117.378 132.61,118.711 130.5,120.5C 129.928,122.917 128.928,125.084 127.5,127C 128.088,130.703 129.255,134.203 131,137.5C 131.75,138.126 132.584,138.626 133.5,139C 133.167,139.333 132.833,139.667 132.5,140C 135.11,141.481 137.777,142.648 140.5,143.5C 140.5,144.5 140.5,145.5 140.5,146.5C 142.199,146.527 143.533,147.194 144.5,148.5C 145.091,149.151 145.757,149.818 146.5,150.5C 146.291,151.086 145.957,151.586 145.5,152C 147.584,152.778 149.417,153.945 151,155.5C 151.333,154.833 151.667,154.167 152,153.5C 152.615,155.116 153.615,156.449 155,157.5C 157.154,156.77 159.321,156.103 161.5,155.5C 163.371,155.141 164.871,154.141 166,152.5C 167.25,149.829 169.083,147.663 171.5,146C 171.167,145.667 170.833,145.333 170.5,145C 171.931,144.535 173.097,143.701 174,142.5C 174.399,142.728 174.565,143.062 174.5,143.5C 174.44,147.327 175.607,147.994 178,145.5C 178.853,147.125 179.853,147.458 181,146.5C 181.374,147.416 181.874,148.25 182.5,149C 185.475,149.336 188.142,149.169 190.5,148.5C 191.192,149.025 191.692,149.692 192,150.5C 192.308,149.692 192.808,149.025 193.5,148.5C 196.543,149.24 199.71,149.574 203,149.5C 205.271,147.566 207.271,147.566 209,149.5C 210.796,148.233 212.629,148.233 214.5,149.5C 215.524,148.147 216.857,147.48 218.5,147.5C 218.773,145.549 218.107,144.049 216.5,143C 217.056,142.617 217.389,142.117 217.5,141.5C 218.833,142.833 220.167,144.167 221.5,145.5C 228.245,154.552 236.912,158.552 247.5,157.5C 248.612,156.735 249.279,155.735 249.5,154.5C 250.338,154.158 250.672,153.492 250.5,152.5C 252.312,152.229 253.978,151.562 255.5,150.5C 257.976,148.598 260.309,146.598 262.5,144.5C 262.5,145.5 262.5,146.5 262.5,147.5C 264.467,147.261 266.301,147.594 268,148.5C 268.915,147.672 269.581,146.672 270,145.5C 270.667,146.833 271.333,146.833 272,145.5C 272.689,146.357 273.522,147.023 274.5,147.5C 277.167,146.167 279.833,146.167 282.5,147.5C 283.478,147.023 284.311,146.357 285,145.5C 287.344,145.856 289.677,146.189 292,146.5C 293.762,146.056 293.595,145.556 291.5,145C 293.674,144.819 295.507,145.652 297,147.5C 298.063,146.562 299.23,145.562 300.5,144.5C 303.422,145.491 306.588,145.824 310,145.5C 311.261,145.241 312.261,144.574 313,143.5C 314.22,145.857 315.053,145.524 315.5,142.5C 317.239,149.275 317.739,156.275 317,163.5C 314.499,163.245 312.332,163.578 310.5,164.5C 310.167,164.5 309.833,164.5 309.5,164.5C 308.359,163.661 307.026,162.994 305.5,162.5C 304.808,163.025 304.308,163.692 304,164.5C 299.313,164.146 294.98,164.146 291,164.5C 290.295,162.014 289.462,162.014 288.5,164.5C 288.649,165.552 288.483,166.552 288,167.5C 283.94,165.469 279.773,164.803 275.5,165.5C 274.085,165.906 272.919,165.239 272,163.5C 270.955,164.373 270.122,165.373 269.5,166.5C 269.167,166.5 268.833,166.5 268.5,166.5C 268.196,164.204 267.196,163.871 265.5,165.5C 265.167,165.5 264.833,165.5 264.5,165.5C 264.217,164.711 263.717,164.044 263,163.5C 260.26,164.296 257.427,164.296 254.5,163.5C 252.667,163.585 251.334,164.252 250.5,165.5C 247.983,166.541 245.65,167.208 243.5,167.5C 242.88,165.023 241.88,165.023 240.5,167.5C 239.056,166.019 238.389,166.352 238.5,168.5C 236.307,167.32 233.974,166.32 231.5,165.5C 230.035,167.424 228.368,167.757 226.5,166.5C 226.631,165.761 226.464,165.094 226,164.5C 223.267,166.105 220.267,167.105 217,167.5C 216.295,165.014 215.462,165.014 214.5,167.5C 212.833,167.5 211.167,167.5 209.5,167.5C 208.828,166.733 207.995,166.066 207,165.5C 206.601,165.728 206.435,166.062 206.5,166.5C 204.805,167.826 203.472,167.493 202.5,165.5C 199.635,165.055 197.135,165.722 195,167.5C 194.617,166.944 194.117,166.611 193.5,166.5C 189.745,165.899 186.078,166.565 182.5,168.5C 180.055,167.688 177.722,166.688 175.5,165.5C 174.126,165.792 172.793,166.125 171.5,166.5C 171.167,166.5 170.833,166.5 170.5,166.5C 169.458,165.209 168.292,165.209 167,166.5C 165.651,163.93 164.484,163.93 163.5,166.5C 162.295,167.686 160.961,167.686 159.5,166.5C 156.539,165.677 153.539,165.01 150.5,164.5C 148.983,164.511 147.816,165.177 147,166.5C 144.758,165.958 142.258,165.291 139.5,164.5C 137.194,164.007 134.861,163.674 132.5,163.5C 132.565,163.062 132.399,162.728 132,162.5C 131,163.167 130,163.833 129,164.5C 128.184,163.177 127.017,162.511 125.5,162.5C 123.95,161.559 122.284,160.893 120.5,160.5C 118.831,159.11 117.164,158.777 115.5,159.5C 115.5,158.5 115.5,157.5 115.5,156.5C 112.635,155.868 110.302,154.368 108.5,152C 107.072,151.421 105.738,151.588 104.5,152.5C 101.851,150.624 99.1843,148.624 96.5,146.5C 96.179,145.183 95.8457,143.849 95.5,142.5C 95.8178,141.353 96.4844,140.519 97.5,140C 95.1164,138.591 93.7831,136.924 93.5,135C 94.6022,131.527 95.6022,128.027 96.5,124.5C 97.0076,122.767 97.841,122.434 99,123.5C 99.4935,121.866 99.6602,120.199 99.5,118.5C 101.554,118.635 103.221,117.968 104.5,116.5C 105.117,116.611 105.617,116.944 106,117.5C 107.684,115.299 109.684,114.633 112,115.5C 114.158,114.95 114.658,113.95 113.5,112.5C 113.461,111.244 113.961,110.244 115,109.5C 116.699,110.406 118.533,110.739 120.5,110.5C 122.508,110.728 124.675,110.728 127,110.5C 127.945,110.905 128.612,111.572 129,112.5C 129.5,111.333 130.333,110.5 131.5,110C 130.906,109.536 130.239,109.369 129.5,109.5C 130.531,108.751 131.698,108.085 133,107.5C 133.333,108.167 133.667,108.833 134,109.5C 137.12,107.286 140.12,107.286 143,109.5C 144.911,107.311 147.077,106.644 149.5,107.5C 150.583,107.539 151.583,107.873 152.5,108.5C 153.298,108.043 153.631,107.376 153.5,106.5C 154.222,106.918 154.722,107.584 155,108.5C 155.852,107.429 156.685,106.429 157.5,105.5C 158.152,106.725 159.319,107.392 161,107.5C 163.006,106.927 164.84,106.927 166.5,107.5C 168.059,106.926 169.559,106.26 171,105.5C 171.779,108.097 172.279,108.097 172.5,105.5C 174.391,104.464 176.224,104.464 178,105.5C 178.368,104.09 179.201,103.09 180.5,102.5C 180.489,103.441 180.989,104.108 182,104.5C 182.902,104.257 183.735,103.923 184.5,103.5C 184.369,104.239 184.536,104.906 185,105.5C 185.689,104.643 186.522,103.977 187.5,103.5C 188.534,106.125 189.534,106.125 190.5,103.5C 192.792,104.468 194.959,104.802 197,104.5C 198,103.833 199,103.167 200,102.5C 201.762,104.262 203.595,104.928 205.5,104.5C 207.63,105.08 210.13,105.08 213,104.5C 215.415,103.868 217.582,102.868 219.5,101.5C 220.416,101.018 221.416,100.685 222.5,100.5C 225.386,102.434 228.386,103.101 231.5,102.5C 234.4,102.403 237.067,102.736 239.5,103.5C 240.298,103.043 240.631,102.376 240.5,101.5C 240.833,101.5 241.167,101.5 241.5,101.5C 241.369,102.239 241.536,102.906 242,103.5C 243.729,103.026 244.895,102.026 245.5,100.5C 245.47,99.5028 245.97,98.8361 247,98.5C 248.303,98.9783 249.469,99.645 250.5,100.5C 252.119,101.072 253.785,101.405 255.5,101.5C 256.386,100.675 256.719,99.675 256.5,98.5C 257.959,98.4326 259.292,98.7659 260.5,99.5C 261.167,99.5 261.833,99.5 262.5,99.5C 261.537,100.363 261.537,101.03 262.5,101.5C 264.426,100.325 266.093,99.6587 267.5,99.5C 269.912,99.6695 272.079,99.0028 274,97.5C 275.865,98.3677 277.698,98.0343 279.5,96.5C 280.5,97.8333 281.5,97.8333 282.5,96.5C 282.833,97.1667 283.167,97.8333 283.5,98.5C 284.183,98.1373 284.85,97.8039 285.5,97.5C 289.181,97.038 293.181,97.7047 297.5,99.5C 298.107,99.3764 298.44,99.0431 298.5,98.5C 298.461,97.2438 298.961,96.2438 300,95.5C 302.816,94.8695 305.482,95.5362 308,97.5C 310.041,96.5769 312.208,96.2436 314.5,96.5 Z"/></g>
<g><path style="opacity:0.996" fill="#5f854d" d="M 182.5,134.5 C 181.766,135.708 181.433,137.041 181.5,138.5C 180.5,138.5 179.5,138.5 178.5,138.5C 178.062,138.565 177.728,138.399 177.5,138C 179.279,136.86 180.946,135.693 182.5,134.5 Z"/></g>
<g><path style="opacity:1" fill="#5d824b" d="M 240.5,101.5 C 240.631,102.376 240.298,103.043 239.5,103.5C 237.067,102.736 234.4,102.403 231.5,102.5C 232.172,101.733 233.005,101.066 234,100.5C 236.041,101.423 238.208,101.756 240.5,101.5 Z"/></g>
<g><path style="opacity:1" fill="#5e844c" d="M 245.5,100.5 C 244.895,102.026 243.729,103.026 242,103.5C 241.536,102.906 241.369,102.239 241.5,101.5C 242.708,100.766 244.041,100.433 245.5,100.5 Z"/></g>
<g><path style="opacity:1" fill="#60864e" d="M 267.5,99.5 C 266.093,99.6587 264.426,100.325 262.5,101.5C 261.537,101.03 261.537,100.363 262.5,99.5C 264.334,98.506 266.001,98.506 267.5,99.5 Z"/></g>
<g><path style="opacity:0.996" fill="#2e4e25" d="M 249.5,154.5 C 249.279,155.735 248.612,156.735 247.5,157.5C 236.912,158.552 228.245,154.552 221.5,145.5C 221.721,142.903 222.221,142.903 223,145.5C 224.437,143.779 223.937,142.279 221.5,141C 221.833,140.833 222.167,140.667 222.5,140.5C 224.423,142.121 226.089,143.954 227.5,146C 227.167,146.333 226.833,146.667 226.5,147C 227.784,147.684 228.951,147.517 230,146.5C 230.667,147.833 231.667,148.833 233,149.5C 234.76,146.845 234.26,145.512 231.5,145.5C 231.977,144.522 232.643,143.689 233.5,143C 233.167,142.833 232.833,142.667 232.5,142.5C 230.549,143.256 228.716,143.589 227,143.5C 226.489,141.122 225.822,138.788 225,136.5C 223.168,137.858 221.335,138.192 219.5,137.5C 221.482,136.784 223.149,135.617 224.5,134C 223.655,132.442 224.321,131.442 226.5,131C 225.549,130.282 225.383,129.449 226,128.5C 227,129.833 228,131.167 229,132.5C 229.667,131.167 230.333,131.167 231,132.5C 231.906,130.388 233.406,129.555 235.5,130C 234.167,131.667 232.833,133.333 231.5,135C 230.761,136.765 230.761,138.765 231.5,141C 232.332,141.688 232.998,141.521 233.5,140.5C 232.046,138.737 232.38,137.403 234.5,136.5C 235.696,136.846 235.696,137.346 234.5,138C 235.448,138.483 236.448,138.649 237.5,138.5C 237.264,141.829 238.097,144.829 240,147.5C 241.049,146.483 242.216,146.316 243.5,147C 242.794,148.91 241.794,150.91 240.5,153C 241,153.5 241.5,154 242,154.5C 243.666,153.66 243.833,154.16 242.5,156C 243.025,156.692 243.692,157.192 244.5,157.5C 245.94,156.048 247.606,155.048 249.5,154.5 Z"/></g>
<g><path style="opacity:0.998" fill="#305027" d="M 161.5,155.5 C 159.321,156.103 157.154,156.77 155,157.5C 153.615,156.449 152.615,155.116 152,153.5C 151.667,154.167 151.333,154.833 151,155.5C 149.417,153.945 147.584,152.778 145.5,152C 145.957,151.586 146.291,151.086 146.5,150.5C 145.757,149.818 145.091,149.151 144.5,148.5C 145.199,146.444 146.199,144.444 147.5,142.5C 151.386,143.588 151.386,144.421 147.5,145C 147.5,146.667 147.5,148.333 147.5,150C 149.196,151.266 151.029,151.1 153,149.5C 153.957,151.709 155.124,151.543 156.5,149C 153.966,145.836 151.966,146.002 150.5,149.5C 150.264,148.753 149.93,147.92 149.5,147C 152.011,145.533 154.345,143.366 156.5,140.5C 156.833,140.833 157.167,141.167 157.5,141.5C 156.624,142.251 155.624,142.751 154.5,143C 155.402,144.824 157.235,146.324 160,147.5C 160.654,146.304 161.154,146.304 161.5,147.5C 157.057,148.69 156.557,150.69 160,153.5C 162.427,152.433 162.927,153.1 161.5,155.5 Z"/></g>
<g><path style="opacity:0.998" fill="#638950" d="M 115.5,159.5 C 113.254,158.79 110.92,158.29 108.5,158C 109.167,157.667 109.833,157.333 110.5,157C 109.333,156.5 108.5,155.667 108,154.5C 106.274,155.576 104.441,155.743 102.5,155C 103.756,154.583 104.423,153.75 104.5,152.5C 105.738,151.588 107.072,151.421 108.5,152C 110.302,154.368 112.635,155.868 115.5,156.5C 115.5,157.5 115.5,158.5 115.5,159.5 Z"/></g>
<g><path style="opacity:0.996" fill="#527742" d="M 120.5,160.5 C 122.284,160.893 123.95,161.559 125.5,162.5C 123.257,163.858 121.591,163.192 120.5,160.5 Z"/></g>
<g><path style="opacity:0.004" fill="#1e3d18" d="M 556.5,162.5 C 557.833,163.167 557.833,163.167 556.5,162.5 Z"/></g>
<g><path style="opacity:0.997" fill="#6d9458" d="M 264.5,165.5 C 262.956,165.703 261.622,166.37 260.5,167.5C 258.866,167.032 257.7,166.032 257,164.5C 254.833,166.293 252.666,166.626 250.5,165.5C 251.334,164.252 252.667,163.585 254.5,163.5C 257.427,164.296 260.26,164.296 263,163.5C 263.717,164.044 264.217,164.711 264.5,165.5 Z"/></g>
<g><path style="opacity:0.996" fill="#5c814a" d="M 309.5,164.5 C 309.631,165.239 309.464,165.906 309,166.5C 304.315,165.477 299.315,165.477 294,166.5C 292.185,165.756 290.352,165.089 288.5,164.5C 289.462,162.014 290.295,162.014 291,164.5C 294.98,164.146 299.313,164.146 304,164.5C 304.308,163.692 304.808,163.025 305.5,162.5C 307.026,162.994 308.359,163.661 309.5,164.5 Z"/></g>
<g><path style="opacity:0.998" fill="#496c3b" d="M 132.5,163.5 C 134.861,163.674 137.194,164.007 139.5,164.5C 138.719,166.322 137.552,166.989 136,166.5C 134.855,165.364 133.688,164.364 132.5,163.5 Z"/></g>
<g><path style="opacity:1" fill="#517542" d="M 170.5,166.5 C 168.295,169.053 165.962,169.053 163.5,166.5C 164.484,163.93 165.651,163.93 167,166.5C 168.292,165.209 169.458,165.209 170.5,166.5 Z"/></g>
<g><path style="opacity:1" fill="#5c814a" d="M 175.5,165.5 C 175.412,168.606 174.078,168.94 171.5,166.5C 172.793,166.125 174.126,165.792 175.5,165.5 Z"/></g>
<g><path style="opacity:0.996" fill="#567b46" d="M 275.5,165.5 C 275.217,166.289 274.717,166.956 274,167.5C 272.316,166.807 270.816,166.474 269.5,166.5C 270.122,165.373 270.955,164.373 272,163.5C 272.919,165.239 274.085,165.906 275.5,165.5 Z"/></g>
<g><path style="opacity:1" fill="#4c6f3d" d="M 150.5,164.5 C 153.539,165.01 156.539,165.677 159.5,166.5C 158.739,167.391 157.739,168.058 156.5,168.5C 155.304,168.154 155.304,167.654 156.5,167C 154.148,166.76 152.148,165.927 150.5,164.5 Z"/></g>
<g><path style="opacity:1" fill="#4b6e3d" d="M 202.5,165.5 C 200.229,166.345 197.895,167.345 195.5,168.5C 194.287,168.253 193.62,167.586 193.5,166.5C 194.117,166.611 194.617,166.944 195,167.5C 197.135,165.722 199.635,165.055 202.5,165.5 Z"/></g>
<g><path style="opacity:0.996" fill="#5d834b" d="M 226.5,166.5 C 224.504,169.679 222.171,170.012 219.5,167.5C 217.941,168.074 216.441,168.74 215,169.5C 214.536,168.906 214.369,168.239 214.5,167.5C 215.462,165.014 216.295,165.014 217,167.5C 220.267,167.105 223.267,166.105 226,164.5C 226.464,165.094 226.631,165.761 226.5,166.5 Z"/></g>
<g><path style="opacity:0.996" fill="#426536" d="M 243.5,167.5 C 242.359,168.339 241.026,169.006 239.5,169.5C 238.893,169.376 238.56,169.043 238.5,168.5C 238.389,166.352 239.056,166.019 240.5,167.5C 241.88,165.023 242.88,165.023 243.5,167.5 Z"/></g>
<g><path style="opacity:0.988" fill="#4d713f" d="M 268.5,166.5 C 265.653,169.502 264.653,169.168 265.5,165.5C 267.196,163.871 268.196,164.204 268.5,166.5 Z"/></g>
<g><path style="opacity:0.004" fill="#1e3d18" d="M 78.5,168.5 C 77.8333,169.167 77.8333,169.167 78.5,168.5 Z"/></g>
<g><path style="opacity:1" fill="#547843" d="M 209.5,167.5 C 208.066,167.596 206.733,168.596 205.5,170.5C 205.167,170.333 204.833,170.167 204.5,170C 205.823,169.184 206.489,168.017 206.5,166.5C 206.435,166.062 206.601,165.728 207,165.5C 207.995,166.066 208.828,166.733 209.5,167.5 Z"/></g>
<g><path style="opacity:0.004" fill="#1e3d18" d="M 80.5,169.5 C 79.8333,170.167 79.8333,170.167 80.5,169.5 Z"/></g>
<g><path style="opacity:0.004" fill="#1e3d18" d="M 129.5,176.5 C 129.833,176.5 130.167,176.5 130.5,176.5C 130.315,177.17 129.981,177.17 129.5,176.5 Z"/></g>
<g><path style="opacity:0.004" fill="#1e3d18" d="M 363.5,176.5 C 363.833,176.5 364.167,176.5 364.5,176.5C 364.315,177.17 363.981,177.17 363.5,176.5 Z"/></g>
<g><path style="opacity:0.004" fill="#1e3d18" d="M 447.5,176.5 C 447.833,176.5 448.167,176.5 448.5,176.5C 448.315,177.17 447.981,177.17 447.5,176.5 Z"/></g>
<g><path style="opacity:0.004" fill="#1e3d18" d="M 197.5,179.5 C 197.833,179.5 198.167,179.5 198.5,179.5C 198.672,180.492 198.338,181.158 197.5,181.5C 197.5,180.833 197.5,180.167 197.5,179.5 Z"/></g>
<g><path style="opacity:0.004" fill="#1e3d18" d="M 274.5,180.5 C 273.833,181.167 273.833,181.167 274.5,180.5 Z"/></g>
<g><path style="opacity:0.004" fill="#1e3d18" d="M 197.5,181.5 C 197.631,182.239 197.464,182.906 197,183.5C 196.308,182.563 196.475,181.897 197.5,181.5 Z"/></g>
</svg>
