<?xml version="1.0" encoding="UTF-8"?>
<!DOCTYPE svg PUBLIC "-//W3C//DTD SVG 1.1//EN" "http://www.w3.org/Graphics/SVG/1.1/DTD/svg11.dtd">
<svg xmlns="http://www.w3.org/2000/svg" version="1.1" width="651px" height="253px" style="shape-rendering:geometricPrecision; text-rendering:geometricPrecision; image-rendering:optimizeQuality; fill-rule:evenodd; clip-rule:evenodd" xmlns:xlink="http://www.w3.org/1999/xlink">
<g><path style="opacity:0.866" fill="#1f3d19" d="M 390.5,80.5 C 393.366,80.9545 396.699,81.1212 400.5,81C 402.137,82.951 403.637,82.7843 405,80.5C 406.908,82.9065 408.908,82.9065 411,80.5C 412.649,81.8977 413.982,81.5644 415,79.5C 416.715,79.5197 418.548,80.1864 420.5,81.5C 421.425,80.3595 422.259,80.3595 423,81.5C 423.667,80.8333 424.333,80.1667 425,79.5C 427.471,80.4011 429.971,81.4011 432.5,82.5C 434.042,81.2532 435.542,81.2532 437,82.5C 437.667,81.8333 438.333,81.1667 439,80.5C 440.873,79.9109 442.54,80.5776 444,82.5C 444.333,81.8333 444.667,81.1667 445,80.5C 445.667,81.8333 446.333,81.8333 447,80.5C 449.081,81.2146 451.247,82.2146 453.5,83.5C 455.706,81.496 457.872,81.1627 460,82.5C 461.512,81.7433 462.846,80.7433 464,79.5C 466.034,81.0316 468.201,82.3649 470.5,83.5C 471.748,82.9598 472.915,82.2931 474,81.5C 474.674,82.5784 475.674,83.2451 477,83.5C 478.865,83.2945 480.532,82.6278 482,81.5C 482.902,81.7432 483.735,82.0766 484.5,82.5C 486.398,83.485 487.898,82.8183 489,80.5C 489.708,81.3805 490.542,82.0472 491.5,82.5C 492.664,85.5785 494.164,85.9118 496,83.5C 499.039,84.966 501.872,84.6327 504.5,82.5C 507.188,84.1194 510.021,85.4527 513,86.5C 513.974,84.1224 514.641,84.4557 515,87.5C 518.042,84.918 521.042,84.918 524,87.5C 527.749,84.8278 530.416,85.8278 532,90.5C 533.667,87.8333 535.333,87.8333 537,90.5C 537.667,89.8333 538.333,89.1667 539,88.5C 539.741,89.6405 540.575,89.6405 541.5,88.5C 542.696,88.8457 542.696,89.3457 541.5,90C 543.112,90.7203 544.612,90.5536 546,89.5C 547.529,90.7287 548.696,92.2287 549.5,94C 552.057,95.1186 554.557,95.2853 557,94.5C 558,95.8333 559,97.1667 560,98.5C 560.914,97.3463 561.747,97.513 562.5,99C 562.167,99.3333 561.833,99.6667 561.5,100C 564.102,100.935 565.602,102.768 566,105.5C 566.414,105.043 566.914,104.709 567.5,104.5C 570.227,107.03 572.393,109.363 574,111.5C 574.21,112.803 574.043,114.136 573.5,115.5C 573.818,116.647 574.484,117.481 575.5,118C 574.748,118.671 574.414,119.504 574.5,120.5C 574.453,122.178 574.12,124.011 573.5,126C 573.639,127.301 574.305,128.134 575.5,128.5C 576.429,129.315 577.429,130.148 578.5,131C 574.908,133.971 574.575,137.304 577.5,141C 573.709,144.183 570.042,147.516 566.5,151C 566.833,151.333 567.167,151.667 567.5,152C 565.566,153.562 563.899,155.395 562.5,157.5C 560.994,158.747 559.494,158.747 558,157.5C 556.245,160.044 554.245,162.377 552,164.5C 551.667,164.167 551.333,163.833 551,163.5C 547.129,164.983 543.295,166.649 539.5,168.5C 537.837,167.125 536.503,167.458 535.5,169.5C 534.914,169.291 534.414,168.957 534,168.5C 533.221,169.728 532.221,170.728 531,171.5C 526.963,168.576 523.297,168.91 520,172.5C 517.608,171.575 514.942,171.241 512,171.5C 510.667,174.167 509.333,174.167 508,171.5C 506.559,172.26 505.059,172.926 503.5,173.5C 500.5,173.5 497.5,173.5 494.5,173.5C 493.808,172.975 493.308,172.308 493,171.5C 490.137,172.602 487.304,173.602 484.5,174.5C 483.167,173.167 481.833,173.167 480.5,174.5C 479.522,174.023 478.689,173.357 478,172.5C 477.581,173.672 476.915,174.672 476,175.5C 473.756,173.006 471.423,173.006 469,175.5C 466.724,172.936 464.724,173.27 463,176.5C 462.196,175.196 461.029,174.529 459.5,174.5C 455.542,174.396 451.875,175.063 448.5,176.5C 448.167,175.167 447.833,175.167 447.5,176.5C 446.312,175.316 445.145,175.316 444,176.5C 443,175.833 442,175.167 441,174.5C 439.384,175.545 437.717,176.545 436,177.5C 435.259,176.359 434.425,176.359 433.5,177.5C 432.808,176.975 432.308,176.308 432,175.5C 429.405,175.003 426.905,175.67 424.5,177.5C 422.002,174.809 419.835,175.142 418,178.5C 416.518,176.219 414.851,176.219 413,178.5C 411.108,177.87 409.441,176.87 408,175.5C 406.667,176.833 405.333,176.833 404,175.5C 402.333,178.167 400.667,178.167 399,175.5C 393.381,176.646 388.048,176.646 383,175.5C 382.333,176.167 381.667,176.833 381,177.5C 379.111,176.903 377.278,176.569 375.5,176.5C 373.41,179.009 371.577,178.675 370,175.5C 369,176.5 368,177.5 367,178.5C 366.292,177.619 365.458,176.953 364.5,176.5C 364.167,175.167 363.833,175.167 363.5,176.5C 360.03,175.875 357.196,176.875 355,179.5C 354.333,178.833 353.667,178.167 353,177.5C 351.667,177.5 350.333,177.5 349,177.5C 346.672,179.438 344.339,179.105 342,176.5C 339.227,178.047 336.227,179.047 333,179.5C 328.236,179.435 323.403,179.435 318.5,179.5C 316.405,177.411 314.572,177.411 313,179.5C 311.57,179.694 310.07,179.694 308.5,179.5C 306.139,181.564 303.806,181.23 301.5,178.5C 298.668,180.647 296.001,180.647 293.5,178.5C 291.039,179.264 288.539,180.264 286,181.5C 284.622,179.787 282.955,178.453 281,177.5C 279.266,179.451 277.099,180.451 274.5,180.5C 273.516,177.93 272.349,177.93 271,180.5C 270.692,179.692 270.192,179.025 269.5,178.5C 267.724,178.718 265.891,178.718 264,178.5C 260.666,181.338 257.666,181.004 255,177.5C 253.321,180.699 251.321,181.033 249,178.5C 246.733,179.935 244.733,179.602 243,177.5C 241.667,178.833 240.333,180.167 239,181.5C 237.192,181.112 235.525,181.112 234,181.5C 233,180.5 232,179.5 231,178.5C 230.646,180.807 229.646,181.141 228,179.5C 226.739,179.759 225.739,180.426 225,181.5C 222.333,180.167 219.667,180.167 217,181.5C 215.488,180.743 214.154,179.743 213,178.5C 210.808,180.737 208.308,181.404 205.5,180.5C 204.167,181.167 202.833,181.833 201.5,182.5C 200.494,182.062 200.494,181.396 201.5,180.5C 200.675,179.614 199.675,179.281 198.5,179.5C 198.167,178.167 197.833,178.167 197.5,179.5C 195.139,180.9 192.805,181.9 190.5,182.5C 189.033,181.305 187.533,181.305 186,182.5C 184.278,182.389 184.112,181.889 185.5,181C 183.899,180.727 182.399,180.227 181,179.5C 180.667,179.833 180.333,180.167 180,180.5C 179.779,177.057 178.779,176.724 177,179.5C 176.667,179.167 176.333,178.833 176,178.5C 173.903,179.991 171.57,180.991 169,181.5C 168.646,179.193 167.646,178.859 166,180.5C 164.532,179.372 162.865,178.706 161,178.5C 154.437,179.256 147.937,179.589 141.5,179.5C 138.947,176.956 136.447,176.956 134,179.5C 133.517,178.552 133.351,177.552 133.5,176.5C 132.5,176.5 131.5,176.5 130.5,176.5C 130.167,175.167 129.833,175.167 129.5,176.5C 126.857,176.858 124.19,177.191 121.5,177.5C 120.201,176.91 119.368,175.91 119,174.5C 118,175.5 117,176.5 116,177.5C 115.309,175.109 114.309,175.109 113,177.5C 112.632,176.09 111.799,175.09 110.5,174.5C 107.754,175.81 104.754,176.477 101.5,176.5C 99.5469,175.976 97.8802,174.976 96.5,173.5C 96.0024,174.603 95.6691,175.603 95.5,176.5C 93.7143,174.979 91.881,174.646 90,175.5C 89,174.167 88,172.833 87,171.5C 86.586,171.957 86.086,172.291 85.5,172.5C 83.9713,171.237 82.3046,170.237 80.5,169.5C 80.1583,168.662 79.4916,168.328 78.5,168.5C 77.1155,167.199 75.6155,167.199 74,168.5C 73.5172,167.552 73.3505,166.552 73.5,165.5C 70.8915,165.394 68.8915,164.228 67.5,162C 68.4428,159.625 68.7762,156.959 68.5,154C 67.536,152.036 66.2026,150.37 64.5,149C 65.2442,146.845 66.2442,144.845 67.5,143C 67.2614,141.219 66.9281,139.386 66.5,137.5C 67.0253,136.808 67.6919,136.308 68.5,136C 67.624,134.414 66.624,132.914 65.5,131.5C 66.8905,131.891 67.8905,131.058 68.5,129C 65.9041,127.203 66.2374,125.869 69.5,125C 68.5004,122.909 69.1671,121.243 71.5,120C 71.0426,119.586 70.7093,119.086 70.5,118.5C 71.5,117.667 72.5,116.833 73.5,116C 71.7223,111.849 73.3889,109.349 78.5,108.5C 79.5533,105.921 80.8866,103.421 82.5,101C 85.4245,100.012 88.4245,99.3457 91.5,99C 90.1118,98.1107 90.2785,97.6107 92,97.5C 94.0709,98.6673 95.5709,98.0006 96.5,95.5C 97.9621,96.4709 99.2954,96.1376 100.5,94.5C 103.987,93.3203 107.487,93.3203 111,94.5C 112.616,93.4552 114.283,92.4552 116,91.5C 117.333,94.1667 118.667,94.1667 120,91.5C 121.813,91.5934 123.646,91.9267 125.5,92.5C 127.029,92.4712 128.196,91.8045 129,90.5C 131.608,92.1818 134.275,92.8484 137,92.5C 138.697,88.9174 140.863,88.584 143.5,91.5C 147.201,91.0302 150.534,89.6969 153.5,87.5C 156.819,89.7769 159.985,90.1102 163,88.5C 164.316,91.028 165.483,91.028 166.5,88.5C 168.55,88.7437 170.55,89.077 172.5,89.5C 172.783,90.2891 173.283,90.9558 174,91.5C 175.57,90.386 176.903,89.0526 178,87.5C 178.333,87.8333 178.667,88.1667 179,88.5C 180.775,85.9557 182.608,85.9557 184.5,88.5C 185.333,87.5 186.167,86.5 187,85.5C 189.244,87.9938 191.577,87.9938 194,85.5C 195.268,85.6158 196.602,85.9491 198,86.5C 199.874,84.2241 201.541,84.5575 203,87.5C 203.915,86.6721 204.581,85.6721 205,84.5C 208.677,85.5206 212.343,86.5206 216,87.5C 219.873,84.5592 224.04,83.8925 228.5,85.5C 230.332,84.7515 231.999,83.7515 233.5,82.5C 234.719,83.2634 235.719,84.2634 236.5,85.5C 237.814,84.6872 238.981,83.6872 240,82.5C 242,85.1667 244,85.1667 246,82.5C 247.309,84.8912 248.309,84.8912 249,82.5C 251.336,85.3552 253.169,85.0218 254.5,81.5C 256.098,83.9734 257.598,83.9734 259,81.5C 260.912,82.6919 262.912,83.6919 265,84.5C 267.203,81.0797 269.703,80.4131 272.5,82.5C 272.897,83.525 273.563,83.6917 274.5,83C 275.791,78.9317 277.958,78.4317 281,81.5C 283.667,80.8333 286.333,80.1667 289,79.5C 290.333,80.1667 291.333,81.1667 292,82.5C 293,81.1667 294,81.1667 295,82.5C 297.737,78.3068 300.57,77.9735 303.5,81.5C 304.814,80.6872 305.981,79.6872 307,78.5C 309.762,79.9806 312.429,81.6473 315,83.5C 316,82.5 317,81.5 318,80.5C 319,80.8333 320,81.1667 321,81.5C 321.333,80.8333 321.667,80.1667 322,79.5C 324.575,80.5886 327.241,80.5886 330,79.5C 330.689,80.3567 331.522,81.0233 332.5,81.5C 336.25,78.4124 340.084,78.0791 344,80.5C 347.132,77.5797 349.799,77.913 352,81.5C 353.117,79.8757 354.617,78.8757 356.5,78.5C 359.326,79.5796 362.159,80.5796 365,81.5C 366,80.8333 367,80.1667 368,79.5C 370.667,79.5 373.333,79.5 376,79.5C 378.431,81.421 381.098,81.421 384,79.5C 385.657,80.4841 387.323,81.4841 389,82.5C 389.717,81.9558 390.217,81.2891 390.5,80.5 Z"/></g>
<g><path style="opacity:0.004" fill="#1e3d18" d="M 390.5,80.5 C 389.833,79.1667 389.833,79.1667 390.5,80.5 Z"/></g>
<g><path style="opacity:0.004" fill="#1e3d18" d="M 474.5,79.5 C 475.833,80.1667 475.833,80.1667 474.5,79.5 Z"/></g>
<g><path style="opacity:0.004" fill="#1e3d18" d="M 272.5,81.5 C 273.833,82.1667 273.833,82.1667 272.5,81.5 Z"/></g>
<g><path style="opacity:0.004" fill="#1e3d18" d="M 475.5,81.5 C 476.833,82.1667 476.833,82.1667 475.5,81.5 Z"/></g>
<g><path style="opacity:0.004" fill="#1e3d18" d="M 484.5,81.5 C 485.833,82.1667 485.833,82.1667 484.5,81.5 Z"/></g>
<g><path style="opacity:0.004" fill="#1e3d18" d="M 491.5,81.5 C 492.833,82.1667 492.833,82.1667 491.5,81.5 Z"/></g>
<g><path style="opacity:0.004" fill="#1e3d18" d="M 172.5,88.5 C 173.833,89.1667 173.833,89.1667 172.5,88.5 Z"/></g>
<g><path style="opacity:0.004" fill="#1e3d18" d="M 563.5,98.5 C 564.833,99.1667 564.833,99.1667 563.5,98.5 Z"/></g>
<g><path style="opacity:0.999" fill="#203d19" d="M 228.5,103.5 C 232.298,102.517 236.298,102.183 240.5,102.5C 240.666,107.179 240.499,111.845 240,116.5C 237.667,115.5 236,113.833 235,111.5C 233.594,112.668 232.428,112.335 231.5,110.5C 229.36,111.106 227.193,110.773 225,109.5C 222.75,110.708 220.583,112.041 218.5,113.5C 217.893,113.376 217.56,113.043 217.5,112.5C 221.603,108.939 226.27,106.106 231.5,104C 230.552,103.517 229.552,103.351 228.5,103.5 Z"/></g>
<g><path style="opacity:0.998" fill="#21401b" d="M 228.5,103.5 C 229.552,103.351 230.552,103.517 231.5,104C 226.27,106.106 221.603,108.939 217.5,112.5C 216.833,112.5 216.5,112.833 216.5,113.5C 207.249,119.095 200.916,127.095 197.5,137.5C 197.852,140.046 199.185,141.712 201.5,142.5C 193.618,142.698 185.785,143.365 178,144.5C 177.5,144.167 177,143.833 176.5,143.5C 179.921,139.087 183.255,134.587 186.5,130C 187.252,126.832 187.252,123.499 186.5,120C 185.205,117.527 183.371,115.694 181,114.5C 171.987,112.028 164.654,114.695 159,122.5C 155.479,114.661 149.646,111.495 141.5,113C 139.067,114.862 136.734,116.695 134.5,118.5C 132.223,118.863 131.556,119.863 132.5,121.5C 131.624,122.251 130.624,122.751 129.5,123C 130.061,124.566 129.394,125.899 127.5,127C 129.398,127.64 129.732,128.973 128.5,131C 129.299,133.149 130.133,135.316 131,137.5C 133.034,138.721 134.867,140.055 136.5,141.5C 137.287,143.104 138.62,143.771 140.5,143.5C 140.5,144.833 140.5,146.167 140.5,147.5C 132.147,147.617 123.813,148.117 115.5,149C 116.609,149.638 117.775,150.138 119,150.5C 121.653,149.284 124.153,149.284 126.5,150.5C 124.537,151.96 122.704,153.627 121,155.5C 120.667,155.167 120.333,154.833 120,154.5C 119.209,155.745 118.709,157.078 118.5,158.5C 117.202,159.116 116.202,159.116 115.5,158.5C 113.973,155.932 111.639,154.599 108.5,154.5C 107.504,154.414 106.671,154.748 106,155.5C 103.117,151.098 99.2833,148.098 94.5,146.5C 94.4208,142.429 92.4208,138.929 88.5,136C 89.9987,134.203 91.4987,132.369 93,130.5C 93.6172,129.551 93.4506,128.718 92.5,128C 96.3904,124.231 100.057,120.231 103.5,116C 106.689,114.24 110.023,112.74 113.5,111.5C 121.868,111.14 130.368,110.14 139,108.5C 142.784,109.242 146.617,108.908 150.5,107.5C 152.101,108.165 153.601,108.499 155,108.5C 158.333,107.833 161.667,107.167 165,106.5C 167.55,106.323 169.883,106.657 172,107.5C 176.443,106.745 180.943,106.078 185.5,105.5C 187.029,105.529 188.196,106.196 189,107.5C 189.324,105.431 190.158,105.098 191.5,106.5C 194.628,105.294 197.628,104.627 200.5,104.5C 201.192,105.025 201.692,105.692 202,106.5C 202.308,105.692 202.808,105.025 203.5,104.5C 203.833,105.167 204.167,105.833 204.5,106.5C 206.674,105.137 208.841,104.803 211,105.5C 213.667,104.833 216.333,104.167 219,103.5C 222.265,103.52 225.432,103.52 228.5,103.5 Z"/></g>
<g><path style="opacity:0.004" fill="#1e3d18" d="M 571.5,105.5 C 572.833,106.167 572.833,106.167 571.5,105.5 Z"/></g>
<g><path style="opacity:0.996" fill="#1f3d19" d="M 216.5,113.5 C 214.967,115.355 213.3,117.188 211.5,119C 211.833,119.333 212.167,119.667 212.5,120C 210.831,123.637 210.164,127.304 210.5,131C 212.805,134.4 215.472,138.067 218.5,142C 212.843,142.499 207.176,142.666 201.5,142.5C 199.185,141.712 197.852,140.046 197.5,137.5C 200.916,127.095 207.249,119.095 216.5,113.5 Z"/></g>
<g><path style="opacity:0.997" fill="#1f3d19" d="M 134.5,118.5 C 134.804,119.15 135.137,119.817 135.5,120.5C 134.559,120.489 133.892,120.989 133.5,122C 133.905,122.945 134.572,123.612 135.5,124C 134.24,125.113 133.073,125.28 132,124.5C 132.019,126.107 132.185,127.774 132.5,129.5C 135.061,129.447 137.061,130.447 138.5,132.5C 138.333,132.833 138.167,133.167 138,133.5C 136.029,131.9 134.196,131.734 132.5,133C 133.167,133.333 133.833,133.667 134.5,134C 131.788,137.744 132.288,138.244 136,135.5C 136.167,135.833 136.333,136.167 136.5,136.5C 135.185,138.199 135.185,139.865 136.5,141.5C 134.867,140.055 133.034,138.721 131,137.5C 130.133,135.316 129.299,133.149 128.5,131C 129.732,128.973 129.398,127.64 127.5,127C 129.394,125.899 130.061,124.566 129.5,123C 130.624,122.751 131.624,122.251 132.5,121.5C 131.556,119.863 132.223,118.863 134.5,118.5 Z"/></g>
<g><path style="opacity:0.004" fill="#1e3d18" d="M 574.5,120.5 C 575.833,121.167 575.833,121.167 574.5,120.5 Z"/></g>
<g><path style="opacity:0.004" fill="#1e3d18" d="M 575.5,127.5 C 576.833,128.167 576.833,128.167 575.5,127.5 Z"/></g>
<g><path style="opacity:0.999" fill="#203e19" d="M 174.5,148.5 C 171.43,154.304 168.097,159.97 164.5,165.5C 163.833,165.5 163.5,165.833 163.5,166.5C 161.08,163.378 158.08,163.045 154.5,165.5C 153.264,164.754 151.93,164.421 150.5,164.5C 151.045,162.407 151.878,160.407 153,158.5C 154,157.167 155,157.167 156,158.5C 156.995,157.934 157.828,157.267 158.5,156.5C 159.688,155.316 160.855,155.316 162,156.5C 164.747,154.507 166.914,152.007 168.5,149C 170.473,148.505 172.473,148.338 174.5,148.5 Z"/></g>
<g><path style="opacity:0.998" fill="#1f3d19" d="M 174.5,148.5 C 189.754,148.631 205.087,148.798 220.5,149C 222.577,149.192 224.577,149.692 226.5,150.5C 229.997,154.335 234.331,156.335 239.5,156.5C 239.813,160.042 239.479,163.375 238.5,166.5C 238.817,163.428 238.484,160.428 237.5,157.5C 235.173,160.161 232.84,162.828 230.5,165.5C 228.726,166.669 226.892,167.669 225,168.5C 224.612,167.572 223.945,166.905 223,166.5C 221,167.167 219,167.833 217,168.5C 214.285,167.262 211.618,167.262 209,168.5C 207.921,166.606 206.587,166.273 205,167.5C 203.89,165.963 202.39,165.297 200.5,165.5C 202.334,161.521 203.834,157.521 205,153.5C 201.801,157.508 199.301,161.841 197.5,166.5C 197.631,167.376 197.298,168.043 196.5,168.5C 195.5,167.833 194.5,167.167 193.5,166.5C 191.274,167.088 188.941,167.422 186.5,167.5C 185.808,166.975 185.308,166.308 185,165.5C 184.692,166.308 184.192,166.975 183.5,167.5C 182.28,166.289 181.113,166.289 180,167.5C 178.899,165.606 177.566,164.939 176,165.5C 175.667,166.167 175.333,166.833 175,167.5C 173.601,167.499 172.101,167.165 170.5,166.5C 169.522,166.977 168.689,167.643 168,168.5C 166.961,167.29 165.794,166.29 164.5,165.5C 168.097,159.97 171.43,154.304 174.5,148.5 Z"/></g>
<g><path style="opacity:1" fill="#1f3e19" d="M 126.5,150.5 C 125.399,154.38 123.566,157.713 121,160.5C 119.989,159.944 119.156,159.278 118.5,158.5C 118.709,157.078 119.209,155.745 120,154.5C 120.333,154.833 120.667,155.167 121,155.5C 122.704,153.627 124.537,151.96 126.5,150.5 Z"/></g>
<g><path style="opacity:0.999" fill="#213f1a" d="M 200.5,165.5 C 199.609,166.11 198.609,166.443 197.5,166.5C 199.301,161.841 201.801,157.508 205,153.5C 203.834,157.521 202.334,161.521 200.5,165.5 Z"/></g>
<g><path style="opacity:0.999" fill="#1f3e19" d="M 108.5,154.5 C 111.639,154.599 113.973,155.932 115.5,158.5C 113.799,158.034 112.299,158.034 111,158.5C 110.338,157.016 109.504,155.683 108.5,154.5 Z"/></g>
<g><path style="opacity:0.999" fill="#1f3e19" d="M 158.5,156.5 C 157.828,157.267 156.995,157.934 156,158.5C 155,157.167 154,157.167 153,158.5C 151.878,160.407 151.045,162.407 150.5,164.5C 149.504,164.414 148.671,164.748 148,165.5C 147.333,164.833 146.667,164.167 146,163.5C 144.796,164.471 144.296,165.471 144.5,166.5C 142.78,165.045 140.78,164.212 138.5,164C 143.333,161.418 148,158.585 152.5,155.5C 154.657,156.126 156.657,156.46 158.5,156.5 Z"/></g>
<g><path style="opacity:0.998" fill="#203e1a" d="M 238.5,166.5 C 237.659,167.009 237.159,166.343 237,164.5C 234.856,166.075 232.689,166.408 230.5,165.5C 232.84,162.828 235.173,160.161 237.5,157.5C 238.484,160.428 238.817,163.428 238.5,166.5 Z"/></g>
<g><path style="opacity:0.004" fill="#1e3d18" d="M 556.5,162.5 C 557.833,163.167 557.833,163.167 556.5,162.5 Z"/></g>
<g><path style="opacity:0.999" fill="#203e19" d="M 163.5,166.5 C 161.098,166.037 158.765,166.704 156.5,168.5C 155.304,168.154 155.304,167.654 156.5,167C 154.148,166.76 152.148,165.927 150.5,164.5C 151.93,164.421 153.264,164.754 154.5,165.5C 158.08,163.045 161.08,163.378 163.5,166.5 Z"/></g>
<g><path style="opacity:0.004" fill="#1e3d18" d="M 78.5,168.5 C 77.8333,169.167 77.8333,169.167 78.5,168.5 Z"/></g>
<g><path style="opacity:0.004" fill="#1e3d18" d="M 80.5,169.5 C 79.8333,170.167 79.8333,170.167 80.5,169.5 Z"/></g>
<g><path style="opacity:0.004" fill="#1e3d18" d="M 129.5,176.5 C 129.833,176.5 130.167,176.5 130.5,176.5C 130.315,177.17 129.981,177.17 129.5,176.5 Z"/></g>
<g><path style="opacity:0.004" fill="#1e3d18" d="M 363.5,176.5 C 363.833,176.5 364.167,176.5 364.5,176.5C 364.315,177.17 363.981,177.17 363.5,176.5 Z"/></g>
<g><path style="opacity:0.004" fill="#1e3d18" d="M 447.5,176.5 C 447.833,176.5 448.167,176.5 448.5,176.5C 448.315,177.17 447.981,177.17 447.5,176.5 Z"/></g>
<g><path style="opacity:0.004" fill="#1e3d18" d="M 197.5,179.5 C 197.833,179.5 198.167,179.5 198.5,179.5C 198.672,180.492 198.338,181.158 197.5,181.5C 197.5,180.833 197.5,180.167 197.5,179.5 Z"/></g>
<g><path style="opacity:0.004" fill="#1e3d18" d="M 274.5,180.5 C 273.833,181.167 273.833,181.167 274.5,180.5 Z"/></g>
<g><path style="opacity:0.004" fill="#1e3d18" d="M 197.5,181.5 C 197.631,182.239 197.464,182.906 197,183.5C 196.308,182.563 196.475,181.897 197.5,181.5 Z"/></g>
</svg>
