<?xml version="1.0" encoding="UTF-8"?>
<!DOCTYPE svg PUBLIC "-//W3C//DTD SVG 1.1//EN" "http://www.w3.org/Graphics/SVG/1.1/DTD/svg11.dtd">
<svg xmlns="http://www.w3.org/2000/svg" version="1.1" width="651px" height="253px" style="shape-rendering:geometricPrecision; text-rendering:geometricPrecision; image-rendering:optimizeQuality; fill-rule:evenodd; clip-rule:evenodd" xmlns:xlink="http://www.w3.org/1999/xlink">
<g><path style="opacity:0.846" fill="#1f3d19" d="M 390.5,80.5 C 393.366,80.9545 396.699,81.1212 400.5,81C 402.137,82.951 403.637,82.7843 405,80.5C 406.908,82.9065 408.908,82.9065 411,80.5C 412.649,81.8977 413.982,81.5644 415,79.5C 416.715,79.5197 418.548,80.1864 420.5,81.5C 421.425,80.3595 422.259,80.3595 423,81.5C 423.667,80.8333 424.333,80.1667 425,79.5C 427.471,80.4011 429.971,81.4011 432.5,82.5C 434.042,81.2532 435.542,81.2532 437,82.5C 437.667,81.8333 438.333,81.1667 439,80.5C 440.873,79.9109 442.54,80.5776 444,82.5C 444.333,81.8333 444.667,81.1667 445,80.5C 445.667,81.8333 446.333,81.8333 447,80.5C 449.081,81.2146 451.247,82.2146 453.5,83.5C 455.706,81.496 457.872,81.1627 460,82.5C 461.512,81.7433 462.846,80.7433 464,79.5C 466.034,81.0316 468.201,82.3649 470.5,83.5C 471.748,82.9598 472.915,82.2931 474,81.5C 474.674,82.5784 475.674,83.2451 477,83.5C 478.865,83.2945 480.532,82.6278 482,81.5C 482.902,81.7432 483.735,82.0766 484.5,82.5C 486.398,83.485 487.898,82.8183 489,80.5C 489.708,81.3805 490.542,82.0472 491.5,82.5C 492.664,85.5785 494.164,85.9118 496,83.5C 499.039,84.966 501.872,84.6327 504.5,82.5C 507.188,84.1194 510.021,85.4527 513,86.5C 513.974,84.1224 514.641,84.4557 515,87.5C 518.042,84.918 521.042,84.918 524,87.5C 527.749,84.8278 530.416,85.8278 532,90.5C 533.667,87.8333 535.333,87.8333 537,90.5C 537.667,89.8333 538.333,89.1667 539,88.5C 539.741,89.6405 540.575,89.6405 541.5,88.5C 542.696,88.8457 542.696,89.3457 541.5,90C 543.112,90.7203 544.612,90.5536 546,89.5C 547.529,90.7287 548.696,92.2287 549.5,94C 552.057,95.1186 554.557,95.2853 557,94.5C 558,95.8333 559,97.1667 560,98.5C 560.914,97.3463 561.747,97.513 562.5,99C 562.167,99.3333 561.833,99.6667 561.5,100C 564.102,100.935 565.602,102.768 566,105.5C 566.414,105.043 566.914,104.709 567.5,104.5C 570.227,107.03 572.393,109.363 574,111.5C 574.21,112.803 574.043,114.136 573.5,115.5C 573.818,116.647 574.484,117.481 575.5,118C 574.748,118.671 574.414,119.504 574.5,120.5C 574.453,122.178 574.12,124.011 573.5,126C 573.639,127.301 574.305,128.134 575.5,128.5C 576.429,129.315 577.429,130.148 578.5,131C 574.908,133.971 574.575,137.304 577.5,141C 573.709,144.183 570.042,147.516 566.5,151C 566.833,151.333 567.167,151.667 567.5,152C 565.566,153.562 563.899,155.395 562.5,157.5C 560.994,158.747 559.494,158.747 558,157.5C 556.245,160.044 554.245,162.377 552,164.5C 551.667,164.167 551.333,163.833 551,163.5C 547.129,164.983 543.295,166.649 539.5,168.5C 537.837,167.125 536.503,167.458 535.5,169.5C 534.914,169.291 534.414,168.957 534,168.5C 533.221,169.728 532.221,170.728 531,171.5C 526.963,168.576 523.297,168.91 520,172.5C 517.608,171.575 514.942,171.241 512,171.5C 510.667,174.167 509.333,174.167 508,171.5C 506.559,172.26 505.059,172.926 503.5,173.5C 500.5,173.5 497.5,173.5 494.5,173.5C 493.808,172.975 493.308,172.308 493,171.5C 490.137,172.602 487.304,173.602 484.5,174.5C 483.167,173.167 481.833,173.167 480.5,174.5C 479.522,174.023 478.689,173.357 478,172.5C 477.581,173.672 476.915,174.672 476,175.5C 473.756,173.006 471.423,173.006 469,175.5C 466.724,172.936 464.724,173.27 463,176.5C 462.196,175.196 461.029,174.529 459.5,174.5C 455.542,174.396 451.875,175.063 448.5,176.5C 448.167,175.167 447.833,175.167 447.5,176.5C 446.312,175.316 445.145,175.316 444,176.5C 443,175.833 442,175.167 441,174.5C 439.384,175.545 437.717,176.545 436,177.5C 435.259,176.359 434.425,176.359 433.5,177.5C 432.808,176.975 432.308,176.308 432,175.5C 429.405,175.003 426.905,175.67 424.5,177.5C 422.002,174.809 419.835,175.142 418,178.5C 416.518,176.219 414.851,176.219 413,178.5C 411.108,177.87 409.441,176.87 408,175.5C 406.667,176.833 405.333,176.833 404,175.5C 402.333,178.167 400.667,178.167 399,175.5C 393.381,176.646 388.048,176.646 383,175.5C 382.333,176.167 381.667,176.833 381,177.5C 379.111,176.903 377.278,176.569 375.5,176.5C 373.41,179.009 371.577,178.675 370,175.5C 369,176.5 368,177.5 367,178.5C 366.292,177.619 365.458,176.953 364.5,176.5C 364.167,175.167 363.833,175.167 363.5,176.5C 360.03,175.875 357.196,176.875 355,179.5C 354.333,178.833 353.667,178.167 353,177.5C 351.667,177.5 350.333,177.5 349,177.5C 346.672,179.438 344.339,179.105 342,176.5C 339.227,178.047 336.227,179.047 333,179.5C 328.236,179.435 323.403,179.435 318.5,179.5C 316.405,177.411 314.572,177.411 313,179.5C 311.57,179.694 310.07,179.694 308.5,179.5C 306.139,181.564 303.806,181.23 301.5,178.5C 298.668,180.647 296.001,180.647 293.5,178.5C 291.039,179.264 288.539,180.264 286,181.5C 284.622,179.787 282.955,178.453 281,177.5C 279.266,179.451 277.099,180.451 274.5,180.5C 273.516,177.93 272.349,177.93 271,180.5C 270.692,179.692 270.192,179.025 269.5,178.5C 267.724,178.718 265.891,178.718 264,178.5C 260.666,181.338 257.666,181.004 255,177.5C 253.321,180.699 251.321,181.033 249,178.5C 246.733,179.935 244.733,179.602 243,177.5C 241.667,178.833 240.333,180.167 239,181.5C 237.192,181.112 235.525,181.112 234,181.5C 233,180.5 232,179.5 231,178.5C 230.646,180.807 229.646,181.141 228,179.5C 226.739,179.759 225.739,180.426 225,181.5C 222.333,180.167 219.667,180.167 217,181.5C 215.488,180.743 214.154,179.743 213,178.5C 210.808,180.737 208.308,181.404 205.5,180.5C 204.167,181.167 202.833,181.833 201.5,182.5C 200.494,182.062 200.494,181.396 201.5,180.5C 200.675,179.614 199.675,179.281 198.5,179.5C 198.167,178.167 197.833,178.167 197.5,179.5C 195.139,180.9 192.805,181.9 190.5,182.5C 189.033,181.305 187.533,181.305 186,182.5C 184.278,182.389 184.112,181.889 185.5,181C 183.899,180.727 182.399,180.227 181,179.5C 180.667,179.833 180.333,180.167 180,180.5C 179.779,177.057 178.779,176.724 177,179.5C 176.667,179.167 176.333,178.833 176,178.5C 173.903,179.991 171.57,180.991 169,181.5C 168.646,179.193 167.646,178.859 166,180.5C 164.532,179.372 162.865,178.706 161,178.5C 154.437,179.256 147.937,179.589 141.5,179.5C 138.947,176.956 136.447,176.956 134,179.5C 133.517,178.552 133.351,177.552 133.5,176.5C 132.5,176.5 131.5,176.5 130.5,176.5C 130.167,175.167 129.833,175.167 129.5,176.5C 126.857,176.858 124.19,177.191 121.5,177.5C 120.201,176.91 119.368,175.91 119,174.5C 118,175.5 117,176.5 116,177.5C 115.309,175.109 114.309,175.109 113,177.5C 112.632,176.09 111.799,175.09 110.5,174.5C 107.754,175.81 104.754,176.477 101.5,176.5C 99.5469,175.976 97.8802,174.976 96.5,173.5C 96.0024,174.603 95.6691,175.603 95.5,176.5C 93.7143,174.979 91.881,174.646 90,175.5C 89,174.167 88,172.833 87,171.5C 86.586,171.957 86.086,172.291 85.5,172.5C 83.9713,171.237 82.3046,170.237 80.5,169.5C 80.1583,168.662 79.4916,168.328 78.5,168.5C 77.1155,167.199 75.6155,167.199 74,168.5C 73.5172,167.552 73.3505,166.552 73.5,165.5C 70.8915,165.394 68.8915,164.228 67.5,162C 68.4428,159.625 68.7762,156.959 68.5,154C 67.536,152.036 66.2026,150.37 64.5,149C 65.2442,146.845 66.2442,144.845 67.5,143C 67.2614,141.219 66.9281,139.386 66.5,137.5C 67.0253,136.808 67.6919,136.308 68.5,136C 67.624,134.414 66.624,132.914 65.5,131.5C 66.8905,131.891 67.8905,131.058 68.5,129C 65.9041,127.203 66.2374,125.869 69.5,125C 68.5004,122.909 69.1671,121.243 71.5,120C 71.0426,119.586 70.7093,119.086 70.5,118.5C 71.5,117.667 72.5,116.833 73.5,116C 71.7223,111.849 73.3889,109.349 78.5,108.5C 79.5533,105.921 80.8866,103.421 82.5,101C 85.4245,100.012 88.4245,99.3457 91.5,99C 90.1118,98.1107 90.2785,97.6107 92,97.5C 94.0709,98.6673 95.5709,98.0006 96.5,95.5C 97.9621,96.4709 99.2954,96.1376 100.5,94.5C 103.987,93.3203 107.487,93.3203 111,94.5C 112.616,93.4552 114.283,92.4552 116,91.5C 117.333,94.1667 118.667,94.1667 120,91.5C 121.813,91.5934 123.646,91.9267 125.5,92.5C 127.029,92.4712 128.196,91.8045 129,90.5C 131.608,92.1818 134.275,92.8484 137,92.5C 138.697,88.9174 140.863,88.584 143.5,91.5C 147.201,91.0302 150.534,89.6969 153.5,87.5C 156.819,89.7769 159.985,90.1102 163,88.5C 164.316,91.028 165.483,91.028 166.5,88.5C 168.55,88.7437 170.55,89.077 172.5,89.5C 172.783,90.2891 173.283,90.9558 174,91.5C 175.57,90.386 176.903,89.0526 178,87.5C 178.333,87.8333 178.667,88.1667 179,88.5C 180.775,85.9557 182.608,85.9557 184.5,88.5C 185.333,87.5 186.167,86.5 187,85.5C 189.244,87.9938 191.577,87.9938 194,85.5C 195.268,85.6158 196.602,85.9491 198,86.5C 199.874,84.2241 201.541,84.5575 203,87.5C 203.915,86.6721 204.581,85.6721 205,84.5C 208.677,85.5206 212.343,86.5206 216,87.5C 219.873,84.5592 224.04,83.8925 228.5,85.5C 230.332,84.7515 231.999,83.7515 233.5,82.5C 234.719,83.2634 235.719,84.2634 236.5,85.5C 237.814,84.6872 238.981,83.6872 240,82.5C 242,85.1667 244,85.1667 246,82.5C 247.309,84.8912 248.309,84.8912 249,82.5C 251.336,85.3552 253.169,85.0218 254.5,81.5C 256.098,83.9734 257.598,83.9734 259,81.5C 260.912,82.6919 262.912,83.6919 265,84.5C 267.203,81.0797 269.703,80.4131 272.5,82.5C 272.897,83.525 273.563,83.6917 274.5,83C 275.791,78.9317 277.958,78.4317 281,81.5C 283.667,80.8333 286.333,80.1667 289,79.5C 290.333,80.1667 291.333,81.1667 292,82.5C 293,81.1667 294,81.1667 295,82.5C 297.737,78.3068 300.57,77.9735 303.5,81.5C 304.814,80.6872 305.981,79.6872 307,78.5C 309.762,79.9806 312.429,81.6473 315,83.5C 316,82.5 317,81.5 318,80.5C 319,80.8333 320,81.1667 321,81.5C 321.333,80.8333 321.667,80.1667 322,79.5C 324.575,80.5886 327.241,80.5886 330,79.5C 330.689,80.3567 331.522,81.0233 332.5,81.5C 336.25,78.4124 340.084,78.0791 344,80.5C 347.132,77.5797 349.799,77.913 352,81.5C 353.117,79.8757 354.617,78.8757 356.5,78.5C 359.326,79.5796 362.159,80.5796 365,81.5C 366,80.8333 367,80.1667 368,79.5C 370.667,79.5 373.333,79.5 376,79.5C 378.431,81.421 381.098,81.421 384,79.5C 385.657,80.4841 387.323,81.4841 389,82.5C 389.717,81.9558 390.217,81.2891 390.5,80.5 Z"/></g>
<g><path style="opacity:0.004" fill="#1e3d18" d="M 390.5,80.5 C 389.833,79.1667 389.833,79.1667 390.5,80.5 Z"/></g>
<g><path style="opacity:0.004" fill="#1e3d18" d="M 474.5,79.5 C 475.833,80.1667 475.833,80.1667 474.5,79.5 Z"/></g>
<g><path style="opacity:0.004" fill="#1e3d18" d="M 272.5,81.5 C 273.833,82.1667 273.833,82.1667 272.5,81.5 Z"/></g>
<g><path style="opacity:0.004" fill="#1e3d18" d="M 475.5,81.5 C 476.833,82.1667 476.833,82.1667 475.5,81.5 Z"/></g>
<g><path style="opacity:0.004" fill="#1e3d18" d="M 484.5,81.5 C 485.833,82.1667 485.833,82.1667 484.5,81.5 Z"/></g>
<g><path style="opacity:0.004" fill="#1e3d18" d="M 491.5,81.5 C 492.833,82.1667 492.833,82.1667 491.5,81.5 Z"/></g>
<g><path style="opacity:0.004" fill="#1e3d18" d="M 172.5,88.5 C 173.833,89.1667 173.833,89.1667 172.5,88.5 Z"/></g>
<g><path style="opacity:0.004" fill="#1e3d18" d="M 563.5,98.5 C 564.833,99.1667 564.833,99.1667 563.5,98.5 Z"/></g>
<g><path style="opacity:1" fill="#496c3b" d="M 190.5,103.5 C 189.534,106.125 188.534,106.125 187.5,103.5C 186.522,103.977 185.689,104.643 185,105.5C 184.536,104.906 184.369,104.239 184.5,103.5C 186.358,101.269 188.358,101.269 190.5,103.5 Z"/></g>
<g><path style="opacity:1" fill="#557945" d="M 219.5,101.5 C 215.535,103.595 211.535,104.929 207.5,105.5C 207.591,103.302 206.925,102.969 205.5,104.5C 205.47,103.503 205.97,102.836 207,102.5C 208.807,101.921 210.807,101.921 213,102.5C 214.89,102.215 216.223,101.215 217,99.5C 217.484,101.178 218.317,101.844 219.5,101.5 Z"/></g>
<g><path style="opacity:1" fill="#587c47" d="M 172.5,105.5 C 172.279,108.097 171.779,108.097 171,105.5C 169.559,106.26 168.059,106.926 166.5,107.5C 164.84,106.927 163.006,106.927 161,107.5C 159.319,107.392 158.152,106.725 157.5,105.5C 157.783,104.711 158.283,104.044 159,103.5C 161.027,104.212 162.027,105.212 162,106.5C 163.473,106.097 164.806,105.43 166,104.5C 166.333,104.833 166.667,105.167 167,105.5C 168.019,104.313 169.186,103.313 170.5,102.5C 170.088,103.782 170.754,104.782 172.5,105.5 Z"/></g>
<g><path style="opacity:0.004" fill="#1e3d18" d="M 571.5,105.5 C 572.833,106.167 572.833,106.167 571.5,105.5 Z"/></g>
<g><path style="opacity:1" fill="#547844" d="M 153.5,106.5 C 153.631,107.376 153.298,108.043 152.5,108.5C 151.583,107.873 150.583,107.539 149.5,107.5C 150.705,105.862 152.038,105.529 153.5,106.5 Z"/></g>
<g><path style="opacity:1" fill="#4f7340" d="M 129.5,109.5 C 130.239,109.369 130.906,109.536 131.5,110C 130.333,110.5 129.5,111.333 129,112.5C 128.612,111.572 127.945,110.905 127,110.5C 124.675,110.728 122.508,110.728 120.5,110.5C 123.166,110.02 125.666,109.02 128,107.5C 128.278,108.416 128.778,109.082 129.5,109.5 Z"/></g>
<g><path style="opacity:0.997" fill="#527642" d="M 242.5,104.5 C 242.826,108.884 242.492,113.217 241.5,117.5C 240.099,116.479 238.765,115.479 237.5,114.5C 238.787,113.129 239.453,111.295 239.5,109C 239.333,107.167 239.167,105.333 239,103.5C 236.794,102.918 234.294,102.585 231.5,102.5C 232.842,100.486 234.508,100.153 236.5,101.5C 238.029,101.471 239.196,100.804 240,99.5C 241.438,100.9 242.271,102.567 242.5,104.5 Z"/></g>
<g><path style="opacity:1" fill="#5e834c" d="M 113.5,112.5 C 114.658,113.95 114.158,114.95 112,115.5C 109.684,114.633 107.684,115.299 106,117.5C 105.617,116.944 105.117,116.611 104.5,116.5C 106.835,113.835 109.835,112.502 113.5,112.5 Z"/></g>
<g><path style="opacity:0.996" fill="#85b06c" d="M 231.5,102.5 C 234.294,102.585 236.794,102.918 239,103.5C 239.167,105.333 239.333,107.167 239.5,109C 239.453,111.295 238.787,113.129 237.5,114.5C 235.701,112.85 233.868,111.183 232,109.5C 229.534,110.788 227.034,110.788 224.5,109.5C 220.195,112.639 215.862,115.639 211.5,118.5C 211.915,121.704 211.248,124.871 209.5,128C 211.481,128.605 211.815,129.605 210.5,131C 211.191,132.067 211.691,133.234 212,134.5C 214.071,135.103 215.238,136.436 215.5,138.5C 213.265,137.772 211.432,136.439 210,134.5C 209.421,138.386 208.588,138.386 207.5,134.5C 206.372,133.738 205.205,133.071 204,132.5C 199.831,133.369 195.497,133.369 191,132.5C 188.13,133.093 185.297,133.759 182.5,134.5C 184.596,130.92 186.262,127.087 187.5,123C 186.944,122.617 186.611,122.117 186.5,121.5C 184.629,115.254 180.296,112.587 173.5,113.5C 171.254,114.21 168.92,114.71 166.5,115C 164.054,117.623 161.554,120.123 159,122.5C 155.672,114.752 149.839,111.586 141.5,113C 139.973,114.032 138.64,115.199 137.5,116.5C 134.833,117.833 132.167,119.167 129.5,120.5C 129.631,119.761 129.464,119.094 129,118.5C 127.732,118.616 126.398,118.949 125,119.5C 122.966,118.257 122.133,116.757 122.5,115C 121.004,114.493 119.837,114.993 119,116.5C 118.338,113.583 116.505,112.25 113.5,112.5C 113.461,111.244 113.961,110.244 115,109.5C 116.699,110.406 118.533,110.739 120.5,110.5C 122.508,110.728 124.675,110.728 127,110.5C 127.945,110.905 128.612,111.572 129,112.5C 129.5,111.333 130.333,110.5 131.5,110C 130.906,109.536 130.239,109.369 129.5,109.5C 130.531,108.751 131.698,108.085 133,107.5C 133.333,108.167 133.667,108.833 134,109.5C 137.12,107.286 140.12,107.286 143,109.5C 144.911,107.311 147.077,106.644 149.5,107.5C 150.583,107.539 151.583,107.873 152.5,108.5C 153.298,108.043 153.631,107.376 153.5,106.5C 154.222,106.918 154.722,107.584 155,108.5C 155.852,107.429 156.685,106.429 157.5,105.5C 158.152,106.725 159.319,107.392 161,107.5C 163.006,106.927 164.84,106.927 166.5,107.5C 168.059,106.926 169.559,106.26 171,105.5C 171.779,108.097 172.279,108.097 172.5,105.5C 174.391,104.464 176.224,104.464 178,105.5C 178.368,104.09 179.201,103.09 180.5,102.5C 180.489,103.441 180.989,104.108 182,104.5C 182.902,104.257 183.735,103.923 184.5,103.5C 184.369,104.239 184.536,104.906 185,105.5C 185.689,104.643 186.522,103.977 187.5,103.5C 188.534,106.125 189.534,106.125 190.5,103.5C 191.833,103.833 193.167,104.167 194.5,104.5C 196.518,105.047 198.351,106.047 200,107.5C 200.333,106.833 200.667,106.167 201,105.5C 203.28,106.772 205.447,106.772 207.5,105.5C 211.535,104.929 215.535,103.595 219.5,101.5C 220.416,101.018 221.416,100.685 222.5,100.5C 225.386,102.434 228.386,103.101 231.5,102.5 Z"/></g>
<g><path style="opacity:1" fill="#749c5e" d="M 205.5,104.5 C 206.925,102.969 207.591,103.302 207.5,105.5C 205.447,106.772 203.28,106.772 201,105.5C 200.667,106.167 200.333,106.833 200,107.5C 198.351,106.047 196.518,105.047 194.5,104.5C 196.405,104.928 198.238,104.262 200,102.5C 201.762,104.262 203.595,104.928 205.5,104.5 Z"/></g>
<g><path style="opacity:0.996" fill="#37582d" d="M 173.5,113.5 C 180.296,112.587 184.629,115.254 186.5,121.5C 184.396,121.799 182.396,121.466 180.5,120.5C 180.709,119.914 181.043,119.414 181.5,119C 178.5,118.667 175.5,118.333 172.5,118C 173.678,117.033 175.011,116.533 176.5,116.5C 175.23,115.712 174.23,114.712 173.5,113.5 Z"/></g>
<g><path style="opacity:1" fill="#426435" d="M 137.5,116.5 C 137.587,117.498 137.92,118.665 138.5,120C 138,120.5 137.5,121 137,121.5C 136.751,120.376 136.251,119.376 135.5,118.5C 135.089,119.262 134.923,120.262 135,121.5C 134.667,121.167 134.333,120.833 134,120.5C 133.5,121.667 132.667,122.5 131.5,123C 131.833,123.333 132.167,123.667 132.5,124C 131.552,124.483 130.552,124.649 129.5,124.5C 129.5,123.167 129.5,121.833 129.5,120.5C 132.167,119.167 134.833,117.833 137.5,116.5 Z"/></g>
<g><path style="opacity:0.996" fill="#2a4922" d="M 173.5,113.5 C 174.23,114.712 175.23,115.712 176.5,116.5C 175.011,116.533 173.678,117.033 172.5,118C 175.5,118.333 178.5,118.667 181.5,119C 181.043,119.414 180.709,119.914 180.5,120.5C 182.396,121.466 184.396,121.799 186.5,121.5C 186.611,122.117 186.944,122.617 187.5,123C 186.262,127.087 184.596,130.92 182.5,134.5C 180.946,135.693 179.279,136.86 177.5,138C 177.728,138.399 178.062,138.565 178.5,138.5C 178.056,140.113 177.056,141.28 175.5,142C 176.712,143.107 176.379,143.607 174.5,143.5C 174.565,143.062 174.399,142.728 174,142.5C 170.518,146.041 167.018,150.208 163.5,155C 160.635,155.837 157.802,156.67 155,157.5C 153.615,156.449 152.615,155.116 152,153.5C 151.667,154.167 151.333,154.833 151,155.5C 149.417,153.945 147.584,152.778 145.5,152C 145.957,151.586 146.291,151.086 146.5,150.5C 144.867,148.497 142.867,147.164 140.5,146.5C 140.737,145.209 140.404,144.209 139.5,143.5C 138.655,141.088 138.655,138.922 139.5,137C 140.5,136 141.5,135 142.5,134C 141.5,133.667 140.5,133.333 139.5,133C 140.258,131.636 139.758,130.469 138,129.5C 135.593,129.673 133.26,129.673 131,129.5C 130.292,128.619 129.458,127.953 128.5,127.5C 128.062,127.565 127.728,127.399 127.5,127C 128.381,126.292 129.047,125.458 129.5,124.5C 130.552,124.649 131.552,124.483 132.5,124C 132.167,123.667 131.833,123.333 131.5,123C 132.667,122.5 133.5,121.667 134,120.5C 134.333,120.833 134.667,121.167 135,121.5C 134.923,120.262 135.089,119.262 135.5,118.5C 136.251,119.376 136.751,120.376 137,121.5C 137.5,121 138,120.5 138.5,120C 137.92,118.665 137.587,117.498 137.5,116.5C 138.64,115.199 139.973,114.032 141.5,113C 149.839,111.586 155.672,114.752 159,122.5C 161.554,120.123 164.054,117.623 166.5,115C 168.92,114.71 171.254,114.21 173.5,113.5 Z"/></g>
<g><path style="opacity:0.004" fill="#1e3d18" d="M 574.5,120.5 C 575.833,121.167 575.833,121.167 574.5,120.5 Z"/></g>
<g><path style="opacity:0.004" fill="#1e3d18" d="M 575.5,127.5 C 576.833,128.167 576.833,128.167 575.5,127.5 Z"/></g>
<g><path style="opacity:0.996" fill="#2a4a22" d="M 242.5,104.5 C 243.815,109.68 243.815,115.014 242.5,120.5C 241.129,122.546 239.462,124.379 237.5,126C 238.672,126.419 239.672,127.085 240.5,128C 238.473,129.396 238.14,131.062 239.5,133C 238.833,133.333 238.167,133.667 237.5,134C 238.357,134.689 239.023,135.522 239.5,136.5C 239.055,139.945 239.055,143.278 239.5,146.5C 239.41,148.425 238.41,149.592 236.5,150C 239.076,152.755 241.076,155.922 242.5,159.5C 241.222,159.218 240.222,158.551 239.5,157.5C 238.469,156.751 237.302,156.085 236,155.5C 235.601,155.728 235.435,156.062 235.5,156.5C 228.288,152.955 222.288,147.955 217.5,141.5C 216.833,140.5 216.167,139.5 215.5,138.5C 215.238,136.436 214.071,135.103 212,134.5C 211.691,133.234 211.191,132.067 210.5,131C 211.815,129.605 211.481,128.605 209.5,128C 211.248,124.871 211.915,121.704 211.5,118.5C 215.862,115.639 220.195,112.639 224.5,109.5C 227.034,110.788 229.534,110.788 232,109.5C 233.868,111.183 235.701,112.85 237.5,114.5C 238.765,115.479 240.099,116.479 241.5,117.5C 242.492,113.217 242.826,108.884 242.5,104.5 Z"/></g>
<g><path style="opacity:0.996" fill="#759d5f" d="M 96.5,124.5 C 95.6022,128.027 94.6022,131.527 93.5,135C 93.7831,136.924 95.1164,138.591 97.5,140C 96.4844,140.519 95.8178,141.353 95.5,142.5C 95.8457,143.849 96.179,145.183 96.5,146.5C 95.1001,145.9 94.1001,144.9 93.5,143.5C 94.9526,142.175 94.6192,141.342 92.5,141C 93.2853,138.557 93.1186,136.057 92,133.5C 91.6174,134.056 91.1174,134.389 90.5,134.5C 92.5679,131.908 93.9013,128.908 94.5,125.5C 95.1835,125.137 95.8501,124.804 96.5,124.5 Z"/></g>
<g><path style="opacity:0.996" fill="#395a2e" d="M 128.5,127.5 C 129.458,127.953 130.292,128.619 131,129.5C 133.26,129.673 135.593,129.673 138,129.5C 139.758,130.469 140.258,131.636 139.5,133C 140.5,133.333 141.5,133.667 142.5,134C 141.5,135 140.5,136 139.5,137C 138.655,138.922 138.655,141.088 139.5,143.5C 132.427,141.216 128.76,135.883 128.5,127.5 Z"/></g>
<g><path style="opacity:0.997" fill="#8fba74" d="M 215.5,138.5 C 216.167,139.5 216.833,140.5 217.5,141.5C 217.389,142.117 217.056,142.617 216.5,143C 218.107,144.049 218.773,145.549 218.5,147.5C 216.857,147.48 215.524,148.147 214.5,149.5C 212.629,148.233 210.796,148.233 209,149.5C 207.271,147.566 205.271,147.566 203,149.5C 199.71,149.574 196.543,149.24 193.5,148.5C 192.808,149.025 192.308,149.692 192,150.5C 191.692,149.692 191.192,149.025 190.5,148.5C 188.142,149.169 185.475,149.336 182.5,149C 181.874,148.25 181.374,147.416 181,146.5C 179.853,147.458 178.853,147.125 178,145.5C 175.607,147.994 174.44,147.327 174.5,143.5C 176.379,143.607 176.712,143.107 175.5,142C 177.056,141.28 178.056,140.113 178.5,138.5C 179.5,138.5 180.5,138.5 181.5,138.5C 181.433,137.041 181.766,135.708 182.5,134.5C 185.297,133.759 188.13,133.093 191,132.5C 195.497,133.369 199.831,133.369 204,132.5C 205.205,133.071 206.372,133.738 207.5,134.5C 208.588,138.386 209.421,138.386 210,134.5C 211.432,136.439 213.265,137.772 215.5,138.5 Z"/></g>
<g><path style="opacity:1" fill="#507440" d="M 93.5,143.5 C 90.4628,143.013 89.4628,141.513 90.5,139C 90.2409,137.739 89.5742,136.739 88.5,136C 89.4158,135.722 90.0825,135.222 90.5,134.5C 91.1174,134.389 91.6174,134.056 92,133.5C 93.1186,136.057 93.2853,138.557 92.5,141C 94.6192,141.342 94.9526,142.175 93.5,143.5 Z"/></g>
<g><path style="opacity:0.996" fill="#5f854d" d="M 182.5,134.5 C 181.766,135.708 181.433,137.041 181.5,138.5C 180.5,138.5 179.5,138.5 178.5,138.5C 178.062,138.565 177.728,138.399 177.5,138C 179.279,136.86 180.946,135.693 182.5,134.5 Z"/></g>
<g><path style="opacity:1" fill="#88b36e" d="M 113.5,112.5 C 116.505,112.25 118.338,113.583 119,116.5C 119.837,114.993 121.004,114.493 122.5,115C 122.133,116.757 122.966,118.257 125,119.5C 126.398,118.949 127.732,118.616 129,118.5C 129.464,119.094 129.631,119.761 129.5,120.5C 129.5,121.833 129.5,123.167 129.5,124.5C 129.047,125.458 128.381,126.292 127.5,127C 127.728,127.399 128.062,127.565 128.5,127.5C 128.76,135.883 132.427,141.216 139.5,143.5C 140.404,144.209 140.737,145.209 140.5,146.5C 142.867,147.164 144.867,148.497 146.5,150.5C 146.291,151.086 145.957,151.586 145.5,152C 147.584,152.778 149.417,153.945 151,155.5C 151.333,154.833 151.667,154.167 152,153.5C 152.615,155.116 153.615,156.449 155,157.5C 157.802,156.67 160.635,155.837 163.5,155C 167.018,150.208 170.518,146.041 174,142.5C 174.399,142.728 174.565,143.062 174.5,143.5C 174.44,147.327 175.607,147.994 178,145.5C 178.853,147.125 179.853,147.458 181,146.5C 181.374,147.416 181.874,148.25 182.5,149C 185.475,149.336 188.142,149.169 190.5,148.5C 191.192,149.025 191.692,149.692 192,150.5C 192.308,149.692 192.808,149.025 193.5,148.5C 196.543,149.24 199.71,149.574 203,149.5C 205.271,147.566 207.271,147.566 209,149.5C 210.796,148.233 212.629,148.233 214.5,149.5C 215.524,148.147 216.857,147.48 218.5,147.5C 218.773,145.549 218.107,144.049 216.5,143C 217.056,142.617 217.389,142.117 217.5,141.5C 222.288,147.955 228.288,152.955 235.5,156.5C 236.209,157.404 237.209,157.737 238.5,157.5C 238.5,160.5 238.5,163.5 238.5,166.5C 238.5,166.833 238.5,167.167 238.5,167.5C 238.44,168.043 238.107,168.376 237.5,168.5C 234.57,165.71 231.57,165.377 228.5,167.5C 227.817,167.137 227.15,166.804 226.5,166.5C 226.631,165.761 226.464,165.094 226,164.5C 223.267,166.105 220.267,167.105 217,167.5C 216.295,165.014 215.462,165.014 214.5,167.5C 212.833,167.5 211.167,167.5 209.5,167.5C 208.828,166.733 207.995,166.066 207,165.5C 206.601,165.728 206.435,166.062 206.5,166.5C 204.805,167.826 203.472,167.493 202.5,165.5C 200.05,165.298 197.717,165.631 195.5,166.5C 196.677,164.897 196.511,163.564 195,162.5C 194.717,165.742 193.883,166.076 192.5,163.5C 188.756,166.748 186.256,166.081 185,161.5C 184.437,164.142 182.937,164.809 180.5,163.5C 179.378,164.63 178.044,165.297 176.5,165.5C 176.167,165.5 175.833,165.5 175.5,165.5C 174.126,165.792 172.793,166.125 171.5,166.5C 171.167,166.5 170.833,166.5 170.5,166.5C 169.458,165.209 168.292,165.209 167,166.5C 165.651,163.93 164.484,163.93 163.5,166.5C 159.949,165.061 156.283,163.728 152.5,162.5C 151.479,161.998 151.312,161.332 152,160.5C 152.718,161.451 153.551,161.617 154.5,161C 152.685,158.73 150.352,158.064 147.5,159C 150.544,159.359 150.878,160.026 148.5,161C 150.595,161.556 150.762,162.056 149,162.5C 144.797,161.753 140.297,161.587 135.5,162C 134.333,161.5 133.5,160.667 133,159.5C 131.846,161.957 130.512,161.957 129,159.5C 128.147,161.125 127.147,161.458 126,160.5C 125.536,161.094 125.369,161.761 125.5,162.5C 123.95,161.559 122.284,160.893 120.5,160.5C 118.831,159.11 117.164,158.777 115.5,159.5C 115.5,158.5 115.5,157.5 115.5,156.5C 112.635,155.868 110.302,154.368 108.5,152C 107.072,151.421 105.738,151.588 104.5,152.5C 101.851,150.624 99.1843,148.624 96.5,146.5C 96.179,145.183 95.8457,143.849 95.5,142.5C 95.8178,141.353 96.4844,140.519 97.5,140C 95.1164,138.591 93.7831,136.924 93.5,135C 94.6022,131.527 95.6022,128.027 96.5,124.5C 97.0076,122.767 97.841,122.434 99,123.5C 99.4935,121.866 99.6602,120.199 99.5,118.5C 101.554,118.635 103.221,117.968 104.5,116.5C 105.117,116.611 105.617,116.944 106,117.5C 107.684,115.299 109.684,114.633 112,115.5C 114.158,114.95 114.658,113.95 113.5,112.5 Z"/></g>
<g><path style="opacity:0.998" fill="#638950" d="M 115.5,159.5 C 113.254,158.79 110.92,158.29 108.5,158C 109.167,157.667 109.833,157.333 110.5,157C 109.333,156.5 108.5,155.667 108,154.5C 106.274,155.576 104.441,155.743 102.5,155C 103.756,154.583 104.423,153.75 104.5,152.5C 105.738,151.588 107.072,151.421 108.5,152C 110.302,154.368 112.635,155.868 115.5,156.5C 115.5,157.5 115.5,158.5 115.5,159.5 Z"/></g>
<g><path style="opacity:0.999" fill="#5d824b" d="M 239.5,157.5 C 239.81,160.713 239.477,163.713 238.5,166.5C 238.5,163.5 238.5,160.5 238.5,157.5C 237.209,157.737 236.209,157.404 235.5,156.5C 235.435,156.062 235.601,155.728 236,155.5C 237.302,156.085 238.469,156.751 239.5,157.5 Z"/></g>
<g><path style="opacity:0.997" fill="#416435" d="M 239.5,157.5 C 240.222,158.551 241.222,159.218 242.5,159.5C 242.662,161.527 242.495,163.527 242,165.5C 241.29,166.973 240.124,167.64 238.5,167.5C 238.5,167.167 238.5,166.833 238.5,166.5C 239.477,163.713 239.81,160.713 239.5,157.5 Z"/></g>
<g><path style="opacity:0.996" fill="#527742" d="M 120.5,160.5 C 122.284,160.893 123.95,161.559 125.5,162.5C 123.257,163.858 121.591,163.192 120.5,160.5 Z"/></g>
<g><path style="opacity:0.999" fill="#7da665" d="M 163.5,166.5 C 162.295,167.686 160.961,167.686 159.5,166.5C 156.539,165.677 153.539,165.01 150.5,164.5C 148.983,164.511 147.816,165.177 147,166.5C 144.758,165.958 142.258,165.291 139.5,164.5C 137.194,164.007 134.861,163.674 132.5,163.5C 132.565,163.062 132.399,162.728 132,162.5C 131,163.167 130,163.833 129,164.5C 128.184,163.177 127.017,162.511 125.5,162.5C 125.369,161.761 125.536,161.094 126,160.5C 127.147,161.458 128.147,161.125 129,159.5C 130.512,161.957 131.846,161.957 133,159.5C 133.5,160.667 134.333,161.5 135.5,162C 140.297,161.587 144.797,161.753 149,162.5C 150.762,162.056 150.595,161.556 148.5,161C 150.878,160.026 150.544,159.359 147.5,159C 150.352,158.064 152.685,158.73 154.5,161C 153.551,161.617 152.718,161.451 152,160.5C 151.312,161.332 151.479,161.998 152.5,162.5C 156.283,163.728 159.949,165.061 163.5,166.5 Z"/></g>
<g><path style="opacity:0.004" fill="#1e3d18" d="M 556.5,162.5 C 557.833,163.167 557.833,163.167 556.5,162.5 Z"/></g>
<g><path style="opacity:1" fill="#79a262" d="M 195.5,166.5 C 195.062,167.506 194.396,167.506 193.5,166.5C 189.745,165.899 186.078,166.565 182.5,168.5C 180.22,167.864 178.22,166.864 176.5,165.5C 178.044,165.297 179.378,164.63 180.5,163.5C 182.937,164.809 184.437,164.142 185,161.5C 186.256,166.081 188.756,166.748 192.5,163.5C 193.883,166.076 194.717,165.742 195,162.5C 196.511,163.564 196.677,164.897 195.5,166.5 Z"/></g>
<g><path style="opacity:0.998" fill="#496c3b" d="M 132.5,163.5 C 134.861,163.674 137.194,164.007 139.5,164.5C 138.719,166.322 137.552,166.989 136,166.5C 134.855,165.364 133.688,164.364 132.5,163.5 Z"/></g>
<g><path style="opacity:1" fill="#517542" d="M 170.5,166.5 C 168.295,169.053 165.962,169.053 163.5,166.5C 164.484,163.93 165.651,163.93 167,166.5C 168.292,165.209 169.458,165.209 170.5,166.5 Z"/></g>
<g><path style="opacity:1" fill="#5c814a" d="M 175.5,165.5 C 175.412,168.606 174.078,168.94 171.5,166.5C 172.793,166.125 174.126,165.792 175.5,165.5 Z"/></g>
<g><path style="opacity:1" fill="#4c6f3d" d="M 150.5,164.5 C 153.539,165.01 156.539,165.677 159.5,166.5C 158.739,167.391 157.739,168.058 156.5,168.5C 155.304,168.154 155.304,167.654 156.5,167C 154.148,166.76 152.148,165.927 150.5,164.5 Z"/></g>
<g><path style="opacity:1" fill="#4b6e3d" d="M 202.5,165.5 C 200.229,166.345 197.895,167.345 195.5,168.5C 194.287,168.253 193.62,167.586 193.5,166.5C 194.396,167.506 195.062,167.506 195.5,166.5C 197.717,165.631 200.05,165.298 202.5,165.5 Z"/></g>
<g><path style="opacity:0.996" fill="#5d834b" d="M 226.5,166.5 C 224.504,169.679 222.171,170.012 219.5,167.5C 217.941,168.074 216.441,168.74 215,169.5C 214.536,168.906 214.369,168.239 214.5,167.5C 215.462,165.014 216.295,165.014 217,167.5C 220.267,167.105 223.267,166.105 226,164.5C 226.464,165.094 226.631,165.761 226.5,166.5 Z"/></g>
<g><path style="opacity:0.004" fill="#1e3d18" d="M 78.5,168.5 C 77.8333,169.167 77.8333,169.167 78.5,168.5 Z"/></g>
<g><path style="opacity:1" fill="#547843" d="M 209.5,167.5 C 208.066,167.596 206.733,168.596 205.5,170.5C 205.167,170.333 204.833,170.167 204.5,170C 205.823,169.184 206.489,168.017 206.5,166.5C 206.435,166.062 206.601,165.728 207,165.5C 207.995,166.066 208.828,166.733 209.5,167.5 Z"/></g>
<g><path style="opacity:0.004" fill="#1e3d18" d="M 80.5,169.5 C 79.8333,170.167 79.8333,170.167 80.5,169.5 Z"/></g>
<g><path style="opacity:0.004" fill="#1e3d18" d="M 129.5,176.5 C 129.833,176.5 130.167,176.5 130.5,176.5C 130.315,177.17 129.981,177.17 129.5,176.5 Z"/></g>
<g><path style="opacity:0.004" fill="#1e3d18" d="M 363.5,176.5 C 363.833,176.5 364.167,176.5 364.5,176.5C 364.315,177.17 363.981,177.17 363.5,176.5 Z"/></g>
<g><path style="opacity:0.004" fill="#1e3d18" d="M 447.5,176.5 C 447.833,176.5 448.167,176.5 448.5,176.5C 448.315,177.17 447.981,177.17 447.5,176.5 Z"/></g>
<g><path style="opacity:0.004" fill="#1e3d18" d="M 197.5,179.5 C 197.833,179.5 198.167,179.5 198.5,179.5C 198.672,180.492 198.338,181.158 197.5,181.5C 197.5,180.833 197.5,180.167 197.5,179.5 Z"/></g>
<g><path style="opacity:0.004" fill="#1e3d18" d="M 274.5,180.5 C 273.833,181.167 273.833,181.167 274.5,180.5 Z"/></g>
<g><path style="opacity:0.004" fill="#1e3d18" d="M 197.5,181.5 C 197.631,182.239 197.464,182.906 197,183.5C 196.308,182.563 196.475,181.897 197.5,181.5 Z"/></g>
</svg>
