<?xml version="1.0" encoding="UTF-8"?>
<!DOCTYPE svg PUBLIC "-//W3C//DTD SVG 1.1//EN" "http://www.w3.org/Graphics/SVG/1.1/DTD/svg11.dtd">
<svg xmlns="http://www.w3.org/2000/svg" version="1.1" width="651px" height="253px" style="shape-rendering:geometricPrecision; text-rendering:geometricPrecision; image-rendering:optimizeQuality; fill-rule:evenodd; clip-rule:evenodd" xmlns:xlink="http://www.w3.org/1999/xlink">
<g><path style="opacity:0.636" fill="#1f3d19" d="M 390.5,80.5 C 393.366,80.9545 396.699,81.1212 400.5,81C 402.137,82.951 403.637,82.7843 405,80.5C 406.908,82.9065 408.908,82.9065 411,80.5C 412.649,81.8977 413.982,81.5644 415,79.5C 416.715,79.5197 418.548,80.1864 420.5,81.5C 421.425,80.3595 422.259,80.3595 423,81.5C 423.667,80.8333 424.333,80.1667 425,79.5C 427.471,80.4011 429.971,81.4011 432.5,82.5C 434.042,81.2532 435.542,81.2532 437,82.5C 437.667,81.8333 438.333,81.1667 439,80.5C 440.873,79.9109 442.54,80.5776 444,82.5C 444.333,81.8333 444.667,81.1667 445,80.5C 445.667,81.8333 446.333,81.8333 447,80.5C 449.081,81.2146 451.247,82.2146 453.5,83.5C 455.706,81.496 457.872,81.1627 460,82.5C 461.512,81.7433 462.846,80.7433 464,79.5C 466.034,81.0316 468.201,82.3649 470.5,83.5C 471.748,82.9598 472.915,82.2931 474,81.5C 474.674,82.5784 475.674,83.2451 477,83.5C 478.865,83.2945 480.532,82.6278 482,81.5C 482.902,81.7432 483.735,82.0766 484.5,82.5C 486.398,83.485 487.898,82.8183 489,80.5C 489.708,81.3805 490.542,82.0472 491.5,82.5C 492.664,85.5785 494.164,85.9118 496,83.5C 499.039,84.966 501.872,84.6327 504.5,82.5C 507.188,84.1194 510.021,85.4527 513,86.5C 513.974,84.1224 514.641,84.4557 515,87.5C 518.042,84.918 521.042,84.918 524,87.5C 527.749,84.8278 530.416,85.8278 532,90.5C 533.667,87.8333 535.333,87.8333 537,90.5C 537.667,89.8333 538.333,89.1667 539,88.5C 539.741,89.6405 540.575,89.6405 541.5,88.5C 542.696,88.8457 542.696,89.3457 541.5,90C 543.112,90.7203 544.612,90.5536 546,89.5C 547.529,90.7287 548.696,92.2287 549.5,94C 552.057,95.1186 554.557,95.2853 557,94.5C 558,95.8333 559,97.1667 560,98.5C 560.914,97.3463 561.747,97.513 562.5,99C 562.167,99.3333 561.833,99.6667 561.5,100C 564.102,100.935 565.602,102.768 566,105.5C 566.414,105.043 566.914,104.709 567.5,104.5C 570.227,107.03 572.393,109.363 574,111.5C 574.21,112.803 574.043,114.136 573.5,115.5C 573.818,116.647 574.484,117.481 575.5,118C 574.748,118.671 574.414,119.504 574.5,120.5C 574.453,122.178 574.12,124.011 573.5,126C 573.639,127.301 574.305,128.134 575.5,128.5C 576.429,129.315 577.429,130.148 578.5,131C 574.908,133.971 574.575,137.304 577.5,141C 573.709,144.183 570.042,147.516 566.5,151C 566.833,151.333 567.167,151.667 567.5,152C 565.566,153.562 563.899,155.395 562.5,157.5C 560.994,158.747 559.494,158.747 558,157.5C 556.245,160.044 554.245,162.377 552,164.5C 551.667,164.167 551.333,163.833 551,163.5C 547.129,164.983 543.295,166.649 539.5,168.5C 537.837,167.125 536.503,167.458 535.5,169.5C 534.914,169.291 534.414,168.957 534,168.5C 533.221,169.728 532.221,170.728 531,171.5C 526.963,168.576 523.297,168.91 520,172.5C 517.608,171.575 514.942,171.241 512,171.5C 510.667,174.167 509.333,174.167 508,171.5C 506.559,172.26 505.059,172.926 503.5,173.5C 500.5,173.5 497.5,173.5 494.5,173.5C 493.808,172.975 493.308,172.308 493,171.5C 490.137,172.602 487.304,173.602 484.5,174.5C 483.167,173.167 481.833,173.167 480.5,174.5C 479.522,174.023 478.689,173.357 478,172.5C 477.581,173.672 476.915,174.672 476,175.5C 473.756,173.006 471.423,173.006 469,175.5C 466.724,172.936 464.724,173.27 463,176.5C 462.196,175.196 461.029,174.529 459.5,174.5C 455.542,174.396 451.875,175.063 448.5,176.5C 448.167,175.167 447.833,175.167 447.5,176.5C 446.312,175.316 445.145,175.316 444,176.5C 443,175.833 442,175.167 441,174.5C 439.384,175.545 437.717,176.545 436,177.5C 435.259,176.359 434.425,176.359 433.5,177.5C 432.808,176.975 432.308,176.308 432,175.5C 429.405,175.003 426.905,175.67 424.5,177.5C 422.002,174.809 419.835,175.142 418,178.5C 416.518,176.219 414.851,176.219 413,178.5C 411.108,177.87 409.441,176.87 408,175.5C 406.667,176.833 405.333,176.833 404,175.5C 402.333,178.167 400.667,178.167 399,175.5C 393.381,176.646 388.048,176.646 383,175.5C 382.333,176.167 381.667,176.833 381,177.5C 379.111,176.903 377.278,176.569 375.5,176.5C 373.41,179.009 371.577,178.675 370,175.5C 369,176.5 368,177.5 367,178.5C 366.292,177.619 365.458,176.953 364.5,176.5C 364.167,175.167 363.833,175.167 363.5,176.5C 360.03,175.875 357.196,176.875 355,179.5C 354.333,178.833 353.667,178.167 353,177.5C 351.667,177.5 350.333,177.5 349,177.5C 346.672,179.438 344.339,179.105 342,176.5C 339.227,178.047 336.227,179.047 333,179.5C 328.236,179.435 323.403,179.435 318.5,179.5C 316.405,177.411 314.572,177.411 313,179.5C 311.57,179.694 310.07,179.694 308.5,179.5C 306.139,181.564 303.806,181.23 301.5,178.5C 298.668,180.647 296.001,180.647 293.5,178.5C 291.039,179.264 288.539,180.264 286,181.5C 284.622,179.787 282.955,178.453 281,177.5C 279.266,179.451 277.099,180.451 274.5,180.5C 273.516,177.93 272.349,177.93 271,180.5C 270.692,179.692 270.192,179.025 269.5,178.5C 267.724,178.718 265.891,178.718 264,178.5C 260.666,181.338 257.666,181.004 255,177.5C 253.321,180.699 251.321,181.033 249,178.5C 246.733,179.935 244.733,179.602 243,177.5C 241.667,178.833 240.333,180.167 239,181.5C 237.192,181.112 235.525,181.112 234,181.5C 233,180.5 232,179.5 231,178.5C 230.646,180.807 229.646,181.141 228,179.5C 226.739,179.759 225.739,180.426 225,181.5C 222.333,180.167 219.667,180.167 217,181.5C 215.488,180.743 214.154,179.743 213,178.5C 210.808,180.737 208.308,181.404 205.5,180.5C 204.167,181.167 202.833,181.833 201.5,182.5C 200.494,182.062 200.494,181.396 201.5,180.5C 200.675,179.614 199.675,179.281 198.5,179.5C 198.167,178.167 197.833,178.167 197.5,179.5C 195.139,180.9 192.805,181.9 190.5,182.5C 189.033,181.305 187.533,181.305 186,182.5C 184.278,182.389 184.112,181.889 185.5,181C 183.899,180.727 182.399,180.227 181,179.5C 180.667,179.833 180.333,180.167 180,180.5C 179.779,177.057 178.779,176.724 177,179.5C 176.667,179.167 176.333,178.833 176,178.5C 173.903,179.991 171.57,180.991 169,181.5C 168.646,179.193 167.646,178.859 166,180.5C 164.532,179.372 162.865,178.706 161,178.5C 154.437,179.256 147.937,179.589 141.5,179.5C 138.947,176.956 136.447,176.956 134,179.5C 133.517,178.552 133.351,177.552 133.5,176.5C 132.5,176.5 131.5,176.5 130.5,176.5C 130.167,175.167 129.833,175.167 129.5,176.5C 126.857,176.858 124.19,177.191 121.5,177.5C 120.201,176.91 119.368,175.91 119,174.5C 118,175.5 117,176.5 116,177.5C 115.309,175.109 114.309,175.109 113,177.5C 112.632,176.09 111.799,175.09 110.5,174.5C 107.754,175.81 104.754,176.477 101.5,176.5C 99.5469,175.976 97.8802,174.976 96.5,173.5C 96.0024,174.603 95.6691,175.603 95.5,176.5C 93.7143,174.979 91.881,174.646 90,175.5C 89,174.167 88,172.833 87,171.5C 86.586,171.957 86.086,172.291 85.5,172.5C 83.9713,171.237 82.3046,170.237 80.5,169.5C 80.1583,168.662 79.4916,168.328 78.5,168.5C 77.1155,167.199 75.6155,167.199 74,168.5C 73.5172,167.552 73.3505,166.552 73.5,165.5C 70.8915,165.394 68.8915,164.228 67.5,162C 68.4428,159.625 68.7762,156.959 68.5,154C 67.536,152.036 66.2026,150.37 64.5,149C 65.2442,146.845 66.2442,144.845 67.5,143C 67.2614,141.219 66.9281,139.386 66.5,137.5C 67.0253,136.808 67.6919,136.308 68.5,136C 67.624,134.414 66.624,132.914 65.5,131.5C 66.8905,131.891 67.8905,131.058 68.5,129C 65.9041,127.203 66.2374,125.869 69.5,125C 68.5004,122.909 69.1671,121.243 71.5,120C 71.0426,119.586 70.7093,119.086 70.5,118.5C 71.5,117.667 72.5,116.833 73.5,116C 71.7223,111.849 73.3889,109.349 78.5,108.5C 79.5533,105.921 80.8866,103.421 82.5,101C 85.4245,100.012 88.4245,99.3457 91.5,99C 90.1118,98.1107 90.2785,97.6107 92,97.5C 94.0709,98.6673 95.5709,98.0006 96.5,95.5C 97.9621,96.4709 99.2954,96.1376 100.5,94.5C 103.987,93.3203 107.487,93.3203 111,94.5C 112.616,93.4552 114.283,92.4552 116,91.5C 117.333,94.1667 118.667,94.1667 120,91.5C 121.813,91.5934 123.646,91.9267 125.5,92.5C 127.029,92.4712 128.196,91.8045 129,90.5C 131.608,92.1818 134.275,92.8484 137,92.5C 138.697,88.9174 140.863,88.584 143.5,91.5C 147.201,91.0302 150.534,89.6969 153.5,87.5C 156.819,89.7769 159.985,90.1102 163,88.5C 164.316,91.028 165.483,91.028 166.5,88.5C 168.55,88.7437 170.55,89.077 172.5,89.5C 172.783,90.2891 173.283,90.9558 174,91.5C 175.57,90.386 176.903,89.0526 178,87.5C 178.333,87.8333 178.667,88.1667 179,88.5C 180.775,85.9557 182.608,85.9557 184.5,88.5C 185.333,87.5 186.167,86.5 187,85.5C 189.244,87.9938 191.577,87.9938 194,85.5C 195.268,85.6158 196.602,85.9491 198,86.5C 199.874,84.2241 201.541,84.5575 203,87.5C 203.915,86.6721 204.581,85.6721 205,84.5C 208.677,85.5206 212.343,86.5206 216,87.5C 219.873,84.5592 224.04,83.8925 228.5,85.5C 230.332,84.7515 231.999,83.7515 233.5,82.5C 234.719,83.2634 235.719,84.2634 236.5,85.5C 237.814,84.6872 238.981,83.6872 240,82.5C 242,85.1667 244,85.1667 246,82.5C 247.309,84.8912 248.309,84.8912 249,82.5C 251.336,85.3552 253.169,85.0218 254.5,81.5C 256.098,83.9734 257.598,83.9734 259,81.5C 260.912,82.6919 262.912,83.6919 265,84.5C 267.203,81.0797 269.703,80.4131 272.5,82.5C 272.897,83.525 273.563,83.6917 274.5,83C 275.791,78.9317 277.958,78.4317 281,81.5C 283.667,80.8333 286.333,80.1667 289,79.5C 290.333,80.1667 291.333,81.1667 292,82.5C 293,81.1667 294,81.1667 295,82.5C 297.737,78.3068 300.57,77.9735 303.5,81.5C 304.814,80.6872 305.981,79.6872 307,78.5C 309.762,79.9806 312.429,81.6473 315,83.5C 316,82.5 317,81.5 318,80.5C 319,80.8333 320,81.1667 321,81.5C 321.333,80.8333 321.667,80.1667 322,79.5C 324.575,80.5886 327.241,80.5886 330,79.5C 330.689,80.3567 331.522,81.0233 332.5,81.5C 336.25,78.4124 340.084,78.0791 344,80.5C 347.132,77.5797 349.799,77.913 352,81.5C 353.117,79.8757 354.617,78.8757 356.5,78.5C 359.326,79.5796 362.159,80.5796 365,81.5C 366,80.8333 367,80.1667 368,79.5C 370.667,79.5 373.333,79.5 376,79.5C 378.431,81.421 381.098,81.421 384,79.5C 385.657,80.4841 387.323,81.4841 389,82.5C 389.717,81.9558 390.217,81.2891 390.5,80.5 Z"/></g>
<g><path style="opacity:0.004" fill="#1e3d18" d="M 390.5,80.5 C 389.833,79.1667 389.833,79.1667 390.5,80.5 Z"/></g>
<g><path style="opacity:0.004" fill="#1e3d18" d="M 474.5,79.5 C 475.833,80.1667 475.833,80.1667 474.5,79.5 Z"/></g>
<g><path style="opacity:0.004" fill="#1e3d18" d="M 272.5,81.5 C 273.833,82.1667 273.833,82.1667 272.5,81.5 Z"/></g>
<g><path style="opacity:0.004" fill="#1e3d18" d="M 475.5,81.5 C 476.833,82.1667 476.833,82.1667 475.5,81.5 Z"/></g>
<g><path style="opacity:0.004" fill="#1e3d18" d="M 484.5,81.5 C 485.833,82.1667 485.833,82.1667 484.5,81.5 Z"/></g>
<g><path style="opacity:0.004" fill="#1e3d18" d="M 491.5,81.5 C 492.833,82.1667 492.833,82.1667 491.5,81.5 Z"/></g>
<g><path style="opacity:0.004" fill="#1e3d18" d="M 172.5,88.5 C 173.833,89.1667 173.833,89.1667 172.5,88.5 Z"/></g>
<g><path style="opacity:0.996" fill="#5d824b" d="M 397.5,94.5 C 397.631,95.2389 397.464,95.9056 397,96.5C 394.824,96.5716 392.824,96.2383 391,95.5C 390,96.1667 389,96.8333 388,97.5C 386.651,95.0657 384.818,94.2324 382.5,95C 383.696,94.3457 383.696,93.8457 382.5,93.5C 381.808,94.0253 381.308,94.6919 381,95.5C 380,94.1667 379,94.1667 378,95.5C 377.309,93.1088 376.309,93.1088 375,95.5C 373.84,93.203 372.84,93.5363 372,96.5C 371,95.1667 370,95.1667 369,96.5C 368.536,95.9056 368.369,95.2389 368.5,94.5C 370.115,94.5169 371.615,93.5169 373,91.5C 375.124,92.2272 377.291,92.8938 379.5,93.5C 380.478,93.0233 381.311,92.3567 382,91.5C 387.018,95.2394 391.351,95.2394 395,91.5C 397.102,92.1201 397.935,93.1201 397.5,94.5 Z"/></g>
<g><path style="opacity:0.996" fill="#5d834b" d="M 418.5,93.5 C 418.631,94.2389 418.464,94.9056 418,95.5C 415.911,95.2549 413.911,95.2549 412,95.5C 410.333,94.8333 408.667,94.1667 407,93.5C 404.566,95.0233 401.899,96.0233 399,96.5C 398.536,95.9056 398.369,95.2389 398.5,94.5C 399.189,93.2264 400.023,93.2264 401,94.5C 401.915,93.6721 402.581,92.6721 403,91.5C 404.458,92.7468 405.958,92.7468 407.5,91.5C 408.478,91.9767 409.311,92.6433 410,93.5C 412.387,93.4694 414.887,92.8027 417.5,91.5C 417.787,92.2003 418.12,92.8669 418.5,93.5 Z"/></g>
<g><path style="opacity:0.996" fill="#6b9357" d="M 357.5,93.5 C 356.709,95.0562 356.376,96.3895 356.5,97.5C 353.307,97.1124 349.973,97.1124 346.5,97.5C 345.478,97.1445 344.811,96.4778 344.5,95.5C 345.172,94.7326 346.005,94.0659 347,93.5C 348.525,93.8881 350.192,93.8881 352,93.5C 352.308,94.3081 352.808,94.9747 353.5,95.5C 354.519,94.3128 355.686,93.3128 357,92.5C 357.399,92.7284 357.565,93.0618 357.5,93.5 Z"/></g>
<g><path style="opacity:1" fill="#688f54" d="M 325.5,95.5 C 324.178,95.67 323.011,95.3366 322,94.5C 321.333,95.8333 320.333,96.8333 319,97.5C 317.316,96.8071 315.816,96.4737 314.5,96.5C 317.197,95.7278 319.53,94.3945 321.5,92.5C 322.425,93.6405 323.259,93.6405 324,92.5C 324.513,93.5266 325.013,94.5266 325.5,95.5 Z"/></g>
<g><path style="opacity:0.996" fill="#739b5d" d="M 428.5,94.5 C 431.533,93.9661 434.7,93.6327 438,93.5C 439.622,94.0989 441.122,94.7656 442.5,95.5C 441.306,98.0176 440.14,98.0176 439,95.5C 438.517,96.448 438.351,97.448 438.5,98.5C 434.88,97.8625 431.547,96.5292 428.5,94.5 Z"/></g>
<g><path style="opacity:1" fill="#486b3a" d="M 467.5,96.5 C 467.5,97.1667 467.167,97.5 466.5,97.5C 463.801,97.1913 461.468,96.8579 459.5,96.5C 461.981,95.7417 464.648,95.7417 467.5,96.5 Z"/></g>
<g><path style="opacity:0.996" fill="#567a45" d="M 298.5,98.5 C 298.44,99.0431 298.107,99.3764 297.5,99.5C 293.181,97.7047 289.181,97.038 285.5,97.5C 286.222,97.0825 286.722,96.4158 287,95.5C 289.186,96.0217 291.519,96.0217 294,95.5C 294.324,97.5689 295.158,97.9023 296.5,96.5C 297.182,97.2427 297.849,97.9094 298.5,98.5 Z"/></g>
<g><path style="opacity:0.997" fill="#86b06c" d="M 368.5,94.5 C 368.369,95.2389 368.536,95.9056 369,96.5C 370,95.1667 371,95.1667 372,96.5C 372.84,93.5363 373.84,93.203 375,95.5C 376.309,93.1088 377.309,93.1088 378,95.5C 379,94.1667 380,94.1667 381,95.5C 381.308,94.6919 381.808,94.0253 382.5,93.5C 383.696,93.8457 383.696,94.3457 382.5,95C 384.818,94.2324 386.651,95.0657 388,97.5C 389,96.8333 390,96.1667 391,95.5C 392.824,96.2383 394.824,96.5716 397,96.5C 397.464,95.9056 397.631,95.2389 397.5,94.5C 397.833,94.5 398.167,94.5 398.5,94.5C 398.369,95.2389 398.536,95.9056 399,96.5C 401.899,96.0233 404.566,95.0233 407,93.5C 408.667,94.1667 410.333,94.8333 412,95.5C 413.911,95.2549 415.911,95.2549 418,95.5C 418.464,94.9056 418.631,94.2389 418.5,93.5C 421.379,94.9918 424.046,94.6585 426.5,92.5C 427.696,92.8457 427.696,93.3457 426.5,94C 427.094,94.4643 427.761,94.631 428.5,94.5C 431.547,96.5292 434.88,97.8625 438.5,98.5C 438.351,97.448 438.517,96.448 439,95.5C 440.14,98.0176 441.306,98.0176 442.5,95.5C 442.833,95.5 443.167,95.5 443.5,95.5C 444.105,97.0257 445.271,98.0257 447,98.5C 448.223,97.643 449.389,96.643 450.5,95.5C 451.117,95.3893 451.617,95.056 452,94.5C 453.137,95.364 454.47,96.364 456,97.5C 457.011,96.6634 458.178,96.33 459.5,96.5C 461.468,96.8579 463.801,97.1913 466.5,97.5C 467.871,99.1412 469.704,100.141 472,100.5C 473.452,98.1747 475.119,98.1747 477,100.5C 478.691,99.4641 480.524,98.7974 482.5,98.5C 483.822,98.33 484.989,98.6634 486,99.5C 487.295,95.9162 488.795,95.7495 490.5,99C 492.764,99.2362 494.931,99.7362 497,100.5C 497.667,97.8333 498.333,97.8333 499,100.5C 500.333,99.8333 501.667,99.1667 503,98.5C 505.357,98.0033 507.524,98.67 509.5,100.5C 510.745,102.28 512.245,102.613 514,101.5C 515.559,102.029 517.059,102.696 518.5,103.5C 519.833,102.833 521.167,102.167 522.5,101.5C 522.833,102.167 523.167,102.833 523.5,103.5C 524.298,103.043 524.631,102.376 524.5,101.5C 525.75,101.577 526.583,102.244 527,103.5C 527.333,103.167 527.667,102.833 528,102.5C 528.98,103.981 530.147,105.315 531.5,106.5C 533.031,105.579 534.365,105.912 535.5,107.5C 532.903,107.721 532.903,108.221 535.5,109C 535.167,109.333 534.833,109.667 534.5,110C 536.176,113.098 538.51,114.264 541.5,113.5C 541.511,115.017 542.177,116.184 543.5,117C 543.167,117.333 542.833,117.667 542.5,118C 543.614,119.57 544.947,120.903 546.5,122C 544.75,123.754 544.083,125.921 544.5,128.5C 543.711,128.783 543.044,129.283 542.5,130C 542.966,131.299 542.966,132.799 542.5,134.5C 543.443,136.001 543.109,137.335 541.5,138.5C 538.896,139.497 536.562,141.497 534.5,144.5C 532.909,145.219 531.409,146.219 530,147.5C 529.667,147.167 529.333,146.833 529,146.5C 528.641,149.544 527.974,149.878 527,147.5C 526.5,148.667 525.667,149.5 524.5,150C 522.134,150.44 519.801,150.94 517.5,151.5C 515.234,151.141 513.401,151.808 512,153.5C 511.29,152.027 510.124,151.36 508.5,151.5C 506.625,150.358 504.959,149.692 503.5,149.5C 505.605,146.333 507.938,146 510.5,148.5C 511.308,148.192 511.975,147.692 512.5,147C 510.682,143.613 511.682,141.613 515.5,141C 514.244,140.583 513.577,139.75 513.5,138.5C 516.49,136.01 519.323,133.343 522,130.5C 522.966,126.816 523.466,123.15 523.5,119.5C 523.146,116.278 521.479,114.112 518.5,113C 518.833,112.667 519.167,112.333 519.5,112C 513.94,109.988 508.606,110.155 503.5,112.5C 502.262,113.412 500.928,113.579 499.5,113C 498.5,110.667 496.833,109 494.5,108C 491.648,107.731 488.982,106.897 486.5,105.5C 482.929,106.081 479.596,107.081 476.5,108.5C 475.391,108.557 474.391,108.89 473.5,109.5C 466.039,108.435 458.205,108.435 450,109.5C 448.271,109.974 447.105,110.974 446.5,112.5C 442.15,108.659 437.15,107.659 431.5,109.5C 430.167,109.5 429.5,110.167 429.5,111.5C 428.603,112.598 427.77,112.598 427,111.5C 426.653,113.18 425.653,114.18 424,114.5C 420.308,112.668 417.641,110.334 416,107.5C 408.461,104.208 401.461,104.875 395,109.5C 394.517,110.448 394.351,111.448 394.5,112.5C 393.698,111.048 393.198,109.382 393,107.5C 392.395,109.481 391.395,109.815 390,108.5C 388.378,110.547 386.212,111.547 383.5,111.5C 382.006,111.291 380.839,110.624 380,109.5C 377.666,111.02 375.166,112.02 372.5,112.5C 369.828,110.874 366.494,109.541 362.5,108.5C 361.021,107.852 359.521,107.519 358,107.5C 354.046,108.676 350.213,110.009 346.5,111.5C 345.185,112.476 343.852,113.476 342.5,114.5C 337.656,107.178 330.823,102.845 322,101.5C 316.445,101.504 311.945,103.504 308.5,107.5C 305.841,109.824 304.508,112.824 304.5,116.5C 302.771,117.117 301.271,118.117 300,119.5C 298.488,118.743 297.154,117.743 296,116.5C 294.112,119.273 292.112,119.606 290,117.5C 287.776,119.054 285.276,120.054 282.5,120.5C 281.914,120.291 281.414,119.957 281,119.5C 279.033,121.551 276.866,123.218 274.5,124.5C 273.883,122.679 273.716,120.679 274,118.5C 272.615,117.449 271.615,116.116 271,114.5C 268.238,113.019 265.571,111.353 263,109.5C 260.296,111.84 257.296,112.506 254,111.5C 251.752,112.229 249.585,113.229 247.5,114.5C 245.55,113.848 244.55,114.848 244.5,117.5C 243.833,117.5 243.5,117.833 243.5,118.5C 238.93,116.428 235.096,113.428 232,109.5C 229.534,110.788 227.034,110.788 224.5,109.5C 220.498,112.888 216.164,115.554 211.5,117.5C 210.201,116.755 208.868,115.255 207.5,113C 209.332,112.252 210.999,111.252 212.5,110C 210.807,108.75 209.473,107.25 208.5,105.5C 212.024,104.67 215.691,103.337 219.5,101.5C 220.416,101.018 221.416,100.685 222.5,100.5C 225.386,102.434 228.386,103.101 231.5,102.5C 234.4,102.403 237.067,102.736 239.5,103.5C 240.298,103.043 240.631,102.376 240.5,101.5C 240.833,101.5 241.167,101.5 241.5,101.5C 241.369,102.239 241.536,102.906 242,103.5C 243.729,103.026 244.895,102.026 245.5,100.5C 245.47,99.5028 245.97,98.8361 247,98.5C 248.303,98.9783 249.469,99.645 250.5,100.5C 252.119,101.072 253.785,101.405 255.5,101.5C 256.386,100.675 256.719,99.675 256.5,98.5C 257.959,98.4326 259.292,98.7659 260.5,99.5C 263.689,98.4854 266.856,98.4854 270,99.5C 273.221,98.2614 276.388,97.2614 279.5,96.5C 280.5,97.8333 281.5,97.8333 282.5,96.5C 282.833,97.1667 283.167,97.8333 283.5,98.5C 284.183,98.1373 284.85,97.8039 285.5,97.5C 289.181,97.038 293.181,97.7047 297.5,99.5C 298.107,99.3764 298.44,99.0431 298.5,98.5C 298.461,97.2438 298.961,96.2438 300,95.5C 302.816,94.8695 305.482,95.5362 308,97.5C 310.041,96.5769 312.208,96.2436 314.5,96.5C 315.816,96.4737 317.316,96.8071 319,97.5C 320.333,96.8333 321.333,95.8333 322,94.5C 323.011,95.3366 324.178,95.67 325.5,95.5C 327.201,95.0338 328.701,95.0338 330,95.5C 330.333,94.8333 330.667,94.1667 331,93.5C 332.449,94.6141 333.783,95.6141 335,96.5C 336,95.8333 337,95.1667 338,94.5C 340.223,94.8946 342.389,95.2279 344.5,95.5C 344.811,96.4778 345.478,97.1445 346.5,97.5C 349.973,97.1124 353.307,97.1124 356.5,97.5C 356.376,96.3895 356.709,95.0562 357.5,93.5C 358.787,92.2317 359.787,92.565 360.5,94.5C 362.941,93.6082 365.608,93.6082 368.5,94.5 Z"/></g>
<g><path style="opacity:0.998" fill="#597e48" d="M 450.5,95.5 C 449.389,96.643 448.223,97.643 447,98.5C 445.271,98.0257 444.105,97.0257 443.5,95.5C 445.74,94.4113 448.074,94.4113 450.5,95.5 Z"/></g>
<g><path style="opacity:0.004" fill="#1e3d18" d="M 563.5,98.5 C 564.833,99.1667 564.833,99.1667 563.5,98.5 Z"/></g>
<g><path style="opacity:0.996" fill="#6f965a" d="M 482.5,98.5 C 480.524,98.7974 478.691,99.4641 477,100.5C 475.119,98.1747 473.452,98.1747 472,100.5C 469.704,100.141 467.871,99.1412 466.5,97.5C 467.167,97.5 467.5,97.1667 467.5,96.5C 468.156,97.2778 468.989,97.9444 470,98.5C 469.973,97.2117 470.973,96.2117 473,95.5C 475.23,98.6177 477.73,98.9511 480.5,96.5C 481.182,97.2427 481.849,97.9094 482.5,98.5 Z"/></g>
<g><path style="opacity:0.996" fill="#537743" d="M 260.5,99.5 C 259.292,98.7659 257.959,98.4326 256.5,98.5C 256.719,99.675 256.386,100.675 255.5,101.5C 253.785,101.405 252.119,101.072 250.5,100.5C 252.973,100.006 255.473,98.6725 258,96.5C 259.417,97.0779 260.25,98.0779 260.5,99.5 Z"/></g>
<g><path style="opacity:0.996" fill="#5c814a" d="M 524.5,101.5 C 524.631,102.376 524.298,103.043 523.5,103.5C 523.167,102.833 522.833,102.167 522.5,101.5C 521.167,102.167 519.833,102.833 518.5,103.5C 517.059,102.696 515.559,102.029 514,101.5C 512.245,102.613 510.745,102.28 509.5,100.5C 512.724,99.0419 515.724,99.3752 518.5,101.5C 520.737,99.1218 522.737,99.1218 524.5,101.5 Z"/></g>
<g><path style="opacity:1" fill="#5e844c" d="M 245.5,100.5 C 244.895,102.026 243.729,103.026 242,103.5C 241.536,102.906 241.369,102.239 241.5,101.5C 242.708,100.766 244.041,100.433 245.5,100.5 Z"/></g>
<g><path style="opacity:1" fill="#496c3b" d="M 190.5,103.5 C 189.534,106.125 188.534,106.125 187.5,103.5C 186.522,103.977 185.689,104.643 185,105.5C 184.536,104.906 184.369,104.239 184.5,103.5C 186.358,101.269 188.358,101.269 190.5,103.5 Z"/></g>
<g><path style="opacity:1" fill="#5d824b" d="M 240.5,101.5 C 240.631,102.376 240.298,103.043 239.5,103.5C 237.067,102.736 234.4,102.403 231.5,102.5C 232.172,101.733 233.005,101.066 234,100.5C 236.041,101.423 238.208,101.756 240.5,101.5 Z"/></g>
<g><path style="opacity:1" fill="#557945" d="M 219.5,101.5 C 215.691,103.337 212.024,104.67 208.5,105.5C 207.778,105.082 207.278,104.416 207,103.5C 206.617,104.056 206.117,104.389 205.5,104.5C 205.47,103.503 205.97,102.836 207,102.5C 208.807,101.921 210.807,101.921 213,102.5C 214.89,102.215 216.223,101.215 217,99.5C 217.484,101.178 218.317,101.844 219.5,101.5 Z"/></g>
<g><path style="opacity:1" fill="#587c47" d="M 172.5,105.5 C 172.279,108.097 171.779,108.097 171,105.5C 169.559,106.26 168.059,106.926 166.5,107.5C 164.84,106.927 163.006,106.927 161,107.5C 159.319,107.392 158.152,106.725 157.5,105.5C 157.783,104.711 158.283,104.044 159,103.5C 161.027,104.212 162.027,105.212 162,106.5C 163.473,106.097 164.806,105.43 166,104.5C 166.333,104.833 166.667,105.167 167,105.5C 168.019,104.313 169.186,103.313 170.5,102.5C 170.088,103.782 170.754,104.782 172.5,105.5 Z"/></g>
<g><path style="opacity:0.004" fill="#1e3d18" d="M 571.5,105.5 C 572.833,106.167 572.833,106.167 571.5,105.5 Z"/></g>
<g><path style="opacity:1" fill="#547844" d="M 153.5,106.5 C 153.631,107.376 153.298,108.043 152.5,108.5C 151.583,107.873 150.583,107.539 149.5,107.5C 150.705,105.862 152.038,105.529 153.5,106.5 Z"/></g>
<g><path style="opacity:1" fill="#4f7340" d="M 129.5,109.5 C 130.239,109.369 130.906,109.536 131.5,110C 130.333,110.5 129.5,111.333 129,112.5C 128.612,111.572 127.945,110.905 127,110.5C 124.675,110.728 122.508,110.728 120.5,110.5C 123.166,110.02 125.666,109.02 128,107.5C 128.278,108.416 128.778,109.082 129.5,109.5 Z"/></g>
<g><path style="opacity:0.996" fill="#557944" d="M 476.5,108.5 C 476.611,109.117 476.944,109.617 477.5,110C 475.867,110.48 474.534,111.313 473.5,112.5C 473.5,111.5 473.5,110.5 473.5,109.5C 474.391,108.89 475.391,108.557 476.5,108.5 Z"/></g>
<g><path style="opacity:0.996" fill="#6a9156" d="M 535.5,107.5 C 537.222,109.889 539.222,111.889 541.5,113.5C 538.51,114.264 536.176,113.098 534.5,110C 534.833,109.667 535.167,109.333 535.5,109C 532.903,108.221 532.903,107.721 535.5,107.5 Z"/></g>
<g><path style="opacity:0.996" fill="#4d703e" d="M 362.5,108.5 C 357.406,109.515 352.406,110.848 347.5,112.5C 346.893,112.376 346.56,112.043 346.5,111.5C 350.213,110.009 354.046,108.676 358,107.5C 359.521,107.519 361.021,107.852 362.5,108.5 Z"/></g>
<g><path style="opacity:0.996" fill="#35562b" d="M 446.5,112.5 C 447.167,113.167 447.833,113.833 448.5,114.5C 448.616,117.86 448.949,121.193 449.5,124.5C 449.672,125.492 449.338,126.158 448.5,126.5C 447.905,123.887 447.071,123.887 446,126.5C 445.755,124.337 444.755,122.67 443,121.5C 441.703,122.784 440.536,122.617 439.5,121C 439.833,120.667 440.167,120.333 440.5,120C 436.836,116.588 437.003,115.421 441,116.5C 442.688,115.675 442.855,114.675 441.5,113.5C 440.167,112.5 438.833,111.5 437.5,110.5C 436.5,111.833 435.5,111.833 434.5,110.5C 433.029,111.381 432.196,112.714 432,114.5C 430.964,112.701 430.797,111.034 431.5,109.5C 437.15,107.659 442.15,108.659 446.5,112.5 Z"/></g>
<g><path style="opacity:1" fill="#5e834c" d="M 113.5,112.5 C 114.658,113.95 114.158,114.95 112,115.5C 109.684,114.633 107.684,115.299 106,117.5C 105.617,116.944 105.117,116.611 104.5,116.5C 106.835,113.835 109.835,112.502 113.5,112.5 Z"/></g>
<g><path style="opacity:0.996" fill="#36562b" d="M 429.5,111.5 C 429.883,113.408 430.883,114.908 432.5,116C 429.463,115.934 426.63,115.767 424,115.5C 423.667,116.167 423.333,116.833 423,117.5C 422.107,116.289 421.274,116.289 420.5,117.5C 422.396,119.881 422.729,122.381 421.5,125C 423.255,125.72 424.089,126.887 424,128.5C 422.887,127.289 421.72,127.289 420.5,128.5C 419.585,127.672 418.919,126.672 418.5,125.5C 419.833,124.167 419.833,122.833 418.5,121.5C 416.799,121.81 415.132,121.31 413.5,120C 415.901,119.195 415.734,118.362 413,117.5C 412.667,117.833 412.333,118.167 412,118.5C 408.807,113.657 405.973,113.657 403.5,118.5C 403.693,117.312 403.193,115.978 402,114.5C 398.952,115.783 398.785,117.449 401.5,119.5C 401.081,120.672 400.415,121.672 399.5,122.5C 398.276,121.234 396.943,120.067 395.5,119C 396.654,118.086 396.487,117.253 395,116.5C 394.292,117.381 393.458,118.047 392.5,118.5C 392.971,116.421 393.637,114.421 394.5,112.5C 394.351,111.448 394.517,110.448 395,109.5C 401.461,104.875 408.461,104.208 416,107.5C 417.641,110.334 420.308,112.668 424,114.5C 425.653,114.18 426.653,113.18 427,111.5C 427.77,112.598 428.603,112.598 429.5,111.5 Z"/></g>
<g><path style="opacity:0.996" fill="#92bd76" d="M 473.5,109.5 C 473.5,110.5 473.5,111.5 473.5,112.5C 472.662,112.842 472.328,113.508 472.5,114.5C 471.305,114.866 470.639,115.699 470.5,117C 470.525,119.679 470.525,122.346 470.5,125C 471.053,126.878 472.053,128.378 473.5,129.5C 473.557,130.609 473.89,131.609 474.5,132.5C 469.462,132.178 464.462,132.511 459.5,133.5C 457.618,132.907 455.785,132.24 454,131.5C 453.692,132.308 453.192,132.975 452.5,133.5C 451.145,131.479 449.479,129.812 447.5,128.5C 447.833,127.833 448.167,127.167 448.5,126.5C 449.338,126.158 449.672,125.492 449.5,124.5C 450.494,121.103 450.16,117.77 448.5,114.5C 447.833,113.833 447.167,113.167 446.5,112.5C 447.105,110.974 448.271,109.974 450,109.5C 458.205,108.435 466.039,108.435 473.5,109.5 Z"/></g>
<g><path style="opacity:0.996" fill="#3a5b2f" d="M 523.5,119.5 C 522.178,119.33 521.011,119.663 520,120.5C 519.667,119.5 519.333,118.5 519,117.5C 517.933,118.191 516.766,118.691 515.5,119C 516.26,120.441 516.926,121.941 517.5,123.5C 517.167,124.5 516.5,125.167 515.5,125.5C 515.251,124.418 515.085,123.085 515,121.5C 509.879,117.482 510.379,116.149 516.5,117.5C 516.587,114.402 516.087,114.068 515,116.5C 513.601,115.773 512.101,115.273 510.5,115C 511.337,113.989 511.67,112.822 511.5,111.5C 508.95,111.561 507.45,112.894 507,115.5C 506.751,114.376 506.251,113.376 505.5,112.5C 504.571,113.55 503.905,113.55 503.5,112.5C 508.606,110.155 513.94,109.988 519.5,112C 519.167,112.333 518.833,112.667 518.5,113C 521.479,114.112 523.146,116.278 523.5,119.5 Z"/></g>
<g><path style="opacity:0.996" fill="#2b4a23" d="M 346.5,111.5 C 346.56,112.043 346.893,112.376 347.5,112.5C 352.406,110.848 357.406,109.515 362.5,108.5C 366.494,109.541 369.828,110.874 372.5,112.5C 372.061,116.026 371.894,119.693 372,123.5C 370.333,126.167 368.667,128.833 367,131.5C 366.25,132.126 365.416,132.626 364.5,133C 364.197,135.758 362.53,137.925 359.5,139.5C 356.352,144.147 352.352,147.98 347.5,151C 343.401,151.44 339.401,152.273 335.5,153.5C 330.38,151.193 325.547,148.527 321,145.5C 319.588,144.314 318.421,142.981 317.5,141.5C 313.763,138.649 311.096,134.982 309.5,130.5C 309.938,130.565 310.272,130.399 310.5,130C 308.06,127.626 308.394,125.459 311.5,123.5C 313.002,124.083 314.335,124.916 315.5,126C 315.167,126.333 314.833,126.667 314.5,127C 315.5,127.333 316.5,127.667 317.5,128C 316.764,131.199 317.597,131.365 320,128.5C 320,129.833 320,131.167 320,132.5C 321.32,132.201 322.82,132.034 324.5,132C 323.304,131.346 323.304,130.846 324.5,130.5C 325.202,132.467 325.202,134.134 324.5,135.5C 325.799,134.91 326.632,133.91 327,132.5C 330.363,132.986 333.529,132.986 336.5,132.5C 335.271,131.719 333.938,131.219 332.5,131C 332.112,129.475 332.112,127.808 332.5,126C 330.537,121.685 327.204,120.019 322.5,121C 323.939,121.991 324.939,123.324 325.5,125C 322.936,125.45 321.436,124.284 321,121.5C 320.667,122.167 320.333,122.833 320,123.5C 320.57,121.307 320.236,119.307 319,117.5C 317.256,118.649 317.089,119.983 318.5,121.5C 317.5,122.833 316.5,122.833 315.5,121.5C 316.074,119.941 316.74,118.441 317.5,117C 317,116.5 316.5,116 316,115.5C 315.222,118.184 313.889,120.517 312,122.5C 310.364,119.318 309.198,115.984 308.5,112.5C 312.311,111.262 312.311,110.596 308.5,110.5C 308.5,109.5 308.5,108.5 308.5,107.5C 311.945,103.504 316.445,101.504 322,101.5C 330.823,102.845 337.656,107.178 342.5,114.5C 343.852,113.476 345.185,112.476 346.5,111.5 Z"/></g>
<g><path style="opacity:0.996" fill="#507441" d="M 472.5,114.5 C 472.882,117.354 472.882,120.354 472.5,123.5C 472.751,125.17 473.418,126.67 474.5,128C 473.944,128.383 473.611,128.883 473.5,129.5C 472.053,128.378 471.053,126.878 470.5,125C 470.525,122.346 470.525,119.679 470.5,117C 470.639,115.699 471.305,114.866 472.5,114.5 Z"/></g>
<g><path style="opacity:0.996" fill="#36572c" d="M 308.5,107.5 C 308.5,108.5 308.5,109.5 308.5,110.5C 312.311,110.596 312.311,111.262 308.5,112.5C 309.198,115.984 310.364,119.318 312,122.5C 313.889,120.517 315.222,118.184 316,115.5C 316.5,116 317,116.5 317.5,117C 316.74,118.441 316.074,119.941 315.5,121.5C 316.5,122.833 317.5,122.833 318.5,121.5C 317.089,119.983 317.256,118.649 319,117.5C 320.236,119.307 320.57,121.307 320,123.5C 320.333,122.833 320.667,122.167 321,121.5C 321.436,124.284 322.936,125.45 325.5,125C 324.939,123.324 323.939,121.991 322.5,121C 327.204,120.019 330.537,121.685 332.5,126C 332.112,127.808 332.112,129.475 332.5,131C 333.938,131.219 335.271,131.719 336.5,132.5C 333.529,132.986 330.363,132.986 327,132.5C 326.632,133.91 325.799,134.91 324.5,135.5C 325.202,134.134 325.202,132.467 324.5,130.5C 323.304,130.846 323.304,131.346 324.5,132C 322.82,132.034 321.32,132.201 320,132.5C 320,131.167 320,129.833 320,128.5C 317.597,131.365 316.764,131.199 317.5,128C 316.5,127.667 315.5,127.333 314.5,127C 314.833,126.667 315.167,126.333 315.5,126C 314.335,124.916 313.002,124.083 311.5,123.5C 308.394,125.459 308.06,127.626 310.5,130C 310.272,130.399 309.938,130.565 309.5,130.5C 306.185,126.514 304.518,121.848 304.5,116.5C 304.508,112.824 305.841,109.824 308.5,107.5 Z"/></g>
<g><path style="opacity:0.996" fill="#2e4d25" d="M 243.5,118.5 C 243.938,118.435 244.272,118.601 244.5,119C 241.96,120.04 240.293,121.874 239.5,124.5C 239.331,123.603 238.998,122.603 238.5,121.5C 237.28,122.711 236.113,122.711 235,121.5C 234.138,123.087 233.471,124.754 233,126.5C 230.699,122.4 227.533,121.567 223.5,124C 226.931,127.082 225.931,129.082 220.5,130C 221.696,130.654 221.696,131.154 220.5,131.5C 219.772,129.807 218.772,128.307 217.5,127C 218.167,126.667 218.833,126.333 219.5,126C 218.549,125.282 218.383,124.449 219,123.5C 220.758,124.469 221.258,125.636 220.5,127C 221.725,127.563 222.725,127.23 223.5,126C 222.333,124.5 221.167,123 220,121.5C 218.636,122.258 217.469,121.758 216.5,120C 217.171,116.035 216.171,115.702 213.5,119C 216.078,121.157 216.078,122.323 213.5,122.5C 214.025,123.192 214.692,123.692 215.5,124C 214.333,124.5 213.5,125.333 213,126.5C 212.667,126.167 212.333,125.833 212,125.5C 211.517,126.448 211.351,127.448 211.5,128.5C 210.761,128.631 210.094,128.464 209.5,128C 211.414,124.553 212.081,121.053 211.5,117.5C 216.164,115.554 220.498,112.888 224.5,109.5C 227.034,110.788 229.534,110.788 232,109.5C 235.096,113.428 238.93,116.428 243.5,118.5 Z"/></g>
<g><path style="opacity:0.004" fill="#1e3d18" d="M 574.5,120.5 C 575.833,121.167 575.833,121.167 574.5,120.5 Z"/></g>
<g><path style="opacity:0.996" fill="#2c4b23" d="M 274.5,124.5 C 273.316,125.688 273.316,126.855 274.5,128C 271.053,133.941 267.053,139.441 262.5,144.5C 260.309,146.598 257.976,148.598 255.5,150.5C 253.978,151.562 252.312,152.229 250.5,152.5C 249.404,150.897 248.07,149.397 246.5,148C 250.473,147.525 254.14,147.025 257.5,146.5C 255.082,145.543 252.916,144.209 251,142.5C 251.734,145.959 250.734,146.293 248,143.5C 247.667,143.833 247.333,144.167 247,144.5C 246.28,142.888 246.446,141.388 247.5,140C 246.672,139.085 245.672,138.419 244.5,138C 246.665,136.103 247.332,133.936 246.5,131.5C 245.833,132.167 245.167,132.833 244.5,133.5C 244.167,133 243.833,132.5 243.5,132C 244.232,130.235 245.565,129.068 247.5,128.5C 246.332,127.094 246.665,125.928 248.5,125C 247.707,123.915 247.04,122.748 246.5,121.5C 248.353,120.24 250.186,120.24 252,121.5C 253.214,119.951 254.714,118.785 256.5,118C 255.167,117.333 255.167,116.667 256.5,116C 254.122,115.026 254.456,114.359 257.5,114C 255.359,113.116 253.693,113.616 252.5,115.5C 253.025,116.192 253.692,116.692 254.5,117C 253.354,117.645 252.354,118.478 251.5,119.5C 249.304,117.591 246.97,116.925 244.5,117.5C 244.55,114.848 245.55,113.848 247.5,114.5C 249.585,113.229 251.752,112.229 254,111.5C 257.296,112.506 260.296,111.84 263,109.5C 265.571,111.353 268.238,113.019 271,114.5C 271.615,116.116 272.615,117.449 274,118.5C 273.716,120.679 273.883,122.679 274.5,124.5 Z"/></g>
<g><path style="opacity:0.996" fill="#688f54" d="M 448.5,114.5 C 450.16,117.77 450.494,121.103 449.5,124.5C 448.949,121.193 448.616,117.86 448.5,114.5 Z"/></g>
<g><path style="opacity:0.996" fill="#2e4e25" d="M 503.5,112.5 C 503.905,113.55 504.571,113.55 505.5,112.5C 506.251,113.376 506.751,114.376 507,115.5C 507.45,112.894 508.95,111.561 511.5,111.5C 511.67,112.822 511.337,113.989 510.5,115C 512.101,115.273 513.601,115.773 515,116.5C 516.087,114.068 516.587,114.402 516.5,117.5C 510.379,116.149 509.879,117.482 515,121.5C 515.085,123.085 515.251,124.418 515.5,125.5C 516.5,125.167 517.167,124.5 517.5,123.5C 516.926,121.941 516.26,120.441 515.5,119C 516.766,118.691 517.933,118.191 519,117.5C 519.333,118.5 519.667,119.5 520,120.5C 521.011,119.663 522.178,119.33 523.5,119.5C 523.466,123.15 522.966,126.816 522,130.5C 519.323,133.343 516.49,136.01 513.5,138.5C 511.249,141.295 508.582,143.628 505.5,145.5C 505.389,144.883 505.056,144.383 504.5,144C 505.861,142.416 506.528,140.582 506.5,138.5C 503.653,138.782 500.987,138.782 498.5,138.5C 500.197,137.636 501.363,136.303 502,134.5C 503.335,136.605 505.002,137.271 507,136.5C 508.487,137.253 508.654,138.086 507.5,139C 510.091,139.301 510.925,138.134 510,135.5C 508.126,133.332 506.293,131.832 504.5,131C 505.364,129.303 506.697,128.137 508.5,127.5C 508.669,128.397 509.002,129.397 509.5,130.5C 510.451,131.326 511.451,131.492 512.5,131C 512.307,129.355 512.14,127.521 512,125.5C 510.951,126.517 509.784,126.684 508.5,126C 511.312,123.504 511.479,121.337 509,119.5C 508.667,120.167 508.333,120.833 508,121.5C 507.847,119.821 507.347,118.655 506.5,118C 505.646,119.881 505.979,121.714 507.5,123.5C 506.412,127.386 505.579,127.386 505,123.5C 504.346,124.696 503.846,124.696 503.5,123.5C 504.025,122.808 504.692,122.308 505.5,122C 504.159,120.705 502.826,120.205 501.5,120.5C 502.025,119.808 502.692,119.308 503.5,119C 502.069,118.535 500.903,117.701 500,116.5C 499.261,117.574 498.261,118.241 497,118.5C 495.7,117.293 494.2,116.626 492.5,116.5C 492.649,115.448 492.483,114.448 492,113.5C 488.654,114.089 488.654,113.422 492,111.5C 492.688,110.668 492.521,110.002 491.5,109.5C 489.34,109.316 487.007,108.649 484.5,107.5C 483.833,107.667 483.167,107.833 482.5,108C 483.696,108.654 483.696,109.154 482.5,109.5C 481.5,106.833 480.5,106.833 479.5,109.5C 481.04,110.532 481.54,111.865 481,113.5C 477.708,114.39 477.041,116.057 479,118.5C 480.872,116.561 483.039,115.394 485.5,115C 484.833,116.333 483.833,117.333 482.5,118C 483.517,119.049 483.684,120.216 483,121.5C 480.835,122.583 478.835,123.916 477,125.5C 475.347,125.18 474.347,124.18 474,122.5C 473.617,123.056 473.117,123.389 472.5,123.5C 472.882,120.354 472.882,117.354 472.5,114.5C 472.328,113.508 472.662,112.842 473.5,112.5C 474.534,111.313 475.867,110.48 477.5,110C 476.944,109.617 476.611,109.117 476.5,108.5C 479.596,107.081 482.929,106.081 486.5,105.5C 488.982,106.897 491.648,107.731 494.5,108C 496.833,109 498.5,110.667 499.5,113C 500.928,113.579 502.262,113.412 503.5,112.5 Z"/></g>
<g><path style="opacity:0.996" fill="#2a4922" d="M 505.5,145.5 C 503.992,146.746 502.492,148.08 501,149.5C 499.704,148.932 498.204,148.932 496.5,149.5C 494.886,149.197 493.552,148.53 492.5,147.5C 491.735,143.776 489.569,140.443 486,137.5C 484.667,137.5 483.333,137.5 482,137.5C 482.582,132.212 481.915,132.212 480,137.5C 479.25,136.874 478.416,136.374 477.5,136C 477.833,135.667 478.167,135.333 478.5,135C 476.578,133.54 475.911,131.873 476.5,130C 475.552,129.517 474.552,129.351 473.5,129.5C 473.611,128.883 473.944,128.383 474.5,128C 473.418,126.67 472.751,125.17 472.5,123.5C 473.117,123.389 473.617,123.056 474,122.5C 474.347,124.18 475.347,125.18 477,125.5C 478.835,123.916 480.835,122.583 483,121.5C 483.684,120.216 483.517,119.049 482.5,118C 483.833,117.333 484.833,116.333 485.5,115C 483.039,115.394 480.872,116.561 479,118.5C 477.041,116.057 477.708,114.39 481,113.5C 481.54,111.865 481.04,110.532 479.5,109.5C 480.5,106.833 481.5,106.833 482.5,109.5C 483.696,109.154 483.696,108.654 482.5,108C 483.167,107.833 483.833,107.667 484.5,107.5C 487.007,108.649 489.34,109.316 491.5,109.5C 492.521,110.002 492.688,110.668 492,111.5C 488.654,113.422 488.654,114.089 492,113.5C 492.483,114.448 492.649,115.448 492.5,116.5C 494.2,116.626 495.7,117.293 497,118.5C 498.261,118.241 499.261,117.574 500,116.5C 500.903,117.701 502.069,118.535 503.5,119C 502.692,119.308 502.025,119.808 501.5,120.5C 502.826,120.205 504.159,120.705 505.5,122C 504.692,122.308 504.025,122.808 503.5,123.5C 503.846,124.696 504.346,124.696 505,123.5C 505.579,127.386 506.412,127.386 507.5,123.5C 505.979,121.714 505.646,119.881 506.5,118C 507.347,118.655 507.847,119.821 508,121.5C 508.333,120.833 508.667,120.167 509,119.5C 511.479,121.337 511.312,123.504 508.5,126C 509.784,126.684 510.951,126.517 512,125.5C 512.14,127.521 512.307,129.355 512.5,131C 511.451,131.492 510.451,131.326 509.5,130.5C 509.002,129.397 508.669,128.397 508.5,127.5C 506.697,128.137 505.364,129.303 504.5,131C 506.293,131.832 508.126,133.332 510,135.5C 510.925,138.134 510.091,139.301 507.5,139C 508.654,138.086 508.487,137.253 507,136.5C 505.002,137.271 503.335,136.605 502,134.5C 501.363,136.303 500.197,137.636 498.5,138.5C 500.987,138.782 503.653,138.782 506.5,138.5C 506.528,140.582 505.861,142.416 504.5,144C 505.056,144.383 505.389,144.883 505.5,145.5 Z"/></g>
<g><path style="opacity:0.004" fill="#1e3d18" d="M 575.5,127.5 C 576.833,128.167 576.833,128.167 575.5,127.5 Z"/></g>
<g><path style="opacity:0.996" fill="#8eba73" d="M 394.5,112.5 C 393.637,114.421 392.971,116.421 392.5,118.5C 392.67,119.822 392.337,120.989 391.5,122C 392.953,123.649 393.953,125.482 394.5,127.5C 394.238,128.978 394.571,130.311 395.5,131.5C 397.299,133.92 398.966,136.254 400.5,138.5C 401.401,139.29 402.068,140.29 402.5,141.5C 402.631,142.239 402.464,142.906 402,143.5C 400.686,142.687 399.519,141.687 398.5,140.5C 397.575,141.641 396.741,141.641 396,140.5C 395.692,141.308 395.192,141.975 394.5,142.5C 392.833,141.167 391.167,141.167 389.5,142.5C 387.348,140.188 385.348,140.522 383.5,143.5C 379.648,143.691 376.148,143.025 373,141.5C 370.412,142.797 367.912,143.797 365.5,144.5C 365.704,143.471 365.204,142.471 364,141.5C 362.434,140.939 361.101,141.606 360,143.5C 359.51,142.207 359.343,140.873 359.5,139.5C 362.53,137.925 364.197,135.758 364.5,133C 365.416,132.626 366.25,132.126 367,131.5C 368.667,128.833 370.333,126.167 372,123.5C 371.894,119.693 372.061,116.026 372.5,112.5C 375.166,112.02 377.666,111.02 380,109.5C 380.839,110.624 382.006,111.291 383.5,111.5C 386.212,111.547 388.378,110.547 390,108.5C 391.395,109.815 392.395,109.481 393,107.5C 393.198,109.382 393.698,111.048 394.5,112.5 Z"/></g>
<g><path style="opacity:0.996" fill="#507440" d="M 394.5,127.5 C 396.487,130.385 398.821,133.052 401.5,135.5C 400.833,135.833 400.167,136.167 399.5,136.5C 399.863,137.183 400.196,137.85 400.5,138.5C 398.966,136.254 397.299,133.92 395.5,131.5C 394.571,130.311 394.238,128.978 394.5,127.5 Z"/></g>
<g><path style="opacity:0.996" fill="#759d5f" d="M 96.5,124.5 C 95.6022,128.027 94.6022,131.527 93.5,135C 93.7831,136.924 95.1164,138.591 97.5,140C 96.4844,140.519 95.8178,141.353 95.5,142.5C 95.8457,143.849 96.179,145.183 96.5,146.5C 95.1001,145.9 94.1001,144.9 93.5,143.5C 94.9526,142.175 94.6192,141.342 92.5,141C 93.2853,138.557 93.1186,136.057 92,133.5C 91.6174,134.056 91.1174,134.389 90.5,134.5C 92.5679,131.908 93.9013,128.908 94.5,125.5C 95.1835,125.137 95.8501,124.804 96.5,124.5 Z"/></g>
<g><path style="opacity:0.996" fill="#274620" d="M 250.5,152.5 C 250.672,153.492 250.338,154.158 249.5,154.5C 247.606,155.048 245.94,156.048 244.5,157.5C 243.692,157.192 243.025,156.692 242.5,156C 243.833,154.16 243.666,153.66 242,154.5C 241.5,154 241,153.5 240.5,153C 241.794,150.91 242.794,148.91 243.5,147C 242.216,146.316 241.049,146.483 240,147.5C 238.097,144.829 237.264,141.829 237.5,138.5C 236.448,138.649 235.448,138.483 234.5,138C 235.696,137.346 235.696,136.846 234.5,136.5C 232.38,137.403 232.046,138.737 233.5,140.5C 232.998,141.521 232.332,141.688 231.5,141C 230.761,138.765 230.761,136.765 231.5,135C 232.833,133.333 234.167,131.667 235.5,130C 233.406,129.555 231.906,130.388 231,132.5C 230.333,131.167 229.667,131.167 229,132.5C 228,131.167 227,129.833 226,128.5C 225.383,129.449 225.549,130.282 226.5,131C 224.321,131.442 223.655,132.442 224.5,134C 223.149,135.617 221.482,136.784 219.5,137.5C 221.335,138.192 223.168,137.858 225,136.5C 225.822,138.788 226.489,141.122 227,143.5C 228.716,143.589 230.549,143.256 232.5,142.5C 232.833,142.667 233.167,142.833 233.5,143C 232.643,143.689 231.977,144.522 231.5,145.5C 234.26,145.512 234.76,146.845 233,149.5C 231.667,148.833 230.667,147.833 230,146.5C 228.951,147.517 227.784,147.684 226.5,147C 226.833,146.667 227.167,146.333 227.5,146C 226.089,143.954 224.423,142.121 222.5,140.5C 222.167,140.667 221.833,140.833 221.5,141C 223.937,142.279 224.437,143.779 223,145.5C 222.221,142.903 221.721,142.903 221.5,145.5C 220.167,144.167 218.833,142.833 217.5,141.5C 216.833,140.5 216.167,139.5 215.5,138.5C 213.404,136.4 211.737,133.9 210.5,131C 211.252,130.329 211.586,129.496 211.5,128.5C 211.351,127.448 211.517,126.448 212,125.5C 212.333,125.833 212.667,126.167 213,126.5C 213.5,125.333 214.333,124.5 215.5,124C 214.692,123.692 214.025,123.192 213.5,122.5C 216.078,122.323 216.078,121.157 213.5,119C 216.171,115.702 217.171,116.035 216.5,120C 217.469,121.758 218.636,122.258 220,121.5C 221.167,123 222.333,124.5 223.5,126C 222.725,127.23 221.725,127.563 220.5,127C 221.258,125.636 220.758,124.469 219,123.5C 218.383,124.449 218.549,125.282 219.5,126C 218.833,126.333 218.167,126.667 217.5,127C 218.772,128.307 219.772,129.807 220.5,131.5C 221.696,131.154 221.696,130.654 220.5,130C 225.931,129.082 226.931,127.082 223.5,124C 227.533,121.567 230.699,122.4 233,126.5C 233.471,124.754 234.138,123.087 235,121.5C 236.113,122.711 237.28,122.711 238.5,121.5C 238.998,122.603 239.331,123.603 239.5,124.5C 240.293,121.874 241.96,120.04 244.5,119C 244.272,118.601 243.938,118.435 243.5,118.5C 243.5,117.833 243.833,117.5 244.5,117.5C 246.97,116.925 249.304,117.591 251.5,119.5C 252.354,118.478 253.354,117.645 254.5,117C 253.692,116.692 253.025,116.192 252.5,115.5C 253.693,113.616 255.359,113.116 257.5,114C 254.456,114.359 254.122,115.026 256.5,116C 255.167,116.667 255.167,117.333 256.5,118C 254.714,118.785 253.214,119.951 252,121.5C 250.186,120.24 248.353,120.24 246.5,121.5C 247.04,122.748 247.707,123.915 248.5,125C 246.665,125.928 246.332,127.094 247.5,128.5C 245.565,129.068 244.232,130.235 243.5,132C 243.833,132.5 244.167,133 244.5,133.5C 245.167,132.833 245.833,132.167 246.5,131.5C 247.332,133.936 246.665,136.103 244.5,138C 245.672,138.419 246.672,139.085 247.5,140C 246.446,141.388 246.28,142.888 247,144.5C 247.333,144.167 247.667,143.833 248,143.5C 250.734,146.293 251.734,145.959 251,142.5C 252.916,144.209 255.082,145.543 257.5,146.5C 254.14,147.025 250.473,147.525 246.5,148C 248.07,149.397 249.404,150.897 250.5,152.5 Z"/></g>
<g><path style="opacity:0.973" fill="#5d824b" d="M 544.5,128.5 C 544.918,129.222 545.584,129.722 546.5,130C 544.109,130.691 544.109,131.691 546.5,133C 545.255,133.791 543.922,134.291 542.5,134.5C 542.966,132.799 542.966,131.299 542.5,130C 543.044,129.283 543.711,128.783 544.5,128.5 Z"/></g>
<g><path style="opacity:0.996" fill="#8db973" d="M 304.5,116.5 C 304.518,121.848 306.185,126.514 309.5,130.5C 311.096,134.982 313.763,138.649 317.5,141.5C 317.33,142.822 317.663,143.989 318.5,145C 318,145.5 317.5,146 317,146.5C 315.551,145.386 314.217,144.386 313,143.5C 312.261,144.574 311.261,145.241 310,145.5C 306.588,145.824 303.422,145.491 300.5,144.5C 299.23,145.562 298.063,146.562 297,147.5C 295.507,145.652 293.674,144.819 291.5,145C 293.595,145.556 293.762,146.056 292,146.5C 289.677,146.189 287.344,145.856 285,145.5C 284.311,146.357 283.478,147.023 282.5,147.5C 279.833,146.167 277.167,146.167 274.5,147.5C 273.522,147.023 272.689,146.357 272,145.5C 271.333,146.833 270.667,146.833 270,145.5C 269.581,146.672 268.915,147.672 268,148.5C 266.301,147.594 264.467,147.261 262.5,147.5C 262.5,146.5 262.5,145.5 262.5,144.5C 267.053,139.441 271.053,133.941 274.5,128C 273.316,126.855 273.316,125.688 274.5,124.5C 276.866,123.218 279.033,121.551 281,119.5C 281.414,119.957 281.914,120.291 282.5,120.5C 285.276,120.054 287.776,119.054 290,117.5C 292.112,119.606 294.112,119.273 296,116.5C 297.154,117.743 298.488,118.743 300,119.5C 301.271,118.117 302.771,117.117 304.5,116.5 Z"/></g>
<g><path style="opacity:1" fill="#507440" d="M 93.5,143.5 C 90.4628,143.013 89.4628,141.513 90.5,139C 90.2409,137.739 89.5742,136.739 88.5,136C 89.4158,135.722 90.0825,135.222 90.5,134.5C 91.1174,134.389 91.6174,134.056 92,133.5C 93.1186,136.057 93.2853,138.557 92.5,141C 94.6192,141.342 94.9526,142.175 93.5,143.5 Z"/></g>
<g><path style="opacity:0.996" fill="#2b4b23" d="M 431.5,109.5 C 430.797,111.034 430.964,112.701 432,114.5C 432.196,112.714 433.029,111.381 434.5,110.5C 435.5,111.833 436.5,111.833 437.5,110.5C 438.833,111.5 440.167,112.5 441.5,113.5C 442.855,114.675 442.688,115.675 441,116.5C 437.003,115.421 436.836,116.588 440.5,120C 440.167,120.333 439.833,120.667 439.5,121C 440.536,122.617 441.703,122.784 443,121.5C 444.755,122.67 445.755,124.337 446,126.5C 447.071,123.887 447.905,123.887 448.5,126.5C 448.167,127.167 447.833,127.833 447.5,128.5C 447.481,130.06 447.148,131.56 446.5,133C 444.217,134.618 442.717,136.785 442,139.5C 441.667,139.167 441.333,138.833 441,138.5C 437.698,141.226 434.532,144.059 431.5,147C 429.913,147.862 428.246,148.529 426.5,149C 425.809,150.067 425.309,151.234 425,152.5C 422.695,152.421 420.195,152.254 417.5,152C 412.344,148.669 407.344,145.169 402.5,141.5C 402.068,140.29 401.401,139.29 400.5,138.5C 400.196,137.85 399.863,137.183 399.5,136.5C 400.167,136.167 400.833,135.833 401.5,135.5C 398.821,133.052 396.487,130.385 394.5,127.5C 393.953,125.482 392.953,123.649 391.5,122C 392.337,120.989 392.67,119.822 392.5,118.5C 393.458,118.047 394.292,117.381 395,116.5C 396.487,117.253 396.654,118.086 395.5,119C 396.943,120.067 398.276,121.234 399.5,122.5C 400.415,121.672 401.081,120.672 401.5,119.5C 398.785,117.449 398.952,115.783 402,114.5C 403.193,115.978 403.693,117.312 403.5,118.5C 405.973,113.657 408.807,113.657 412,118.5C 412.333,118.167 412.667,117.833 413,117.5C 415.734,118.362 415.901,119.195 413.5,120C 415.132,121.31 416.799,121.81 418.5,121.5C 419.833,122.833 419.833,124.167 418.5,125.5C 418.919,126.672 419.585,127.672 420.5,128.5C 421.72,127.289 422.887,127.289 424,128.5C 424.089,126.887 423.255,125.72 421.5,125C 422.729,122.381 422.396,119.881 420.5,117.5C 421.274,116.289 422.107,116.289 423,117.5C 423.333,116.833 423.667,116.167 424,115.5C 426.63,115.767 429.463,115.934 432.5,116C 430.883,114.908 429.883,113.408 429.5,111.5C 429.5,110.167 430.167,109.5 431.5,109.5 Z"/></g>
<g><path style="opacity:0.98" fill="#61874e" d="M 541.5,138.5 C 542.412,139.738 542.579,141.072 542,142.5C 541.667,141.833 541.333,141.167 541,140.5C 540,142.151 538.833,143.818 537.5,145.5C 536.583,144.873 535.583,144.539 534.5,144.5C 536.562,141.497 538.896,139.497 541.5,138.5 Z"/></g>
<g><path style="opacity:0.996" fill="#37582c" d="M 473.5,129.5 C 474.552,129.351 475.552,129.517 476.5,130C 475.911,131.873 476.578,133.54 478.5,135C 478.167,135.333 477.833,135.667 477.5,136C 478.416,136.374 479.25,136.874 480,137.5C 481.915,132.212 482.582,132.212 482,137.5C 483.333,137.5 484.667,137.5 486,137.5C 489.569,140.443 491.735,143.776 492.5,147.5C 492.44,148.043 492.107,148.376 491.5,148.5C 489.483,147.039 487.483,145.706 485.5,144.5C 481.74,142.246 478.407,139.412 475.5,136C 476.287,134.687 475.954,133.52 474.5,132.5C 473.89,131.609 473.557,130.609 473.5,129.5 Z"/></g>
<g><path style="opacity:0.999" fill="#87b26e" d="M 184.5,103.5 C 184.369,104.239 184.536,104.906 185,105.5C 185.689,104.643 186.522,103.977 187.5,103.5C 188.534,106.125 189.534,106.125 190.5,103.5C 192.792,104.468 194.959,104.802 197,104.5C 198,103.833 199,103.167 200,102.5C 201.762,104.262 203.595,104.928 205.5,104.5C 206.117,104.389 206.617,104.056 207,103.5C 207.278,104.416 207.778,105.082 208.5,105.5C 209.473,107.25 210.807,108.75 212.5,110C 210.999,111.252 209.332,112.252 207.5,113C 208.868,115.255 210.201,116.755 211.5,117.5C 212.081,121.053 211.414,124.553 209.5,128C 210.094,128.464 210.761,128.631 211.5,128.5C 211.586,129.496 211.252,130.329 210.5,131C 211.737,133.9 213.404,136.4 215.5,138.5C 213.265,137.772 211.432,136.439 210,134.5C 209.421,138.386 208.588,138.386 207.5,134.5C 206.372,133.738 205.205,133.071 204,132.5C 199.831,133.369 195.497,133.369 191,132.5C 188.13,133.093 185.297,133.759 182.5,134.5C 184.596,130.92 186.262,127.087 187.5,123C 186.566,120.299 185.232,117.799 183.5,115.5C 173.392,111.75 165.226,114.083 159,122.5C 155.672,114.752 149.839,111.586 141.5,113C 139.973,114.032 138.64,115.199 137.5,116.5C 134.944,117.378 132.61,118.711 130.5,120.5C 129.928,122.917 128.928,125.084 127.5,127C 128.264,129.069 128.764,131.236 129,133.5C 129.804,135.944 131.304,137.778 133.5,139C 133.167,139.333 132.833,139.667 132.5,140C 135.11,141.481 137.777,142.648 140.5,143.5C 140.5,144.5 140.5,145.5 140.5,146.5C 142.199,146.527 143.533,147.194 144.5,148.5C 145.091,149.151 145.757,149.818 146.5,150.5C 146.291,151.086 145.957,151.586 145.5,152C 147.584,152.778 149.417,153.945 151,155.5C 151.333,154.833 151.667,154.167 152,153.5C 152.615,155.116 153.615,156.449 155,157.5C 157.154,156.77 159.321,156.103 161.5,155.5C 163.371,155.141 164.871,154.141 166,152.5C 167.25,149.829 169.083,147.663 171.5,146C 171.167,145.667 170.833,145.333 170.5,145C 171.931,144.535 173.097,143.701 174,142.5C 174.399,142.728 174.565,143.062 174.5,143.5C 174.44,147.327 175.607,147.994 178,145.5C 178.853,147.125 179.853,147.458 181,146.5C 181.374,147.416 181.874,148.25 182.5,149C 185.475,149.336 188.142,149.169 190.5,148.5C 191.192,149.025 191.692,149.692 192,150.5C 192.308,149.692 192.808,149.025 193.5,148.5C 196.543,149.24 199.71,149.574 203,149.5C 205.271,147.566 207.271,147.566 209,149.5C 210.796,148.233 212.629,148.233 214.5,149.5C 215.524,148.147 216.857,147.48 218.5,147.5C 218.773,145.549 218.107,144.049 216.5,143C 217.056,142.617 217.389,142.117 217.5,141.5C 218.833,142.833 220.167,144.167 221.5,145.5C 228.245,154.552 236.912,158.552 247.5,157.5C 248.612,156.735 249.279,155.735 249.5,154.5C 250.338,154.158 250.672,153.492 250.5,152.5C 252.312,152.229 253.978,151.562 255.5,150.5C 257.976,148.598 260.309,146.598 262.5,144.5C 262.5,145.5 262.5,146.5 262.5,147.5C 264.467,147.261 266.301,147.594 268,148.5C 268.915,147.672 269.581,146.672 270,145.5C 270.667,146.833 271.333,146.833 272,145.5C 272.689,146.357 273.522,147.023 274.5,147.5C 277.167,146.167 279.833,146.167 282.5,147.5C 283.478,147.023 284.311,146.357 285,145.5C 287.344,145.856 289.677,146.189 292,146.5C 293.762,146.056 293.595,145.556 291.5,145C 293.674,144.819 295.507,145.652 297,147.5C 298.063,146.562 299.23,145.562 300.5,144.5C 303.422,145.491 306.588,145.824 310,145.5C 311.261,145.241 312.261,144.574 313,143.5C 314.217,144.386 315.551,145.386 317,146.5C 317.5,146 318,145.5 318.5,145C 317.663,143.989 317.33,142.822 317.5,141.5C 318.421,142.981 319.588,144.314 321,145.5C 325.547,148.527 330.38,151.193 335.5,153.5C 339.401,152.273 343.401,151.44 347.5,151C 352.352,147.98 356.352,144.147 359.5,139.5C 359.343,140.873 359.51,142.207 360,143.5C 361.101,141.606 362.434,140.939 364,141.5C 365.204,142.471 365.704,143.471 365.5,144.5C 367.912,143.797 370.412,142.797 373,141.5C 376.148,143.025 379.648,143.691 383.5,143.5C 385.348,140.522 387.348,140.188 389.5,142.5C 391.167,141.167 392.833,141.167 394.5,142.5C 395.192,141.975 395.692,141.308 396,140.5C 396.741,141.641 397.575,141.641 398.5,140.5C 399.519,141.687 400.686,142.687 402,143.5C 402.464,142.906 402.631,142.239 402.5,141.5C 407.344,145.169 412.344,148.669 417.5,152C 420.195,152.254 422.695,152.421 425,152.5C 425.309,151.234 425.809,150.067 426.5,149C 428.246,148.529 429.913,147.862 431.5,147C 434.532,144.059 437.698,141.226 441,138.5C 441.333,138.833 441.667,139.167 442,139.5C 442.717,136.785 444.217,134.618 446.5,133C 447.148,131.56 447.481,130.06 447.5,128.5C 449.479,129.812 451.145,131.479 452.5,133.5C 453.192,132.975 453.692,132.308 454,131.5C 455.785,132.24 457.618,132.907 459.5,133.5C 464.462,132.511 469.462,132.178 474.5,132.5C 475.954,133.52 476.287,134.687 475.5,136C 478.407,139.412 481.74,142.246 485.5,144.5C 489.607,148.264 490.107,152.264 487,156.5C 487.617,154.905 487.284,153.572 486,152.5C 484.429,153.204 482.762,154.537 481,156.5C 480.053,154.49 478.386,152.49 476,150.5C 475.667,151.5 475.333,152.5 475,153.5C 473.927,152.72 472.76,152.887 471.5,154C 471.957,154.414 472.291,154.914 472.5,155.5C 471.224,156.645 469.891,156.645 468.5,155.5C 466.679,156.728 465.679,158.394 465.5,160.5C 464.075,162.031 463.409,161.698 463.5,159.5C 464.043,159.44 464.376,159.107 464.5,158.5C 462.171,156.267 460.171,156.601 458.5,159.5C 458.167,159.5 457.833,159.5 457.5,159.5C 456.504,159.414 455.671,159.748 455,160.5C 454.667,159.833 454.333,159.167 454,158.5C 452.396,159.649 450.73,159.649 449,158.5C 448.055,158.905 447.388,159.572 447,160.5C 444.616,158.048 442.45,158.048 440.5,160.5C 438.83,160.249 437.33,159.582 436,158.5C 435.333,159.833 434.667,159.833 434,158.5C 433.536,159.094 433.369,159.761 433.5,160.5C 428.155,162.128 422.822,162.461 417.5,161.5C 417.631,160.624 417.298,159.957 416.5,159.5C 412.296,159.962 407.963,160.629 403.5,161.5C 403.279,164.097 402.779,164.097 402,161.5C 400.163,161.665 398.163,162.332 396,163.5C 394.488,161.043 393.154,161.043 392,163.5C 388.303,163.244 384.47,162.577 380.5,161.5C 378.027,163.949 375.694,163.949 373.5,161.5C 373.611,160.883 373.944,160.383 374.5,160C 372.231,159.242 370.064,159.409 368,160.5C 367.641,157.456 366.974,157.122 366,159.5C 363.816,160.108 361.816,159.441 360,157.5C 358.5,158.333 357.333,159.5 356.5,161C 355.216,161.684 354.049,161.517 353,160.5C 352.536,161.094 352.369,161.761 352.5,162.5C 352.5,162.833 352.5,163.167 352.5,163.5C 352.167,163.5 351.833,163.5 351.5,163.5C 349.741,163.046 347.741,163.046 345.5,163.5C 343.772,163.378 341.939,163.378 340,163.5C 339.055,163.095 338.388,162.428 338,161.5C 336.468,163.562 334.468,164.896 332,165.5C 331.667,164.5 331.333,163.5 331,162.5C 328.403,163.273 325.903,164.273 323.5,165.5C 322.469,164.751 321.302,164.085 320,163.5C 316.654,164.119 313.487,164.452 310.5,164.5C 310.167,164.5 309.833,164.5 309.5,164.5C 308.359,163.661 307.026,162.994 305.5,162.5C 304.808,163.025 304.308,163.692 304,164.5C 299.313,164.146 294.98,164.146 291,164.5C 290.295,162.014 289.462,162.014 288.5,164.5C 288.649,165.552 288.483,166.552 288,167.5C 283.94,165.469 279.773,164.803 275.5,165.5C 274.085,165.906 272.919,165.239 272,163.5C 270.955,164.373 270.122,165.373 269.5,166.5C 269.167,166.5 268.833,166.5 268.5,166.5C 268.196,164.204 267.196,163.871 265.5,165.5C 265.167,165.5 264.833,165.5 264.5,165.5C 264.217,164.711 263.717,164.044 263,163.5C 260.26,164.296 257.427,164.296 254.5,163.5C 252.667,163.585 251.334,164.252 250.5,165.5C 247.983,166.541 245.65,167.208 243.5,167.5C 242.88,165.023 241.88,165.023 240.5,167.5C 239.056,166.019 238.389,166.352 238.5,168.5C 236.307,167.32 233.974,166.32 231.5,165.5C 230.035,167.424 228.368,167.757 226.5,166.5C 226.631,165.761 226.464,165.094 226,164.5C 223.267,166.105 220.267,167.105 217,167.5C 216.295,165.014 215.462,165.014 214.5,167.5C 212.833,167.5 211.167,167.5 209.5,167.5C 208.828,166.733 207.995,166.066 207,165.5C 206.601,165.728 206.435,166.062 206.5,166.5C 204.805,167.826 203.472,167.493 202.5,165.5C 199.635,165.055 197.135,165.722 195,167.5C 194.617,166.944 194.117,166.611 193.5,166.5C 189.745,165.899 186.078,166.565 182.5,168.5C 180.055,167.688 177.722,166.688 175.5,165.5C 174.126,165.792 172.793,166.125 171.5,166.5C 171.167,166.5 170.833,166.5 170.5,166.5C 169.458,165.209 168.292,165.209 167,166.5C 165.651,163.93 164.484,163.93 163.5,166.5C 162.295,167.686 160.961,167.686 159.5,166.5C 156.539,165.677 153.539,165.01 150.5,164.5C 148.983,164.511 147.816,165.177 147,166.5C 144.758,165.958 142.258,165.291 139.5,164.5C 137.194,164.007 134.861,163.674 132.5,163.5C 132.565,163.062 132.399,162.728 132,162.5C 131,163.167 130,163.833 129,164.5C 128.184,163.177 127.017,162.511 125.5,162.5C 123.95,161.559 122.284,160.893 120.5,160.5C 118.831,159.11 117.164,158.777 115.5,159.5C 115.5,158.5 115.5,157.5 115.5,156.5C 112.635,155.868 110.302,154.368 108.5,152C 107.072,151.421 105.738,151.588 104.5,152.5C 101.851,150.624 99.1843,148.624 96.5,146.5C 96.179,145.183 95.8457,143.849 95.5,142.5C 95.8178,141.353 96.4844,140.519 97.5,140C 95.1164,138.591 93.7831,136.924 93.5,135C 94.6022,131.527 95.6022,128.027 96.5,124.5C 97.0076,122.767 97.841,122.434 99,123.5C 99.4935,121.866 99.6602,120.199 99.5,118.5C 101.554,118.635 103.221,117.968 104.5,116.5C 105.117,116.611 105.617,116.944 106,117.5C 107.684,115.299 109.684,114.633 112,115.5C 114.158,114.95 114.658,113.95 113.5,112.5C 113.461,111.244 113.961,110.244 115,109.5C 116.699,110.406 118.533,110.739 120.5,110.5C 122.508,110.728 124.675,110.728 127,110.5C 127.945,110.905 128.612,111.572 129,112.5C 129.5,111.333 130.333,110.5 131.5,110C 130.906,109.536 130.239,109.369 129.5,109.5C 130.531,108.751 131.698,108.085 133,107.5C 133.333,108.167 133.667,108.833 134,109.5C 137.12,107.286 140.12,107.286 143,109.5C 144.911,107.311 147.077,106.644 149.5,107.5C 150.583,107.539 151.583,107.873 152.5,108.5C 153.298,108.043 153.631,107.376 153.5,106.5C 154.222,106.918 154.722,107.584 155,108.5C 155.852,107.429 156.685,106.429 157.5,105.5C 158.152,106.725 159.319,107.392 161,107.5C 163.006,106.927 164.84,106.927 166.5,107.5C 168.059,106.926 169.559,106.26 171,105.5C 171.779,108.097 172.279,108.097 172.5,105.5C 174.391,104.464 176.224,104.464 178,105.5C 178.368,104.09 179.201,103.09 180.5,102.5C 180.489,103.441 180.989,104.108 182,104.5C 182.902,104.257 183.735,103.923 184.5,103.5 Z"/></g>
<g><path style="opacity:0.996" fill="#466939" d="M 415.5,139.5 C 415.56,138.957 415.893,138.624 416.5,138.5C 417.598,142.361 418.431,142.361 419,138.5C 419.167,141.333 420.667,142.833 423.5,143C 422.333,143.5 421.5,144.333 421,145.5C 420.667,144.833 420.333,144.167 420,143.5C 419,143.5 418,143.5 417,143.5C 416.79,141.942 416.29,140.609 415.5,139.5 Z"/></g>
<g><path style="opacity:1" fill="#34552a" d="M 137.5,116.5 C 137.587,117.498 137.92,118.665 138.5,120C 138,120.5 137.5,121 137,121.5C 136.751,120.376 136.251,119.376 135.5,118.5C 134.494,118.938 134.494,119.604 135.5,120.5C 134.559,120.489 133.892,120.989 133.5,122C 133.905,122.945 134.572,123.612 135.5,124C 134.167,124.667 133.167,125.667 132.5,127C 133.833,127.667 133.833,128.333 132.5,129C 134.397,130.11 136.23,130.276 138,129.5C 139.758,130.469 140.258,131.636 139.5,133C 140.448,133.483 141.448,133.649 142.5,133.5C 142.384,130.09 144.05,128.756 147.5,129.5C 147.683,131.936 147.016,134.103 145.5,136C 146.744,136.456 147.577,135.956 148,134.5C 148.645,135.646 149.478,136.646 150.5,137.5C 149.975,138.192 149.308,138.692 148.5,139C 148.833,139.333 149.167,139.667 149.5,140C 146.56,140.804 143.893,142.137 141.5,144C 143.863,144.589 144.863,146.089 144.5,148.5C 143.533,147.194 142.199,146.527 140.5,146.5C 140.5,145.5 140.5,144.5 140.5,143.5C 137.777,142.648 135.11,141.481 132.5,140C 132.833,139.667 133.167,139.333 133.5,139C 131.304,137.778 129.804,135.944 129,133.5C 128.764,131.236 128.264,129.069 127.5,127C 128.928,125.084 129.928,122.917 130.5,120.5C 132.61,118.711 134.944,117.378 137.5,116.5 Z"/></g>
<g><path style="opacity:0.996" fill="#5f854d" d="M 182.5,134.5 C 181.766,135.708 181.433,137.041 181.5,138.5C 180.5,138.5 179.5,138.5 178.5,138.5C 178.062,138.565 177.728,138.399 177.5,138C 179.279,136.86 180.946,135.693 182.5,134.5 Z"/></g>
<g><path style="opacity:0.997" fill="#8fba74" d="M 215.5,138.5 C 216.167,139.5 216.833,140.5 217.5,141.5C 217.389,142.117 217.056,142.617 216.5,143C 218.107,144.049 218.773,145.549 218.5,147.5C 216.857,147.48 215.524,148.147 214.5,149.5C 212.629,148.233 210.796,148.233 209,149.5C 207.271,147.566 205.271,147.566 203,149.5C 199.71,149.574 196.543,149.24 193.5,148.5C 192.808,149.025 192.308,149.692 192,150.5C 191.692,149.692 191.192,149.025 190.5,148.5C 188.142,149.169 185.475,149.336 182.5,149C 181.874,148.25 181.374,147.416 181,146.5C 179.853,147.458 178.853,147.125 178,145.5C 175.607,147.994 174.44,147.327 174.5,143.5C 176.379,143.607 176.712,143.107 175.5,142C 177.056,141.28 178.056,140.113 178.5,138.5C 179.5,138.5 180.5,138.5 181.5,138.5C 181.433,137.041 181.766,135.708 182.5,134.5C 185.297,133.759 188.13,133.093 191,132.5C 195.497,133.369 199.831,133.369 204,132.5C 205.205,133.071 206.372,133.738 207.5,134.5C 208.588,138.386 209.421,138.386 210,134.5C 211.432,136.439 213.265,137.772 215.5,138.5 Z"/></g>
<g><path style="opacity:0.996" fill="#2a4922" d="M 182.5,134.5 C 180.946,135.693 179.279,136.86 177.5,138C 177.728,138.399 178.062,138.565 178.5,138.5C 178.056,140.113 177.056,141.28 175.5,142C 176.712,143.107 176.379,143.607 174.5,143.5C 174.565,143.062 174.399,142.728 174,142.5C 173.097,143.701 171.931,144.535 170.5,145C 170.833,145.333 171.167,145.667 171.5,146C 169.083,147.663 167.25,149.829 166,152.5C 164.871,154.141 163.371,155.141 161.5,155.5C 162.927,153.1 162.427,152.433 160,153.5C 156.557,150.69 157.057,148.69 161.5,147.5C 161.154,146.304 160.654,146.304 160,147.5C 157.235,146.324 155.402,144.824 154.5,143C 155.624,142.751 156.624,142.251 157.5,141.5C 157.167,141.167 156.833,140.833 156.5,140.5C 154.345,143.366 152.011,145.533 149.5,147C 149.93,147.92 150.264,148.753 150.5,149.5C 151.966,146.002 153.966,145.836 156.5,149C 155.124,151.543 153.957,151.709 153,149.5C 151.029,151.1 149.196,151.266 147.5,150C 147.5,148.333 147.5,146.667 147.5,145C 151.386,144.421 151.386,143.588 147.5,142.5C 146.199,144.444 145.199,146.444 144.5,148.5C 144.863,146.089 143.863,144.589 141.5,144C 143.893,142.137 146.56,140.804 149.5,140C 149.167,139.667 148.833,139.333 148.5,139C 149.308,138.692 149.975,138.192 150.5,137.5C 149.478,136.646 148.645,135.646 148,134.5C 147.577,135.956 146.744,136.456 145.5,136C 147.016,134.103 147.683,131.936 147.5,129.5C 144.05,128.756 142.384,130.09 142.5,133.5C 141.448,133.649 140.448,133.483 139.5,133C 140.258,131.636 139.758,130.469 138,129.5C 136.23,130.276 134.397,130.11 132.5,129C 133.833,128.333 133.833,127.667 132.5,127C 133.167,125.667 134.167,124.667 135.5,124C 134.572,123.612 133.905,122.945 133.5,122C 133.892,120.989 134.559,120.489 135.5,120.5C 134.494,119.604 134.494,118.938 135.5,118.5C 136.251,119.376 136.751,120.376 137,121.5C 137.5,121 138,120.5 138.5,120C 137.92,118.665 137.587,117.498 137.5,116.5C 138.64,115.199 139.973,114.032 141.5,113C 149.839,111.586 155.672,114.752 159,122.5C 165.226,114.083 173.392,111.75 183.5,115.5C 185.232,117.799 186.566,120.299 187.5,123C 186.262,127.087 184.596,130.92 182.5,134.5 Z"/></g>
<g><path style="opacity:0.996" fill="#2e4e25" d="M 249.5,154.5 C 249.279,155.735 248.612,156.735 247.5,157.5C 236.912,158.552 228.245,154.552 221.5,145.5C 221.721,142.903 222.221,142.903 223,145.5C 224.437,143.779 223.937,142.279 221.5,141C 221.833,140.833 222.167,140.667 222.5,140.5C 224.423,142.121 226.089,143.954 227.5,146C 227.167,146.333 226.833,146.667 226.5,147C 227.784,147.684 228.951,147.517 230,146.5C 230.667,147.833 231.667,148.833 233,149.5C 234.76,146.845 234.26,145.512 231.5,145.5C 231.977,144.522 232.643,143.689 233.5,143C 233.167,142.833 232.833,142.667 232.5,142.5C 230.549,143.256 228.716,143.589 227,143.5C 226.489,141.122 225.822,138.788 225,136.5C 223.168,137.858 221.335,138.192 219.5,137.5C 221.482,136.784 223.149,135.617 224.5,134C 223.655,132.442 224.321,131.442 226.5,131C 225.549,130.282 225.383,129.449 226,128.5C 227,129.833 228,131.167 229,132.5C 229.667,131.167 230.333,131.167 231,132.5C 231.906,130.388 233.406,129.555 235.5,130C 234.167,131.667 232.833,133.333 231.5,135C 230.761,136.765 230.761,138.765 231.5,141C 232.332,141.688 232.998,141.521 233.5,140.5C 232.046,138.737 232.38,137.403 234.5,136.5C 235.696,136.846 235.696,137.346 234.5,138C 235.448,138.483 236.448,138.649 237.5,138.5C 237.264,141.829 238.097,144.829 240,147.5C 241.049,146.483 242.216,146.316 243.5,147C 242.794,148.91 241.794,150.91 240.5,153C 241,153.5 241.5,154 242,154.5C 243.666,153.66 243.833,154.16 242.5,156C 243.025,156.692 243.692,157.192 244.5,157.5C 245.94,156.048 247.606,155.048 249.5,154.5 Z"/></g>
<g><path style="opacity:0.998" fill="#305027" d="M 161.5,155.5 C 159.321,156.103 157.154,156.77 155,157.5C 153.615,156.449 152.615,155.116 152,153.5C 151.667,154.167 151.333,154.833 151,155.5C 149.417,153.945 147.584,152.778 145.5,152C 145.957,151.586 146.291,151.086 146.5,150.5C 145.757,149.818 145.091,149.151 144.5,148.5C 145.199,146.444 146.199,144.444 147.5,142.5C 151.386,143.588 151.386,144.421 147.5,145C 147.5,146.667 147.5,148.333 147.5,150C 149.196,151.266 151.029,151.1 153,149.5C 153.957,151.709 155.124,151.543 156.5,149C 153.966,145.836 151.966,146.002 150.5,149.5C 150.264,148.753 149.93,147.92 149.5,147C 152.011,145.533 154.345,143.366 156.5,140.5C 156.833,140.833 157.167,141.167 157.5,141.5C 156.624,142.251 155.624,142.751 154.5,143C 155.402,144.824 157.235,146.324 160,147.5C 160.654,146.304 161.154,146.304 161.5,147.5C 157.057,148.69 156.557,150.69 160,153.5C 162.427,152.433 162.927,153.1 161.5,155.5 Z"/></g>
<g><path style="opacity:0.992" fill="#638950" d="M 508.5,151.5 C 510.124,151.36 511.29,152.027 512,153.5C 513.401,151.808 515.234,151.141 517.5,151.5C 517.585,152.995 516.919,153.995 515.5,154.5C 513.557,154.535 511.557,154.202 509.5,153.5C 509.167,152.833 508.833,152.167 508.5,151.5 Z"/></g>
<g><path style="opacity:0.996" fill="#81ab69" d="M 513.5,138.5 C 513.577,139.75 514.244,140.583 515.5,141C 511.682,141.613 510.682,143.613 512.5,147C 511.975,147.692 511.308,148.192 510.5,148.5C 507.938,146 505.605,146.333 503.5,149.5C 504.959,149.692 506.625,150.358 508.5,151.5C 508.833,152.167 509.167,152.833 509.5,153.5C 508.058,156.03 506.058,156.697 503.5,155.5C 502.749,156.376 502.249,157.376 502,158.5C 501,157.5 500,156.5 499,155.5C 496.781,158.437 494.447,158.77 492,156.5C 490.739,156.759 489.739,157.426 489,158.5C 486.667,158.167 484.333,157.833 482,157.5C 481.333,158.167 480.667,158.833 480,159.5C 479.333,158.167 478.667,158.167 478,159.5C 477.125,157.487 475.791,157.487 474,159.5C 472.984,158.366 472.317,158.699 472,160.5C 471.259,159.359 470.425,159.359 469.5,160.5C 468.808,159.975 468.308,159.308 468,158.5C 467.583,159.756 466.75,160.423 465.5,160.5C 465.679,158.394 466.679,156.728 468.5,155.5C 469.891,156.645 471.224,156.645 472.5,155.5C 472.291,154.914 471.957,154.414 471.5,154C 472.76,152.887 473.927,152.72 475,153.5C 475.333,152.5 475.667,151.5 476,150.5C 478.386,152.49 480.053,154.49 481,156.5C 482.762,154.537 484.429,153.204 486,152.5C 487.284,153.572 487.617,154.905 487,156.5C 490.107,152.264 489.607,148.264 485.5,144.5C 487.483,145.706 489.483,147.039 491.5,148.5C 492.107,148.376 492.44,148.043 492.5,147.5C 493.552,148.53 494.886,149.197 496.5,149.5C 498.204,148.932 499.704,148.932 501,149.5C 502.492,148.08 503.992,146.746 505.5,145.5C 508.582,143.628 511.249,141.295 513.5,138.5 Z"/></g>
<g><path style="opacity:0.998" fill="#638950" d="M 115.5,159.5 C 113.254,158.79 110.92,158.29 108.5,158C 109.167,157.667 109.833,157.333 110.5,157C 109.333,156.5 108.5,155.667 108,154.5C 106.274,155.576 104.441,155.743 102.5,155C 103.756,154.583 104.423,153.75 104.5,152.5C 105.738,151.588 107.072,151.421 108.5,152C 110.302,154.368 112.635,155.868 115.5,156.5C 115.5,157.5 115.5,158.5 115.5,159.5 Z"/></g>
<g><path style="opacity:0.996" fill="#668d53" d="M 463.5,159.5 C 461.83,159.751 460.33,160.418 459,161.5C 458.536,160.906 458.369,160.239 458.5,159.5C 460.171,156.601 462.171,156.267 464.5,158.5C 464.376,159.107 464.043,159.44 463.5,159.5 Z"/></g>
<g><path style="opacity:0.996" fill="#7aa363" d="M 373.5,161.5 C 372.063,162.725 370.396,163.725 368.5,164.5C 368.089,163.738 367.923,162.738 368,161.5C 365.03,163.616 362.03,164.949 359,165.5C 358.722,164.584 358.222,163.918 357.5,163.5C 355.765,162.943 354.098,162.61 352.5,162.5C 352.369,161.761 352.536,161.094 353,160.5C 354.049,161.517 355.216,161.684 356.5,161C 357.333,159.5 358.5,158.333 360,157.5C 361.816,159.441 363.816,160.108 366,159.5C 366.974,157.122 367.641,157.456 368,160.5C 370.064,159.409 372.231,159.242 374.5,160C 373.944,160.383 373.611,160.883 373.5,161.5 Z"/></g>
<g><path style="opacity:0.996" fill="#6e9559" d="M 457.5,159.5 C 455.38,160.792 453.213,161.792 451,162.5C 450.667,161.833 450.333,161.167 450,160.5C 448.758,161.872 447.258,162.872 445.5,163.5C 444.274,161.722 442.607,160.722 440.5,160.5C 442.45,158.048 444.616,158.048 447,160.5C 447.388,159.572 448.055,158.905 449,158.5C 450.73,159.649 452.396,159.649 454,158.5C 454.333,159.167 454.667,159.833 455,160.5C 455.671,159.748 456.504,159.414 457.5,159.5 Z"/></g>
<g><path style="opacity:0.988" fill="#678d53" d="M 417.5,161.5 C 413.184,161.512 408.517,161.512 403.5,161.5C 407.963,160.629 412.296,159.962 416.5,159.5C 417.298,159.957 417.631,160.624 417.5,161.5 Z"/></g>
<g><path style="opacity:0.996" fill="#587d48" d="M 440.5,160.5 C 441.853,161.867 441.519,162.867 439.5,163.5C 438.575,162.359 437.741,162.359 437,163.5C 436.28,161.944 435.113,160.944 433.5,160.5C 433.369,159.761 433.536,159.094 434,158.5C 434.667,159.833 435.333,159.833 436,158.5C 437.33,159.582 438.83,160.249 440.5,160.5 Z"/></g>
<g><path style="opacity:0.996" fill="#527742" d="M 120.5,160.5 C 122.284,160.893 123.95,161.559 125.5,162.5C 123.257,163.858 121.591,163.192 120.5,160.5 Z"/></g>
<g><path style="opacity:0.004" fill="#1e3d18" d="M 556.5,162.5 C 557.833,163.167 557.833,163.167 556.5,162.5 Z"/></g>
<g><path style="opacity:0.997" fill="#6d9458" d="M 264.5,165.5 C 262.956,165.703 261.622,166.37 260.5,167.5C 258.866,167.032 257.7,166.032 257,164.5C 254.833,166.293 252.666,166.626 250.5,165.5C 251.334,164.252 252.667,163.585 254.5,163.5C 257.427,164.296 260.26,164.296 263,163.5C 263.717,164.044 264.217,164.711 264.5,165.5 Z"/></g>
<g><path style="opacity:0.996" fill="#5c814a" d="M 309.5,164.5 C 309.631,165.239 309.464,165.906 309,166.5C 304.315,165.477 299.315,165.477 294,166.5C 292.185,165.756 290.352,165.089 288.5,164.5C 289.462,162.014 290.295,162.014 291,164.5C 294.98,164.146 299.313,164.146 304,164.5C 304.308,163.692 304.808,163.025 305.5,162.5C 307.026,162.994 308.359,163.661 309.5,164.5 Z"/></g>
<g><path style="opacity:0.996" fill="#4f7340" d="M 351.5,163.5 C 350.542,163.953 349.708,164.619 349,165.5C 346.98,165.055 345.813,164.389 345.5,163.5C 347.741,163.046 349.741,163.046 351.5,163.5 Z"/></g>
<g><path style="opacity:0.992" fill="#507441" d="M 352.5,162.5 C 354.098,162.61 355.765,162.943 357.5,163.5C 355.833,164.833 354.167,164.833 352.5,163.5C 352.5,163.167 352.5,162.833 352.5,162.5 Z"/></g>
<g><path style="opacity:0.998" fill="#496c3b" d="M 132.5,163.5 C 134.861,163.674 137.194,164.007 139.5,164.5C 138.719,166.322 137.552,166.989 136,166.5C 134.855,165.364 133.688,164.364 132.5,163.5 Z"/></g>
<g><path style="opacity:1" fill="#517542" d="M 170.5,166.5 C 168.295,169.053 165.962,169.053 163.5,166.5C 164.484,163.93 165.651,163.93 167,166.5C 168.292,165.209 169.458,165.209 170.5,166.5 Z"/></g>
<g><path style="opacity:1" fill="#5c814a" d="M 175.5,165.5 C 175.412,168.606 174.078,168.94 171.5,166.5C 172.793,166.125 174.126,165.792 175.5,165.5 Z"/></g>
<g><path style="opacity:0.996" fill="#567b46" d="M 275.5,165.5 C 275.217,166.289 274.717,166.956 274,167.5C 272.316,166.807 270.816,166.474 269.5,166.5C 270.122,165.373 270.955,164.373 272,163.5C 272.919,165.239 274.085,165.906 275.5,165.5 Z"/></g>
<g><path style="opacity:0.996" fill="#476939" d="M 323.5,165.5 C 320.071,165.546 316.404,165.712 312.5,166C 310.869,167.836 310.202,167.336 310.5,164.5C 313.487,164.452 316.654,164.119 320,163.5C 321.302,164.085 322.469,164.751 323.5,165.5 Z"/></g>
<g><path style="opacity:1" fill="#4c6f3d" d="M 150.5,164.5 C 153.539,165.01 156.539,165.677 159.5,166.5C 158.739,167.391 157.739,168.058 156.5,168.5C 155.304,168.154 155.304,167.654 156.5,167C 154.148,166.76 152.148,165.927 150.5,164.5 Z"/></g>
<g><path style="opacity:1" fill="#4b6e3d" d="M 202.5,165.5 C 200.229,166.345 197.895,167.345 195.5,168.5C 194.287,168.253 193.62,167.586 193.5,166.5C 194.117,166.611 194.617,166.944 195,167.5C 197.135,165.722 199.635,165.055 202.5,165.5 Z"/></g>
<g><path style="opacity:0.996" fill="#5d834b" d="M 226.5,166.5 C 224.504,169.679 222.171,170.012 219.5,167.5C 217.941,168.074 216.441,168.74 215,169.5C 214.536,168.906 214.369,168.239 214.5,167.5C 215.462,165.014 216.295,165.014 217,167.5C 220.267,167.105 223.267,166.105 226,164.5C 226.464,165.094 226.631,165.761 226.5,166.5 Z"/></g>
<g><path style="opacity:0.996" fill="#426536" d="M 243.5,167.5 C 242.359,168.339 241.026,169.006 239.5,169.5C 238.893,169.376 238.56,169.043 238.5,168.5C 238.389,166.352 239.056,166.019 240.5,167.5C 241.88,165.023 242.88,165.023 243.5,167.5 Z"/></g>
<g><path style="opacity:0.988" fill="#4d713f" d="M 268.5,166.5 C 265.653,169.502 264.653,169.168 265.5,165.5C 267.196,163.871 268.196,164.204 268.5,166.5 Z"/></g>
<g><path style="opacity:0.004" fill="#1e3d18" d="M 78.5,168.5 C 77.8333,169.167 77.8333,169.167 78.5,168.5 Z"/></g>
<g><path style="opacity:1" fill="#547843" d="M 209.5,167.5 C 208.066,167.596 206.733,168.596 205.5,170.5C 205.167,170.333 204.833,170.167 204.5,170C 205.823,169.184 206.489,168.017 206.5,166.5C 206.435,166.062 206.601,165.728 207,165.5C 207.995,166.066 208.828,166.733 209.5,167.5 Z"/></g>
<g><path style="opacity:0.004" fill="#1e3d18" d="M 80.5,169.5 C 79.8333,170.167 79.8333,170.167 80.5,169.5 Z"/></g>
<g><path style="opacity:0.004" fill="#1e3d18" d="M 129.5,176.5 C 129.833,176.5 130.167,176.5 130.5,176.5C 130.315,177.17 129.981,177.17 129.5,176.5 Z"/></g>
<g><path style="opacity:0.004" fill="#1e3d18" d="M 363.5,176.5 C 363.833,176.5 364.167,176.5 364.5,176.5C 364.315,177.17 363.981,177.17 363.5,176.5 Z"/></g>
<g><path style="opacity:0.004" fill="#1e3d18" d="M 447.5,176.5 C 447.833,176.5 448.167,176.5 448.5,176.5C 448.315,177.17 447.981,177.17 447.5,176.5 Z"/></g>
<g><path style="opacity:0.004" fill="#1e3d18" d="M 197.5,179.5 C 197.833,179.5 198.167,179.5 198.5,179.5C 198.672,180.492 198.338,181.158 197.5,181.5C 197.5,180.833 197.5,180.167 197.5,179.5 Z"/></g>
<g><path style="opacity:0.004" fill="#1e3d18" d="M 274.5,180.5 C 273.833,181.167 273.833,181.167 274.5,180.5 Z"/></g>
<g><path style="opacity:0.004" fill="#1e3d18" d="M 197.5,181.5 C 197.631,182.239 197.464,182.906 197,183.5C 196.308,182.563 196.475,181.897 197.5,181.5 Z"/></g>
</svg>
