<?xml version="1.0" encoding="UTF-8"?>
<!DOCTYPE svg PUBLIC "-//W3C//DTD SVG 1.1//EN" "http://www.w3.org/Graphics/SVG/1.1/DTD/svg11.dtd">
<svg xmlns="http://www.w3.org/2000/svg" version="1.1" width="651px" height="253px" style="shape-rendering:geometricPrecision; text-rendering:geometricPrecision; image-rendering:optimizeQuality; fill-rule:evenodd; clip-rule:evenodd" xmlns:xlink="http://www.w3.org/1999/xlink">
<g><path style="opacity:0.709" fill="#1f3d19" d="M 390.5,80.5 C 393.366,80.9545 396.699,81.1212 400.5,81C 402.137,82.951 403.637,82.7843 405,80.5C 406.908,82.9065 408.908,82.9065 411,80.5C 412.649,81.8977 413.982,81.5644 415,79.5C 416.715,79.5197 418.548,80.1864 420.5,81.5C 421.425,80.3595 422.259,80.3595 423,81.5C 423.667,80.8333 424.333,80.1667 425,79.5C 427.471,80.4011 429.971,81.4011 432.5,82.5C 434.042,81.2532 435.542,81.2532 437,82.5C 437.667,81.8333 438.333,81.1667 439,80.5C 440.873,79.9109 442.54,80.5776 444,82.5C 444.333,81.8333 444.667,81.1667 445,80.5C 445.667,81.8333 446.333,81.8333 447,80.5C 449.081,81.2146 451.247,82.2146 453.5,83.5C 455.706,81.496 457.872,81.1627 460,82.5C 461.512,81.7433 462.846,80.7433 464,79.5C 466.034,81.0316 468.201,82.3649 470.5,83.5C 471.748,82.9598 472.915,82.2931 474,81.5C 474.674,82.5784 475.674,83.2451 477,83.5C 478.865,83.2945 480.532,82.6278 482,81.5C 482.902,81.7432 483.735,82.0766 484.5,82.5C 486.398,83.485 487.898,82.8183 489,80.5C 489.708,81.3805 490.542,82.0472 491.5,82.5C 492.664,85.5785 494.164,85.9118 496,83.5C 499.039,84.966 501.872,84.6327 504.5,82.5C 507.188,84.1194 510.021,85.4527 513,86.5C 513.974,84.1224 514.641,84.4557 515,87.5C 518.042,84.918 521.042,84.918 524,87.5C 527.749,84.8278 530.416,85.8278 532,90.5C 533.667,87.8333 535.333,87.8333 537,90.5C 537.667,89.8333 538.333,89.1667 539,88.5C 539.741,89.6405 540.575,89.6405 541.5,88.5C 542.696,88.8457 542.696,89.3457 541.5,90C 543.112,90.7203 544.612,90.5536 546,89.5C 547.529,90.7287 548.696,92.2287 549.5,94C 552.057,95.1186 554.557,95.2853 557,94.5C 558,95.8333 559,97.1667 560,98.5C 560.914,97.3463 561.747,97.513 562.5,99C 562.167,99.3333 561.833,99.6667 561.5,100C 564.102,100.935 565.602,102.768 566,105.5C 566.414,105.043 566.914,104.709 567.5,104.5C 570.227,107.03 572.393,109.363 574,111.5C 574.21,112.803 574.043,114.136 573.5,115.5C 573.818,116.647 574.484,117.481 575.5,118C 574.748,118.671 574.414,119.504 574.5,120.5C 574.453,122.178 574.12,124.011 573.5,126C 573.639,127.301 574.305,128.134 575.5,128.5C 576.429,129.315 577.429,130.148 578.5,131C 574.908,133.971 574.575,137.304 577.5,141C 573.709,144.183 570.042,147.516 566.5,151C 566.833,151.333 567.167,151.667 567.5,152C 565.566,153.562 563.899,155.395 562.5,157.5C 560.994,158.747 559.494,158.747 558,157.5C 556.245,160.044 554.245,162.377 552,164.5C 551.667,164.167 551.333,163.833 551,163.5C 547.129,164.983 543.295,166.649 539.5,168.5C 537.837,167.125 536.503,167.458 535.5,169.5C 534.914,169.291 534.414,168.957 534,168.5C 533.221,169.728 532.221,170.728 531,171.5C 526.963,168.576 523.297,168.91 520,172.5C 517.608,171.575 514.942,171.241 512,171.5C 510.667,174.167 509.333,174.167 508,171.5C 506.559,172.26 505.059,172.926 503.5,173.5C 500.5,173.5 497.5,173.5 494.5,173.5C 493.808,172.975 493.308,172.308 493,171.5C 490.137,172.602 487.304,173.602 484.5,174.5C 483.167,173.167 481.833,173.167 480.5,174.5C 479.522,174.023 478.689,173.357 478,172.5C 477.581,173.672 476.915,174.672 476,175.5C 473.756,173.006 471.423,173.006 469,175.5C 466.724,172.936 464.724,173.27 463,176.5C 462.196,175.196 461.029,174.529 459.5,174.5C 455.542,174.396 451.875,175.063 448.5,176.5C 448.167,175.167 447.833,175.167 447.5,176.5C 446.312,175.316 445.145,175.316 444,176.5C 443,175.833 442,175.167 441,174.5C 439.384,175.545 437.717,176.545 436,177.5C 435.259,176.359 434.425,176.359 433.5,177.5C 432.808,176.975 432.308,176.308 432,175.5C 429.405,175.003 426.905,175.67 424.5,177.5C 422.002,174.809 419.835,175.142 418,178.5C 416.518,176.219 414.851,176.219 413,178.5C 411.108,177.87 409.441,176.87 408,175.5C 406.667,176.833 405.333,176.833 404,175.5C 402.333,178.167 400.667,178.167 399,175.5C 393.381,176.646 388.048,176.646 383,175.5C 382.333,176.167 381.667,176.833 381,177.5C 379.111,176.903 377.278,176.569 375.5,176.5C 373.41,179.009 371.577,178.675 370,175.5C 369,176.5 368,177.5 367,178.5C 366.292,177.619 365.458,176.953 364.5,176.5C 364.167,175.167 363.833,175.167 363.5,176.5C 360.03,175.875 357.196,176.875 355,179.5C 354.333,178.833 353.667,178.167 353,177.5C 351.667,177.5 350.333,177.5 349,177.5C 346.672,179.438 344.339,179.105 342,176.5C 339.227,178.047 336.227,179.047 333,179.5C 328.236,179.435 323.403,179.435 318.5,179.5C 316.405,177.411 314.572,177.411 313,179.5C 311.57,179.694 310.07,179.694 308.5,179.5C 306.139,181.564 303.806,181.23 301.5,178.5C 298.668,180.647 296.001,180.647 293.5,178.5C 291.039,179.264 288.539,180.264 286,181.5C 284.622,179.787 282.955,178.453 281,177.5C 279.266,179.451 277.099,180.451 274.5,180.5C 273.516,177.93 272.349,177.93 271,180.5C 270.692,179.692 270.192,179.025 269.5,178.5C 267.724,178.718 265.891,178.718 264,178.5C 260.666,181.338 257.666,181.004 255,177.5C 253.321,180.699 251.321,181.033 249,178.5C 246.733,179.935 244.733,179.602 243,177.5C 241.667,178.833 240.333,180.167 239,181.5C 237.192,181.112 235.525,181.112 234,181.5C 233,180.5 232,179.5 231,178.5C 230.646,180.807 229.646,181.141 228,179.5C 226.739,179.759 225.739,180.426 225,181.5C 222.333,180.167 219.667,180.167 217,181.5C 215.488,180.743 214.154,179.743 213,178.5C 210.808,180.737 208.308,181.404 205.5,180.5C 204.167,181.167 202.833,181.833 201.5,182.5C 200.494,182.062 200.494,181.396 201.5,180.5C 200.675,179.614 199.675,179.281 198.5,179.5C 198.167,178.167 197.833,178.167 197.5,179.5C 195.139,180.9 192.805,181.9 190.5,182.5C 189.033,181.305 187.533,181.305 186,182.5C 184.278,182.389 184.112,181.889 185.5,181C 183.899,180.727 182.399,180.227 181,179.5C 180.667,179.833 180.333,180.167 180,180.5C 179.779,177.057 178.779,176.724 177,179.5C 176.667,179.167 176.333,178.833 176,178.5C 173.903,179.991 171.57,180.991 169,181.5C 168.646,179.193 167.646,178.859 166,180.5C 164.532,179.372 162.865,178.706 161,178.5C 154.437,179.256 147.937,179.589 141.5,179.5C 138.947,176.956 136.447,176.956 134,179.5C 133.517,178.552 133.351,177.552 133.5,176.5C 132.5,176.5 131.5,176.5 130.5,176.5C 130.167,175.167 129.833,175.167 129.5,176.5C 126.857,176.858 124.19,177.191 121.5,177.5C 120.201,176.91 119.368,175.91 119,174.5C 118,175.5 117,176.5 116,177.5C 115.309,175.109 114.309,175.109 113,177.5C 112.632,176.09 111.799,175.09 110.5,174.5C 107.754,175.81 104.754,176.477 101.5,176.5C 99.5469,175.976 97.8802,174.976 96.5,173.5C 96.0024,174.603 95.6691,175.603 95.5,176.5C 93.7143,174.979 91.881,174.646 90,175.5C 89,174.167 88,172.833 87,171.5C 86.586,171.957 86.086,172.291 85.5,172.5C 83.9713,171.237 82.3046,170.237 80.5,169.5C 80.1583,168.662 79.4916,168.328 78.5,168.5C 77.1155,167.199 75.6155,167.199 74,168.5C 73.5172,167.552 73.3505,166.552 73.5,165.5C 70.8915,165.394 68.8915,164.228 67.5,162C 68.4428,159.625 68.7762,156.959 68.5,154C 67.536,152.036 66.2026,150.37 64.5,149C 65.2442,146.845 66.2442,144.845 67.5,143C 67.2614,141.219 66.9281,139.386 66.5,137.5C 67.0253,136.808 67.6919,136.308 68.5,136C 67.624,134.414 66.624,132.914 65.5,131.5C 66.8905,131.891 67.8905,131.058 68.5,129C 65.9041,127.203 66.2374,125.869 69.5,125C 68.5004,122.909 69.1671,121.243 71.5,120C 71.0426,119.586 70.7093,119.086 70.5,118.5C 71.5,117.667 72.5,116.833 73.5,116C 71.7223,111.849 73.3889,109.349 78.5,108.5C 79.5533,105.921 80.8866,103.421 82.5,101C 85.4245,100.012 88.4245,99.3457 91.5,99C 90.1118,98.1107 90.2785,97.6107 92,97.5C 94.0709,98.6673 95.5709,98.0006 96.5,95.5C 97.9621,96.4709 99.2954,96.1376 100.5,94.5C 103.987,93.3203 107.487,93.3203 111,94.5C 112.616,93.4552 114.283,92.4552 116,91.5C 117.333,94.1667 118.667,94.1667 120,91.5C 121.813,91.5934 123.646,91.9267 125.5,92.5C 127.029,92.4712 128.196,91.8045 129,90.5C 131.608,92.1818 134.275,92.8484 137,92.5C 138.697,88.9174 140.863,88.584 143.5,91.5C 147.201,91.0302 150.534,89.6969 153.5,87.5C 156.819,89.7769 159.985,90.1102 163,88.5C 164.316,91.028 165.483,91.028 166.5,88.5C 168.55,88.7437 170.55,89.077 172.5,89.5C 172.783,90.2891 173.283,90.9558 174,91.5C 175.57,90.386 176.903,89.0526 178,87.5C 178.333,87.8333 178.667,88.1667 179,88.5C 180.775,85.9557 182.608,85.9557 184.5,88.5C 185.333,87.5 186.167,86.5 187,85.5C 189.244,87.9938 191.577,87.9938 194,85.5C 195.268,85.6158 196.602,85.9491 198,86.5C 199.874,84.2241 201.541,84.5575 203,87.5C 203.915,86.6721 204.581,85.6721 205,84.5C 208.677,85.5206 212.343,86.5206 216,87.5C 219.873,84.5592 224.04,83.8925 228.5,85.5C 230.332,84.7515 231.999,83.7515 233.5,82.5C 234.719,83.2634 235.719,84.2634 236.5,85.5C 237.814,84.6872 238.981,83.6872 240,82.5C 242,85.1667 244,85.1667 246,82.5C 247.309,84.8912 248.309,84.8912 249,82.5C 251.336,85.3552 253.169,85.0218 254.5,81.5C 256.098,83.9734 257.598,83.9734 259,81.5C 260.912,82.6919 262.912,83.6919 265,84.5C 267.203,81.0797 269.703,80.4131 272.5,82.5C 272.897,83.525 273.563,83.6917 274.5,83C 275.791,78.9317 277.958,78.4317 281,81.5C 283.667,80.8333 286.333,80.1667 289,79.5C 290.333,80.1667 291.333,81.1667 292,82.5C 293,81.1667 294,81.1667 295,82.5C 297.737,78.3068 300.57,77.9735 303.5,81.5C 304.814,80.6872 305.981,79.6872 307,78.5C 309.762,79.9806 312.429,81.6473 315,83.5C 316,82.5 317,81.5 318,80.5C 319,80.8333 320,81.1667 321,81.5C 321.333,80.8333 321.667,80.1667 322,79.5C 324.575,80.5886 327.241,80.5886 330,79.5C 330.689,80.3567 331.522,81.0233 332.5,81.5C 336.25,78.4124 340.084,78.0791 344,80.5C 347.132,77.5797 349.799,77.913 352,81.5C 353.117,79.8757 354.617,78.8757 356.5,78.5C 359.326,79.5796 362.159,80.5796 365,81.5C 366,80.8333 367,80.1667 368,79.5C 370.667,79.5 373.333,79.5 376,79.5C 378.431,81.421 381.098,81.421 384,79.5C 385.657,80.4841 387.323,81.4841 389,82.5C 389.717,81.9558 390.217,81.2891 390.5,80.5 Z"/></g>
<g><path style="opacity:0.004" fill="#1e3d18" d="M 390.5,80.5 C 389.833,79.1667 389.833,79.1667 390.5,80.5 Z"/></g>
<g><path style="opacity:0.004" fill="#1e3d18" d="M 474.5,79.5 C 475.833,80.1667 475.833,80.1667 474.5,79.5 Z"/></g>
<g><path style="opacity:0.004" fill="#1e3d18" d="M 272.5,81.5 C 273.833,82.1667 273.833,82.1667 272.5,81.5 Z"/></g>
<g><path style="opacity:0.004" fill="#1e3d18" d="M 475.5,81.5 C 476.833,82.1667 476.833,82.1667 475.5,81.5 Z"/></g>
<g><path style="opacity:0.004" fill="#1e3d18" d="M 484.5,81.5 C 485.833,82.1667 485.833,82.1667 484.5,81.5 Z"/></g>
<g><path style="opacity:0.004" fill="#1e3d18" d="M 491.5,81.5 C 492.833,82.1667 492.833,82.1667 491.5,81.5 Z"/></g>
<g><path style="opacity:0.004" fill="#1e3d18" d="M 172.5,88.5 C 173.833,89.1667 173.833,89.1667 172.5,88.5 Z"/></g>
<g><path style="opacity:0.999" fill="#85af6c" d="M 368.5,94.5 C 368.369,95.2389 368.536,95.9056 369,96.5C 370,95.1667 371,95.1667 372,96.5C 372.84,93.5363 373.84,93.203 375,95.5C 376.309,93.1088 377.309,93.1088 378,95.5C 379,94.1667 380,94.1667 381,95.5C 381.308,94.6919 381.808,94.0253 382.5,93.5C 383.696,93.8457 383.696,94.3457 382.5,95C 384.818,94.2324 386.651,95.0657 388,97.5C 389,96.8333 390,96.1667 391,95.5C 392.824,96.2383 394.824,96.5716 397,96.5C 397.464,95.9056 397.631,95.2389 397.5,94.5C 397.833,94.5 398.167,94.5 398.5,94.5C 398.369,95.2389 398.536,95.9056 399,96.5C 401.899,96.0233 404.566,95.0233 407,93.5C 408.667,94.1667 410.333,94.8333 412,95.5C 413.911,95.2549 415.911,95.2549 418,95.5C 418.464,94.9056 418.631,94.2389 418.5,93.5C 421.379,94.9918 424.046,94.6585 426.5,92.5C 427.696,92.8457 427.696,93.3457 426.5,94C 427.094,94.4643 427.761,94.631 428.5,94.5C 431.144,95.8136 433.81,97.1469 436.5,98.5C 437.168,100.969 437.835,103.302 438.5,105.5C 438.5,106.5 438.5,107.5 438.5,108.5C 435.934,108.344 433.434,108.678 431,109.5C 428.586,111.071 426.253,112.738 424,114.5C 420.308,112.668 417.641,110.334 416,107.5C 408.461,104.208 401.461,104.875 395,109.5C 394.517,110.448 394.351,111.448 394.5,112.5C 393.698,111.048 393.198,109.382 393,107.5C 392.395,109.481 391.395,109.815 390,108.5C 388.378,110.547 386.212,111.547 383.5,111.5C 382.006,111.291 380.839,110.624 380,109.5C 377.666,111.02 375.166,112.02 372.5,112.5C 369.828,110.874 366.494,109.541 362.5,108.5C 361.021,107.852 359.521,107.519 358,107.5C 354.046,108.676 350.213,110.009 346.5,111.5C 342.556,115.065 339.556,114.065 337.5,108.5C 334.929,106.048 331.929,104.381 328.5,103.5C 319.801,100.176 312.468,102.176 306.5,109.5C 305.365,111.707 304.699,114.04 304.5,116.5C 302.771,117.117 301.271,118.117 300,119.5C 298.488,118.743 297.154,117.743 296,116.5C 294.112,119.273 292.112,119.606 290,117.5C 287.776,119.054 285.276,120.054 282.5,120.5C 281.914,120.291 281.414,119.957 281,119.5C 279.033,121.551 276.866,123.218 274.5,124.5C 273.883,122.679 273.716,120.679 274,118.5C 272.615,117.449 271.615,116.116 271,114.5C 268.238,113.019 265.571,111.353 263,109.5C 260.296,111.84 257.296,112.506 254,111.5C 251.752,112.229 249.585,113.229 247.5,114.5C 245.55,113.848 244.55,114.848 244.5,117.5C 243.833,117.5 243.5,117.833 243.5,118.5C 238.93,116.428 235.096,113.428 232,109.5C 229.534,110.788 227.034,110.788 224.5,109.5C 221.405,111.935 218.072,113.935 214.5,115.5C 213.737,116.719 212.737,117.719 211.5,118.5C 211.915,121.704 211.248,124.871 209.5,128C 211.481,128.605 211.815,129.605 210.5,131C 211.191,132.067 211.691,133.234 212,134.5C 214.071,135.103 215.238,136.436 215.5,138.5C 213.265,137.772 211.432,136.439 210,134.5C 209.421,138.386 208.588,138.386 207.5,134.5C 206.372,133.738 205.205,133.071 204,132.5C 199.831,133.369 195.497,133.369 191,132.5C 188.13,133.093 185.297,133.759 182.5,134.5C 184.596,130.92 186.262,127.087 187.5,123C 186.944,122.617 186.611,122.117 186.5,121.5C 184.629,115.254 180.296,112.587 173.5,113.5C 171.254,114.21 168.92,114.71 166.5,115C 164.054,117.623 161.554,120.123 159,122.5C 155.672,114.752 149.839,111.586 141.5,113C 139.973,114.032 138.64,115.199 137.5,116.5C 134.833,117.833 132.167,119.167 129.5,120.5C 129.631,119.761 129.464,119.094 129,118.5C 127.732,118.616 126.398,118.949 125,119.5C 122.966,118.257 122.133,116.757 122.5,115C 121.004,114.493 119.837,114.993 119,116.5C 118.338,113.583 116.505,112.25 113.5,112.5C 113.461,111.244 113.961,110.244 115,109.5C 116.699,110.406 118.533,110.739 120.5,110.5C 122.508,110.728 124.675,110.728 127,110.5C 127.945,110.905 128.612,111.572 129,112.5C 129.5,111.333 130.333,110.5 131.5,110C 130.906,109.536 130.239,109.369 129.5,109.5C 130.531,108.751 131.698,108.085 133,107.5C 133.333,108.167 133.667,108.833 134,109.5C 137.12,107.286 140.12,107.286 143,109.5C 144.911,107.311 147.077,106.644 149.5,107.5C 150.583,107.539 151.583,107.873 152.5,108.5C 153.298,108.043 153.631,107.376 153.5,106.5C 154.222,106.918 154.722,107.584 155,108.5C 155.852,107.429 156.685,106.429 157.5,105.5C 158.152,106.725 159.319,107.392 161,107.5C 163.006,106.927 164.84,106.927 166.5,107.5C 168.059,106.926 169.559,106.26 171,105.5C 171.779,108.097 172.279,108.097 172.5,105.5C 174.391,104.464 176.224,104.464 178,105.5C 178.368,104.09 179.201,103.09 180.5,102.5C 180.489,103.441 180.989,104.108 182,104.5C 182.902,104.257 183.735,103.923 184.5,103.5C 184.369,104.239 184.536,104.906 185,105.5C 186.512,103.043 187.846,103.043 189,105.5C 189.717,104.956 190.217,104.289 190.5,103.5C 191.833,103.833 193.167,104.167 194.5,104.5C 196.518,105.047 198.351,106.047 200,107.5C 200.333,106.833 200.667,106.167 201,105.5C 203.28,106.772 205.447,106.772 207.5,105.5C 211.535,104.929 215.535,103.595 219.5,101.5C 220.416,101.018 221.416,100.685 222.5,100.5C 225.386,102.434 228.386,103.101 231.5,102.5C 234.4,102.403 237.067,102.736 239.5,103.5C 240.298,103.043 240.631,102.376 240.5,101.5C 240.833,101.5 241.167,101.5 241.5,101.5C 241.369,102.239 241.536,102.906 242,103.5C 243.729,103.026 244.895,102.026 245.5,100.5C 245.47,99.5028 245.97,98.8361 247,98.5C 248.303,98.9783 249.469,99.645 250.5,100.5C 252.119,101.072 253.785,101.405 255.5,101.5C 256.386,100.675 256.719,99.675 256.5,98.5C 257.959,98.4326 259.292,98.7659 260.5,99.5C 261.167,99.5 261.833,99.5 262.5,99.5C 261.537,100.363 261.537,101.03 262.5,101.5C 264.426,100.325 266.093,99.6587 267.5,99.5C 269.912,99.6695 272.079,99.0028 274,97.5C 275.865,98.3677 277.698,98.0343 279.5,96.5C 280.5,97.8333 281.5,97.8333 282.5,96.5C 282.833,97.1667 283.167,97.8333 283.5,98.5C 284.183,98.1373 284.85,97.8039 285.5,97.5C 289.181,97.038 293.181,97.7047 297.5,99.5C 298.107,99.3764 298.44,99.0431 298.5,98.5C 298.461,97.2438 298.961,96.2438 300,95.5C 302.816,94.8695 305.482,95.5362 308,97.5C 310.041,96.5769 312.208,96.2436 314.5,96.5C 315.816,96.4737 317.316,96.8071 319,97.5C 320.333,96.8333 321.333,95.8333 322,94.5C 323.011,95.3366 324.178,95.67 325.5,95.5C 327.201,95.0338 328.701,95.0338 330,95.5C 330.333,94.8333 330.667,94.1667 331,93.5C 332.449,94.6141 333.783,95.6141 335,96.5C 336,95.8333 337,95.1667 338,94.5C 340.223,94.8946 342.389,95.2279 344.5,95.5C 344.811,96.4778 345.478,97.1445 346.5,97.5C 349.973,97.1124 353.307,97.1124 356.5,97.5C 356.376,96.3895 356.709,95.0562 357.5,93.5C 358.787,92.2317 359.787,92.565 360.5,94.5C 362.941,93.6082 365.608,93.6082 368.5,94.5 Z"/></g>
<g><path style="opacity:0.996" fill="#5d824b" d="M 397.5,94.5 C 397.631,95.2389 397.464,95.9056 397,96.5C 394.824,96.5716 392.824,96.2383 391,95.5C 390,96.1667 389,96.8333 388,97.5C 386.651,95.0657 384.818,94.2324 382.5,95C 383.696,94.3457 383.696,93.8457 382.5,93.5C 381.808,94.0253 381.308,94.6919 381,95.5C 380,94.1667 379,94.1667 378,95.5C 377.309,93.1088 376.309,93.1088 375,95.5C 373.84,93.203 372.84,93.5363 372,96.5C 371,95.1667 370,95.1667 369,96.5C 368.536,95.9056 368.369,95.2389 368.5,94.5C 370.115,94.5169 371.615,93.5169 373,91.5C 375.124,92.2272 377.291,92.8938 379.5,93.5C 380.478,93.0233 381.311,92.3567 382,91.5C 387.018,95.2394 391.351,95.2394 395,91.5C 397.102,92.1201 397.935,93.1201 397.5,94.5 Z"/></g>
<g><path style="opacity:0.996" fill="#5d834b" d="M 418.5,93.5 C 418.631,94.2389 418.464,94.9056 418,95.5C 415.911,95.2549 413.911,95.2549 412,95.5C 410.333,94.8333 408.667,94.1667 407,93.5C 404.566,95.0233 401.899,96.0233 399,96.5C 398.536,95.9056 398.369,95.2389 398.5,94.5C 399.189,93.2264 400.023,93.2264 401,94.5C 401.915,93.6721 402.581,92.6721 403,91.5C 404.458,92.7468 405.958,92.7468 407.5,91.5C 408.478,91.9767 409.311,92.6433 410,93.5C 412.387,93.4694 414.887,92.8027 417.5,91.5C 417.787,92.2003 418.12,92.8669 418.5,93.5 Z"/></g>
<g><path style="opacity:0.996" fill="#638950" d="M 325.5,95.5 C 324.178,95.67 323.011,95.3366 322,94.5C 321.333,95.8333 320.333,96.8333 319,97.5C 317.316,96.8071 315.816,96.4737 314.5,96.5C 317.197,95.7278 319.53,94.3945 321.5,92.5C 322.425,93.6405 323.259,93.6405 324,92.5C 324.513,93.5266 325.013,94.5266 325.5,95.5 Z"/></g>
<g><path style="opacity:0.996" fill="#6b9357" d="M 357.5,93.5 C 356.709,95.0562 356.376,96.3895 356.5,97.5C 353.307,97.1124 349.973,97.1124 346.5,97.5C 345.478,97.1445 344.811,96.4778 344.5,95.5C 345.172,94.7326 346.005,94.0659 347,93.5C 348.525,93.8881 350.192,93.8881 352,93.5C 352.308,94.3081 352.808,94.9747 353.5,95.5C 354.519,94.3128 355.686,93.3128 357,92.5C 357.399,92.7284 357.565,93.0618 357.5,93.5 Z"/></g>
<g><path style="opacity:0.998" fill="#6e9559" d="M 428.5,94.5 C 430.945,94.4354 433.611,94.2687 436.5,94C 438.137,97.2846 438.804,100.785 438.5,104.5C 438.5,104.833 438.5,105.167 438.5,105.5C 437.835,103.302 437.168,100.969 436.5,98.5C 433.81,97.1469 431.144,95.8136 428.5,94.5 Z"/></g>
<g><path style="opacity:0.996" fill="#517542" d="M 298.5,98.5 C 298.44,99.0431 298.107,99.3764 297.5,99.5C 293.181,97.7047 289.181,97.038 285.5,97.5C 286.222,97.0825 286.722,96.4158 287,95.5C 289.186,96.0217 291.519,96.0217 294,95.5C 294.324,97.5689 295.158,97.9023 296.5,96.5C 297.182,97.2427 297.849,97.9094 298.5,98.5 Z"/></g>
<g><path style="opacity:0.004" fill="#1e3d18" d="M 563.5,98.5 C 564.833,99.1667 564.833,99.1667 563.5,98.5 Z"/></g>
<g><path style="opacity:0.996" fill="#537743" d="M 260.5,99.5 C 259.292,98.7659 257.959,98.4326 256.5,98.5C 256.719,99.675 256.386,100.675 255.5,101.5C 253.785,101.405 252.119,101.072 250.5,100.5C 252.973,100.006 255.473,98.6725 258,96.5C 259.417,97.0779 260.25,98.0779 260.5,99.5 Z"/></g>
<g><path style="opacity:1" fill="#60864e" d="M 267.5,99.5 C 266.093,99.6587 264.426,100.325 262.5,101.5C 261.537,101.03 261.537,100.363 262.5,99.5C 264.334,98.506 266.001,98.506 267.5,99.5 Z"/></g>
<g><path style="opacity:1" fill="#5e844c" d="M 245.5,100.5 C 244.895,102.026 243.729,103.026 242,103.5C 241.536,102.906 241.369,102.239 241.5,101.5C 242.708,100.766 244.041,100.433 245.5,100.5 Z"/></g>
<g><path style="opacity:1" fill="#496c3b" d="M 190.5,103.5 C 190.217,104.289 189.717,104.956 189,105.5C 187.846,103.043 186.512,103.043 185,105.5C 184.536,104.906 184.369,104.239 184.5,103.5C 186.358,101.269 188.358,101.269 190.5,103.5 Z"/></g>
<g><path style="opacity:1" fill="#5d824b" d="M 240.5,101.5 C 240.631,102.376 240.298,103.043 239.5,103.5C 237.067,102.736 234.4,102.403 231.5,102.5C 232.172,101.733 233.005,101.066 234,100.5C 236.041,101.423 238.208,101.756 240.5,101.5 Z"/></g>
<g><path style="opacity:1" fill="#557945" d="M 219.5,101.5 C 215.535,103.595 211.535,104.929 207.5,105.5C 207.591,103.302 206.925,102.969 205.5,104.5C 205.47,103.503 205.97,102.836 207,102.5C 208.807,101.921 210.807,101.921 213,102.5C 214.89,102.215 216.223,101.215 217,99.5C 217.484,101.178 218.317,101.844 219.5,101.5 Z"/></g>
<g><path style="opacity:1" fill="#749c5e" d="M 205.5,104.5 C 206.925,102.969 207.591,103.302 207.5,105.5C 205.447,106.772 203.28,106.772 201,105.5C 200.667,106.167 200.333,106.833 200,107.5C 198.351,106.047 196.518,105.047 194.5,104.5C 196.405,104.928 198.238,104.262 200,102.5C 201.762,104.262 203.595,104.928 205.5,104.5 Z"/></g>
<g><path style="opacity:1" fill="#587c47" d="M 172.5,105.5 C 172.279,108.097 171.779,108.097 171,105.5C 169.559,106.26 168.059,106.926 166.5,107.5C 164.84,106.927 163.006,106.927 161,107.5C 159.319,107.392 158.152,106.725 157.5,105.5C 157.783,104.711 158.283,104.044 159,103.5C 161.027,104.212 162.027,105.212 162,106.5C 163.473,106.097 164.806,105.43 166,104.5C 166.333,104.833 166.667,105.167 167,105.5C 168.019,104.313 169.186,103.313 170.5,102.5C 170.088,103.782 170.754,104.782 172.5,105.5 Z"/></g>
<g><path style="opacity:0.004" fill="#1e3d18" d="M 571.5,105.5 C 572.833,106.167 572.833,106.167 571.5,105.5 Z"/></g>
<g><path style="opacity:1" fill="#547844" d="M 153.5,106.5 C 153.631,107.376 153.298,108.043 152.5,108.5C 151.583,107.873 150.583,107.539 149.5,107.5C 150.705,105.862 152.038,105.529 153.5,106.5 Z"/></g>
<g><path style="opacity:0.997" fill="#305127" d="M 328.5,103.5 C 326.856,103.714 325.356,103.38 324,102.5C 323.085,103.328 322.419,104.328 322,105.5C 321.667,104.833 321.333,104.167 321,103.5C 319.27,103.509 317.437,103.842 315.5,104.5C 315.19,106.201 315.69,107.868 317,109.5C 319.734,110.362 319.901,111.195 317.5,112C 318.572,113.284 319.905,113.617 321.5,113C 321.48,114.715 320.814,116.548 319.5,118.5C 319.88,120.021 320.046,121.687 320,123.5C 320.984,121.205 321.817,121.539 322.5,124.5C 323.365,125.583 324.365,125.749 325.5,125C 324.939,123.324 323.939,121.991 322.5,121C 323.448,120.517 324.448,120.351 325.5,120.5C 327.177,123.839 328.844,127.173 330.5,130.5C 331.183,130.137 331.85,129.804 332.5,129.5C 333.738,129.81 333.738,130.31 332.5,131C 333.938,131.219 335.271,131.719 336.5,132.5C 335.091,132.654 333.424,132.821 331.5,133C 330.874,133.75 330.374,134.584 330,135.5C 329.086,134.346 328.253,134.513 327.5,136C 329.349,137.093 331.016,138.426 332.5,140C 331.551,140.617 330.718,140.451 330,139.5C 329.198,142.221 328.698,145.054 328.5,148C 329,148.5 329.5,149 330,149.5C 332.193,148.227 334.36,147.894 336.5,148.5C 337.251,147.624 337.751,146.624 338,145.5C 339.818,147.645 341.318,147.645 342.5,145.5C 345.461,146.183 345.795,147.016 343.5,148C 344.451,148.718 344.617,149.551 344,150.5C 343.346,149.304 342.846,149.304 342.5,150.5C 342.863,151.183 343.196,151.85 343.5,152.5C 340.778,151.49 338.112,151.823 335.5,153.5C 330.38,151.193 325.547,148.527 321,145.5C 319.588,144.314 318.421,142.981 317.5,141.5C 312.052,136.179 307.885,129.846 305,122.5C 304.505,120.527 304.338,118.527 304.5,116.5C 304.699,114.04 305.365,111.707 306.5,109.5C 312.468,102.176 319.801,100.176 328.5,103.5 Z"/></g>
<g><path style="opacity:1" fill="#4f7340" d="M 129.5,109.5 C 130.239,109.369 130.906,109.536 131.5,110C 130.333,110.5 129.5,111.333 129,112.5C 128.612,111.572 127.945,110.905 127,110.5C 124.675,110.728 122.508,110.728 120.5,110.5C 123.166,110.02 125.666,109.02 128,107.5C 128.278,108.416 128.778,109.082 129.5,109.5 Z"/></g>
<g><path style="opacity:0.996" fill="#4a6e3c" d="M 362.5,108.5 C 357.406,109.515 352.406,110.848 347.5,112.5C 346.893,112.376 346.56,112.043 346.5,111.5C 350.213,110.009 354.046,108.676 358,107.5C 359.521,107.519 361.021,107.852 362.5,108.5 Z"/></g>
<g><path style="opacity:1" fill="#5e834c" d="M 113.5,112.5 C 114.658,113.95 114.158,114.95 112,115.5C 109.684,114.633 107.684,115.299 106,117.5C 105.617,116.944 105.117,116.611 104.5,116.5C 106.835,113.835 109.835,112.502 113.5,112.5 Z"/></g>
<g><path style="opacity:0.998" fill="#89b46f" d="M 113.5,112.5 C 116.505,112.25 118.338,113.583 119,116.5C 119.837,114.993 121.004,114.493 122.5,115C 122.133,116.757 122.966,118.257 125,119.5C 126.398,118.949 127.732,118.616 129,118.5C 129.464,119.094 129.631,119.761 129.5,120.5C 129.5,121.833 129.5,123.167 129.5,124.5C 129.047,125.458 128.381,126.292 127.5,127C 127.728,127.399 128.062,127.565 128.5,127.5C 128.76,135.883 132.427,141.216 139.5,143.5C 140.404,144.209 140.737,145.209 140.5,146.5C 142.867,147.164 144.867,148.497 146.5,150.5C 146.291,151.086 145.957,151.586 145.5,152C 147.584,152.778 149.417,153.945 151,155.5C 151.333,154.833 151.667,154.167 152,153.5C 152.615,155.116 153.615,156.449 155,157.5C 157.802,156.67 160.635,155.837 163.5,155C 167.018,150.208 170.518,146.041 174,142.5C 174.399,142.728 174.565,143.062 174.5,143.5C 174.44,147.327 175.607,147.994 178,145.5C 180.276,146.38 182.609,147.713 185,149.5C 186.948,148.544 188.782,148.211 190.5,148.5C 191.192,149.025 191.692,149.692 192,150.5C 192.308,149.692 192.808,149.025 193.5,148.5C 196.543,149.24 199.71,149.574 203,149.5C 205.411,147.419 207.578,147.419 209.5,149.5C 211.749,150.231 213.916,151.231 216,152.5C 217.465,151.67 218.965,151.504 220.5,152C 219.542,153.147 219.875,154.147 221.5,155C 220.788,156.425 220.621,157.925 221,159.5C 219.883,158.051 219.216,156.384 219,154.5C 216.101,155.874 215.934,157.374 218.5,159C 217.584,159.374 216.75,159.874 216,160.5C 214.89,158.963 213.39,158.297 211.5,158.5C 210.833,159.833 210.167,161.167 209.5,162.5C 210.552,162.351 211.552,162.517 212.5,163C 210.676,163.66 209.343,164.827 208.5,166.5C 207.604,165.494 206.938,165.494 206.5,166.5C 204.805,167.826 203.472,167.493 202.5,165.5C 200.05,165.298 197.717,165.631 195.5,166.5C 196.677,164.897 196.511,163.564 195,162.5C 194.717,165.742 193.883,166.076 192.5,163.5C 188.756,166.748 186.256,166.081 185,161.5C 184.437,164.142 182.937,164.809 180.5,163.5C 179.378,164.63 178.044,165.297 176.5,165.5C 176.167,165.5 175.833,165.5 175.5,165.5C 174.126,165.792 172.793,166.125 171.5,166.5C 171.167,166.5 170.833,166.5 170.5,166.5C 169.458,165.209 168.292,165.209 167,166.5C 165.651,163.93 164.484,163.93 163.5,166.5C 159.949,165.061 156.283,163.728 152.5,162.5C 151.479,161.998 151.312,161.332 152,160.5C 152.718,161.451 153.551,161.617 154.5,161C 152.685,158.73 150.352,158.064 147.5,159C 150.544,159.359 150.878,160.026 148.5,161C 150.595,161.556 150.762,162.056 149,162.5C 144.797,161.753 140.297,161.587 135.5,162C 134.333,161.5 133.5,160.667 133,159.5C 131.846,161.957 130.512,161.957 129,159.5C 128.147,161.125 127.147,161.458 126,160.5C 125.536,161.094 125.369,161.761 125.5,162.5C 123.95,161.559 122.284,160.893 120.5,160.5C 118.831,159.11 117.164,158.777 115.5,159.5C 115.5,158.5 115.5,157.5 115.5,156.5C 112.635,155.868 110.302,154.368 108.5,152C 107.072,151.421 105.738,151.588 104.5,152.5C 101.851,150.624 99.1843,148.624 96.5,146.5C 96.179,145.183 95.8457,143.849 95.5,142.5C 95.8178,141.353 96.4844,140.519 97.5,140C 95.1164,138.591 93.7831,136.924 93.5,135C 94.6022,131.527 95.6022,128.027 96.5,124.5C 97.0076,122.767 97.841,122.434 99,123.5C 99.4935,121.866 99.6602,120.199 99.5,118.5C 101.554,118.635 103.221,117.968 104.5,116.5C 105.117,116.611 105.617,116.944 106,117.5C 107.684,115.299 109.684,114.633 112,115.5C 114.158,114.95 114.658,113.95 113.5,112.5 Z"/></g>
<g><path style="opacity:0.996" fill="#37582d" d="M 173.5,113.5 C 180.296,112.587 184.629,115.254 186.5,121.5C 184.396,121.799 182.396,121.466 180.5,120.5C 180.709,119.914 181.043,119.414 181.5,119C 178.5,118.667 175.5,118.333 172.5,118C 173.678,117.033 175.011,116.533 176.5,116.5C 175.23,115.712 174.23,114.712 173.5,113.5 Z"/></g>
<g><path style="opacity:0.996" fill="#2a4a22" d="M 328.5,103.5 C 331.929,104.381 334.929,106.048 337.5,108.5C 339.556,114.065 342.556,115.065 346.5,111.5C 346.56,112.043 346.893,112.376 347.5,112.5C 352.406,110.848 357.406,109.515 362.5,108.5C 366.494,109.541 369.828,110.874 372.5,112.5C 372.061,116.026 371.894,119.693 372,123.5C 370.333,126.167 368.667,128.833 367,131.5C 366.25,132.126 365.416,132.626 364.5,133C 364.197,135.758 362.53,137.925 359.5,139.5C 355.372,145.293 350.038,149.626 343.5,152.5C 343.196,151.85 342.863,151.183 342.5,150.5C 342.846,149.304 343.346,149.304 344,150.5C 344.617,149.551 344.451,148.718 343.5,148C 345.795,147.016 345.461,146.183 342.5,145.5C 341.318,147.645 339.818,147.645 338,145.5C 337.751,146.624 337.251,147.624 336.5,148.5C 334.36,147.894 332.193,148.227 330,149.5C 329.5,149 329,148.5 328.5,148C 328.698,145.054 329.198,142.221 330,139.5C 330.718,140.451 331.551,140.617 332.5,140C 331.016,138.426 329.349,137.093 327.5,136C 328.253,134.513 329.086,134.346 330,135.5C 330.374,134.584 330.874,133.75 331.5,133C 333.424,132.821 335.091,132.654 336.5,132.5C 335.271,131.719 333.938,131.219 332.5,131C 333.738,130.31 333.738,129.81 332.5,129.5C 331.316,128.312 331.316,127.145 332.5,126C 331.214,122.886 328.881,121.052 325.5,120.5C 324.448,120.351 323.448,120.517 322.5,121C 323.939,121.991 324.939,123.324 325.5,125C 324.365,125.749 323.365,125.583 322.5,124.5C 321.817,121.539 320.984,121.205 320,123.5C 320.046,121.687 319.88,120.021 319.5,118.5C 320.814,116.548 321.48,114.715 321.5,113C 319.905,113.617 318.572,113.284 317.5,112C 319.901,111.195 319.734,110.362 317,109.5C 315.69,107.868 315.19,106.201 315.5,104.5C 317.437,103.842 319.27,103.509 321,103.5C 321.333,104.167 321.667,104.833 322,105.5C 322.419,104.328 323.085,103.328 324,102.5C 325.356,103.38 326.856,103.714 328.5,103.5 Z"/></g>
<g><path style="opacity:0.996" fill="#335329" d="M 438.5,104.5 C 439.482,107.962 439.815,111.629 439.5,115.5C 439.649,116.552 439.483,117.552 439,118.5C 438.326,117.422 437.326,116.755 436,116.5C 430.597,115.565 425.764,115.565 421.5,116.5C 422.177,119.185 422.177,122.018 421.5,125C 423.255,125.72 424.089,126.887 424,128.5C 422.467,128.056 420.967,127.723 419.5,127.5C 419.167,125.5 418.833,123.5 418.5,121.5C 416.799,121.81 415.132,121.31 413.5,120C 414.094,119.536 414.761,119.369 415.5,119.5C 416.043,119.44 416.376,119.107 416.5,118.5C 415.019,117.52 413.685,116.353 412.5,115C 409.484,114.78 406.984,113.613 405,111.5C 404.08,111.93 403.247,112.264 402.5,112.5C 403.193,113.518 403.859,114.518 404.5,115.5C 404.719,116.675 404.386,117.675 403.5,118.5C 403.693,117.312 403.193,115.978 402,114.5C 398.952,115.783 398.785,117.449 401.5,119.5C 401.081,120.672 400.415,121.672 399.5,122.5C 398.276,121.234 396.943,120.067 395.5,119C 396.654,118.086 396.487,117.253 395,116.5C 394.292,117.381 393.458,118.047 392.5,118.5C 392.971,116.421 393.637,114.421 394.5,112.5C 394.351,111.448 394.517,110.448 395,109.5C 401.461,104.875 408.461,104.208 416,107.5C 417.641,110.334 420.308,112.668 424,114.5C 426.253,112.738 428.586,111.071 431,109.5C 433.434,108.678 435.934,108.344 438.5,108.5C 438.5,107.5 438.5,106.5 438.5,105.5C 438.5,105.167 438.5,104.833 438.5,104.5 Z"/></g>
<g><path style="opacity:0.996" fill="#4e723f" d="M 415.5,119.5 C 412.55,118.866 409.717,117.2 407,114.5C 406.329,115.252 405.496,115.586 404.5,115.5C 403.859,114.518 403.193,113.518 402.5,112.5C 403.247,112.264 404.08,111.93 405,111.5C 406.984,113.613 409.484,114.78 412.5,115C 413.685,116.353 415.019,117.52 416.5,118.5C 416.376,119.107 416.043,119.44 415.5,119.5 Z"/></g>
<g><path style="opacity:1" fill="#426435" d="M 137.5,116.5 C 137.587,117.498 137.92,118.665 138.5,120C 138,120.5 137.5,121 137,121.5C 136.751,120.376 136.251,119.376 135.5,118.5C 135.089,119.262 134.923,120.262 135,121.5C 134.667,121.167 134.333,120.833 134,120.5C 133.5,121.667 132.667,122.5 131.5,123C 131.833,123.333 132.167,123.667 132.5,124C 131.552,124.483 130.552,124.649 129.5,124.5C 129.5,123.167 129.5,121.833 129.5,120.5C 132.167,119.167 134.833,117.833 137.5,116.5 Z"/></g>
<g><path style="opacity:0.996" fill="#2a4922" d="M 173.5,113.5 C 174.23,114.712 175.23,115.712 176.5,116.5C 175.011,116.533 173.678,117.033 172.5,118C 175.5,118.333 178.5,118.667 181.5,119C 181.043,119.414 180.709,119.914 180.5,120.5C 182.396,121.466 184.396,121.799 186.5,121.5C 186.611,122.117 186.944,122.617 187.5,123C 186.262,127.087 184.596,130.92 182.5,134.5C 180.946,135.693 179.279,136.86 177.5,138C 177.728,138.399 178.062,138.565 178.5,138.5C 178.056,140.113 177.056,141.28 175.5,142C 176.712,143.107 176.379,143.607 174.5,143.5C 174.565,143.062 174.399,142.728 174,142.5C 170.518,146.041 167.018,150.208 163.5,155C 160.635,155.837 157.802,156.67 155,157.5C 153.615,156.449 152.615,155.116 152,153.5C 151.667,154.167 151.333,154.833 151,155.5C 149.417,153.945 147.584,152.778 145.5,152C 145.957,151.586 146.291,151.086 146.5,150.5C 144.867,148.497 142.867,147.164 140.5,146.5C 140.737,145.209 140.404,144.209 139.5,143.5C 138.655,141.088 138.655,138.922 139.5,137C 140.5,136 141.5,135 142.5,134C 141.5,133.667 140.5,133.333 139.5,133C 140.258,131.636 139.758,130.469 138,129.5C 135.593,129.673 133.26,129.673 131,129.5C 130.292,128.619 129.458,127.953 128.5,127.5C 128.062,127.565 127.728,127.399 127.5,127C 128.381,126.292 129.047,125.458 129.5,124.5C 130.552,124.649 131.552,124.483 132.5,124C 132.167,123.667 131.833,123.333 131.5,123C 132.667,122.5 133.5,121.667 134,120.5C 134.333,120.833 134.667,121.167 135,121.5C 134.923,120.262 135.089,119.262 135.5,118.5C 136.251,119.376 136.751,120.376 137,121.5C 137.5,121 138,120.5 138.5,120C 137.92,118.665 137.587,117.498 137.5,116.5C 138.64,115.199 139.973,114.032 141.5,113C 149.839,111.586 155.672,114.752 159,122.5C 161.554,120.123 164.054,117.623 166.5,115C 168.92,114.71 171.254,114.21 173.5,113.5 Z"/></g>
<g><path style="opacity:0.004" fill="#1e3d18" d="M 574.5,120.5 C 575.833,121.167 575.833,121.167 574.5,120.5 Z"/></g>
<g><path style="opacity:0.996" fill="#2b4b23" d="M 274.5,124.5 C 273.316,125.688 273.316,126.855 274.5,128C 271.053,133.941 267.053,139.441 262.5,144.5C 260.309,146.598 257.976,148.598 255.5,150.5C 253.978,151.562 252.312,152.229 250.5,152.5C 249.404,150.897 248.07,149.397 246.5,148C 250.473,147.525 254.14,147.025 257.5,146.5C 255.082,145.543 252.916,144.209 251,142.5C 250.383,143.449 250.549,144.282 251.5,145C 249.112,145.303 246.945,146.137 245,147.5C 244.691,146.234 244.191,145.067 243.5,144C 245.167,143 246.5,141.667 247.5,140C 246.672,139.085 245.672,138.419 244.5,138C 246.665,136.103 247.332,133.936 246.5,131.5C 245.833,132.167 245.167,132.833 244.5,133.5C 244.167,133 243.833,132.5 243.5,132C 244.232,130.235 245.565,129.068 247.5,128.5C 246.332,127.094 246.665,125.928 248.5,125C 246.65,123.155 246.317,121.155 247.5,119C 246.473,118.487 245.473,117.987 244.5,117.5C 244.55,114.848 245.55,113.848 247.5,114.5C 249.585,113.229 251.752,112.229 254,111.5C 257.296,112.506 260.296,111.84 263,109.5C 265.571,111.353 268.238,113.019 271,114.5C 271.615,116.116 272.615,117.449 274,118.5C 273.716,120.679 273.883,122.679 274.5,124.5 Z"/></g>
<g><path style="opacity:0.996" fill="#486b3a" d="M 325.5,120.5 C 328.881,121.052 331.214,122.886 332.5,126C 331.316,127.145 331.316,128.312 332.5,129.5C 331.85,129.804 331.183,130.137 330.5,130.5C 328.844,127.173 327.177,123.839 325.5,120.5 Z"/></g>
<g><path style="opacity:0.004" fill="#1e3d18" d="M 575.5,127.5 C 576.833,128.167 576.833,128.167 575.5,127.5 Z"/></g>
<g><path style="opacity:0.996" fill="#2c4b23" d="M 243.5,118.5 C 243.938,118.435 244.272,118.601 244.5,119C 241.96,120.04 240.293,121.874 239.5,124.5C 239.331,123.603 238.998,122.603 238.5,121.5C 237.28,122.711 236.113,122.711 235,121.5C 234.138,123.087 233.471,124.754 233,126.5C 230.699,122.4 227.533,121.567 223.5,124C 226.931,127.082 225.931,129.082 220.5,130C 220.833,130.333 221.167,130.667 221.5,131C 219,131.833 218.833,133 221,134.5C 222.833,133.333 224.667,132.167 226.5,131C 225.549,130.282 225.383,129.449 226,128.5C 227,129.833 228,131.167 229,132.5C 229.667,131.167 230.333,131.167 231,132.5C 231.906,130.388 233.406,129.555 235.5,130C 234.167,131.667 232.833,133.333 231.5,135C 231.833,135.333 232.167,135.667 232.5,136C 230.789,137.133 230.289,138.633 231,140.5C 233.391,141.602 233.891,140.936 232.5,138.5C 232.833,137.5 233.5,136.833 234.5,136.5C 235.696,136.846 235.696,137.346 234.5,138C 235.448,138.483 236.448,138.649 237.5,138.5C 237.264,141.829 238.097,144.829 240,147.5C 241.049,146.483 242.216,146.316 243.5,147C 242.794,148.91 241.794,150.91 240.5,153C 241.253,154.487 242.086,154.654 243,153.5C 243.617,154.449 243.451,155.282 242.5,156C 243.025,156.692 243.692,157.192 244.5,157.5C 245.94,156.048 247.606,155.048 249.5,154.5C 248.703,157.117 246.869,158.45 244,158.5C 241.208,157.768 238.541,156.768 236,155.5C 235.667,155.833 235.333,156.167 235,156.5C 228.073,152.736 222.239,147.736 217.5,141.5C 216.833,140.5 216.167,139.5 215.5,138.5C 215.238,136.436 214.071,135.103 212,134.5C 211.691,133.234 211.191,132.067 210.5,131C 211.815,129.605 211.481,128.605 209.5,128C 211.248,124.871 211.915,121.704 211.5,118.5C 212.737,117.719 213.737,116.719 214.5,115.5C 218.072,113.935 221.405,111.935 224.5,109.5C 227.034,110.788 229.534,110.788 232,109.5C 235.096,113.428 238.93,116.428 243.5,118.5 Z"/></g>
<g><path style="opacity:0.996" fill="#507440" d="M 394.5,127.5 C 396.487,130.385 398.821,133.052 401.5,135.5C 400.833,135.833 400.167,136.167 399.5,136.5C 399.863,137.183 400.196,137.85 400.5,138.5C 398.966,136.254 397.299,133.92 395.5,131.5C 394.571,130.311 394.238,128.978 394.5,127.5 Z"/></g>
<g><path style="opacity:0.996" fill="#759d5f" d="M 96.5,124.5 C 95.6022,128.027 94.6022,131.527 93.5,135C 93.7831,136.924 95.1164,138.591 97.5,140C 96.4844,140.519 95.8178,141.353 95.5,142.5C 95.8457,143.849 96.179,145.183 96.5,146.5C 95.1001,145.9 94.1001,144.9 93.5,143.5C 94.9526,142.175 94.6192,141.342 92.5,141C 93.2853,138.557 93.1186,136.057 92,133.5C 91.6174,134.056 91.1174,134.389 90.5,134.5C 92.5679,131.908 93.9013,128.908 94.5,125.5C 95.1835,125.137 95.8501,124.804 96.5,124.5 Z"/></g>
<g><path style="opacity:0.996" fill="#26461f" d="M 243.5,118.5 C 243.5,117.833 243.833,117.5 244.5,117.5C 245.473,117.987 246.473,118.487 247.5,119C 246.317,121.155 246.65,123.155 248.5,125C 246.665,125.928 246.332,127.094 247.5,128.5C 245.565,129.068 244.232,130.235 243.5,132C 243.833,132.5 244.167,133 244.5,133.5C 245.167,132.833 245.833,132.167 246.5,131.5C 247.332,133.936 246.665,136.103 244.5,138C 245.672,138.419 246.672,139.085 247.5,140C 246.5,141.667 245.167,143 243.5,144C 244.191,145.067 244.691,146.234 245,147.5C 246.945,146.137 249.112,145.303 251.5,145C 250.549,144.282 250.383,143.449 251,142.5C 252.916,144.209 255.082,145.543 257.5,146.5C 254.14,147.025 250.473,147.525 246.5,148C 248.07,149.397 249.404,150.897 250.5,152.5C 250.672,153.492 250.338,154.158 249.5,154.5C 247.606,155.048 245.94,156.048 244.5,157.5C 243.692,157.192 243.025,156.692 242.5,156C 243.451,155.282 243.617,154.449 243,153.5C 242.086,154.654 241.253,154.487 240.5,153C 241.794,150.91 242.794,148.91 243.5,147C 242.216,146.316 241.049,146.483 240,147.5C 238.097,144.829 237.264,141.829 237.5,138.5C 236.448,138.649 235.448,138.483 234.5,138C 235.696,137.346 235.696,136.846 234.5,136.5C 233.5,136.833 232.833,137.5 232.5,138.5C 233.891,140.936 233.391,141.602 231,140.5C 230.289,138.633 230.789,137.133 232.5,136C 232.167,135.667 231.833,135.333 231.5,135C 232.833,133.333 234.167,131.667 235.5,130C 233.406,129.555 231.906,130.388 231,132.5C 230.333,131.167 229.667,131.167 229,132.5C 228,131.167 227,129.833 226,128.5C 225.383,129.449 225.549,130.282 226.5,131C 224.667,132.167 222.833,133.333 221,134.5C 218.833,133 219,131.833 221.5,131C 221.167,130.667 220.833,130.333 220.5,130C 225.931,129.082 226.931,127.082 223.5,124C 227.533,121.567 230.699,122.4 233,126.5C 233.471,124.754 234.138,123.087 235,121.5C 236.113,122.711 237.28,122.711 238.5,121.5C 238.998,122.603 239.331,123.603 239.5,124.5C 240.293,121.874 241.96,120.04 244.5,119C 244.272,118.601 243.938,118.435 243.5,118.5 Z"/></g>
<g><path style="opacity:0.996" fill="#395a2e" d="M 128.5,127.5 C 129.458,127.953 130.292,128.619 131,129.5C 133.26,129.673 135.593,129.673 138,129.5C 139.758,130.469 140.258,131.636 139.5,133C 140.5,133.333 141.5,133.667 142.5,134C 141.5,135 140.5,136 139.5,137C 138.655,138.922 138.655,141.088 139.5,143.5C 132.427,141.216 128.76,135.883 128.5,127.5 Z"/></g>
<g><path style="opacity:0.997" fill="#8fba74" d="M 215.5,138.5 C 216.167,139.5 216.833,140.5 217.5,141.5C 217.389,142.117 217.056,142.617 216.5,143C 218.107,144.049 218.773,145.549 218.5,147.5C 216.857,147.48 215.524,148.147 214.5,149.5C 212.684,148.265 211.017,148.265 209.5,149.5C 207.578,147.419 205.411,147.419 203,149.5C 199.71,149.574 196.543,149.24 193.5,148.5C 192.808,149.025 192.308,149.692 192,150.5C 191.692,149.692 191.192,149.025 190.5,148.5C 188.782,148.211 186.948,148.544 185,149.5C 182.609,147.713 180.276,146.38 178,145.5C 175.607,147.994 174.44,147.327 174.5,143.5C 176.379,143.607 176.712,143.107 175.5,142C 177.056,141.28 178.056,140.113 178.5,138.5C 179.5,138.5 180.5,138.5 181.5,138.5C 181.433,137.041 181.766,135.708 182.5,134.5C 185.297,133.759 188.13,133.093 191,132.5C 195.497,133.369 199.831,133.369 204,132.5C 205.205,133.071 206.372,133.738 207.5,134.5C 208.588,138.386 209.421,138.386 210,134.5C 211.432,136.439 213.265,137.772 215.5,138.5 Z"/></g>
<g><path style="opacity:0.996" fill="#8db973" d="M 304.5,116.5 C 304.338,118.527 304.505,120.527 305,122.5C 307.885,129.846 312.052,136.179 317.5,141.5C 317.33,142.822 317.663,143.989 318.5,145C 318,145.5 317.5,146 317,146.5C 315.551,145.386 314.217,144.386 313,143.5C 312.261,144.574 311.261,145.241 310,145.5C 306.588,145.824 303.422,145.491 300.5,144.5C 299.23,145.562 298.063,146.562 297,147.5C 295.507,145.652 293.674,144.819 291.5,145C 293.595,145.556 293.762,146.056 292,146.5C 289.677,146.189 287.344,145.856 285,145.5C 284.311,146.357 283.478,147.023 282.5,147.5C 279.833,146.167 277.167,146.167 274.5,147.5C 273.522,147.023 272.689,146.357 272,145.5C 271.333,146.833 270.667,146.833 270,145.5C 269.581,146.672 268.915,147.672 268,148.5C 266.301,147.594 264.467,147.261 262.5,147.5C 262.5,146.5 262.5,145.5 262.5,144.5C 267.053,139.441 271.053,133.941 274.5,128C 273.316,126.855 273.316,125.688 274.5,124.5C 276.866,123.218 279.033,121.551 281,119.5C 281.414,119.957 281.914,120.291 282.5,120.5C 285.276,120.054 287.776,119.054 290,117.5C 292.112,119.606 294.112,119.273 296,116.5C 297.154,117.743 298.488,118.743 300,119.5C 301.271,118.117 302.771,117.117 304.5,116.5 Z"/></g>
<g><path style="opacity:1" fill="#507440" d="M 93.5,143.5 C 90.4628,143.013 89.4628,141.513 90.5,139C 90.2409,137.739 89.5742,136.739 88.5,136C 89.4158,135.722 90.0825,135.222 90.5,134.5C 91.1174,134.389 91.6174,134.056 92,133.5C 93.1186,136.057 93.2853,138.557 92.5,141C 94.6192,141.342 94.9526,142.175 93.5,143.5 Z"/></g>
<g><path style="opacity:0.996" fill="#5f854d" d="M 182.5,134.5 C 181.766,135.708 181.433,137.041 181.5,138.5C 180.5,138.5 179.5,138.5 178.5,138.5C 178.062,138.565 177.728,138.399 177.5,138C 179.279,136.86 180.946,135.693 182.5,134.5 Z"/></g>
<g><path style="opacity:0.996" fill="#8eb973" d="M 394.5,112.5 C 393.637,114.421 392.971,116.421 392.5,118.5C 392.67,119.822 392.337,120.989 391.5,122C 392.953,123.649 393.953,125.482 394.5,127.5C 394.238,128.978 394.571,130.311 395.5,131.5C 397.299,133.92 398.966,136.254 400.5,138.5C 401.401,139.29 402.068,140.29 402.5,141.5C 402.631,142.239 402.464,142.906 402,143.5C 400.686,142.687 399.519,141.687 398.5,140.5C 397.575,141.641 396.741,141.641 396,140.5C 395.692,141.308 395.192,141.975 394.5,142.5C 392.833,141.167 391.167,141.167 389.5,142.5C 387.348,140.188 385.348,140.522 383.5,143.5C 379.648,143.691 376.148,143.025 373,141.5C 370.412,142.797 367.912,143.797 365.5,144.5C 365.704,143.471 365.204,142.471 364,141.5C 362.434,140.939 361.101,141.606 360,143.5C 359.51,142.207 359.343,140.873 359.5,139.5C 362.53,137.925 364.197,135.758 364.5,133C 365.416,132.626 366.25,132.126 367,131.5C 368.667,128.833 370.333,126.167 372,123.5C 371.894,119.693 372.061,116.026 372.5,112.5C 375.166,112.02 377.666,111.02 380,109.5C 380.839,110.624 382.006,111.291 383.5,111.5C 386.212,111.547 388.378,110.547 390,108.5C 391.395,109.815 392.395,109.481 393,107.5C 393.198,109.382 393.698,111.048 394.5,112.5 Z"/></g>
<g><path style="opacity:0.996" fill="#2b4a23" d="M 404.5,115.5 C 405.496,115.586 406.329,115.252 407,114.5C 409.717,117.2 412.55,118.866 415.5,119.5C 414.761,119.369 414.094,119.536 413.5,120C 415.132,121.31 416.799,121.81 418.5,121.5C 418.833,123.5 419.167,125.5 419.5,127.5C 420.967,127.723 422.467,128.056 424,128.5C 424.089,126.887 423.255,125.72 421.5,125C 422.177,122.018 422.177,119.185 421.5,116.5C 425.764,115.565 430.597,115.565 436,116.5C 437.326,116.755 438.326,117.422 439,118.5C 439.483,117.552 439.649,116.552 439.5,115.5C 440.117,115.611 440.617,115.944 441,116.5C 441.588,120.691 441.422,124.525 440.5,128C 441.885,131.039 442.885,134.206 443.5,137.5C 442.883,137.389 442.383,137.056 442,136.5C 439.027,140.561 435.527,144.061 431.5,147C 429.913,147.862 428.246,148.529 426.5,149C 425.809,150.067 425.309,151.234 425,152.5C 422.695,152.421 420.195,152.254 417.5,152C 412.344,148.669 407.344,145.169 402.5,141.5C 402.068,140.29 401.401,139.29 400.5,138.5C 400.196,137.85 399.863,137.183 399.5,136.5C 400.167,136.167 400.833,135.833 401.5,135.5C 398.821,133.052 396.487,130.385 394.5,127.5C 393.953,125.482 392.953,123.649 391.5,122C 392.337,120.989 392.67,119.822 392.5,118.5C 393.458,118.047 394.292,117.381 395,116.5C 396.487,117.253 396.654,118.086 395.5,119C 396.943,120.067 398.276,121.234 399.5,122.5C 400.415,121.672 401.081,120.672 401.5,119.5C 398.785,117.449 398.952,115.783 402,114.5C 403.193,115.978 403.693,117.312 403.5,118.5C 404.386,117.675 404.719,116.675 404.5,115.5 Z"/></g>
<g><path style="opacity:0.996" fill="#466939" d="M 415.5,139.5 C 415.56,138.957 415.893,138.624 416.5,138.5C 417.598,142.361 418.431,142.361 419,138.5C 419.167,141.333 420.667,142.833 423.5,143C 422.333,143.5 421.5,144.333 421,145.5C 420.667,144.833 420.333,144.167 420,143.5C 419,143.5 418,143.5 417,143.5C 416.79,141.942 416.29,140.609 415.5,139.5 Z"/></g>
<g><path style="opacity:0.999" fill="#87b16d" d="M 443.5,137.5 C 443.666,145.507 443.5,153.507 443,161.5C 442.329,160.748 441.496,160.414 440.5,160.5C 438.83,160.249 437.33,159.582 436,158.5C 435.333,159.833 434.667,159.833 434,158.5C 433.536,159.094 433.369,159.761 433.5,160.5C 428.155,162.128 422.822,162.461 417.5,161.5C 417.631,160.624 417.298,159.957 416.5,159.5C 412.296,159.962 407.963,160.629 403.5,161.5C 403.279,164.097 402.779,164.097 402,161.5C 400.163,161.665 398.163,162.332 396,163.5C 395.184,162.177 394.017,161.511 392.5,161.5C 390.287,159.996 388.12,158.996 386,158.5C 384.905,159.693 384.072,161.027 383.5,162.5C 381.025,161.212 378.692,161.545 376.5,163.5C 375.522,163.023 374.689,162.357 374,161.5C 372.247,162.627 370.413,163.627 368.5,164.5C 368.089,163.738 367.923,162.738 368,161.5C 365.03,163.616 362.03,164.949 359,165.5C 358.722,164.584 358.222,163.918 357.5,163.5C 355.521,162.794 353.854,162.794 352.5,163.5C 352.167,163.5 351.833,163.5 351.5,163.5C 349.741,163.046 347.741,163.046 345.5,163.5C 343.772,163.378 341.939,163.378 340,163.5C 339.055,163.095 338.388,162.428 338,161.5C 336.468,163.562 334.468,164.896 332,165.5C 331.667,164.5 331.333,163.5 331,162.5C 328.403,163.273 325.903,164.273 323.5,165.5C 322.469,164.751 321.302,164.085 320,163.5C 316.654,164.119 313.487,164.452 310.5,164.5C 310.167,164.5 309.833,164.5 309.5,164.5C 308.359,163.661 307.026,162.994 305.5,162.5C 304.808,163.025 304.308,163.692 304,164.5C 299.313,164.146 294.98,164.146 291,164.5C 290.295,162.014 289.462,162.014 288.5,164.5C 288.649,165.552 288.483,166.552 288,167.5C 283.94,165.469 279.773,164.803 275.5,165.5C 274.085,165.906 272.919,165.239 272,163.5C 270.955,164.373 270.122,165.373 269.5,166.5C 269.167,166.5 268.833,166.5 268.5,166.5C 268.196,164.204 267.196,163.871 265.5,165.5C 265.167,165.5 264.833,165.5 264.5,165.5C 264.217,164.711 263.717,164.044 263,163.5C 260.26,164.296 257.427,164.296 254.5,163.5C 252.667,163.585 251.334,164.252 250.5,165.5C 247.983,166.541 245.65,167.208 243.5,167.5C 242.88,165.023 241.88,165.023 240.5,167.5C 239.056,166.019 238.389,166.352 238.5,168.5C 236.307,167.32 233.974,166.32 231.5,165.5C 230.035,167.424 228.368,167.757 226.5,166.5C 226.631,165.761 226.464,165.094 226,164.5C 223.267,166.105 220.267,167.105 217,167.5C 216.295,165.014 215.462,165.014 214.5,167.5C 212.833,167.5 211.167,167.5 209.5,167.5C 209.5,166.833 209.167,166.5 208.5,166.5C 209.343,164.827 210.676,163.66 212.5,163C 211.552,162.517 210.552,162.351 209.5,162.5C 210.167,161.167 210.833,159.833 211.5,158.5C 213.39,158.297 214.89,158.963 216,160.5C 216.75,159.874 217.584,159.374 218.5,159C 215.934,157.374 216.101,155.874 219,154.5C 219.216,156.384 219.883,158.051 221,159.5C 220.621,157.925 220.788,156.425 221.5,155C 219.875,154.147 219.542,153.147 220.5,152C 218.965,151.504 217.465,151.67 216,152.5C 213.916,151.231 211.749,150.231 209.5,149.5C 211.017,148.265 212.684,148.265 214.5,149.5C 215.524,148.147 216.857,147.48 218.5,147.5C 218.773,145.549 218.107,144.049 216.5,143C 217.056,142.617 217.389,142.117 217.5,141.5C 222.239,147.736 228.073,152.736 235,156.5C 235.333,156.167 235.667,155.833 236,155.5C 238.541,156.768 241.208,157.768 244,158.5C 246.869,158.45 248.703,157.117 249.5,154.5C 250.338,154.158 250.672,153.492 250.5,152.5C 252.312,152.229 253.978,151.562 255.5,150.5C 257.976,148.598 260.309,146.598 262.5,144.5C 262.5,145.5 262.5,146.5 262.5,147.5C 264.467,147.261 266.301,147.594 268,148.5C 268.915,147.672 269.581,146.672 270,145.5C 270.667,146.833 271.333,146.833 272,145.5C 272.689,146.357 273.522,147.023 274.5,147.5C 277.167,146.167 279.833,146.167 282.5,147.5C 283.478,147.023 284.311,146.357 285,145.5C 287.344,145.856 289.677,146.189 292,146.5C 293.762,146.056 293.595,145.556 291.5,145C 293.674,144.819 295.507,145.652 297,147.5C 298.063,146.562 299.23,145.562 300.5,144.5C 303.422,145.491 306.588,145.824 310,145.5C 311.261,145.241 312.261,144.574 313,143.5C 314.217,144.386 315.551,145.386 317,146.5C 317.5,146 318,145.5 318.5,145C 317.663,143.989 317.33,142.822 317.5,141.5C 318.421,142.981 319.588,144.314 321,145.5C 325.547,148.527 330.38,151.193 335.5,153.5C 338.112,151.823 340.778,151.49 343.5,152.5C 350.038,149.626 355.372,145.293 359.5,139.5C 359.343,140.873 359.51,142.207 360,143.5C 361.101,141.606 362.434,140.939 364,141.5C 365.204,142.471 365.704,143.471 365.5,144.5C 367.912,143.797 370.412,142.797 373,141.5C 376.148,143.025 379.648,143.691 383.5,143.5C 385.348,140.522 387.348,140.188 389.5,142.5C 391.167,141.167 392.833,141.167 394.5,142.5C 395.192,141.975 395.692,141.308 396,140.5C 396.741,141.641 397.575,141.641 398.5,140.5C 399.519,141.687 400.686,142.687 402,143.5C 402.464,142.906 402.631,142.239 402.5,141.5C 407.344,145.169 412.344,148.669 417.5,152C 420.195,152.254 422.695,152.421 425,152.5C 425.309,151.234 425.809,150.067 426.5,149C 428.246,148.529 429.913,147.862 431.5,147C 435.527,144.061 439.027,140.561 442,136.5C 442.383,137.056 442.883,137.389 443.5,137.5 Z"/></g>
<g><path style="opacity:0.998" fill="#638950" d="M 115.5,159.5 C 113.254,158.79 110.92,158.29 108.5,158C 109.167,157.667 109.833,157.333 110.5,157C 109.333,156.5 108.5,155.667 108,154.5C 106.274,155.576 104.441,155.743 102.5,155C 103.756,154.583 104.423,153.75 104.5,152.5C 105.738,151.588 107.072,151.421 108.5,152C 110.302,154.368 112.635,155.868 115.5,156.5C 115.5,157.5 115.5,158.5 115.5,159.5 Z"/></g>
<g><path style="opacity:0.996" fill="#6d9458" d="M 392.5,161.5 C 392.631,162.239 392.464,162.906 392,163.5C 389.317,163.479 386.483,163.145 383.5,162.5C 384.072,161.027 384.905,159.693 386,158.5C 388.12,158.996 390.287,159.996 392.5,161.5 Z"/></g>
<g><path style="opacity:0.988" fill="#678d53" d="M 417.5,161.5 C 413.184,161.512 408.517,161.512 403.5,161.5C 407.963,160.629 412.296,159.962 416.5,159.5C 417.298,159.957 417.631,160.624 417.5,161.5 Z"/></g>
<g><path style="opacity:0.996" fill="#587d48" d="M 440.5,160.5 C 441.853,161.867 441.519,162.867 439.5,163.5C 438.575,162.359 437.741,162.359 437,163.5C 436.28,161.944 435.113,160.944 433.5,160.5C 433.369,159.761 433.536,159.094 434,158.5C 434.667,159.833 435.333,159.833 436,158.5C 437.33,159.582 438.83,160.249 440.5,160.5 Z"/></g>
<g><path style="opacity:0.996" fill="#527742" d="M 120.5,160.5 C 122.284,160.893 123.95,161.559 125.5,162.5C 123.257,163.858 121.591,163.192 120.5,160.5 Z"/></g>
<g><path style="opacity:0.999" fill="#7da665" d="M 163.5,166.5 C 162.295,167.686 160.961,167.686 159.5,166.5C 156.539,165.677 153.539,165.01 150.5,164.5C 148.983,164.511 147.816,165.177 147,166.5C 144.758,165.958 142.258,165.291 139.5,164.5C 137.194,164.007 134.861,163.674 132.5,163.5C 132.565,163.062 132.399,162.728 132,162.5C 131,163.167 130,163.833 129,164.5C 128.184,163.177 127.017,162.511 125.5,162.5C 125.369,161.761 125.536,161.094 126,160.5C 127.147,161.458 128.147,161.125 129,159.5C 130.512,161.957 131.846,161.957 133,159.5C 133.5,160.667 134.333,161.5 135.5,162C 140.297,161.587 144.797,161.753 149,162.5C 150.762,162.056 150.595,161.556 148.5,161C 150.878,160.026 150.544,159.359 147.5,159C 150.352,158.064 152.685,158.73 154.5,161C 153.551,161.617 152.718,161.451 152,160.5C 151.312,161.332 151.479,161.998 152.5,162.5C 156.283,163.728 159.949,165.061 163.5,166.5 Z"/></g>
<g><path style="opacity:0.004" fill="#1e3d18" d="M 556.5,162.5 C 557.833,163.167 557.833,163.167 556.5,162.5 Z"/></g>
<g><path style="opacity:1" fill="#79a262" d="M 195.5,166.5 C 195.062,167.506 194.396,167.506 193.5,166.5C 189.745,165.899 186.078,166.565 182.5,168.5C 180.22,167.864 178.22,166.864 176.5,165.5C 178.044,165.297 179.378,164.63 180.5,163.5C 182.937,164.809 184.437,164.142 185,161.5C 186.256,166.081 188.756,166.748 192.5,163.5C 193.883,166.076 194.717,165.742 195,162.5C 196.511,163.564 196.677,164.897 195.5,166.5 Z"/></g>
<g><path style="opacity:0.997" fill="#6d9458" d="M 264.5,165.5 C 262.956,165.703 261.622,166.37 260.5,167.5C 258.866,167.032 257.7,166.032 257,164.5C 254.833,166.293 252.666,166.626 250.5,165.5C 251.334,164.252 252.667,163.585 254.5,163.5C 257.427,164.296 260.26,164.296 263,163.5C 263.717,164.044 264.217,164.711 264.5,165.5 Z"/></g>
<g><path style="opacity:0.996" fill="#5c814a" d="M 309.5,164.5 C 309.631,165.239 309.464,165.906 309,166.5C 304.315,165.477 299.315,165.477 294,166.5C 292.185,165.756 290.352,165.089 288.5,164.5C 289.462,162.014 290.295,162.014 291,164.5C 294.98,164.146 299.313,164.146 304,164.5C 304.308,163.692 304.808,163.025 305.5,162.5C 307.026,162.994 308.359,163.661 309.5,164.5 Z"/></g>
<g><path style="opacity:0.996" fill="#4f7340" d="M 351.5,163.5 C 350.542,163.953 349.708,164.619 349,165.5C 346.98,165.055 345.813,164.389 345.5,163.5C 347.741,163.046 349.741,163.046 351.5,163.5 Z"/></g>
<g><path style="opacity:0.992" fill="#507441" d="M 357.5,163.5 C 355.833,164.833 354.167,164.833 352.5,163.5C 353.854,162.794 355.521,162.794 357.5,163.5 Z"/></g>
<g><path style="opacity:0.998" fill="#496c3b" d="M 132.5,163.5 C 134.861,163.674 137.194,164.007 139.5,164.5C 138.719,166.322 137.552,166.989 136,166.5C 134.855,165.364 133.688,164.364 132.5,163.5 Z"/></g>
<g><path style="opacity:0.996" fill="#4e723f" d="M 323.5,165.5 C 320.071,165.546 316.404,165.712 312.5,166C 310.869,167.836 310.202,167.336 310.5,164.5C 313.487,164.452 316.654,164.119 320,163.5C 321.302,164.085 322.469,164.751 323.5,165.5 Z"/></g>
<g><path style="opacity:1" fill="#517542" d="M 170.5,166.5 C 168.295,169.053 165.962,169.053 163.5,166.5C 164.484,163.93 165.651,163.93 167,166.5C 168.292,165.209 169.458,165.209 170.5,166.5 Z"/></g>
<g><path style="opacity:1" fill="#5c814a" d="M 175.5,165.5 C 175.412,168.606 174.078,168.94 171.5,166.5C 172.793,166.125 174.126,165.792 175.5,165.5 Z"/></g>
<g><path style="opacity:0.996" fill="#567b46" d="M 275.5,165.5 C 275.217,166.289 274.717,166.956 274,167.5C 272.316,166.807 270.816,166.474 269.5,166.5C 270.122,165.373 270.955,164.373 272,163.5C 272.919,165.239 274.085,165.906 275.5,165.5 Z"/></g>
<g><path style="opacity:1" fill="#4c6f3d" d="M 150.5,164.5 C 153.539,165.01 156.539,165.677 159.5,166.5C 158.739,167.391 157.739,168.058 156.5,168.5C 155.304,168.154 155.304,167.654 156.5,167C 154.148,166.76 152.148,165.927 150.5,164.5 Z"/></g>
<g><path style="opacity:1" fill="#4b6e3d" d="M 202.5,165.5 C 200.229,166.345 197.895,167.345 195.5,168.5C 194.287,168.253 193.62,167.586 193.5,166.5C 194.396,167.506 195.062,167.506 195.5,166.5C 197.717,165.631 200.05,165.298 202.5,165.5 Z"/></g>
<g><path style="opacity:0.996" fill="#5d834b" d="M 226.5,166.5 C 224.504,169.679 222.171,170.012 219.5,167.5C 217.941,168.074 216.441,168.74 215,169.5C 214.536,168.906 214.369,168.239 214.5,167.5C 215.462,165.014 216.295,165.014 217,167.5C 220.267,167.105 223.267,166.105 226,164.5C 226.464,165.094 226.631,165.761 226.5,166.5 Z"/></g>
<g><path style="opacity:0.996" fill="#426536" d="M 243.5,167.5 C 242.359,168.339 241.026,169.006 239.5,169.5C 238.893,169.376 238.56,169.043 238.5,168.5C 238.389,166.352 239.056,166.019 240.5,167.5C 241.88,165.023 242.88,165.023 243.5,167.5 Z"/></g>
<g><path style="opacity:0.988" fill="#4d713f" d="M 268.5,166.5 C 265.653,169.502 264.653,169.168 265.5,165.5C 267.196,163.871 268.196,164.204 268.5,166.5 Z"/></g>
<g><path style="opacity:0.004" fill="#1e3d18" d="M 78.5,168.5 C 77.8333,169.167 77.8333,169.167 78.5,168.5 Z"/></g>
<g><path style="opacity:1" fill="#547843" d="M 208.5,166.5 C 209.167,166.5 209.5,166.833 209.5,167.5C 208.066,167.596 206.733,168.596 205.5,170.5C 205.167,170.333 204.833,170.167 204.5,170C 205.823,169.184 206.489,168.017 206.5,166.5C 206.938,165.494 207.604,165.494 208.5,166.5 Z"/></g>
<g><path style="opacity:0.004" fill="#1e3d18" d="M 80.5,169.5 C 79.8333,170.167 79.8333,170.167 80.5,169.5 Z"/></g>
<g><path style="opacity:0.004" fill="#1e3d18" d="M 129.5,176.5 C 129.833,176.5 130.167,176.5 130.5,176.5C 130.315,177.17 129.981,177.17 129.5,176.5 Z"/></g>
<g><path style="opacity:0.004" fill="#1e3d18" d="M 363.5,176.5 C 363.833,176.5 364.167,176.5 364.5,176.5C 364.315,177.17 363.981,177.17 363.5,176.5 Z"/></g>
<g><path style="opacity:0.004" fill="#1e3d18" d="M 447.5,176.5 C 447.833,176.5 448.167,176.5 448.5,176.5C 448.315,177.17 447.981,177.17 447.5,176.5 Z"/></g>
<g><path style="opacity:0.004" fill="#1e3d18" d="M 197.5,179.5 C 197.833,179.5 198.167,179.5 198.5,179.5C 198.672,180.492 198.338,181.158 197.5,181.5C 197.5,180.833 197.5,180.167 197.5,179.5 Z"/></g>
<g><path style="opacity:0.004" fill="#1e3d18" d="M 274.5,180.5 C 273.833,181.167 273.833,181.167 274.5,180.5 Z"/></g>
<g><path style="opacity:0.004" fill="#1e3d18" d="M 197.5,181.5 C 197.631,182.239 197.464,182.906 197,183.5C 196.308,182.563 196.475,181.897 197.5,181.5 Z"/></g>
</svg>
