<?xml version="1.0" encoding="UTF-8"?>
<!DOCTYPE svg PUBLIC "-//W3C//DTD SVG 1.1//EN" "http://www.w3.org/Graphics/SVG/1.1/DTD/svg11.dtd">
<svg xmlns="http://www.w3.org/2000/svg" version="1.1" width="301px" height="298px" style="shape-rendering:geometricPrecision; text-rendering:geometricPrecision; image-rendering:optimizeQuality; fill-rule:evenodd; clip-rule:evenodd" xmlns:xlink="http://www.w3.org/1999/xlink">
<g><path style="opacity:0.54" fill="#1b3440" d="M 146.5,30.5 C 148.564,30.687 150.564,31.187 152.5,32C 163.436,47.9258 173.936,64.0924 184,80.5C 186.152,86.1056 188.152,91.7723 190,97.5C 192.027,98.6933 193.527,100.36 194.5,102.5C 193.753,111.226 192.419,120.392 190.5,130C 187.62,135.597 184.12,140.763 180,145.5C 179.667,145.167 179.333,144.833 179,144.5C 175.547,147.947 171.547,150.613 167,152.5C 160.043,154.216 153.209,155.883 146.5,157.5C 142.07,157.373 137.737,156.706 133.5,155.5C 132.914,155.709 132.414,156.043 132,156.5C 125.942,152.413 119.776,148.413 113.5,144.5C 111.498,140.496 108.998,136.83 106,133.5C 101.323,122.273 101.489,111.107 106.5,100C 106.415,98.8926 106.081,97.8926 105.5,97C 110.651,85.5338 116.484,74.3671 123,63.5C 130.855,52.4331 138.688,41.4331 146.5,30.5 Z"/></g>
<g><path style="opacity:0.888" fill="#4d717d" d="M 149.5,38.5 C 146.86,42.8159 144.194,47.1493 141.5,51.5C 139.998,54.1157 137.998,56.1157 135.5,57.5C 136.089,54.7238 137.422,52.3904 139.5,50.5C 141.656,45.56 144.823,41.2266 149,37.5C 149.399,37.7284 149.565,38.0618 149.5,38.5 Z"/></g>
<g><path style="opacity:0.687" fill="#a8e0ec" d="M 149.5,38.5 C 153.281,42.6243 156.281,47.2909 158.5,52.5C 160.782,57.1057 163.449,61.439 166.5,65.5C 166.5,66.1667 166.833,66.5 167.5,66.5C 168.061,70.6113 170.061,73.6113 173.5,75.5C 173.5,75.8333 173.5,76.1667 173.5,76.5C 173.062,76.4346 172.728,76.6012 172.5,77C 174.083,78.7583 175.75,80.2583 177.5,81.5C 177.421,82.9305 177.754,84.2638 178.5,85.5C 172.842,86.6633 167.508,88.6633 162.5,91.5C 158.976,90.793 156.476,88.793 155,85.5C 153.657,86.2135 152.324,85.8802 151,84.5C 145.97,86.2651 141.47,88.9318 137.5,92.5C 136.417,92.5394 135.417,92.8728 134.5,93.5C 129.889,86.7867 124.222,85.7867 117.5,90.5C 119.089,85.6486 121.422,81.3153 124.5,77.5C 128.785,73.9171 131.118,69.5837 131.5,64.5C 132.5,64.5 133.5,64.5 134.5,64.5C 134.993,62.1944 135.326,59.861 135.5,57.5C 137.998,56.1157 139.998,54.1157 141.5,51.5C 144.194,47.1493 146.86,42.8159 149.5,38.5 Z"/></g>
<g><path style="opacity:0.773" fill="#587f8b" d="M 135.5,57.5 C 135.326,59.861 134.993,62.1944 134.5,64.5C 133.5,64.5 132.5,64.5 131.5,64.5C 132.079,61.6689 133.412,59.3356 135.5,57.5 Z"/></g>
<g><path style="opacity:0.667" fill="#5e8692" d="M 158.5,52.5 C 159.496,52.4142 160.329,52.7476 161,53.5C 162.24,56.412 163.906,59.0787 166,61.5C 166.49,62.7932 166.657,64.1266 166.5,65.5C 163.449,61.439 160.782,57.1057 158.5,52.5 Z"/></g>
<g><path style="opacity:0.882" fill="#284450" d="M 139.5,50.5 C 137.422,52.3904 136.089,54.7238 135.5,57.5C 133.412,59.3356 132.079,61.6689 131.5,64.5C 129.947,67.2399 128.114,69.9066 126,72.5C 124.991,74.0249 124.491,75.6916 124.5,77.5C 121.422,81.3153 119.089,85.6486 117.5,90.5C 115.726,92.9014 114.392,95.2347 113.5,97.5C 113.854,95.4588 113.854,93.6255 113.5,92C 115.04,89.4429 116.707,86.7762 118.5,84C 118.5,82.3333 118.5,80.6667 118.5,79C 121.395,74.7099 123.895,70.2099 126,65.5C 127.171,64.1068 128.671,63.2735 130.5,63C 129.825,60.7579 130.325,58.5912 132,56.5C 133.878,54.9571 135.378,53.1238 136.5,51C 137.448,50.5172 138.448,50.3505 139.5,50.5 Z"/></g>
<g><path style="opacity:0.839" fill="#5d8490" d="M 167.5,66.5 C 170.702,68.6358 172.702,71.6358 173.5,75.5C 170.061,73.6113 168.061,70.6113 167.5,66.5 Z"/></g>
<g><path style="opacity:0.675" fill="#6d99a5" d="M 131.5,64.5 C 131.118,69.5837 128.785,73.9171 124.5,77.5C 124.491,75.6916 124.991,74.0249 126,72.5C 128.114,69.9066 129.947,67.2399 131.5,64.5 Z"/></g>
<g><path style="opacity:0.843" fill="#5c838f" d="M 173.5,76.5 C 175.543,77.5794 176.876,79.246 177.5,81.5C 175.75,80.2583 174.083,78.7583 172.5,77C 172.728,76.6012 173.062,76.4346 173.5,76.5 Z"/></g>
<g><path style="opacity:0.957" fill="#3f5f6b" d="M 177.5,81.5 C 179.509,83.3778 179.842,85.5444 178.5,88C 180.588,89.2995 181.921,91.1329 182.5,93.5C 180.266,92.7801 178.099,92.4467 176,92.5C 171.889,94.7213 167.556,96.3879 163,97.5C 159.244,96.0397 155.744,94.2063 152.5,92C 149.562,91.2879 146.896,91.7879 144.5,93.5C 143.849,92.9094 143.182,92.2427 142.5,91.5C 142.331,92.3966 141.998,93.3966 141.5,94.5C 140.001,92.1978 138.668,92.5311 137.5,95.5C 136.438,94.5754 136.438,93.5754 137.5,92.5C 141.47,88.9318 145.97,86.2651 151,84.5C 152.324,85.8802 153.657,86.2135 155,85.5C 156.476,88.793 158.976,90.793 162.5,91.5C 167.508,88.6633 172.842,86.6633 178.5,85.5C 177.754,84.2638 177.421,82.9305 177.5,81.5 Z"/></g>
<g><path style="opacity:0.941" fill="#4a6d78" d="M 137.5,92.5 C 136.438,93.5754 136.438,94.5754 137.5,95.5C 138.668,92.5311 140.001,92.1978 141.5,94.5C 141.998,93.3966 142.331,92.3966 142.5,91.5C 143.182,92.2427 143.849,92.9094 144.5,93.5C 142.574,96.3253 140.074,97.3253 137,96.5C 136.261,97.5742 135.261,98.2409 134,98.5C 131.776,96.2742 129.276,94.4408 126.5,93C 126.833,92.6667 127.167,92.3333 127.5,92C 125.899,91.7266 124.399,91.2266 123,90.5C 120.36,93.8062 117.36,96.8062 114,99.5C 113.243,101.315 112.41,102.981 111.5,104.5C 111.166,101.812 111.832,99.4786 113.5,97.5C 114.392,95.2347 115.726,92.9014 117.5,90.5C 124.222,85.7867 129.889,86.7867 134.5,93.5C 135.417,92.8728 136.417,92.5394 137.5,92.5 Z"/></g>
<g><path style="opacity:0.812" fill="#33505c" d="M 183.5,93.5 C 184.675,93.281 185.675,93.6143 186.5,94.5C 185.998,95.7164 185.665,96.8831 185.5,98C 185.889,99.618 187.222,100.785 189.5,101.5C 191.405,107.762 191.239,114.095 189,120.5C 187.923,123.099 186.923,126.099 186,129.5C 185.292,130.381 184.458,131.047 183.5,131.5C 185.331,125.425 186.998,118.925 188.5,112C 186.607,105.932 184.941,99.765 183.5,93.5 Z"/></g>
<g><path style="opacity:0.792" fill="#517580" d="M 110.5,105.5 C 111.139,106.097 111.472,106.93 111.5,108C 110.976,112.069 110.31,116.069 109.5,120C 110.866,122.997 111.533,126.164 111.5,129.5C 107.865,121.437 107.532,113.437 110.5,105.5 Z"/></g>
<g><path style="opacity:0.824" fill="#8abac5" d="M 144.5,93.5 C 146.896,91.7879 149.562,91.2879 152.5,92C 155.744,94.2063 159.244,96.0397 163,97.5C 167.556,96.3879 171.889,94.7213 176,92.5C 178.099,92.4467 180.266,92.7801 182.5,93.5C 182.833,93.5 183.167,93.5 183.5,93.5C 184.941,99.765 186.607,105.932 188.5,112C 186.998,118.925 185.331,125.425 183.5,131.5C 183.5,131.833 183.5,132.167 183.5,132.5C 182.883,132.389 182.383,132.056 182,131.5C 178.958,134.711 175.791,137.711 172.5,140.5C 168.237,141.305 164.404,142.972 161,145.5C 160.228,145.355 159.561,145.022 159,144.5C 158.167,146 157,147.167 155.5,148C 148.501,149.63 141.501,149.797 134.5,148.5C 129.423,146.126 124.423,143.459 119.5,140.5C 116.063,137.396 113.396,133.729 111.5,129.5C 111.533,126.164 110.866,122.997 109.5,120C 110.31,116.069 110.976,112.069 111.5,108C 111.472,106.93 111.139,106.097 110.5,105.5C 110.5,104.833 110.833,104.5 111.5,104.5C 112.41,102.981 113.243,101.315 114,99.5C 117.36,96.8062 120.36,93.8062 123,90.5C 124.399,91.2266 125.899,91.7266 127.5,92C 127.167,92.3333 126.833,92.6667 126.5,93C 129.276,94.4408 131.776,96.2742 134,98.5C 135.261,98.2409 136.261,97.5742 137,96.5C 140.074,97.3253 142.574,96.3253 144.5,93.5 Z"/></g>
<g><path style="opacity:0.969" fill="#33505c" d="M 157.5,125.5 C 159.086,126.148 160.753,126.648 162.5,127C 161.903,128.628 162.237,130.295 163.5,132C 160.226,136.313 156.893,136.479 153.5,132.5C 154.861,130.15 156.194,127.816 157.5,125.5 Z"/></g>
<g><path style="opacity:0.935" fill="#41626d" d="M 162.5,102.5 C 163.5,102.5 164.5,102.5 165.5,102.5C 165.313,104.564 164.813,106.564 164,108.5C 153.559,118.906 142.226,129.24 130,139.5C 128.72,139.387 127.887,138.72 127.5,137.5C 128.798,133.045 131.298,130.378 135,129.5C 136.761,125.74 139.261,122.574 142.5,120C 149.328,114.338 155.995,108.505 162.5,102.5 Z"/></g>
<g><path style="opacity:0.939" fill="#3b5b67" d="M 137.5,104.5 C 143.398,103.958 145.898,106.624 145,112.5C 141.612,115.665 137.945,115.665 134,112.5C 133.52,109.137 134.687,106.47 137.5,104.5 Z"/></g>
<g><path style="opacity:0.91" fill="#3a5965" d="M 119.5,140.5 C 124.423,143.459 129.423,146.126 134.5,148.5C 131.09,148.543 127.757,148.043 124.5,147C 123.001,144.672 121.334,142.505 119.5,140.5 Z"/></g>
<g><path style="opacity:0.921" fill="#40616d" d="M 183.5,132.5 C 180.865,136.743 177.532,140.41 173.5,143.5C 167.032,146.4 160.366,148.734 153.5,150.5C 151.665,149.808 149.832,150.142 148,151.5C 143.92,150.7 139.753,150.2 135.5,150C 134.944,149.617 134.611,149.117 134.5,148.5C 141.501,149.797 148.501,149.63 155.5,148C 157,147.167 158.167,146 159,144.5C 159.561,145.022 160.228,145.355 161,145.5C 164.404,142.972 168.237,141.305 172.5,140.5C 175.791,137.711 178.958,134.711 182,131.5C 182.383,132.056 182.883,132.389 183.5,132.5 Z"/></g>
<g><path style="opacity:0.549" fill="#1e3d18" d="M 179.5,269.5 C 179.167,268.167 178.833,268.167 178.5,269.5C 173.744,270.331 169.244,271.664 165,273.5C 152.307,272.215 140.307,272.215 129,273.5C 118.47,270.713 108.303,267.047 98.5,262.5C 98.0338,260.799 98.0338,259.299 98.5,258C 96.4372,256.428 95.7706,254.595 96.5,252.5C 94.1109,247.089 92.1109,241.589 90.5,236C 91.727,234.413 91.3937,233.079 89.5,232C 89.8333,231 90.1667,230 90.5,229C 89.6563,226.546 88.6563,224.046 87.5,221.5C 88.106,219.36 87.7726,217.193 86.5,215C 86.8333,214.667 87.1667,214.333 87.5,214C 85.6982,210.855 85.0315,207.688 85.5,204.5C 83.1652,203.587 80.9985,202.253 79,200.5C 79.1602,195.821 78.9935,190.988 78.5,186C 78.8333,183.5 79.1667,181 79.5,178.5C 85.0131,175.153 90.8465,172.819 97,171.5C 99.6602,172.725 102.327,172.392 105,170.5C 105.333,170.833 105.667,171.167 106,171.5C 108.957,169.788 111.957,169.454 115,170.5C 118.387,170.089 121.72,169.423 125,168.5C 135.316,168.503 145.649,168.503 156,168.5C 159.333,169.167 162.667,169.833 166,170.5C 169.383,169.72 172.716,169.387 176,169.5C 178.667,170.167 181.333,170.833 184,171.5C 188.667,171.5 193.333,171.5 198,171.5C 199.324,172.88 200.657,173.214 202,172.5C 207.917,172.259 212.75,174.426 216.5,179C 215.645,184.689 214.645,190.355 213.5,196C 213.957,196.414 214.291,196.914 214.5,197.5C 212.692,200.423 210.359,202.923 207.5,205C 207.076,208.726 207.076,212.226 207.5,215.5C 205.467,217.452 205.134,219.618 206.5,222C 204.545,224.168 203.879,226.502 204.5,229C 203.707,230.085 203.04,231.252 202.5,232.5C 202.623,234.378 202.623,236.211 202.5,238C 199.339,246.15 196.672,254.15 194.5,262C 189.39,265.19 184.39,267.69 179.5,269.5 Z"/></g>
<g><path style="opacity:0.004" fill="#1e3d18" d="M 178.5,269.5 C 178.833,269.5 179.167,269.5 179.5,269.5C 179.315,270.17 178.981,270.17 178.5,269.5 Z"/></g>
</svg>
