<?xml version="1.0" encoding="UTF-8"?>
<!DOCTYPE svg PUBLIC "-//W3C//DTD SVG 1.1//EN" "http://www.w3.org/Graphics/SVG/1.1/DTD/svg11.dtd">
<svg xmlns="http://www.w3.org/2000/svg" version="1.1" width="328px" height="313px" style="shape-rendering:geometricPrecision; text-rendering:geometricPrecision; image-rendering:optimizeQuality; fill-rule:evenodd; clip-rule:evenodd" xmlns:xlink="http://www.w3.org/1999/xlink">
<g><path style="opacity:0.459" fill="#254b1c" d="M 57.5,36.5 C 61.0267,37.8524 64.1934,39.8524 67,42.5C 67.3333,42.1667 67.6667,41.8333 68,41.5C 69.3333,42.8333 70.6667,44.1667 72,45.5C 72.414,45.0426 72.914,44.7093 73.5,44.5C 74.9142,47.2104 76.9142,48.2104 79.5,47.5C 82.7556,49.7113 85.9223,52.0446 89,54.5C 89.3333,54.1667 89.6667,53.8333 90,53.5C 92.2622,56.2065 94.9288,57.2065 98,56.5C 99.4628,59.1771 101.463,60.1771 104,59.5C 105.277,61.7311 107.111,63.3978 109.5,64.5C 110.614,65.723 110.781,67.0563 110,68.5C 102.508,70.1176 95.8417,68.1176 90,62.5C 87.9098,63.7908 86.5764,63.1242 86,60.5C 85.6667,60.8333 85.3333,61.1667 85,61.5C 82.5669,59.3742 79.7335,58.0409 76.5,57.5C 72.0625,55.2935 67.8959,52.6268 64,49.5C 63.6667,49.8333 63.3333,50.1667 63,50.5C 60.9585,48.2716 58.4585,46.7716 55.5,46C 49.7777,41.3092 50.4444,38.1425 57.5,36.5 Z"/></g>
<g><path style="opacity:0.332" fill="#254a1d" d="M 237.5,59.5 C 238.552,59.3505 239.552,59.5172 240.5,60C 245.11,63.4547 249.776,66.6213 254.5,69.5C 254.351,70.552 254.517,71.552 255,72.5C 259.034,76.3616 261.534,81.0283 262.5,86.5C 253.775,77.778 245.441,68.778 237.5,59.5 Z"/></g>
<g><path style="opacity:0.854" fill="#263a22" d="M 130.5,67.5 C 132.878,68.8921 134.878,70.7255 136.5,73C 135.552,73.4828 134.552,73.6495 133.5,73.5C 129.772,73.7947 126.105,74.4614 122.5,75.5C 123.135,80.3798 123.469,85.3798 123.5,90.5C 127.167,90.8973 130.167,91.8973 132.5,93.5C 131.134,95.3505 129.467,95.6838 127.5,94.5C 126.833,95.1667 126.167,95.8333 125.5,96.5C 122.08,95.643 119.746,93.643 118.5,90.5C 119.634,88.0336 119.801,85.367 119,82.5C 118.629,78.9671 117.463,75.9671 115.5,73.5C 116.997,70.4905 119.497,68.8239 123,68.5C 125.526,69.6927 128.026,69.3594 130.5,67.5 Z"/></g>
<g><path style="opacity:0.462" fill="#254b1c" d="M 55.5,69.5 C 61.4387,70.2951 66.9387,70.2951 72,69.5C 73,70.1667 74,70.8333 75,71.5C 77.2342,71.6263 79.5676,71.2929 82,70.5C 84.7423,71.8453 87.409,72.8453 90,73.5C 92.6502,73.489 95.3168,73.489 98,73.5C 100.293,75.3723 102.793,76.8723 105.5,78C 102.06,80.2398 98.5604,81.7398 95,82.5C 93.5421,81.2532 92.0421,81.2532 90.5,82.5C 89.2519,81.9598 88.0852,81.2931 87,80.5C 86.6667,81.1667 86.3333,81.8333 86,82.5C 85.2588,81.3595 84.4255,81.3595 83.5,82.5C 82.5224,82.0233 81.6891,81.3567 81,80.5C 78,80.5 75,80.5 72,80.5C 70.9148,79.7069 69.7481,79.0402 68.5,78.5C 64.2124,78.7036 60.0457,78.7036 56,78.5C 54.172,77.3387 52.672,75.8387 51.5,74C 52.6045,72.2847 53.9378,70.7847 55.5,69.5 Z"/></g>
<g><path style="opacity:0.195" fill="#25491d" d="M 115.5,73.5 C 117.463,75.9671 118.629,78.9671 119,82.5C 119.801,85.367 119.634,88.0336 118.5,90.5C 117.751,89.469 117.085,88.3024 116.5,87C 116.833,86 117.167,85 117.5,84C 116.797,80.5044 116.13,77.0044 115.5,73.5 Z"/></g>
<g><path style="opacity:0.692" fill="#314f2a" d="M 133.5,73.5 C 133.521,77.2698 133.188,81.1031 132.5,85C 133.337,89.8739 135.003,94.3739 137.5,98.5C 135.473,97.1394 133.806,95.4727 132.5,93.5C 130.167,91.8973 127.167,90.8973 123.5,90.5C 123.469,85.3798 123.135,80.3798 122.5,75.5C 126.105,74.4614 129.772,73.7947 133.5,73.5 Z"/></g>
<g><path style="opacity:0.934" fill="#273f22" d="M 237.5,59.5 C 245.441,68.778 253.775,77.778 262.5,86.5C 263.141,89.221 263.641,91.8877 264,94.5C 261.136,97.4017 258.969,97.0684 257.5,93.5C 259.942,91.8607 260.109,89.8607 258,87.5C 251.082,78.859 243.582,70.6924 235.5,63C 232.901,62.231 230.401,62.3977 228,63.5C 221.772,62.0617 215.439,61.0617 209,60.5C 208.228,60.6448 207.561,60.9781 207,61.5C 197.284,59.6258 187.784,59.2924 178.5,60.5C 177.389,59.3887 176.055,58.722 174.5,58.5C 162.511,59.9022 150.511,61.2355 138.5,62.5C 137.334,72.8172 137.168,83.1506 138,93.5C 146.551,92.5126 155.384,92.5126 164.5,93.5C 159.019,93.8733 153.853,93.8733 149,93.5C 146.904,94.7155 147.071,95.5488 149.5,96C 148.833,96.3333 148.167,96.6667 147.5,97C 148.252,97.6708 148.586,98.5041 148.5,99.5C 145.788,99.2625 143.288,99.2625 141,99.5C 140.047,97.6269 138.88,97.2935 137.5,98.5C 135.003,94.3739 133.337,89.8739 132.5,85C 133.188,81.1031 133.521,77.2698 133.5,73.5C 134.552,73.6495 135.552,73.4828 136.5,73C 134.878,70.7255 132.878,68.8921 130.5,67.5C 131.327,64.8683 132.16,62.2017 133,59.5C 135,58.1667 137,56.8333 139,55.5C 142.592,55.1296 145.925,55.1296 149,55.5C 151.333,54.8333 153.667,54.1667 156,53.5C 156.561,54.0219 157.228,54.3552 158,54.5C 172.41,52.5761 186.743,52.9095 201,55.5C 203.621,55.2992 206.288,54.9658 209,54.5C 215.513,55.1978 222.013,56.1978 228.5,57.5C 229.086,57.2907 229.586,56.9574 230,56.5C 232.756,57.0702 235.256,58.0702 237.5,59.5 Z"/></g>
<g><path style="opacity:0.733" fill="#35512f" d="M 257.5,93.5 C 251.815,93.3036 245.815,93.3036 239.5,93.5C 214.722,93.6111 189.722,93.6111 164.5,93.5C 155.384,92.5126 146.551,92.5126 138,93.5C 137.168,83.1506 137.334,72.8172 138.5,62.5C 150.511,61.2355 162.511,59.9022 174.5,58.5C 176.055,58.722 177.389,59.3887 178.5,60.5C 187.784,59.2924 197.284,59.6258 207,61.5C 207.561,60.9781 208.228,60.6448 209,60.5C 215.439,61.0617 221.772,62.0617 228,63.5C 230.401,62.3977 232.901,62.231 235.5,63C 243.582,70.6924 251.082,78.859 258,87.5C 260.109,89.8607 259.942,91.8607 257.5,93.5 Z"/></g>
<g><path style="opacity:0.411" fill="#254b1c" d="M 93.5,91.5 C 95.7014,92.5664 98.0347,93.233 100.5,93.5C 100.67,94.8221 100.337,95.9887 99.5,97C 95.6956,99.6598 91.8623,101.493 88,102.5C 86.2015,102.279 84.3682,101.946 82.5,101.5C 76.3596,102.23 70.5263,103.23 65,104.5C 63.7453,103.789 62.5786,102.956 61.5,102C 62.5,99.6667 64.1667,98 66.5,97C 73.7275,95.5716 80.8942,94.0716 88,92.5C 88.3333,92.8333 88.6667,93.1667 89,93.5C 90.6225,92.9011 92.1225,92.2344 93.5,91.5 Z"/></g>
<g><path style="opacity:0.903" fill="#273c22" d="M 239.5,93.5 C 238.644,96.5131 236.811,97.1797 234,95.5C 228.98,97.0029 223.813,97.6696 218.5,97.5C 202.265,97.7611 186.599,97.7611 171.5,97.5C 170.5,97.5 169.5,97.5 168.5,97.5C 168.146,99.5412 168.146,101.374 168.5,103C 167.5,103.667 166.5,103.667 165.5,103C 166.097,101.372 165.763,99.7051 164.5,98C 160.389,97.5085 156.556,97.0085 153,96.5C 151.482,97.1634 150.315,98.1634 149.5,99.5C 149.167,99.5 148.833,99.5 148.5,99.5C 148.586,98.5041 148.252,97.6708 147.5,97C 148.167,96.6667 148.833,96.3333 149.5,96C 147.071,95.5488 146.904,94.7155 149,93.5C 153.853,93.8733 159.019,93.8733 164.5,93.5C 189.722,93.6111 214.722,93.6111 239.5,93.5 Z"/></g>
<g><path style="opacity:0.864" fill="#274b20" d="M 262.5,86.5 C 267.649,89.4635 268.649,93.4635 265.5,98.5C 263.242,99.4185 260.909,100.085 258.5,100.5C 246.304,100.558 234.47,100.225 223,99.5C 222.127,99.7355 221.293,100.069 220.5,100.5C 219.919,102.606 219.586,104.606 219.5,106.5C 218.751,105.469 218.085,104.302 217.5,103C 217.966,101.701 217.966,100.201 217.5,98.5C 218.167,98.5 218.5,98.1667 218.5,97.5C 223.813,97.6696 228.98,97.0029 234,95.5C 236.811,97.1797 238.644,96.5131 239.5,93.5C 245.815,93.3036 251.815,93.3036 257.5,93.5C 258.969,97.0684 261.136,97.4017 264,94.5C 263.641,91.8877 263.141,89.221 262.5,86.5 Z"/></g>
<g><path style="opacity:0.679" fill="#34512e" d="M 218.5,97.5 C 218.5,98.1667 218.167,98.5 217.5,98.5C 215.804,100.288 214.471,102.455 213.5,105C 213.37,107.418 213.703,109.918 214.5,112.5C 212.234,112.859 210.401,112.192 209,110.5C 205.078,112.312 200.911,112.979 196.5,112.5C 196.5,111.5 196.5,110.5 196.5,109.5C 194.549,109.227 193.049,109.893 192,111.5C 189.187,108.804 186.687,109.137 184.5,112.5C 183.833,112.167 183.167,111.833 182.5,111.5C 178.577,112.598 174.577,113.265 170.5,113.5C 169.987,108.915 170.654,104.582 172.5,100.5C 171.873,99.5832 171.539,98.5832 171.5,97.5C 186.599,97.7611 202.265,97.7611 218.5,97.5 Z"/></g>
<g><path style="opacity:0.459" fill="#254b1c" d="M 103.5,102.5 C 105.167,102.5 106.833,102.5 108.5,102.5C 108.684,106.079 108.017,109.413 106.5,112.5C 105.325,112.281 104.325,112.614 103.5,113.5C 103.023,114.931 102.357,116.264 101.5,117.5C 91.9429,125.215 82.7763,133.549 74,142.5C 72.3745,142.146 70.5412,142.146 68.5,142.5C 68.3433,141.127 68.51,139.793 69,138.5C 74.5282,129.593 81.6949,122.259 90.5,116.5C 91.3857,115.675 91.719,114.675 91.5,113.5C 92.675,113.719 93.675,113.386 94.5,112.5C 98.3755,109.27 101.375,105.937 103.5,102.5 Z"/></g>
<g><path style="opacity:0.965" fill="#264320" d="M 171.5,97.5 C 171.539,98.5832 171.873,99.5832 172.5,100.5C 170.654,104.582 169.987,108.915 170.5,113.5C 168.5,114.833 166.5,114.833 164.5,113.5C 163.906,109.492 163.24,105.492 162.5,101.5C 163.855,100.325 163.688,99.3247 162,98.5C 157.934,99.4637 153.767,99.797 149.5,99.5C 150.315,98.1634 151.482,97.1634 153,96.5C 156.556,97.0085 160.389,97.5085 164.5,98C 165.763,99.7051 166.097,101.372 165.5,103C 166.5,103.667 167.5,103.667 168.5,103C 168.146,101.374 168.146,99.5412 168.5,97.5C 169.5,97.5 170.5,97.5 171.5,97.5 Z"/></g>
<g><path style="opacity:0.86" fill="#263f21" d="M 217.5,98.5 C 217.966,100.201 217.966,101.701 217.5,103C 218.085,104.302 218.751,105.469 219.5,106.5C 219.5,106.833 219.5,107.167 219.5,107.5C 218.883,107.611 218.383,107.944 218,108.5C 217.505,110.473 217.338,112.473 217.5,114.5C 215.821,114.715 214.821,114.048 214.5,112.5C 213.703,109.918 213.37,107.418 213.5,105C 214.471,102.455 215.804,100.288 217.5,98.5 Z"/></g>
<g><path style="opacity:0.617" fill="#284e20" d="M 164.5,113.5 C 166.5,114.833 168.5,114.833 170.5,113.5C 170.351,114.552 170.517,115.552 171,116.5C 171.654,115.304 172.154,115.304 172.5,116.5C 170.113,117.92 167.78,119.253 165.5,120.5C 160.367,121.796 156.533,124.796 154,129.5C 151.256,137.796 149.423,146.296 148.5,155C 149.54,164.215 149.54,173.548 148.5,183C 150.192,201.429 151.525,219.929 152.5,238.5C 151.776,240.218 151.109,242.052 150.5,244C 151.536,246.259 151.536,248.592 150.5,251C 150.862,252.434 151.528,253.601 152.5,254.5C 152.753,257.977 152.419,261.644 151.5,265.5C 151.667,266.833 151.833,268.167 152,269.5C 152.671,270.252 153.504,270.586 154.5,270.5C 154.5,270.833 154.5,271.167 154.5,271.5C 153.262,271.81 153.262,272.31 154.5,273C 155.938,273.219 157.271,273.719 158.5,274.5C 158.137,275.183 157.804,275.85 157.5,276.5C 154.159,276.892 150.993,275.892 148,273.5C 147.559,270.06 146.726,266.727 145.5,263.5C 146.037,256.559 146.37,249.393 146.5,242C 145.808,237.199 145.142,232.365 144.5,227.5C 145.089,222.972 145.422,218.472 145.5,214C 143.777,210.361 143.444,206.694 144.5,203C 142.336,183.683 142.336,164.017 144.5,144C 143.654,141.339 143.988,138.339 145.5,135C 145.167,134.667 144.833,134.333 144.5,134C 149.102,124.9 155.769,118.067 164.5,113.5 Z"/></g>
<g><path style="opacity:0.919" fill="#315828" d="M 219.5,107.5 C 219.772,109.314 219.939,111.314 220,113.5C 225.779,116.095 230.779,119.761 235,124.5C 235.483,125.448 235.649,126.448 235.5,127.5C 237.536,137.154 239.203,146.654 240.5,156C 240.285,157.908 239.285,159.074 237.5,159.5C 236.742,151.31 235.909,142.977 235,134.5C 231.517,128.685 227.017,123.852 221.5,120C 214.256,119.034 207.089,117.867 200,116.5C 196,117.167 192,117.833 188,118.5C 185.23,117.675 182.563,117.341 180,117.5C 175.302,119.049 170.469,120.049 165.5,120.5C 167.78,119.253 170.113,117.92 172.5,116.5C 172.154,115.304 171.654,115.304 171,116.5C 170.517,115.552 170.351,114.552 170.5,113.5C 174.577,113.265 178.577,112.598 182.5,111.5C 183.167,111.833 183.833,112.167 184.5,112.5C 186.687,109.137 189.187,108.804 192,111.5C 193.049,109.893 194.549,109.227 196.5,109.5C 196.5,110.5 196.5,111.5 196.5,112.5C 200.911,112.979 205.078,112.312 209,110.5C 210.401,112.192 212.234,112.859 214.5,112.5C 214.821,114.048 215.821,114.715 217.5,114.5C 217.338,112.473 217.505,110.473 218,108.5C 218.383,107.944 218.883,107.611 219.5,107.5 Z"/></g>
<g><path style="opacity:0.647" fill="#75a16a" d="M 237.5,159.5 C 237.5,159.833 237.5,160.167 237.5,160.5C 236.836,181.837 236.836,203.67 237.5,226C 235.899,235.209 235.565,244.376 236.5,253.5C 236.666,257.846 236.499,262.179 236,266.5C 234.642,270.598 231.808,272.265 227.5,271.5C 216.16,272.61 205.16,272.61 194.5,271.5C 194.167,271.5 193.833,271.5 193.5,271.5C 181.355,272.15 168.355,272.15 154.5,271.5C 154.5,271.167 154.5,270.833 154.5,270.5C 154.703,268.61 154.037,267.11 152.5,266C 153.729,262.2 153.729,258.367 152.5,254.5C 152.938,249.359 152.938,244.025 152.5,238.5C 151.525,219.929 150.192,201.429 148.5,183C 149.54,173.548 149.54,164.215 148.5,155C 149.423,146.296 151.256,137.796 154,129.5C 156.533,124.796 160.367,121.796 165.5,120.5C 170.469,120.049 175.302,119.049 180,117.5C 182.563,117.341 185.23,117.675 188,118.5C 192,117.833 196,117.167 200,116.5C 207.089,117.867 214.256,119.034 221.5,120C 227.017,123.852 231.517,128.685 235,134.5C 235.909,142.977 236.742,151.31 237.5,159.5 Z"/></g>
<g><path style="opacity:0.366" fill="#264c1e" d="M 235.5,127.5 C 237.606,129.272 239.273,131.438 240.5,134C 240.335,135.117 240.002,136.284 239.5,137.5C 241.024,140.82 242.024,144.32 242.5,148C 241.607,152.791 241.274,157.458 241.5,162C 242.167,162.667 242.833,163.333 243.5,164C 242.167,167 242.167,170 243.5,173C 242.643,173.689 241.977,174.522 241.5,175.5C 241.782,207.115 241.782,237.281 241.5,266C 240.773,268.124 240.106,270.291 239.5,272.5C 237.082,273.457 234.916,274.791 233,276.5C 230.814,277.022 228.481,277.022 226,276.5C 225.333,277.167 224.667,277.833 224,278.5C 221.437,278.659 218.77,278.325 216,277.5C 214.609,279.715 212.943,279.715 211,277.5C 209.989,278.337 208.822,278.67 207.5,278.5C 207.5,276.833 207.5,275.167 207.5,273.5C 209.734,273.38 211.901,273.713 214,274.5C 218.499,273.006 222.999,272.006 227.5,271.5C 231.808,272.265 234.642,270.598 236,266.5C 236.499,262.179 236.666,257.846 236.5,253.5C 238.649,250.605 238.983,247.438 237.5,244C 238.287,240.282 239.287,236.616 240.5,233C 239.755,219.601 239.421,205.934 239.5,192C 242.109,186.522 241.776,181.188 238.5,176C 239.044,173.6 239.711,171.267 240.5,169C 239.132,166.196 238.132,163.362 237.5,160.5C 237.5,160.167 237.5,159.833 237.5,159.5C 239.285,159.074 240.285,157.908 240.5,156C 239.203,146.654 237.536,137.154 235.5,127.5 Z"/></g>
<g><path style="opacity:0.856" fill="#2e5526" d="M 209.5,179.5 C 209.315,181.196 208.481,182.529 207,183.5C 206.591,179.703 205.758,176.036 204.5,172.5C 204.5,171.167 204.5,169.833 204.5,168.5C 198.477,168.502 192.477,168.835 186.5,169.5C 185.924,175.485 185.424,181.485 185,187.5C 183.989,188.337 182.822,188.67 181.5,188.5C 176.855,188.724 176.522,187.39 180.5,184.5C 180.803,180.355 180.97,176.021 181,171.5C 180.947,168.344 182.114,165.844 184.5,164C 191.624,163.683 198.457,163.183 205,162.5C 210.532,166.904 212.032,172.57 209.5,179.5 Z"/></g>
<g><path style="opacity:0.73" fill="#a5e595" d="M 204.5,172.5 C 203.861,173.097 203.528,173.93 203.5,175C 204.164,179.144 204.664,183.311 205,187.5C 206.011,188.337 207.178,188.67 208.5,188.5C 213.536,188.74 218.536,189.073 223.5,189.5C 223.244,191.792 223.577,193.959 224.5,196C 224.173,200.214 223.173,204.048 221.5,207.5C 216.508,207.046 211.675,206.713 207,206.5C 206.536,207.094 206.369,207.761 206.5,208.5C 205.539,210.265 205.205,212.265 205.5,214.5C 205.287,217.746 204.62,221.079 203.5,224.5C 198.696,225.116 194.03,225.449 189.5,225.5C 188.5,225.5 187.5,225.5 186.5,225.5C 186.75,220.42 186.25,215.42 185,210.5C 184.167,209.667 183.333,208.833 182.5,208C 177.845,207.501 173.179,207.334 168.5,207.5C 168.5,202.833 168.5,198.167 168.5,193.5C 169.404,192.791 169.737,191.791 169.5,190.5C 170.833,190.5 172.167,190.5 173.5,190.5C 174.391,189.89 175.391,189.557 176.5,189.5C 178.415,189.784 180.081,189.451 181.5,188.5C 182.822,188.67 183.989,188.337 185,187.5C 185.424,181.485 185.924,175.485 186.5,169.5C 192.477,168.835 198.477,168.502 204.5,168.5C 204.5,169.833 204.5,171.167 204.5,172.5 Z"/></g>
<g><path style="opacity:0.943" fill="#518046" d="M 204.5,172.5 C 205.758,176.036 206.591,179.703 207,183.5C 208.481,182.529 209.315,181.196 209.5,179.5C 210.434,180.568 210.768,181.901 210.5,183.5C 209.761,183.369 209.094,183.536 208.5,184C 208.598,185.618 208.598,187.118 208.5,188.5C 207.178,188.67 206.011,188.337 205,187.5C 204.664,183.311 204.164,179.144 203.5,175C 203.528,173.93 203.861,173.097 204.5,172.5 Z"/></g>
<g><path style="opacity:0.878" fill="#49723f" d="M 180.5,184.5 C 176.522,187.39 176.855,188.724 181.5,188.5C 180.081,189.451 178.415,189.784 176.5,189.5C 176.33,188.178 176.663,187.011 177.5,186C 175.167,185.333 172.833,185.333 170.5,186C 169.549,186.718 169.383,187.551 170,188.5C 171.302,189.085 172.469,189.751 173.5,190.5C 172.167,190.5 170.833,190.5 169.5,190.5C 169.737,191.791 169.404,192.791 168.5,193.5C 168.598,191.397 168.265,189.064 167.5,186.5C 167.167,187.167 166.833,187.833 166.5,188.5C 165.614,187.675 165.281,186.675 165.5,185.5C 170.463,184.746 175.463,184.413 180.5,184.5 Z"/></g>
<g><path style="opacity:0.992" fill="#2d5425" d="M 176.5,189.5 C 175.391,189.557 174.391,189.89 173.5,190.5C 172.469,189.751 171.302,189.085 170,188.5C 169.383,187.551 169.549,186.718 170.5,186C 172.833,185.333 175.167,185.333 177.5,186C 176.663,187.011 176.33,188.178 176.5,189.5 Z"/></g>
<g><path style="opacity:0.936" fill="#325a29" d="M 217.5,211.5 C 213.69,211.003 210.024,210.003 206.5,208.5C 206.369,207.761 206.536,207.094 207,206.5C 211.675,206.713 216.508,207.046 221.5,207.5C 221.811,208.478 222.478,209.145 223.5,209.5C 224.307,205.518 225.307,201.518 226.5,197.5C 225.791,194.616 224.791,191.949 223.5,189.5C 218.536,189.073 213.536,188.74 208.5,188.5C 208.598,187.118 208.598,185.618 208.5,184C 209.094,183.536 209.761,183.369 210.5,183.5C 214.945,183.532 219.445,183.532 224,183.5C 225.676,184.061 227.009,185.061 228,186.5C 229.53,194.401 229.53,202.401 228,210.5C 227.333,211.167 226.667,211.833 226,212.5C 223.281,211.556 220.448,211.223 217.5,211.5 Z"/></g>
<g><path style="opacity:0.741" fill="#538348" d="M 223.5,189.5 C 224.791,191.949 225.791,194.616 226.5,197.5C 225.307,201.518 224.307,205.518 223.5,209.5C 222.478,209.145 221.811,208.478 221.5,207.5C 223.173,204.048 224.173,200.214 224.5,196C 223.577,193.959 223.244,191.792 223.5,189.5 Z"/></g>
<g><path style="opacity:0.863" fill="#305727" d="M 165.5,185.5 C 165.281,186.675 165.614,187.675 166.5,188.5C 166.833,187.833 167.167,187.167 167.5,186.5C 168.265,189.064 168.598,191.397 168.5,193.5C 168.5,198.167 168.5,202.833 168.5,207.5C 173.179,207.334 177.845,207.501 182.5,208C 183.333,208.833 184.167,209.667 185,210.5C 186.25,215.42 186.75,220.42 186.5,225.5C 187.5,225.5 188.5,225.5 189.5,225.5C 189.389,226.117 189.056,226.617 188.5,227C 189.738,226.923 190.738,227.089 191.5,227.5C 189.257,228.474 186.924,228.808 184.5,228.5C 183.25,228.423 182.417,227.756 182,226.5C 181.649,221.802 181.149,217.136 180.5,212.5C 176.97,211.989 173.804,212.656 171,214.5C 168.41,213.55 166.41,211.884 165,209.5C 164.573,201.772 164.073,194.605 163.5,188C 164.066,187.005 164.733,186.172 165.5,185.5 Z"/></g>
<g><path style="opacity:0.988" fill="#446e3b" d="M 206.5,208.5 C 210.024,210.003 213.69,211.003 217.5,211.5C 215.143,211.337 212.81,211.503 210.5,212C 211.837,217.468 211.17,222.634 208.5,227.5C 208.768,224.881 208.435,222.381 207.5,220C 209.25,218.246 209.917,216.079 209.5,213.5C 208.041,213.433 206.708,213.766 205.5,214.5C 205.205,212.265 205.539,210.265 206.5,208.5 Z"/></g>
<g><path style="opacity:0.553" fill="#416938" d="M 237.5,160.5 C 238.132,163.362 239.132,166.196 240.5,169C 239.711,171.267 239.044,173.6 238.5,176C 241.776,181.188 242.109,186.522 239.5,192C 239.421,205.934 239.755,219.601 240.5,233C 239.287,236.616 238.287,240.282 237.5,244C 238.983,247.438 238.649,250.605 236.5,253.5C 235.565,244.376 235.899,235.209 237.5,226C 236.836,203.67 236.836,181.837 237.5,160.5 Z"/></g>
<g><path style="opacity:0.937" fill="#325a29" d="M 208.5,227.5 C 206.784,227.629 205.117,227.962 203.5,228.5C 203.5,227.167 203.5,225.833 203.5,224.5C 204.62,221.079 205.287,217.746 205.5,214.5C 206.708,213.766 208.041,213.433 209.5,213.5C 209.917,216.079 209.25,218.246 207.5,220C 208.435,222.381 208.768,224.881 208.5,227.5 Z"/></g>
<g><path style="opacity:0.886" fill="#4c7742" d="M 203.5,224.5 C 203.5,225.833 203.5,227.167 203.5,228.5C 197.017,229.676 190.683,229.676 184.5,228.5C 186.924,228.808 189.257,228.474 191.5,227.5C 190.738,227.089 189.738,226.923 188.5,227C 189.056,226.617 189.389,226.117 189.5,225.5C 194.03,225.449 198.696,225.116 203.5,224.5 Z"/></g>
<g><path style="opacity:0.916" fill="#416937" d="M 152.5,238.5 C 152.938,244.025 152.938,249.359 152.5,254.5C 151.528,253.601 150.862,252.434 150.5,251C 151.536,248.592 151.536,246.259 150.5,244C 151.109,242.052 151.776,240.218 152.5,238.5 Z"/></g>
<g><path style="opacity:0.918" fill="#436b39" d="M 152.5,254.5 C 153.729,258.367 153.729,262.2 152.5,266C 154.037,267.11 154.703,268.61 154.5,270.5C 153.504,270.586 152.671,270.252 152,269.5C 151.833,268.167 151.667,266.833 151.5,265.5C 152.419,261.644 152.753,257.977 152.5,254.5 Z"/></g>
<g><path style="opacity:0.867" fill="#3e6635" d="M 193.5,271.5 C 192.415,273.582 190.915,273.916 189,272.5C 188,273.5 187,274.5 186,275.5C 183.478,274.369 180.811,273.703 178,273.5C 174.51,274.729 171.01,274.729 167.5,273.5C 165.192,273.365 163.192,274.031 161.5,275.5C 160.914,275.291 160.414,274.957 160,274.5C 159.722,275.416 159.222,276.082 158.5,276.5C 158.167,276.5 157.833,276.5 157.5,276.5C 157.804,275.85 158.137,275.183 158.5,274.5C 157.271,273.719 155.938,273.219 154.5,273C 153.262,272.31 153.262,271.81 154.5,271.5C 168.355,272.15 181.355,272.15 193.5,271.5 Z"/></g>
<g><path style="opacity:0.443" fill="#274d1f" d="M 193.5,271.5 C 193.833,271.5 194.167,271.5 194.5,271.5C 194.611,272.117 194.944,272.617 195.5,273C 199.167,273.333 202.833,273.667 206.5,274C 204.35,275.192 203.683,276.692 204.5,278.5C 198.575,278.192 192.741,278.525 187,279.5C 184.204,278.789 181.37,278.122 178.5,277.5C 174.183,277.68 169.85,278.013 165.5,278.5C 163.018,277.933 160.684,277.266 158.5,276.5C 159.222,276.082 159.722,275.416 160,274.5C 160.414,274.957 160.914,275.291 161.5,275.5C 163.192,274.031 165.192,273.365 167.5,273.5C 171.01,274.729 174.51,274.729 178,273.5C 180.811,273.703 183.478,274.369 186,275.5C 187,274.5 188,273.5 189,272.5C 190.915,273.916 192.415,273.582 193.5,271.5 Z"/></g>
<g><path style="opacity:0.895" fill="#416938" d="M 227.5,271.5 C 222.999,272.006 218.499,273.006 214,274.5C 211.901,273.713 209.734,273.38 207.5,273.5C 207.5,275.167 207.5,276.833 207.5,278.5C 206.798,279.116 205.798,279.116 204.5,278.5C 203.683,276.692 204.35,275.192 206.5,274C 202.833,273.667 199.167,273.333 195.5,273C 194.944,272.617 194.611,272.117 194.5,271.5C 205.16,272.61 216.16,272.61 227.5,271.5 Z"/></g>
</svg>
