<?xml version="1.0" encoding="UTF-8"?>
<!DOCTYPE svg PUBLIC "-//W3C//DTD SVG 1.1//EN" "http://www.w3.org/Graphics/SVG/1.1/DTD/svg11.dtd">
<svg xmlns="http://www.w3.org/2000/svg" version="1.1" width="328px" height="313px" style="shape-rendering:geometricPrecision; text-rendering:geometricPrecision; image-rendering:optimizeQuality; fill-rule:evenodd; clip-rule:evenodd" xmlns:xlink="http://www.w3.org/1999/xlink">
<g><path style="opacity:0.118" fill="#443427" d="M 200.5,29.5 C 199.024,29.8885 197.691,29.8885 196.5,29.5C 197.405,23.0368 198.738,23.0368 200.5,29.5 Z"/></g>
<g><path style="opacity:0.004" fill="#dd552b" d="M 166.5,27.5 C 165.833,26.1667 165.833,26.1667 166.5,27.5 Z"/></g>
<g><path style="opacity:0.818" fill="#de572f" d="M 166.5,27.5 C 171.909,26.8488 177.242,27.5154 182.5,29.5C 183.72,28.2889 184.887,28.2889 186,29.5C 186.689,28.6433 187.522,27.9767 188.5,27.5C 190.943,29.0553 193.61,29.722 196.5,29.5C 197.691,29.8885 199.024,29.8885 200.5,29.5C 207.531,32.0733 214.864,33.5733 222.5,34C 230.667,36.127 238.333,39.9604 245.5,45.5C 247.81,47.1345 250.143,48.8012 252.5,50.5C 254.918,54.3331 258.252,56.9998 262.5,58.5C 263.116,60.4171 264.45,61.5838 266.5,62C 266.043,62.414 265.709,62.914 265.5,63.5C 266.5,64.3333 267.5,65.1667 268.5,66C 268.167,66.3333 267.833,66.6667 267.5,67C 268.736,68.0848 270.069,68.9181 271.5,69.5C 271.389,70.1174 271.056,70.6174 270.5,71C 271.762,73.276 273.429,75.1093 275.5,76.5C 277.028,79.5716 279.028,82.2383 281.5,84.5C 280.957,84.56 280.624,84.8933 280.5,85.5C 282.435,87.7266 284.101,90.0599 285.5,92.5C 285.557,93.609 285.89,94.609 286.5,95.5C 285.167,95.8333 285.167,96.1667 286.5,96.5C 287.684,98.9013 288.684,101.235 289.5,103.5C 289.325,107.034 289.658,110.367 290.5,113.5C 291.264,117.79 291.931,121.79 292.5,125.5C 291.648,128.497 291.982,131.497 293.5,134.5C 292.167,134.833 292.167,135.167 293.5,135.5C 293.046,137.741 293.046,139.741 293.5,141.5C 292.898,144.931 292.898,148.265 293.5,151.5C 292.167,151.833 292.167,152.167 293.5,152.5C 292.477,155.393 292.477,158.226 293.5,161C 292.833,162.333 292.167,163.667 291.5,165C 291.665,166.117 291.998,167.284 292.5,168.5C 291.885,171.039 291.218,173.539 290.5,176C 290.833,176.333 291.167,176.667 291.5,177C 288.936,187.003 285.936,196.836 282.5,206.5C 280.767,207.008 280.434,207.841 281.5,209C 280.139,210.584 279.472,212.418 279.5,214.5C 278.5,214.5 277.5,214.5 276.5,214.5C 276.915,217.368 275.915,219.535 273.5,221C 273.833,221.333 274.167,221.667 274.5,222C 273.299,222.903 272.465,224.069 272,225.5C 271.667,225.167 271.333,224.833 271,224.5C 268.169,228.158 266.002,232.158 264.5,236.5C 264.167,235.167 263.833,235.167 263.5,236.5C 262.662,236.842 262.328,237.508 262.5,238.5C 260.839,239.797 259.172,241.13 257.5,242.5C 256,243.625 254.667,244.959 253.5,246.5C 253.167,245.167 252.833,245.167 252.5,246.5C 251.659,247.926 250.659,249.26 249.5,250.5C 246.464,251.527 244.298,253.527 243,256.5C 241.687,255.713 240.52,256.046 239.5,257.5C 237.539,258.46 235.873,259.793 234.5,261.5C 234.167,260.167 233.833,260.167 233.5,261.5C 230.102,263.564 226.768,264.898 223.5,265.5C 220.333,267.659 217.667,269.659 215.5,271.5C 214.504,271.586 213.671,271.252 213,270.5C 210.456,272.267 207.956,273.934 205.5,275.5C 198.628,277.552 191.295,279.385 183.5,281C 183,281.5 182.5,282 182,282.5C 180.883,282.335 179.716,282.002 178.5,281.5C 174.981,282.932 171.314,283.766 167.5,284C 167,284.5 166.5,285 166,285.5C 161.807,284.974 157.807,284.974 154,285.5C 148.173,282.862 142.173,281.862 136,282.5C 134.757,280.167 133.091,279.5 131,280.5C 126.846,279.078 123.012,277.411 119.5,275.5C 118.504,275.414 117.671,275.748 117,276.5C 111.254,272.878 105.088,270.211 98.5,268.5C 96.9739,266.87 94.9739,266.037 92.5,266C 93.6537,265.086 93.487,264.253 92,263.5C 91.6667,263.833 91.3333,264.167 91,264.5C 88.5295,262.24 85.6962,260.573 82.5,259.5C 82.3957,257.027 81.3957,256.361 79.5,257.5C 78.3044,257.154 78.3044,256.654 79.5,256C 78.9056,255.536 78.2389,255.369 77.5,255.5C 76.4579,253.209 74.9579,252.209 73,252.5C 70.4964,248.792 67.9964,245.792 65.5,243.5C 64.7703,241.955 63.437,241.122 61.5,241C 61.9574,240.586 62.2907,240.086 62.5,239.5C 61.3063,238.201 60.3063,236.868 59.5,235.5C 58.3412,234.26 57.3412,232.926 56.5,231.5C 54.5891,227.176 51.5891,223.176 47.5,219.5C 47.7733,217.549 47.1066,216.049 45.5,215C 45.8333,214.667 46.1667,214.333 46.5,214C 44.372,212.208 43.0387,210.042 42.5,207.5C 41.9524,205.606 40.9524,203.94 39.5,202.5C 39.5,200.833 39.5,199.167 39.5,197.5C 39.1207,195.787 38.1207,194.787 36.5,194.5C 36.6617,191.49 36.6617,188.49 36.5,185.5C 35.2989,183.003 34.2989,180.669 33.5,178.5C 33.4208,177.07 33.7542,175.736 34.5,174.5C 33.689,173.784 33.0223,172.95 32.5,172C 33.6849,166.185 33.6849,160.352 32.5,154.5C 33.0253,153.808 33.6919,153.308 34.5,153C 34.6276,148.014 34.6276,143.014 34.5,138C 36.5922,137.047 36.9255,135.714 35.5,134C 37.6842,130.495 38.3509,126.828 37.5,123C 39.3939,121.899 40.0606,120.566 39.5,119C 41.3296,115.676 42.6629,112.176 43.5,108.5C 44.5375,107.07 45.2041,105.403 45.5,103.5C 47.3455,100.662 49.0121,97.6623 50.5,94.5C 51.9265,91.8059 54.0932,89.8059 57,88.5C 58.1223,86.5795 58.9556,84.5795 59.5,82.5C 60.1174,82.6107 60.6174,82.944 61,83.5C 61.1251,80.7115 61.9585,79.0448 63.5,78.5C 65.3039,76.5327 67.3039,74.6993 69.5,73C 69.1667,72.6667 68.8333,72.3333 68.5,72C 71.2081,69.3811 73.5414,66.5478 75.5,63.5C 77.0122,61.6833 79.0122,60.6833 81.5,60.5C 81.5,59.5 81.5,58.5 81.5,57.5C 83.7946,56.8645 85.4613,55.5311 86.5,53.5C 89.1651,52.1484 91.4984,50.4818 93.5,48.5C 96.1878,47.9612 98.8545,46.6279 101.5,44.5C 103.38,44.7709 104.713,44.1042 105.5,42.5C 107.403,42.2041 109.07,41.5375 110.5,40.5C 111.338,40.1583 111.672,39.4916 111.5,38.5C 112.75,38.5774 113.583,39.244 114,40.5C 114.717,39.9558 115.217,39.2891 115.5,38.5C 117.819,38.0075 119.819,37.0075 121.5,35.5C 122.492,35.6716 123.158,35.3382 123.5,34.5C 126.065,35.3098 128.565,35.6431 131,35.5C 133.519,34.0916 136.019,32.7583 138.5,31.5C 141.502,32.928 144.335,32.5946 147,30.5C 149.056,31.2018 150.889,30.5351 152.5,28.5C 154.861,29.021 157.194,29.3543 159.5,29.5C 162.066,28.292 164.399,27.6253 166.5,27.5 Z"/></g>
<g><path style="opacity:0.004" fill="#dd552b" d="M 144.5,29.5 C 145.833,30.1667 145.833,30.1667 144.5,29.5 Z"/></g>
<g><path style="opacity:0.004" fill="#dd552b" d="M 138.5,31.5 C 137.833,30.1667 137.833,30.1667 138.5,31.5 Z"/></g>
<g><path style="opacity:0.004" fill="#dd552b" d="M 123.5,34.5 C 122.833,33.1667 122.833,33.1667 123.5,34.5 Z"/></g>
<g><path style="opacity:0.004" fill="#dd552b" d="M 121.5,35.5 C 120.833,34.1667 120.833,34.1667 121.5,35.5 Z"/></g>
<g><path style="opacity:0.004" fill="#dd552b" d="M 111.5,38.5 C 110.833,37.1667 110.833,37.1667 111.5,38.5 Z"/></g>
<g><path style="opacity:0.008" fill="#dd552b" d="M 115.5,38.5 C 114.833,37.1667 114.833,37.1667 115.5,38.5 Z"/></g>
<g><path style="opacity:0.006" fill="#dd552b" d="M 110.5,40.5 C 109.761,40.631 109.094,40.4643 108.5,40C 109.437,39.3083 110.103,39.475 110.5,40.5 Z"/></g>
<g><path style="opacity:1" fill="#e1653f" d="M 172.5,41.5 C 172.631,42.2389 172.464,42.9056 172,43.5C 171.31,44.7383 170.81,44.7383 170.5,43.5C 163.809,42.509 156.809,42.8423 149.5,44.5C 147.194,44.9926 144.861,45.3259 142.5,45.5C 143.275,43.6119 143.275,41.6119 142.5,39.5C 143.822,39.33 144.989,39.6634 146,40.5C 146.324,38.4311 147.158,38.0977 148.5,39.5C 150.209,37.2897 152.209,37.123 154.5,39C 152.519,39.6054 152.185,40.6054 153.5,42C 154.935,41.6888 156.268,41.8555 157.5,42.5C 158.415,41.6721 159.081,40.6721 159.5,39.5C 158.431,39.3601 157.264,39.3601 156,39.5C 155.517,38.552 155.351,37.552 155.5,36.5C 160.232,36.3776 164.898,36.8776 169.5,38C 167.048,38.2895 164.715,38.9562 162.5,40C 165.619,41.4051 168.952,41.9051 172.5,41.5 Z"/></g>
<g><path style="opacity:0.008" fill="#dd552b" d="M 105.5,42.5 C 104.833,41.1667 104.833,41.1667 105.5,42.5 Z"/></g>
<g><path style="opacity:0.008" fill="#dd552b" d="M 101.5,44.5 C 100.833,43.1667 100.833,43.1667 101.5,44.5 Z"/></g>
<g><path style="opacity:1" fill="#f3bfb0" d="M 170.5,43.5 C 167.52,43.6203 164.687,44.287 162,45.5C 158.13,45.4807 153.963,45.1473 149.5,44.5C 156.809,42.8423 163.809,42.509 170.5,43.5 Z"/></g>
<g><path style="opacity:0.008" fill="#dd552b" d="M 245.5,44.5 C 246.833,45.1667 246.833,45.1667 245.5,44.5 Z"/></g>
<g><path style="opacity:1" fill="#e16742" d="M 142.5,45.5 C 142.461,46.7562 142.961,47.7562 144,48.5C 145.596,46.0635 147.429,45.5635 149.5,47C 148.748,47.6708 148.414,48.5041 148.5,49.5C 144.671,50.7378 140.671,51.7378 136.5,52.5C 132.988,53.5098 129.821,53.5098 127,52.5C 125.529,55.3674 123.362,56.3674 120.5,55.5C 119.713,56.2421 119.047,57.0754 118.5,58C 115.524,58.7048 112.858,59.8714 110.5,61.5C 109.07,61.4208 107.736,61.7542 106.5,62.5C 103.689,64.8683 101.023,67.2016 98.5,69.5C 96.7068,66.0529 97.7068,63.5529 101.5,62C 100.66,60.3335 101.16,60.1669 103,61.5C 105.682,58.1468 109.015,56.8134 113,57.5C 114.217,55.4798 114.383,53.4798 113.5,51.5C 115.042,51.3061 116.375,50.1394 117.5,48C 114.12,47.7583 110.954,48.5917 108,50.5C 107.5,50.3333 107,50.1667 106.5,50C 112.524,46.4914 118.857,43.6581 125.5,41.5C 126.647,41.8178 127.481,42.4844 128,43.5C 129.066,41.9005 130.566,40.9005 132.5,40.5C 132.911,41.2624 133.077,42.2624 133,43.5C 133.928,41.6652 135.094,41.3318 136.5,42.5C 137.532,40.9604 138.865,40.4604 140.5,41C 139.833,42.857 140.5,44.357 142.5,45.5 Z"/></g>
<g><path style="opacity:1" fill="#fdfcfb" d="M 194.5,48.5 C 192.614,62.807 190.947,77.1403 189.5,91.5C 188.167,91.5 186.833,91.5 185.5,91.5C 182.224,90.47 178.89,90.8033 175.5,92.5C 173.167,94.5 170.833,96.5 168.5,98.5C 167.865,101.099 166.865,103.432 165.5,105.5C 164.883,105.611 164.383,105.944 164,106.5C 162.26,100.693 159.76,95.3598 156.5,90.5C 152.143,86.208 147.976,81.5413 144,76.5C 143.667,77.1667 143.333,77.8333 143,78.5C 142.667,77.1667 142.333,75.8333 142,74.5C 141.667,74.8333 141.333,75.1667 141,75.5C 138.861,72.0274 136.027,69.1941 132.5,67C 130.19,66.5034 127.857,66.3367 125.5,66.5C 125.232,68.099 125.566,69.4324 126.5,70.5C 133.131,77.8008 139.798,85.1341 146.5,92.5C 146.812,95.2733 147.978,97.6066 150,99.5C 152.312,109.565 154.812,119.565 157.5,129.5C 156.873,130.417 156.539,131.417 156.5,132.5C 154.574,131.758 152.741,130.758 151,129.5C 140.001,114.344 127.834,100.344 114.5,87.5C 111.476,83.1517 108.143,79.1517 104.5,75.5C 102.836,74.2568 101.669,72.5902 101,70.5C 100.329,69.7476 99.4959,69.4142 98.5,69.5C 101.023,67.2016 103.689,64.8683 106.5,62.5C 107.736,61.7542 109.07,61.4208 110.5,61.5C 111.738,61.81 111.738,62.31 110.5,63C 107.402,64.843 104.402,66.843 101.5,69C 102.833,69.6667 104.167,69.6667 105.5,69C 114.962,63.8622 124.628,59.1955 134.5,55C 135.381,54.2917 136.047,53.4584 136.5,52.5C 140.671,51.7378 144.671,50.7378 148.5,49.5C 151.212,49.2625 153.712,49.2625 156,49.5C 157.482,47.2189 159.149,47.2189 161,49.5C 163.667,48.8333 166.333,48.1667 169,47.5C 169.667,48.1667 170.333,48.8333 171,49.5C 172.113,48.2889 173.28,48.2889 174.5,49.5C 175.992,47.8339 177.825,46.8339 180,46.5C 184.615,47.1629 189.448,47.8296 194.5,48.5 Z"/></g>
<g><path style="opacity:1" fill="#e68a6e" d="M 172.5,41.5 C 175.42,40.9344 178.253,41.6011 181,43.5C 184.319,43.0031 187.653,42.6698 191,42.5C 193.899,42.9767 196.566,43.9767 199,45.5C 203.569,44.3828 208.069,44.3828 212.5,45.5C 218.322,47.9549 224.322,49.7882 230.5,51C 231.942,51.3768 232.942,52.2101 233.5,53.5C 233.082,54.2216 232.416,54.7216 231.5,55C 233.925,55.2927 235.758,56.4593 237,58.5C 237.333,58.1667 237.667,57.8333 238,57.5C 239.38,60.5816 242.214,62.7483 246.5,64C 245.058,64.3768 244.058,65.2101 243.5,66.5C 243.167,66.5 242.833,66.5 242.5,66.5C 237.391,64.111 232.391,61.4444 227.5,58.5C 227.649,57.448 227.483,56.448 227,55.5C 226.667,55.8333 226.333,56.1667 226,56.5C 223.845,54.0641 221.178,52.3974 218,51.5C 217.235,51.5699 216.735,51.9033 216.5,52.5C 211.005,51.8011 205.671,50.4678 200.5,48.5C 199.817,48.8627 199.15,49.1961 198.5,49.5C 197.432,48.5655 196.099,48.2322 194.5,48.5C 189.448,47.8296 184.615,47.1629 180,46.5C 177.825,46.8339 175.992,47.8339 174.5,49.5C 173.28,48.2889 172.113,48.2889 171,49.5C 170.333,48.8333 169.667,48.1667 169,47.5C 166.333,48.1667 163.667,48.8333 161,49.5C 159.149,47.2189 157.482,47.2189 156,49.5C 153.712,49.2625 151.212,49.2625 148.5,49.5C 148.414,48.5041 148.748,47.6708 149.5,47C 147.429,45.5635 145.596,46.0635 144,48.5C 142.961,47.7562 142.461,46.7562 142.5,45.5C 144.861,45.3259 147.194,44.9926 149.5,44.5C 153.963,45.1473 158.13,45.4807 162,45.5C 164.687,44.287 167.52,43.6203 170.5,43.5C 170.81,44.7383 171.31,44.7383 172,43.5C 172.464,42.9056 172.631,42.2389 172.5,41.5 Z"/></g>
<g><path style="opacity:0.004" fill="#dd552b" d="M 93.5,48.5 C 92.8333,47.1667 92.8333,47.1667 93.5,48.5 Z"/></g>
<g><path style="opacity:1" fill="#fdfcfc" d="M 216.5,52.5 C 220.142,54.4586 223.809,56.4586 227.5,58.5C 232.391,61.4444 237.391,64.111 242.5,66.5C 240.064,68.4657 237.231,69.799 234,70.5C 232.69,71.1301 231.856,72.1301 231.5,73.5C 228.821,74.8553 226.154,76.1887 223.5,77.5C 223.5,78.5 223.5,79.5 223.5,80.5C 221.567,80.7286 219.9,81.5619 218.5,83C 213.646,87.4128 209.313,92.2462 205.5,97.5C 204.062,101.274 201.395,103.607 197.5,104.5C 197.067,101.834 196.567,99.1677 196,96.5C 195.667,96.8333 195.333,97.1667 195,97.5C 194.722,96.5842 194.222,95.9175 193.5,95.5C 197.089,80.3492 198.756,65.0159 198.5,49.5C 199.15,49.1961 199.817,48.8627 200.5,48.5C 205.671,50.4678 211.005,51.8011 216.5,52.5 Z"/></g>
<g><path style="opacity:0.004" fill="#dd552b" d="M 252.5,49.5 C 253.833,50.1667 253.833,50.1667 252.5,49.5 Z"/></g>
<g><path style="opacity:0.004" fill="#dd552b" d="M 86.5,51.5 C 87.8333,52.1667 87.8333,52.1667 86.5,51.5 Z"/></g>
<g><path style="opacity:0.004" fill="#dd552b" d="M 86.5,52.5 C 86.5,52.8333 86.5,53.1667 86.5,53.5C 85.8299,53.0187 85.8299,52.6853 86.5,52.5 Z"/></g>
<g><path style="opacity:0.004" fill="#dd552b" d="M 81.5,57.5 C 80.8333,56.1667 80.8333,56.1667 81.5,57.5 Z"/></g>
<g><path style="opacity:1" fill="#eea792" d="M 227.5,58.5 C 223.809,56.4586 220.142,54.4586 216.5,52.5C 216.735,51.9033 217.235,51.5699 218,51.5C 221.178,52.3974 223.845,54.0641 226,56.5C 226.333,56.1667 226.667,55.8333 227,55.5C 227.483,56.448 227.649,57.448 227.5,58.5 Z"/></g>
<g><path style="opacity:0.004" fill="#dd552b" d="M 262.5,57.5 C 261.833,56.1667 261.833,56.1667 262.5,57.5 Z"/></g>
<g><path style="opacity:0.004" fill="#dd552b" d="M 262.5,57.5 C 263.833,58.1667 263.833,58.1667 262.5,57.5 Z"/></g>
<g><path style="opacity:1" fill="#eea690" d="M 136.5,52.5 C 136.047,53.4584 135.381,54.2917 134.5,55C 124.628,59.1955 114.962,63.8622 105.5,69C 104.167,69.6667 102.833,69.6667 101.5,69C 104.402,66.843 107.402,64.843 110.5,63C 111.738,62.31 111.738,61.81 110.5,61.5C 112.858,59.8714 115.524,58.7048 118.5,58C 119.047,57.0754 119.713,56.2421 120.5,55.5C 123.362,56.3674 125.529,55.3674 127,52.5C 129.821,53.5098 132.988,53.5098 136.5,52.5 Z"/></g>
<g><path style="opacity:0.004" fill="#dd552b" d="M 75.5,61.5 C 76.8333,62.1667 76.8333,62.1667 75.5,61.5 Z"/></g>
<g><path style="opacity:0.004" fill="#dd552b" d="M 75.5,62.5 C 75.5,62.8333 75.5,63.1667 75.5,63.5C 74.8299,63.0187 74.8299,62.6853 75.5,62.5 Z"/></g>
<g><path style="opacity:1" fill="#e17453" d="M 233.5,53.5 C 238.478,55.8543 243.145,58.5209 247.5,61.5C 247.48,63.143 248.147,64.4763 249.5,65.5C 249.154,66.6956 248.654,66.6956 248,65.5C 247.333,66.1667 247.333,66.8333 248,67.5C 249.518,67.0574 250.685,67.7241 251.5,69.5C 252.086,69.2907 252.586,68.9574 253,68.5C 255.102,70.0948 256.602,72.0948 257.5,74.5C 256.041,74.5674 254.708,74.2341 253.5,73.5C 251.093,72.2055 248.926,70.5389 247,68.5C 246.617,69.056 246.117,69.3893 245.5,69.5C 244.833,68.5 244.167,67.5 243.5,66.5C 244.058,65.2101 245.058,64.3768 246.5,64C 242.214,62.7483 239.38,60.5816 238,57.5C 237.667,57.8333 237.333,58.1667 237,58.5C 235.758,56.4593 233.925,55.2927 231.5,55C 232.416,54.7216 233.082,54.2216 233.5,53.5 Z"/></g>
<g><path style="opacity:0.008" fill="#dd552b" d="M 271.5,68.5 C 272.833,69.1667 272.833,69.1667 271.5,68.5 Z"/></g>
<g><path style="opacity:1" fill="#fdfdfd" d="M 253.5,73.5 C 256.971,80.4357 260.971,87.1023 265.5,93.5C 267.436,98.602 269.603,103.602 272,108.5C 272.708,109.381 273.542,110.047 274.5,110.5C 275.865,113.736 276.865,117.069 277.5,120.5C 278.383,132.96 278.716,145.293 278.5,157.5C 278.5,158.5 278.5,159.5 278.5,160.5C 277.141,169.251 275.141,177.917 272.5,186.5C 272.5,186.833 272.5,187.167 272.5,187.5C 270.415,189.684 269.415,192.351 269.5,195.5C 268.504,195.414 267.671,195.748 267,196.5C 265.57,199.353 264.737,202.353 264.5,205.5C 262.277,208.144 260.611,211.144 259.5,214.5C 259.167,214.5 258.833,214.5 258.5,214.5C 257.5,214.167 256.833,213.5 256.5,212.5C 257.573,211.749 257.74,210.749 257,209.5C 250.032,199.721 243.199,189.888 236.5,180C 235.552,179.517 234.552,179.351 233.5,179.5C 225.723,175.537 217.389,173.204 208.5,172.5C 206.829,170.992 204.996,170.659 203,171.5C 200.931,170.736 198.764,170.236 196.5,170C 195.484,169.481 194.818,168.647 194.5,167.5C 195.061,164.465 195.727,161.465 196.5,158.5C 196.291,157.914 195.957,157.414 195.5,157C 197.202,154.765 198.202,152.265 198.5,149.5C 209.545,148.109 220.211,146.109 230.5,143.5C 236.366,147.597 242.032,151.93 247.5,156.5C 248.5,157.167 249.5,157.833 250.5,158.5C 252.559,163.682 256.226,166.015 261.5,165.5C 262.819,159.468 260.819,154.802 255.5,151.5C 248.499,145.357 241.332,138.69 234,131.5C 231.816,130.892 229.816,131.559 228,133.5C 225.959,132.577 223.792,132.244 221.5,132.5C 218.648,133.258 215.981,133.258 213.5,132.5C 215.017,132.489 216.184,131.823 217,130.5C 218.816,127.558 220.316,124.558 221.5,121.5C 223.09,121.372 224.423,120.705 225.5,119.5C 223.527,116.36 221.36,113.36 219,110.5C 218.184,109.177 217.017,108.511 215.5,108.5C 215.167,108.5 214.833,108.5 214.5,108.5C 213.146,106.304 211.146,104.804 208.5,104C 209.823,103.184 210.489,102.017 210.5,100.5C 211.117,100.611 211.617,100.944 212,101.5C 215,97.5 218,93.5 221,89.5C 225.825,85.4109 230.658,81.4109 235.5,77.5C 238.232,74.1039 241.565,71.4372 245.5,69.5C 246.117,69.3893 246.617,69.056 247,68.5C 248.926,70.5389 251.093,72.2055 253.5,73.5 Z"/></g>
<g><path style="opacity:1" fill="#aaa5a0" d="M 242.5,66.5 C 242.833,66.5 243.167,66.5 243.5,66.5C 244.167,67.5 244.833,68.5 245.5,69.5C 241.565,71.4372 238.232,74.1039 235.5,77.5C 235.047,76.5416 234.381,75.7083 233.5,75C 234.5,74.5 235.5,74 236.5,73.5C 237.521,72.9984 237.688,72.3317 237,71.5C 235.275,72.464 233.441,73.1307 231.5,73.5C 231.856,72.1301 232.69,71.1301 234,70.5C 237.231,69.799 240.064,68.4657 242.5,66.5 Z"/></g>
<g><path style="opacity:1" fill="#716a62" d="M 194.5,48.5 C 196.099,48.2322 197.432,48.5655 198.5,49.5C 198.756,65.0159 197.089,80.3492 193.5,95.5C 192.768,94.1917 191.934,92.8584 191,91.5C 189.215,92.2401 187.382,92.9067 185.5,93.5C 184.537,93.0302 184.537,92.3635 185.5,91.5C 186.833,91.5 188.167,91.5 189.5,91.5C 190.947,77.1403 192.614,62.807 194.5,48.5 Z"/></g>
<g><path style="opacity:0.004" fill="#dd552b" d="M 275.5,75.5 C 276.833,76.1667 276.833,76.1667 275.5,75.5 Z"/></g>
<g><path style="opacity:0.012" fill="#dd552b" d="M 63.5,78.5 C 62.8333,77.1667 62.8333,77.1667 63.5,78.5 Z"/></g>
<g><path style="opacity:0.004" fill="#dd552b" d="M 59.5,82.5 C 58.8333,81.1667 58.8333,81.1667 59.5,82.5 Z"/></g>
<g><path style="opacity:1" fill="#948e88" d="M 156.5,90.5 C 155.833,90.5 155.167,90.5 154.5,90.5C 146.326,83.672 138.326,76.3387 130.5,68.5C 128.167,67.0585 126.834,67.7252 126.5,70.5C 125.566,69.4324 125.232,68.099 125.5,66.5C 127.857,66.3367 130.19,66.5034 132.5,67C 136.027,69.1941 138.861,72.0274 141,75.5C 141.333,75.1667 141.667,74.8333 142,74.5C 142.333,75.8333 142.667,77.1667 143,78.5C 143.333,77.8333 143.667,77.1667 144,76.5C 147.976,81.5413 152.143,86.208 156.5,90.5 Z"/></g>
<g><path style="opacity:0.996" fill="#e1643e" d="M 247.5,61.5 C 252.486,65.0713 257.653,69.4047 263,74.5C 267.694,79.8643 272.027,85.531 276,91.5C 276.483,92.448 276.649,93.448 276.5,94.5C 272.299,94.442 271.799,95.442 275,97.5C 276.079,100.063 276.579,102.729 276.5,105.5C 278.592,105.561 280.092,106.561 281,108.5C 281.333,107.5 281.667,106.5 282,105.5C 282.251,107.433 282.751,109.266 283.5,111C 283.167,111.333 282.833,111.667 282.5,112C 283.43,113.194 284.097,114.527 284.5,116C 283.713,118.099 283.38,120.266 283.5,122.5C 282.5,122.5 281.5,122.5 280.5,122.5C 280.179,120.952 279.179,120.285 277.5,120.5C 276.865,117.069 275.865,113.736 274.5,110.5C 272.707,105.53 271.041,100.53 269.5,95.5C 267.141,90.6273 264.141,86.1273 260.5,82C 261.167,81.6667 261.833,81.3333 262.5,81C 261.139,79.4157 260.472,77.5824 260.5,75.5C 259.209,75.7373 258.209,75.404 257.5,74.5C 256.602,72.0948 255.102,70.0948 253,68.5C 252.586,68.9574 252.086,69.2907 251.5,69.5C 250.685,67.7241 249.518,67.0574 248,67.5C 247.333,66.8333 247.333,66.1667 248,65.5C 248.654,66.6956 249.154,66.6956 249.5,65.5C 248.147,64.4763 247.48,63.143 247.5,61.5 Z"/></g>
<g><path style="opacity:1" fill="#fdfdfc" d="M 91.5,89.5 C 94.5275,92.6921 97.3608,96.0254 100,99.5C 103.692,102.365 107.192,105.365 110.5,108.5C 112.167,112.167 114.833,114.833 118.5,116.5C 122.601,121.703 126.934,126.703 131.5,131.5C 134.133,135.736 137.466,139.403 141.5,142.5C 142.429,143.689 142.762,145.022 142.5,146.5C 142.44,147.043 142.107,147.376 141.5,147.5C 140.3,146.469 138.966,145.635 137.5,145C 132.857,139.375 127.857,134.208 122.5,129.5C 120.146,126.149 117.146,123.482 113.5,121.5C 112.599,119.273 110.933,118.273 108.5,118.5C 106.447,118.598 104.78,117.931 103.5,116.5C 99.9889,114.69 96.3222,113.024 92.5,111.5C 91.0193,109.753 89.0193,108.586 86.5,108C 82.9049,107.416 79.4049,106.582 76,105.5C 74.2942,106.308 73.4609,107.641 73.5,109.5C 74.552,109.351 75.552,109.517 76.5,110C 76.1667,110.333 75.8333,110.667 75.5,111C 79.3944,113.446 83.3944,115.612 87.5,117.5C 94.0356,121.599 101.036,124.933 108.5,127.5C 109.833,127.5 110.5,128.167 110.5,129.5C 111.402,131.341 112.736,132.674 114.5,133.5C 114.554,135.632 115.554,136.965 117.5,137.5C 120.949,144.731 125.616,151.065 131.5,156.5C 132.1,157.9 133.1,158.9 134.5,159.5C 132.415,166.638 130.082,173.638 127.5,180.5C 126.666,181.748 125.333,182.415 123.5,182.5C 117.486,183.028 111.819,183.362 106.5,183.5C 102.748,182.623 99.0818,182.957 95.5,184.5C 93.0074,185.747 90.5074,185.747 88,184.5C 86.699,184.639 85.8656,185.305 85.5,186.5C 82.9901,192.896 80.9901,199.563 79.5,206.5C 79.6236,207.107 79.9569,207.44 80.5,207.5C 80.5,207.833 80.5,208.167 80.5,208.5C 79.0687,209.78 78.4021,211.447 78.5,213.5C 77.7186,218.418 77.2186,223.418 77,228.5C 76.0138,227.829 74.8471,227.829 73.5,228.5C 73.0075,226.181 72.0075,224.181 70.5,222.5C 69.8333,222.833 69.1667,223.167 68.5,223.5C 68.0961,219.773 66.7628,216.44 64.5,213.5C 59.4607,200.162 55.1274,186.829 51.5,173.5C 51.5,173.167 51.5,172.833 51.5,172.5C 51.7874,168.983 51.7874,165.316 51.5,161.5C 50.9332,159.97 50.2666,158.47 49.5,157C 49.5873,155.25 50.254,153.417 51.5,151.5C 52.8112,149.44 52.8112,147.274 51.5,145C 55.1532,140.5 57.1532,135.333 57.5,129.5C 58.7239,123.26 60.5573,117.26 63,111.5C 66.2618,107.643 68.4284,103.31 69.5,98.5C 71.2959,97.2073 72.9625,95.7073 74.5,94C 74.1667,93.6667 73.8333,93.3333 73.5,93C 76.9766,89.5141 80.1432,85.6807 83,81.5C 85.047,85.0483 87.8803,87.715 91.5,89.5 Z"/></g>
<g><path style="opacity:1" fill="#e4704d" d="M 104.5,75.5 C 108.143,79.1517 111.476,83.1517 114.5,87.5C 112.071,87.415 110.071,86.415 108.5,84.5C 107.359,83.5745 107.359,82.7412 108.5,82C 106.281,80.3994 104.948,78.2328 104.5,75.5 Z"/></g>
<g><path style="opacity:0.004" fill="#dd552b" d="M 281.5,84.5 C 282.833,85.1667 282.833,85.1667 281.5,84.5 Z"/></g>
<g><path style="opacity:1" fill="#e88566" d="M 100.5,91.5 C 101.29,92.7942 102.29,93.9609 103.5,95C 103,95.1667 102.5,95.3333 102,95.5C 99.0726,93.668 96.5726,91.3347 94.5,88.5C 92.7751,86.9084 91.7751,87.2417 91.5,89.5C 87.8803,87.715 85.047,85.0483 83,81.5C 80.1432,85.6807 76.9766,89.5141 73.5,93C 73.8333,93.3333 74.1667,93.6667 74.5,94C 72.9625,95.7073 71.2959,97.2073 69.5,98.5C 70.2094,94.8261 71.8761,91.6594 74.5,89C 73.8333,88.6667 73.1667,88.3333 72.5,88C 76.5238,84.9686 80.5238,81.9686 84.5,79C 83.1667,78 83.1667,77 84.5,76C 86.1341,75.5065 87.8008,75.3398 89.5,75.5C 89.3505,76.552 89.5172,77.552 90,78.5C 94.0924,82.4184 97.5924,86.7517 100.5,91.5 Z"/></g>
<g><path style="opacity:1" fill="#f2b9a7" d="M 85.5,78.5 C 85.56,77.9569 85.8933,77.6236 86.5,77.5C 87.5,78.5 88.5,79.5 89.5,80.5C 91.1392,81.916 91.9725,83.5826 92,85.5C 88.8932,83.8987 86.7265,81.5653 85.5,78.5 Z"/></g>
<g><path style="opacity:1" fill="#f0ae9a" d="M 253.5,73.5 C 254.708,74.2341 256.041,74.5674 257.5,74.5C 258.209,75.404 259.209,75.7373 260.5,75.5C 260.472,77.5824 261.139,79.4157 262.5,81C 261.833,81.3333 261.167,81.6667 260.5,82C 264.141,86.1273 267.141,90.6273 269.5,95.5C 268.883,95.6107 268.383,95.944 268,96.5C 267.148,95.4293 266.315,94.4293 265.5,93.5C 260.971,87.1023 256.971,80.4357 253.5,73.5 Z"/></g>
<g><path style="opacity:0.004" fill="#dd552b" d="M 50.5,91.5 C 51.8333,92.1667 51.8333,92.1667 50.5,91.5 Z"/></g>
<g><path style="opacity:0.004" fill="#dd552b" d="M 285.5,91.5 C 286.833,92.1667 286.833,92.1667 285.5,91.5 Z"/></g>
<g><path style="opacity:1" fill="#87807a" d="M 235.5,77.5 C 230.658,81.4109 225.825,85.4109 221,89.5C 218,93.5 215,97.5 212,101.5C 211.617,100.944 211.117,100.611 210.5,100.5C 210.062,100.565 209.728,100.399 209.5,100C 212.468,98.7367 213.468,96.7367 212.5,94C 211.5,93.3333 210.5,93.3333 209.5,94C 208.897,96.0714 207.564,97.2381 205.5,97.5C 209.313,92.2462 213.646,87.4128 218.5,83C 219.9,81.5619 221.567,80.7286 223.5,80.5C 223.5,79.5 223.5,78.5 223.5,77.5C 226.154,76.1887 228.821,74.8553 231.5,73.5C 233.441,73.1307 235.275,72.464 237,71.5C 237.688,72.3317 237.521,72.9984 236.5,73.5C 235.5,74 234.5,74.5 233.5,75C 234.381,75.7083 235.047,76.5416 235.5,77.5 Z"/></g>
<g><path style="opacity:0.004" fill="#dd552b" d="M 50.5,94.5 C 49.8333,93.1667 49.8333,93.1667 50.5,94.5 Z"/></g>
<g><path style="opacity:0.008" fill="#dd552b" d="M 286.5,95.5 C 287.833,96.1667 287.833,96.1667 286.5,95.5 Z"/></g>
<g><path style="opacity:1" fill="#3f3734" d="M 185.5,91.5 C 184.537,92.3635 184.537,93.0302 185.5,93.5C 187.382,92.9067 189.215,92.2401 191,91.5C 191.934,92.8584 192.768,94.1917 193.5,95.5C 193.319,98.553 193.152,101.553 193,104.5C 194.067,105.191 195.234,105.691 196.5,106C 194.729,106.535 194.396,107.369 195.5,108.5C 196.799,107.91 197.632,106.91 198,105.5C 198.273,107.101 198.773,108.601 199.5,110C 197.444,112.614 195.777,115.447 194.5,118.5C 193.199,119.64 192.032,120.973 191,122.5C 190.365,121.034 189.531,119.7 188.5,118.5C 189.397,118.331 190.397,117.998 191.5,117.5C 192.326,116.549 192.492,115.549 192,114.5C 189.223,113.839 186.389,112.839 183.5,111.5C 183.005,109.548 182.672,107.548 182.5,105.5C 183.274,102.669 184.274,100.003 185.5,97.5C 183.396,97.2011 181.396,97.5344 179.5,98.5C 178.533,99.984 177.2,100.984 175.5,101.5C 173.914,102.675 172.414,104.009 171,105.5C 170.607,107.199 171.107,108.699 172.5,110C 172.056,111.762 171.556,111.595 171,109.5C 170.506,111.134 170.34,112.801 170.5,114.5C 174.102,114.678 174.102,115.678 170.5,117.5C 169.914,117.291 169.414,116.957 169,116.5C 169.077,117.738 168.911,118.738 168.5,119.5C 167.174,116.906 165.84,113.906 164.5,110.5C 165.451,109.081 165.784,107.415 165.5,105.5C 166.865,103.432 167.865,101.099 168.5,98.5C 170.833,96.5 173.167,94.5 175.5,92.5C 178.89,90.8033 182.224,90.47 185.5,91.5 Z"/></g>
<g><path style="opacity:1" fill="#f1f0f0" d="M 183.5,111.5 C 183.756,113.776 185.09,114.943 187.5,115C 186.429,115.852 185.429,116.685 184.5,117.5C 181.794,117.425 179.127,117.092 176.5,116.5C 176.167,116.5 175.833,116.5 175.5,116.5C 172.925,111.438 172.925,106.438 175.5,101.5C 177.2,100.984 178.533,99.984 179.5,98.5C 181.396,97.5344 183.396,97.2011 185.5,97.5C 184.274,100.003 183.274,102.669 182.5,105.5C 182.672,107.548 183.005,109.548 183.5,111.5 Z"/></g>
<g><path style="opacity:1" fill="#615954" d="M 210.5,100.5 C 210.489,102.017 209.823,103.184 208.5,104C 211.146,104.804 213.146,106.304 214.5,108.5C 212.629,109.797 210.629,110.797 208.5,111.5C 202.251,111.547 198.585,114.547 197.5,120.5C 197.741,117.001 196.908,116.668 195,119.5C 194.601,119.272 194.435,118.938 194.5,118.5C 195.777,115.447 197.444,112.614 199.5,110C 198.773,108.601 198.273,107.101 198,105.5C 197.632,106.91 196.799,107.91 195.5,108.5C 194.396,107.369 194.729,106.535 196.5,106C 195.234,105.691 194.067,105.191 193,104.5C 193.152,101.553 193.319,98.553 193.5,95.5C 194.222,95.9175 194.722,96.5842 195,97.5C 195.333,97.1667 195.667,96.8333 196,96.5C 196.567,99.1677 197.067,101.834 197.5,104.5C 201.395,103.607 204.062,101.274 205.5,97.5C 207.564,97.2381 208.897,96.0714 209.5,94C 210.5,93.3333 211.5,93.3333 212.5,94C 213.468,96.7367 212.468,98.7367 209.5,100C 209.728,100.399 210.062,100.565 210.5,100.5 Z"/></g>
<g><path style="opacity:1" fill="#f5ccbf" d="M 265.5,93.5 C 266.315,94.4293 267.148,95.4293 268,96.5C 268.383,95.944 268.883,95.6107 269.5,95.5C 271.041,100.53 272.707,105.53 274.5,110.5C 273.542,110.047 272.708,109.381 272,108.5C 269.603,103.602 267.436,98.602 265.5,93.5 Z"/></g>
<g><path style="opacity:0.004" fill="#dd552b" d="M 45.5,103.5 C 44.8333,102.167 44.8333,102.167 45.5,103.5 Z"/></g>
<g><path style="opacity:1" fill="#a49f9a" d="M 156.5,90.5 C 159.76,95.3598 162.26,100.693 164,106.5C 164.383,105.944 164.883,105.611 165.5,105.5C 165.784,107.415 165.451,109.081 164.5,110.5C 163.883,110.611 163.383,110.944 163,111.5C 161.89,109.603 161.724,107.77 162.5,106C 159.43,102.934 158.096,99.4335 158.5,95.5C 157.05,94.1502 156.383,92.4835 156.5,90.5 Z"/></g>
<g><path style="opacity:0.004" fill="#dd552b" d="M 289.5,102.5 C 290.833,103.167 290.833,103.167 289.5,102.5 Z"/></g>
<g><path style="opacity:1" fill="#645c53" d="M 146.5,92.5 C 148.487,93.1642 150.154,94.3308 151.5,96C 151.167,96.3333 150.833,96.6667 150.5,97C 153.886,100.746 154.886,104.746 153.5,109C 153.611,110.722 154.111,110.888 155,109.5C 155.417,112.422 156.417,115.089 158,117.5C 159.064,121.446 159.897,125.446 160.5,129.5C 157.926,131.63 158.259,133.296 161.5,134.5C 160.791,135.404 159.791,135.737 158.5,135.5C 157.833,134.5 157.167,133.5 156.5,132.5C 156.539,131.417 156.873,130.417 157.5,129.5C 154.812,119.565 152.312,109.565 150,99.5C 147.978,97.6066 146.812,95.2733 146.5,92.5 Z"/></g>
<g><path style="opacity:0.004" fill="#dd552b" d="M 43.5,108.5 C 42.8333,107.167 42.8333,107.167 43.5,108.5 Z"/></g>
<g><path style="opacity:1" fill="#837d76" d="M 92.5,111.5 C 89.8808,111.003 87.0475,111.003 84,111.5C 83.5078,112.549 83.6744,113.549 84.5,114.5C 85.9935,115.141 86.9935,116.141 87.5,117.5C 83.3944,115.612 79.3944,113.446 75.5,111C 75.8333,110.667 76.1667,110.333 76.5,110C 75.552,109.517 74.552,109.351 73.5,109.5C 73.4609,107.641 74.2942,106.308 76,105.5C 79.4049,106.582 82.9049,107.416 86.5,108C 89.0193,108.586 91.0193,109.753 92.5,111.5 Z"/></g>
<g><path style="opacity:1" fill="#4b4138" d="M 154.5,90.5 C 155.067,92.0295 155.733,93.5295 156.5,95C 156.054,97.2529 155.888,99.7529 156,102.5C 160.628,109.862 162.794,117.695 162.5,126C 165.142,126.255 166.975,125.089 168,122.5C 168.333,122.833 168.667,123.167 169,123.5C 169.985,120.017 172.151,117.684 175.5,116.5C 175.833,116.5 176.167,116.5 176.5,116.5C 176.5,117.5 176.5,118.5 176.5,119.5C 178.467,119.261 180.301,119.594 182,120.5C 182.698,119.309 183.531,118.309 184.5,117.5C 185.429,116.685 186.429,115.852 187.5,115C 185.09,114.943 183.756,113.776 183.5,111.5C 186.389,112.839 189.223,113.839 192,114.5C 192.492,115.549 192.326,116.549 191.5,117.5C 190.397,117.998 189.397,118.331 188.5,118.5C 189.531,119.7 190.365,121.034 191,122.5C 192.032,120.973 193.199,119.64 194.5,118.5C 194.435,118.938 194.601,119.272 195,119.5C 196.908,116.668 197.741,117.001 197.5,120.5C 196.778,120.918 196.278,121.584 196,122.5C 195.667,122.167 195.333,121.833 195,121.5C 195.979,123.279 195.646,124.945 194,126.5C 193.28,124.944 192.113,123.944 190.5,123.5C 188.243,123.962 186.243,124.962 184.5,126.5C 180.417,126.05 176.084,125.883 171.5,126C 168.321,129.078 164.988,131.912 161.5,134.5C 158.259,133.296 157.926,131.63 160.5,129.5C 159.897,125.446 159.064,121.446 158,117.5C 156.417,115.089 155.417,112.422 155,109.5C 154.111,110.888 153.611,110.722 153.5,109C 154.886,104.746 153.886,100.746 150.5,97C 150.833,96.6667 151.167,96.3333 151.5,96C 150.154,94.3308 148.487,93.1642 146.5,92.5C 139.798,85.1341 133.131,77.8008 126.5,70.5C 126.834,67.7252 128.167,67.0585 130.5,68.5C 138.326,76.3387 146.326,83.672 154.5,90.5 Z"/></g>
<g><path style="opacity:1" fill="#f7f7f7" d="M 208.5,111.5 C 208.5,112.167 208.833,112.5 209.5,112.5C 208.385,114.307 207.719,116.307 207.5,118.5C 207.52,119.726 207.853,120.726 208.5,121.5C 208.427,123.027 209.094,124.027 210.5,124.5C 210.611,125.117 210.944,125.617 211.5,126C 209.804,127.176 208.138,128.343 206.5,129.5C 203.148,129.47 200.482,128.137 198.5,125.5C 198.371,123.784 198.038,122.117 197.5,120.5C 198.585,114.547 202.251,111.547 208.5,111.5 Z"/></g>
<g><path style="opacity:1" fill="#675f57" d="M 92.5,111.5 C 96.3222,113.024 99.9889,114.69 103.5,116.5C 98.7556,118.361 94.7556,117.361 91.5,113.5C 90.5748,114.357 89.9081,115.357 89.5,116.5C 88.8333,116.833 88.1667,117.167 87.5,117.5C 86.9935,116.141 85.9935,115.141 84.5,114.5C 83.6744,113.549 83.5078,112.549 84,111.5C 87.0475,111.003 89.8808,111.003 92.5,111.5 Z"/></g>
<g><path style="opacity:0.004" fill="#dd552b" d="M 290.5,112.5 C 291.833,113.167 291.833,113.167 290.5,112.5 Z"/></g>
<g><path style="opacity:1" fill="#e36e4a" d="M 100.5,91.5 C 100.435,91.0618 100.601,90.7284 101,90.5C 110.797,100.668 120.297,111.168 129.5,122C 129.167,122.333 128.833,122.667 128.5,123C 131.943,123.221 132.276,124.221 129.5,126C 130.449,126.617 131.282,126.451 132,125.5C 133.193,127.497 134.693,129.164 136.5,130.5C 135.265,130.721 134.265,131.388 133.5,132.5C 132.817,132.137 132.15,131.804 131.5,131.5C 126.934,126.703 122.601,121.703 118.5,116.5C 116.167,113.5 113.5,110.833 110.5,108.5C 107.192,105.365 103.692,102.365 100,99.5C 97.3608,96.0254 94.5275,92.6921 91.5,89.5C 91.7751,87.2417 92.7751,86.9084 94.5,88.5C 96.5726,91.3347 99.0726,93.668 102,95.5C 102.5,95.3333 103,95.1667 103.5,95C 102.29,93.9609 101.29,92.7942 100.5,91.5 Z"/></g>
<g><path style="opacity:1" fill="#f1b5a3" d="M 110.5,108.5 C 113.5,110.833 116.167,113.5 118.5,116.5C 114.833,114.833 112.167,112.167 110.5,108.5 Z"/></g>
<g><path style="opacity:1" fill="#e88769" d="M 69.5,98.5 C 68.4284,103.31 66.2618,107.643 63,111.5C 60.5573,117.26 58.7239,123.26 57.5,129.5C 55.6214,129.393 55.2881,129.893 56.5,131C 55.6705,132.816 54.8372,134.649 54,136.5C 53.3292,137.252 52.4959,137.586 51.5,137.5C 51.5,136.5 51.5,135.5 51.5,134.5C 52.2285,128.361 53.3952,122.361 55,116.5C 55.4652,115.069 56.2986,113.903 57.5,113C 57.1667,112.667 56.8333,112.333 56.5,112C 59.5443,111.641 59.8776,110.974 57.5,110C 60.2569,108.001 61.4236,105.501 61,102.5C 62.0113,101.663 63.1779,101.33 64.5,101.5C 64.3505,100.448 64.5172,99.448 65,98.5C 65.3333,99.8333 65.6667,101.167 66,102.5C 66.4983,100.456 67.665,99.1223 69.5,98.5 Z"/></g>
<g><path style="opacity:1" fill="#6f6861" d="M 154.5,90.5 C 155.167,90.5 155.833,90.5 156.5,90.5C 156.383,92.4835 157.05,94.1502 158.5,95.5C 158.096,99.4335 159.43,102.934 162.5,106C 161.724,107.77 161.89,109.603 163,111.5C 163.383,110.944 163.883,110.611 164.5,110.5C 165.84,113.906 167.174,116.906 168.5,119.5C 168.911,118.738 169.077,117.738 169,116.5C 169.414,116.957 169.914,117.291 170.5,117.5C 174.102,115.678 174.102,114.678 170.5,114.5C 170.34,112.801 170.506,111.134 171,109.5C 171.556,111.595 172.056,111.762 172.5,110C 171.107,108.699 170.607,107.199 171,105.5C 172.414,104.009 173.914,102.675 175.5,101.5C 172.925,106.438 172.925,111.438 175.5,116.5C 172.151,117.684 169.985,120.017 169,123.5C 168.667,123.167 168.333,122.833 168,122.5C 166.975,125.089 165.142,126.255 162.5,126C 162.794,117.695 160.628,109.862 156,102.5C 155.888,99.7529 156.054,97.2529 156.5,95C 155.733,93.5295 155.067,92.0295 154.5,90.5 Z"/></g>
<g><path style="opacity:1" fill="#8a847d" d="M 89.5,116.5 C 94.5298,118.513 99.5298,120.68 104.5,123C 106.192,124.307 107.525,125.807 108.5,127.5C 101.036,124.933 94.0356,121.599 87.5,117.5C 88.1667,117.167 88.8333,116.833 89.5,116.5 Z"/></g>
<g><path style="opacity:1" fill="#878180" d="M 209.5,112.5 C 210.097,112.735 210.43,113.235 210.5,114C 208.889,116.21 208.222,118.71 208.5,121.5C 207.853,120.726 207.52,119.726 207.5,118.5C 207.719,116.307 208.385,114.307 209.5,112.5 Z"/></g>
<g><path style="opacity:1" fill="#a29e9d" d="M 215.5,108.5 C 217.017,108.511 218.184,109.177 219,110.5C 221.36,113.36 223.527,116.36 225.5,119.5C 224.423,120.705 223.09,121.372 221.5,121.5C 222.412,120.262 222.579,118.928 222,117.5C 220.306,116.301 218.806,114.968 217.5,113.5C 216.833,111.833 216.167,110.167 215.5,108.5 Z"/></g>
<g><path style="opacity:1" fill="#a49f9a" d="M 108.5,118.5 C 110.933,118.273 112.599,119.273 113.5,121.5C 111.067,121.727 109.401,120.727 108.5,118.5 Z"/></g>
<g><path style="opacity:1" fill="#817c7a" d="M 176.5,116.5 C 179.127,117.092 181.794,117.425 184.5,117.5C 183.531,118.309 182.698,119.309 182,120.5C 180.301,119.594 178.467,119.261 176.5,119.5C 176.5,118.5 176.5,117.5 176.5,116.5 Z"/></g>
<g><path style="opacity:1" fill="#3b3330" d="M 214.5,108.5 C 214.833,108.5 215.167,108.5 215.5,108.5C 216.167,110.167 216.833,111.833 217.5,113.5C 216.539,116.214 216.872,118.881 218.5,121.5C 217.083,125.641 214.416,126.641 210.5,124.5C 209.094,124.027 208.427,123.027 208.5,121.5C 208.222,118.71 208.889,116.21 210.5,114C 210.43,113.235 210.097,112.735 209.5,112.5C 208.833,112.5 208.5,112.167 208.5,111.5C 210.629,110.797 212.629,109.797 214.5,108.5 Z"/></g>
<g><path style="opacity:0.004" fill="#dd552b" d="M 36.5,124.5 C 37.8333,125.167 37.8333,125.167 36.5,124.5 Z"/></g>
<g><path style="opacity:0.004" fill="#dd552b" d="M 292.5,124.5 C 293.833,125.167 293.833,125.167 292.5,124.5 Z"/></g>
<g><path style="opacity:1" fill="#afaba6" d="M 110.5,129.5 C 111.959,129.433 113.292,129.766 114.5,130.5C 114.5,131.5 114.5,132.5 114.5,133.5C 112.736,132.674 111.402,131.341 110.5,129.5 Z"/></g>
<g><path style="opacity:1" fill="#483f34" d="M 103.5,116.5 C 104.78,117.931 106.447,118.598 108.5,118.5C 109.401,120.727 111.067,121.727 113.5,121.5C 117.146,123.482 120.146,126.149 122.5,129.5C 122.389,130.117 122.056,130.617 121.5,131C 124.875,132.029 126.042,134.196 125,137.5C 122.111,134.302 118.611,131.968 114.5,130.5C 113.292,129.766 111.959,129.433 110.5,129.5C 110.5,128.167 109.833,127.5 108.5,127.5C 107.525,125.807 106.192,124.307 104.5,123C 99.5298,120.68 94.5298,118.513 89.5,116.5C 89.9081,115.357 90.5748,114.357 91.5,113.5C 94.7556,117.361 98.7556,118.361 103.5,116.5 Z"/></g>
<g><path style="opacity:1" fill="#e78061" d="M 136.5,130.5 C 138.427,133.767 140.761,136.767 143.5,139.5C 144.575,141.811 144.575,144.144 143.5,146.5C 143.167,146.5 142.833,146.5 142.5,146.5C 142.762,145.022 142.429,143.689 141.5,142.5C 137.466,139.403 134.133,135.736 131.5,131.5C 132.15,131.804 132.817,132.137 133.5,132.5C 134.265,131.388 135.265,130.721 136.5,130.5 Z"/></g>
<g><path style="opacity:1" fill="#957a68" d="M 190.5,123.5 C 190.461,124.583 190.127,125.583 189.5,126.5C 192.071,129.398 193.738,132.731 194.5,136.5C 194.095,139.381 193.095,142.048 191.5,144.5C 193.04,147.291 192.706,149.791 190.5,152C 190.217,154.898 190.217,157.898 190.5,161C 190,161.5 189.5,162 189,162.5C 185.186,158.977 180.686,155.644 175.5,152.5C 174.761,152.631 174.094,152.464 173.5,152C 168.466,146.494 163.466,140.994 158.5,135.5C 159.791,135.737 160.791,135.404 161.5,134.5C 164.988,131.912 168.321,129.078 171.5,126C 176.084,125.883 180.417,126.05 184.5,126.5C 186.243,124.962 188.243,123.962 190.5,123.5 Z"/></g>
<g><path style="opacity:1" fill="#574f4c" d="M 217.5,113.5 C 218.806,114.968 220.306,116.301 222,117.5C 222.579,118.928 222.412,120.262 221.5,121.5C 220.316,124.558 218.816,127.558 217,130.5C 216.184,131.823 215.017,132.489 213.5,132.5C 212.167,132.5 210.833,132.5 209.5,132.5C 209.5,133.5 209.5,134.5 209.5,135.5C 205.543,136.791 201.543,136.791 197.5,135.5C 196.609,136.11 195.609,136.443 194.5,136.5C 193.738,132.731 192.071,129.398 189.5,126.5C 190.127,125.583 190.461,124.583 190.5,123.5C 192.113,123.944 193.28,124.944 194,126.5C 195.646,124.945 195.979,123.279 195,121.5C 195.333,121.833 195.667,122.167 196,122.5C 196.278,121.584 196.778,120.918 197.5,120.5C 198.038,122.117 198.371,123.784 198.5,125.5C 198.5,127.167 198.5,128.833 198.5,130.5C 201.385,130.806 204.052,130.473 206.5,129.5C 208.138,128.343 209.804,127.176 211.5,126C 210.944,125.617 210.611,125.117 210.5,124.5C 214.416,126.641 217.083,125.641 218.5,121.5C 216.872,118.881 216.539,116.214 217.5,113.5 Z"/></g>
<g><path style="opacity:1" fill="#969290" d="M 198.5,125.5 C 200.482,128.137 203.148,129.47 206.5,129.5C 204.052,130.473 201.385,130.806 198.5,130.5C 198.5,128.833 198.5,127.167 198.5,125.5 Z"/></g>
<g><path style="opacity:1" fill="#e67c5b" d="M 277.5,120.5 C 279.179,120.285 280.179,120.952 280.5,122.5C 281.089,124.352 281.756,126.185 282.5,128C 282.167,128.167 281.833,128.333 281.5,128.5C 278.94,123.381 278.273,123.714 279.5,129.5C 280.5,129.5 281.5,129.5 282.5,129.5C 280.994,138.641 279.66,147.974 278.5,157.5C 278.716,145.293 278.383,132.96 277.5,120.5 Z"/></g>
<g><path style="opacity:0.004" fill="#dd552b" d="M 293.5,134.5 C 294.833,135.167 294.833,135.167 293.5,134.5 Z"/></g>
<g><path style="opacity:1" fill="#777069" d="M 213.5,132.5 C 215.981,133.258 218.648,133.258 221.5,132.5C 214.115,135.132 206.948,137.799 200,140.5C 198.906,138.922 198.072,137.255 197.5,135.5C 201.543,136.791 205.543,136.791 209.5,135.5C 209.5,134.5 209.5,133.5 209.5,132.5C 210.833,132.5 212.167,132.5 213.5,132.5 Z"/></g>
<g><path style="opacity:1" fill="#50453b" d="M 255.5,151.5 C 255.389,152.117 255.056,152.617 254.5,153C 257.488,155.476 259.488,158.309 260.5,161.5C 260.023,162.931 259.357,164.264 258.5,165.5C 256.833,164 255.167,162.5 253.5,161C 254.167,160.667 254.833,160.333 255.5,160C 253.939,159.682 252.772,158.849 252,157.5C 251.617,158.056 251.117,158.389 250.5,158.5C 249.5,157.833 248.5,157.167 247.5,156.5C 244.547,152.042 241.38,147.708 238,143.5C 235.453,141.492 232.953,141.158 230.5,142.5C 229.059,141.696 227.559,141.029 226,140.5C 219.714,141.485 212.881,143.152 205.5,145.5C 203.402,144.516 201.402,144.849 199.5,146.5C 198.614,147.325 198.281,148.325 198.5,149.5C 197.417,149.461 196.417,149.127 195.5,148.5C 194.289,149.274 194.289,150.107 195.5,151C 192.833,152.333 192.833,153.667 195.5,155C 195.08,157.692 193.746,160.192 191.5,162.5C 191.818,163.647 192.484,164.481 193.5,165C 193.167,165.333 192.833,165.667 192.5,166C 193.227,167.399 193.727,168.899 194,170.5C 198.713,171.768 203.546,172.435 208.5,172.5C 217.389,173.204 225.723,175.537 233.5,179.5C 236.913,185.085 240.913,190.252 245.5,195C 244.655,196.558 245.321,197.558 247.5,198C 246.289,199.113 246.289,200.28 247.5,201.5C 250.866,204.977 253.866,208.644 256.5,212.5C 253.833,212.5 251.167,212.5 248.5,212.5C 247.542,212.047 246.708,211.381 246,210.5C 243.02,204.297 239.853,198.297 236.5,192.5C 236.938,192.565 237.272,192.399 237.5,192C 235.817,189.986 233.817,188.32 231.5,187C 232.654,186.086 232.487,185.253 231,184.5C 228.667,183.167 226.333,183.167 224,184.5C 223.08,182.686 221.58,181.686 219.5,181.5C 214.02,180.185 208.686,179.352 203.5,179C 202.299,178.097 201.465,176.931 201,175.5C 200,176.833 199,176.833 198,175.5C 197.292,176.381 196.458,177.047 195.5,177.5C 194.533,176.194 193.199,175.527 191.5,175.5C 191.649,174.448 191.483,173.448 191,172.5C 187.785,170.286 185.285,167.452 183.5,164C 183.833,163.667 184.167,163.333 184.5,163C 182.726,161.302 181.059,159.469 179.5,157.5C 178.675,156.614 177.675,156.281 176.5,156.5C 176.737,155.209 176.404,154.209 175.5,153.5C 175.5,153.167 175.5,152.833 175.5,152.5C 180.686,155.644 185.186,158.977 189,162.5C 189.5,162 190,161.5 190.5,161C 190.217,157.898 190.217,154.898 190.5,152C 192.706,149.791 193.04,147.291 191.5,144.5C 193.095,142.048 194.095,139.381 194.5,136.5C 195.609,136.443 196.609,136.11 197.5,135.5C 198.072,137.255 198.906,138.922 200,140.5C 206.948,137.799 214.115,135.132 221.5,132.5C 223.792,132.244 225.959,132.577 228,133.5C 229.816,131.559 231.816,130.892 234,131.5C 241.332,138.69 248.499,145.357 255.5,151.5 Z"/></g>
<g><path style="opacity:1" fill="#f0b09d" d="M 57.5,129.5 C 57.1532,135.333 55.1532,140.5 51.5,145C 52.8112,147.274 52.8112,149.44 51.5,151.5C 50.5489,150.081 50.2155,148.415 50.5,146.5C 50.5858,145.504 50.2524,144.671 49.5,144C 50.1667,143.667 50.8333,143.333 51.5,143C 51.1459,141.374 51.1459,139.541 51.5,137.5C 52.4959,137.586 53.3292,137.252 54,136.5C 54.8372,134.649 55.6705,132.816 56.5,131C 55.2881,129.893 55.6214,129.393 57.5,129.5 Z"/></g>
<g><path style="opacity:0.004" fill="#dd552b" d="M 293.5,140.5 C 294.833,141.167 294.833,141.167 293.5,140.5 Z"/></g>
<g><path style="opacity:1" fill="#908b84" d="M 247.5,156.5 C 242.032,151.93 236.366,147.597 230.5,143.5C 220.211,146.109 209.545,148.109 198.5,149.5C 198.281,148.325 198.614,147.325 199.5,146.5C 201.402,144.849 203.402,144.516 205.5,145.5C 212.881,143.152 219.714,141.485 226,140.5C 227.559,141.029 229.059,141.696 230.5,142.5C 232.953,141.158 235.453,141.492 238,143.5C 241.38,147.708 244.547,152.042 247.5,156.5 Z"/></g>
<g><path style="opacity:1" fill="#a09b96" d="M 117.5,137.5 C 123.017,142.853 128.017,148.687 132.5,155C 131.944,155.383 131.611,155.883 131.5,156.5C 125.616,151.065 120.949,144.731 117.5,137.5 Z"/></g>
<g><path style="opacity:1" fill="#e8876a" d="M 50.5,146.5 C 50.2155,148.415 50.5489,150.081 51.5,151.5C 50.254,153.417 49.5873,155.25 49.5,157C 50.2666,158.47 50.9332,159.97 51.5,161.5C 50.8333,161.833 50.1667,162.167 49.5,162.5C 49.6309,161.624 49.2975,160.957 48.5,160.5C 47.7515,162.332 46.7515,163.999 45.5,165.5C 46.1272,166.417 46.4606,167.417 46.5,168.5C 44.4885,167.772 42.4885,166.938 40.5,166C 41.3081,165.692 41.9747,165.192 42.5,164.5C 41.8333,163.5 41.1667,162.5 40.5,161.5C 41.8215,156.934 42.6548,152.267 43,147.5C 43.6667,149.5 44.3333,151.5 45,153.5C 46.6169,152.464 46.7836,151.297 45.5,150C 47.5689,149.676 47.9023,148.842 46.5,147.5C 47.6888,146.571 49.0222,146.238 50.5,146.5 Z"/></g>
<g><path style="opacity:1" fill="#5c5147" d="M 122.5,129.5 C 127.857,134.208 132.857,139.375 137.5,145C 138.966,145.635 140.3,146.469 141.5,147.5C 142.107,147.376 142.44,147.043 142.5,146.5C 142.833,146.5 143.167,146.5 143.5,146.5C 145.446,147.035 146.446,148.368 146.5,150.5C 145.828,151.267 144.995,151.934 144,152.5C 142.907,155.309 141.74,157.976 140.5,160.5C 139.504,160.414 138.671,160.748 138,161.5C 137.184,160.177 136.017,159.511 134.5,159.5C 133.1,158.9 132.1,157.9 131.5,156.5C 131.611,155.883 131.944,155.383 132.5,155C 128.017,148.687 123.017,142.853 117.5,137.5C 115.554,136.965 114.554,135.632 114.5,133.5C 114.5,132.5 114.5,131.5 114.5,130.5C 118.611,131.968 122.111,134.302 125,137.5C 126.042,134.196 124.875,132.029 121.5,131C 122.056,130.617 122.389,130.117 122.5,129.5 Z"/></g>
<g><path style="opacity:0.004" fill="#dd552b" d="M 293.5,151.5 C 294.833,152.167 294.833,152.167 293.5,151.5 Z"/></g>
<g><path style="opacity:1" fill="#766f66" d="M 198.5,149.5 C 198.202,152.265 197.202,154.765 195.5,157C 195.957,157.414 196.291,157.914 196.5,158.5C 195.727,161.465 195.061,164.465 194.5,167.5C 194.818,168.647 195.484,169.481 196.5,170C 198.764,170.236 200.931,170.736 203,171.5C 204.996,170.659 206.829,170.992 208.5,172.5C 203.546,172.435 198.713,171.768 194,170.5C 193.727,168.899 193.227,167.399 192.5,166C 192.833,165.667 193.167,165.333 193.5,165C 192.484,164.481 191.818,163.647 191.5,162.5C 193.746,160.192 195.08,157.692 195.5,155C 192.833,153.667 192.833,152.333 195.5,151C 194.289,150.107 194.289,149.274 195.5,148.5C 196.417,149.127 197.417,149.461 198.5,149.5 Z"/></g>
<g><path style="opacity:1" fill="#88827b" d="M 255.5,151.5 C 260.819,154.802 262.819,159.468 261.5,165.5C 256.226,166.015 252.559,163.682 250.5,158.5C 251.117,158.389 251.617,158.056 252,157.5C 252.772,158.849 253.939,159.682 255.5,160C 254.833,160.333 254.167,160.667 253.5,161C 255.167,162.5 256.833,164 258.5,165.5C 259.357,164.264 260.023,162.931 260.5,161.5C 259.488,158.309 257.488,155.476 254.5,153C 255.056,152.617 255.389,152.117 255.5,151.5 Z"/></g>
<g><path style="opacity:1" fill="#a18978" d="M 146.5,150.5 C 155.239,158.574 162.906,167.574 169.5,177.5C 173.453,180.957 177.12,184.624 180.5,188.5C 179.761,188.369 179.094,188.536 178.5,189C 176.954,191.257 175.288,193.424 173.5,195.5C 172.148,194.476 170.815,193.476 169.5,192.5C 168.883,190.771 167.883,189.271 166.5,188C 158.756,181.961 150.923,176.127 143,170.5C 139.821,172.259 137.988,170.926 137.5,166.5C 138.65,164.603 139.65,162.603 140.5,160.5C 141.74,157.976 142.907,155.309 144,152.5C 144.995,151.934 145.828,151.267 146.5,150.5 Z"/></g>
<g><path style="opacity:1" fill="#b55130" d="M 175.5,153.5 C 176.404,154.209 176.737,155.209 176.5,156.5C 177.675,156.281 178.675,156.614 179.5,157.5C 181.059,159.469 182.726,161.302 184.5,163C 184.167,163.333 183.833,163.667 183.5,164C 185.285,167.452 187.785,170.286 191,172.5C 191.483,173.448 191.649,174.448 191.5,175.5C 188.197,173.198 185.197,170.532 182.5,167.5C 182.709,166.914 183.043,166.414 183.5,166C 181.243,164.55 178.91,163.383 176.5,162.5C 176.771,160.179 176.104,158.179 174.5,156.5C 175.127,155.583 175.461,154.583 175.5,153.5 Z"/></g>
<g><path style="opacity:1" fill="#786f66" d="M 134.5,159.5 C 136.017,159.511 137.184,160.177 138,161.5C 138.671,160.748 139.504,160.414 140.5,160.5C 139.65,162.603 138.65,164.603 137.5,166.5C 135.296,165.649 133.963,166.649 133.5,169.5C 133.709,170.086 134.043,170.586 134.5,171C 131.547,173.752 129.214,176.918 127.5,180.5C 130.082,173.638 132.415,166.638 134.5,159.5 Z"/></g>
<g><path style="opacity:1" fill="#efa994" d="M 51.5,161.5 C 51.7874,165.316 51.7874,168.983 51.5,172.5C 50.2154,169.411 49.5488,166.078 49.5,162.5C 50.1667,162.167 50.8333,161.833 51.5,161.5 Z"/></g>
<g><path style="opacity:1" fill="#e47250" d="M 49.5,162.5 C 49.5488,166.078 50.2154,169.411 51.5,172.5C 51.5,172.833 51.5,173.167 51.5,173.5C 50.8974,176.141 50.5641,178.808 50.5,181.5C 49.207,180.158 48.3736,178.491 48,176.5C 47.5774,177.956 46.7441,178.456 45.5,178C 46.8333,177.333 46.8333,176.667 45.5,176C 46.3279,175.085 47.3279,174.419 48.5,174C 45.9065,172.68 45.2398,170.847 46.5,168.5C 46.4606,167.417 46.1272,166.417 45.5,165.5C 46.7515,163.999 47.7515,162.332 48.5,160.5C 49.2975,160.957 49.6309,161.624 49.5,162.5 Z"/></g>
<g><path style="opacity:0.004" fill="#dd552b" d="M 31.5,168.5 C 32.8333,169.167 32.8333,169.167 31.5,168.5 Z"/></g>
<g><path style="opacity:1" fill="#ea8f73" d="M 278.5,160.5 C 278.666,164.514 278.499,168.514 278,172.5C 276.257,175.957 275.257,179.623 275,183.5C 274.623,184.942 273.79,185.942 272.5,186.5C 275.141,177.917 277.141,169.251 278.5,160.5 Z"/></g>
<g><path style="opacity:0.004" fill="#dd552b" d="M 33.5,178.5 C 32.8333,179.167 32.8333,179.167 33.5,178.5 Z"/></g>
<g><path style="opacity:1" fill="#736c64" d="M 236.5,192.5 C 234.419,191.273 232.419,189.773 230.5,188C 221.977,185.995 213.477,183.828 205,181.5C 202.88,182.605 200.713,182.605 198.5,181.5C 196.738,180.738 195.738,179.404 195.5,177.5C 196.458,177.047 197.292,176.381 198,175.5C 199,176.833 200,176.833 201,175.5C 201.465,176.931 202.299,178.097 203.5,179C 208.686,179.352 214.02,180.185 219.5,181.5C 221.58,181.686 223.08,182.686 224,184.5C 226.333,183.167 228.667,183.167 231,184.5C 232.487,185.253 232.654,186.086 231.5,187C 233.817,188.32 235.817,189.986 237.5,192C 237.272,192.399 236.938,192.565 236.5,192.5 Z"/></g>
<g><path style="opacity:1" fill="#fdfbfa" d="M 198.5,181.5 C 200.713,182.605 202.88,182.605 205,181.5C 213.477,183.828 221.977,185.995 230.5,188C 232.419,189.773 234.419,191.273 236.5,192.5C 239.853,198.297 243.02,204.297 246,210.5C 246.708,211.381 247.542,212.047 248.5,212.5C 250.824,214.443 253.157,216.443 255.5,218.5C 253.518,222.146 250.851,225.146 247.5,227.5C 243.257,224.079 239.424,220.079 236,215.5C 235.23,216.598 234.397,216.598 233.5,215.5C 230.523,212.194 227.19,209.194 223.5,206.5C 223.167,206.5 222.833,206.5 222.5,206.5C 221.393,203.631 219.393,201.631 216.5,200.5C 215.391,197.721 213.391,196.054 210.5,195.5C 206.5,190.833 202.5,186.167 198.5,181.5 Z"/></g>
<g><path style="opacity:1" fill="#a5a19c" d="M 106.5,183.5 C 103.103,184.198 99.6027,184.865 96,185.5C 95.6012,185.272 95.4346,184.938 95.5,184.5C 99.0818,182.957 102.748,182.623 106.5,183.5 Z"/></g>
<g><path style="opacity:1" fill="#78716a" d="M 233.5,179.5 C 234.552,179.351 235.552,179.517 236.5,180C 243.199,189.888 250.032,199.721 257,209.5C 257.74,210.749 257.573,211.749 256.5,212.5C 253.866,208.644 250.866,204.977 247.5,201.5C 246.289,200.28 246.289,199.113 247.5,198C 245.321,197.558 244.655,196.558 245.5,195C 240.913,190.252 236.913,185.085 233.5,179.5 Z"/></g>
<g><path style="opacity:1" fill="#fdfdfd" d="M 94.5,191.5 C 101.161,192.179 107.827,192.179 114.5,191.5C 116.218,192.224 118.052,192.891 120,193.5C 120.383,192.944 120.883,192.611 121.5,192.5C 122.391,193.261 123.058,194.261 123.5,195.5C 122.512,198.782 121.846,202.115 121.5,205.5C 125.243,205.459 125.41,206.126 122,207.5C 121.178,213.12 121.678,218.62 123.5,224C 126.31,227.141 129.81,228.975 134,229.5C 139.645,226.261 145.478,223.428 151.5,221C 153.909,219.799 155.909,218.133 157.5,216C 158.793,215.51 160.127,215.343 161.5,215.5C 161.626,212.532 163.126,210.532 166,209.5C 166.232,210.737 166.732,211.737 167.5,212.5C 171.986,221.318 176.653,229.984 181.5,238.5C 182.35,240.494 182.85,242.494 183,244.5C 178.63,247.865 174.464,251.532 170.5,255.5C 166.096,258.252 162.096,261.585 158.5,265.5C 154.936,266.423 151.269,266.756 147.5,266.5C 132.378,265.138 118.045,261.138 104.5,254.5C 102.758,252.231 100.424,250.898 97.5,250.5C 96.8333,249.833 96.1667,249.167 95.5,248.5C 93.7726,246.433 91.7726,244.767 89.5,243.5C 89.5,242.833 89.1667,242.5 88.5,242.5C 86.9005,239.73 84.7338,237.397 82,235.5C 81.805,234.181 81.9717,232.847 82.5,231.5C 84.4904,222.257 86.1571,212.924 87.5,203.5C 87.6465,200.557 88.3132,197.724 89.5,195C 90.5157,192.824 92.1824,191.657 94.5,191.5 Z"/></g>
<g><path style="opacity:1" fill="#ec9a82" d="M 272.5,187.5 C 272.02,190.443 271.02,193.11 269.5,195.5C 269.415,192.351 270.415,189.684 272.5,187.5 Z"/></g>
<g><path style="opacity:1" fill="#e16641" d="M 51.5,134.5 C 51.5,135.5 51.5,136.5 51.5,137.5C 51.1459,139.541 51.1459,141.374 51.5,143C 50.8333,143.333 50.1667,143.667 49.5,144C 50.2524,144.671 50.5858,145.504 50.5,146.5C 49.0222,146.238 47.6888,146.571 46.5,147.5C 47.9023,148.842 47.5689,149.676 45.5,150C 46.7836,151.297 46.6169,152.464 45,153.5C 44.3333,151.5 43.6667,149.5 43,147.5C 42.6548,152.267 41.8215,156.934 40.5,161.5C 41.1667,162.5 41.8333,163.5 42.5,164.5C 41.9747,165.192 41.3081,165.692 40.5,166C 42.4885,166.938 44.4885,167.772 46.5,168.5C 45.2398,170.847 45.9065,172.68 48.5,174C 47.3279,174.419 46.3279,175.085 45.5,176C 46.8333,176.667 46.8333,177.333 45.5,178C 46.7441,178.456 47.5774,177.956 48,176.5C 48.3736,178.491 49.207,180.158 50.5,181.5C 52.6881,185.196 53.6881,189.029 53.5,193C 54.3333,193.833 55.1667,194.667 56,195.5C 56.709,198.536 57.8756,201.369 59.5,204C 59.1667,204.333 58.8333,204.667 58.5,205C 60.689,205.677 61.0224,206.844 59.5,208.5C 61.2882,209.283 62.2882,210.616 62.5,212.5C 61.1988,214.456 61.6988,216.123 64,217.5C 64.49,218.793 64.6567,220.127 64.5,221.5C 62.4603,220.296 60.7936,218.629 59.5,216.5C 58.2889,215.28 58.2889,214.113 59.5,213C 58.5,212.667 57.5,212.333 56.5,212C 55.8155,210.307 54.8155,208.807 53.5,207.5C 54.868,206.406 56.0347,206.74 57,208.5C 57.1667,208 57.3333,207.5 57.5,207C 56.3132,204.276 55.6465,201.443 55.5,198.5C 52.2027,198.671 51.8694,198.005 54.5,196.5C 52.9288,194.585 50.9288,193.585 48.5,193.5C 48.8174,196.572 48.4841,199.572 47.5,202.5C 46.4104,201.609 46.4104,200.609 47.5,199.5C 46.675,198.614 45.675,198.281 44.5,198.5C 43.8489,196.174 43.1822,193.841 42.5,191.5C 44.2421,188.585 43.5754,187.251 40.5,187.5C 39.9421,184.656 39.2755,181.822 38.5,179C 38.5944,176.046 39.0944,175.879 40,178.5C 40.4828,177.552 40.6495,176.552 40.5,175.5C 39.5,175.5 38.5,175.5 37.5,175.5C 37.5429,172.133 37.2096,168.799 36.5,165.5C 36.5721,162.244 37.5721,159.411 39.5,157C 38.273,155.413 38.6063,154.079 40.5,153C 37.5585,150.008 37.8918,147.508 41.5,145.5C 40.9264,143.941 40.2598,142.441 39.5,141C 40.7839,140.316 41.9505,140.483 43,141.5C 44.3598,137.4 47.1932,135.067 51.5,134.5 Z"/></g>
<g><path style="opacity:1" fill="#fdfbfa" d="M 182.5,191.5 C 184.832,194.109 187.165,196.775 189.5,199.5C 190.801,200.882 191.634,202.548 192,204.5C 193.47,205.267 194.97,205.933 196.5,206.5C 196.833,207.167 197.167,207.833 197.5,208.5C 200.21,211.877 203.21,214.877 206.5,217.5C 207.249,218.531 207.915,219.698 208.5,221C 212.012,223.356 215.345,225.856 218.5,228.5C 219.09,229.766 219.59,231.099 220,232.5C 223.974,234.483 225.808,237.483 225.5,241.5C 214.286,248.783 202.62,255.117 190.5,260.5C 188.629,260.859 187.129,261.859 186,263.5C 184.708,262.209 183.542,262.209 182.5,263.5C 181.5,263.5 180.5,263.5 179.5,263.5C 177.194,263.993 174.861,264.326 172.5,264.5C 174.464,262.873 175.797,260.873 176.5,258.5C 180.104,255.398 183.604,252.065 187,248.5C 190.03,243.943 191.03,238.943 190,233.5C 185.676,227.182 182.176,220.516 179.5,213.5C 178.993,209.917 177.993,206.583 176.5,203.5C 176.461,202.417 176.127,201.417 175.5,200.5C 178.565,198.021 180.898,195.021 182.5,191.5 Z"/></g>
<g><path style="opacity:0.004" fill="#dd552b" d="M 36.5,194.5 C 35.8333,195.167 35.8333,195.167 36.5,194.5 Z"/></g>
<g><path style="opacity:1" fill="#686057" d="M 85.5,186.5 C 85.3184,188.591 85.6518,190.591 86.5,192.5C 83.3451,197.054 81.3451,202.054 80.5,207.5C 79.9569,207.44 79.6236,207.107 79.5,206.5C 80.9901,199.563 82.9901,192.896 85.5,186.5 Z"/></g>
<g><path style="opacity:1" fill="#f2baa9" d="M 51.5,173.5 C 55.1274,186.829 59.4607,200.162 64.5,213.5C 63.5084,213.672 62.8417,213.338 62.5,212.5C 62.2882,210.616 61.2882,209.283 59.5,208.5C 61.0224,206.844 60.689,205.677 58.5,205C 58.8333,204.667 59.1667,204.333 59.5,204C 57.8756,201.369 56.709,198.536 56,195.5C 55.1667,194.667 54.3333,193.833 53.5,193C 53.6881,189.029 52.6881,185.196 50.5,181.5C 50.5641,178.808 50.8974,176.141 51.5,173.5 Z"/></g>
<g><path style="opacity:1" fill="#957b69" d="M 165.5,194.5 C 166.219,196.888 167.885,198.388 170.5,199C 167.216,200.617 164.549,202.95 162.5,206C 155.815,210.36 149.148,214.694 142.5,219C 138.846,220.274 135.18,221.44 131.5,222.5C 130.546,219.705 129.212,216.705 127.5,213.5C 126.914,211.757 126.581,209.924 126.5,208C 127.18,202.807 128.18,197.64 129.5,192.5C 131.22,191.249 131.553,189.749 130.5,188C 131.658,184.527 132.824,181.027 134,177.5C 134.839,176.376 136.006,175.709 137.5,175.5C 140.071,176.401 142.404,177.734 144.5,179.5C 145.086,179.291 145.586,178.957 146,178.5C 151.657,183.445 157.157,188.612 162.5,194C 163.448,194.483 164.448,194.649 165.5,194.5 Z"/></g>
<g><path style="opacity:1" fill="#f1b19e" d="M 269.5,195.5 C 269.567,196.959 269.234,198.292 268.5,199.5C 266.744,201.249 265.411,203.249 264.5,205.5C 264.737,202.353 265.57,199.353 267,196.5C 267.671,195.748 268.504,195.414 269.5,195.5 Z"/></g>
<g><path style="opacity:1" fill="#e98668" d="M 189.5,199.5 C 190.833,199.5 192.167,199.5 193.5,199.5C 193.215,201.288 193.548,202.955 194.5,204.5C 195.5,201.833 196.5,201.833 197.5,204.5C 197.137,205.183 196.804,205.85 196.5,206.5C 194.97,205.933 193.47,205.267 192,204.5C 191.634,202.548 190.801,200.882 189.5,199.5 Z"/></g>
<g><path style="opacity:1" fill="#eda18a" d="M 210.5,195.5 C 213.391,196.054 215.391,197.721 216.5,200.5C 213.885,199.55 211.885,197.883 210.5,195.5 Z"/></g>
<g><path style="opacity:1" fill="#4d4237" d="M 137.5,166.5 C 137.988,170.926 139.821,172.259 143,170.5C 150.923,176.127 158.756,181.961 166.5,188C 167.883,189.271 168.883,190.771 169.5,192.5C 169.466,196.579 168.133,197.246 165.5,194.5C 164.448,194.649 163.448,194.483 162.5,194C 157.157,188.612 151.657,183.445 146,178.5C 145.586,178.957 145.086,179.291 144.5,179.5C 142.404,177.734 140.071,176.401 137.5,175.5C 136.006,175.709 134.839,176.376 134,177.5C 132.824,181.027 131.658,184.527 130.5,188C 131.553,189.749 131.22,191.249 129.5,192.5C 128.732,193.263 128.232,194.263 128,195.5C 127.333,194.167 126.667,194.167 126,195.5C 125.667,194.167 125.333,192.833 125,191.5C 123.989,192.337 122.822,192.67 121.5,192.5C 120.883,192.611 120.383,192.944 120,193.5C 118.052,192.891 116.218,192.224 114.5,191.5C 113.828,190.733 112.995,190.066 112,189.5C 110.732,189.616 109.398,189.949 108,190.5C 107.667,189.833 107.333,189.167 107,188.5C 102.797,189.785 98.6302,190.785 94.5,191.5C 92.1824,191.657 90.5157,192.824 89.5,195C 88.3132,197.724 87.6465,200.557 87.5,203.5C 86.9162,205.743 85.7495,207.743 84,209.5C 83.6667,212.167 83.3333,214.833 83,217.5C 80.7492,214.983 79.9159,211.983 80.5,208.5C 80.5,208.167 80.5,207.833 80.5,207.5C 81.3451,202.054 83.3451,197.054 86.5,192.5C 85.6518,190.591 85.3184,188.591 85.5,186.5C 85.8656,185.305 86.699,184.639 88,184.5C 90.5074,185.747 93.0074,185.747 95.5,184.5C 95.4346,184.938 95.6012,185.272 96,185.5C 99.6027,184.865 103.103,184.198 106.5,183.5C 111.819,183.362 117.486,183.028 123.5,182.5C 125.333,182.415 126.666,181.748 127.5,180.5C 129.214,176.918 131.547,173.752 134.5,171C 134.043,170.586 133.709,170.086 133.5,169.5C 133.963,166.649 135.296,165.649 137.5,166.5 Z"/></g>
<g><path style="opacity:1" fill="#787069" d="M 114.5,191.5 C 107.827,192.179 101.161,192.179 94.5,191.5C 98.6302,190.785 102.797,189.785 107,188.5C 107.333,189.167 107.667,189.833 108,190.5C 109.398,189.949 110.732,189.616 112,189.5C 112.995,190.066 113.828,190.733 114.5,191.5 Z"/></g>
<g><path style="opacity:0.996" fill="#e78466" d="M 268.5,199.5 C 267.893,203.844 266.06,207.511 263,210.5C 262.51,211.793 262.343,213.127 262.5,214.5C 261.5,214.5 260.5,214.5 259.5,214.5C 260.611,211.144 262.277,208.144 264.5,205.5C 265.411,203.249 266.744,201.249 268.5,199.5 Z"/></g>
<g><path style="opacity:1" fill="#e9896c" d="M 216.5,200.5 C 219.393,201.631 221.393,203.631 222.5,206.5C 221.778,206.918 221.278,207.584 221,208.5C 219.743,205.649 218.243,202.982 216.5,200.5 Z"/></g>
<g><path style="opacity:0.004" fill="#dd552b" d="M 41.5,207.5 C 40.8333,206.167 40.8333,206.167 41.5,207.5 Z"/></g>
<g><path style="opacity:0.004" fill="#dd552b" d="M 282.5,206.5 C 283.833,207.167 283.833,207.167 282.5,206.5 Z"/></g>
<g><path style="opacity:0.004" fill="#dd552b" d="M 41.5,207.5 C 41.8333,207.5 42.1667,207.5 42.5,207.5C 42.3147,208.17 41.9813,208.17 41.5,207.5 Z"/></g>
<g><path style="opacity:1" fill="#b1ada9" d="M 176.5,203.5 C 177.993,206.583 178.993,209.917 179.5,213.5C 178.833,213.5 178.167,213.5 177.5,213.5C 177.634,211.708 177.301,210.042 176.5,208.5C 176.178,206.525 176.178,204.858 176.5,203.5 Z"/></g>
<g><path style="opacity:1" fill="#e98a6d" d="M 223.5,206.5 C 227.19,209.194 230.523,212.194 233.5,215.5C 231.799,215.034 230.299,215.034 229,215.5C 227.294,214.692 226.461,213.359 226.5,211.5C 225.5,211.5 224.5,211.5 223.5,211.5C 223.5,209.833 223.5,208.167 223.5,206.5 Z"/></g>
<g><path style="opacity:1" fill="#ea8f74" d="M 197.5,208.5 C 198.552,208.351 199.552,208.517 200.5,209C 202.796,211.768 204.796,214.601 206.5,217.5C 203.21,214.877 200.21,211.877 197.5,208.5 Z"/></g>
<g><path style="opacity:1" fill="#9c958f" d="M 248.5,212.5 C 251.167,212.5 253.833,212.5 256.5,212.5C 256.833,213.5 257.5,214.167 258.5,214.5C 257.974,216.23 256.974,217.564 255.5,218.5C 253.157,216.443 250.824,214.443 248.5,212.5 Z"/></g>
<g><path style="opacity:1" fill="#685e55" d="M 180.5,188.5 C 181.167,189.5 181.833,190.5 182.5,191.5C 180.898,195.021 178.565,198.021 175.5,200.5C 176.127,201.417 176.461,202.417 176.5,203.5C 176.178,204.858 176.178,206.525 176.5,208.5C 174.827,207.657 173.66,206.324 173,204.5C 172.333,205.833 171.667,205.833 171,204.5C 168.276,206.216 167.109,208.882 167.5,212.5C 166.732,211.737 166.232,210.737 166,209.5C 163.126,210.532 161.626,212.532 161.5,215.5C 160.127,215.343 158.793,215.51 157.5,216C 155.909,218.133 153.909,219.799 151.5,221C 145.478,223.428 139.645,226.261 134,229.5C 129.81,228.975 126.31,227.141 123.5,224C 121.678,218.62 121.178,213.12 122,207.5C 125.41,206.126 125.243,205.459 121.5,205.5C 121.846,202.115 122.512,198.782 123.5,195.5C 123.058,194.261 122.391,193.261 121.5,192.5C 122.822,192.67 123.989,192.337 125,191.5C 125.333,192.833 125.667,194.167 126,195.5C 126.667,194.167 127.333,194.167 128,195.5C 128.232,194.263 128.732,193.263 129.5,192.5C 128.18,197.64 127.18,202.807 126.5,208C 126.581,209.924 126.914,211.757 127.5,213.5C 126.25,213.423 125.417,212.756 125,211.5C 124.306,212.818 123.473,213.651 122.5,214C 122.765,216.151 123.765,217.818 125.5,219C 124.328,220.868 124.495,222.702 126,224.5C 126.333,223.833 126.667,223.167 127,222.5C 127.667,223.833 128.333,225.167 129,226.5C 129.772,225.151 130.939,224.318 132.5,224C 131.833,223.667 131.167,223.333 130.5,223C 130.728,222.601 131.062,222.435 131.5,222.5C 135.18,221.44 138.846,220.274 142.5,219C 149.148,214.694 155.815,210.36 162.5,206C 164.549,202.95 167.216,200.617 170.5,199C 167.885,198.388 166.219,196.888 165.5,194.5C 168.133,197.246 169.466,196.579 169.5,192.5C 170.815,193.476 172.148,194.476 173.5,195.5C 175.288,193.424 176.954,191.257 178.5,189C 179.094,188.536 179.761,188.369 180.5,188.5 Z"/></g>
<g><path style="opacity:1" fill="#ea9177" d="M 62.5,212.5 C 62.8417,213.338 63.5084,213.672 64.5,213.5C 66.7628,216.44 68.0961,219.773 68.5,223.5C 67.6851,222.571 66.8518,221.571 66,220.5C 65.6174,221.056 65.1174,221.389 64.5,221.5C 64.6567,220.127 64.49,218.793 64,217.5C 61.6988,216.123 61.1988,214.456 62.5,212.5 Z"/></g>
<g><path style="opacity:1" fill="#55483c" d="M 127.5,213.5 C 129.212,216.705 130.546,219.705 131.5,222.5C 131.062,222.435 130.728,222.601 130.5,223C 131.167,223.333 131.833,223.667 132.5,224C 130.939,224.318 129.772,225.151 129,226.5C 128.333,225.167 127.667,223.833 127,222.5C 126.667,223.167 126.333,223.833 126,224.5C 124.495,222.702 124.328,220.868 125.5,219C 123.765,217.818 122.765,216.151 122.5,214C 123.473,213.651 124.306,212.818 125,211.5C 125.417,212.756 126.25,213.423 127.5,213.5 Z"/></g>
<g><path style="opacity:0.004" fill="#dd552b" d="M 47.5,219.5 C 46.8333,220.167 46.8333,220.167 47.5,219.5 Z"/></g>
<g><path style="opacity:1" fill="#cbbab3" d="M 78.5,213.5 C 78.6749,218.943 78.6749,224.61 78.5,230.5C 77.8333,230.833 77.1667,231.167 76.5,231.5C 75.3065,230.728 74.3065,229.728 73.5,228.5C 74.8471,227.829 76.0138,227.829 77,228.5C 77.2186,223.418 77.7186,218.418 78.5,213.5 Z"/></g>
<g><path style="opacity:1" fill="#493f35" d="M 176.5,208.5 C 177.301,210.042 177.634,211.708 177.5,213.5C 177.586,214.496 177.252,215.329 176.5,216C 177.893,217.171 178.727,218.671 179,220.5C 179.914,219.346 180.747,219.513 181.5,221C 180.353,223.085 181.02,224.585 183.5,225.5C 185.015,229.619 186.682,233.119 188.5,236C 187.804,237.893 186.97,239.726 186,241.5C 185.751,240.376 185.251,239.376 184.5,238.5C 183.473,239.791 182.473,239.791 181.5,238.5C 176.653,229.984 171.986,221.318 167.5,212.5C 167.109,208.882 168.276,206.216 171,204.5C 171.667,205.833 172.333,205.833 173,204.5C 173.66,206.324 174.827,207.657 176.5,208.5 Z"/></g>
<g><path style="opacity:1" fill="#efaa95" d="M 70.5,222.5 C 72.0075,224.181 73.0075,226.181 73.5,228.5C 71.087,227.32 70.087,225.32 70.5,222.5 Z"/></g>
<g><path style="opacity:1" fill="#e88567" d="M 233.5,215.5 C 234.397,216.598 235.23,216.598 236,215.5C 239.424,220.079 243.257,224.079 247.5,227.5C 244.294,228.663 242.627,227.33 242.5,223.5C 241.167,223.5 239.833,223.5 238.5,223.5C 238.587,220.402 238.087,220.068 237,222.5C 235.902,221.033 234.402,220.199 232.5,220C 233.38,218.644 233.714,217.144 233.5,215.5 Z"/></g>
<g><path style="opacity:1" fill="#595046" d="M 87.5,203.5 C 86.1571,212.924 84.4904,222.257 82.5,231.5C 80.8049,232.826 79.4716,232.493 78.5,230.5C 78.6749,224.61 78.6749,218.943 78.5,213.5C 78.4021,211.447 79.0687,209.78 80.5,208.5C 79.9159,211.983 80.7492,214.983 83,217.5C 83.3333,214.833 83.6667,212.167 84,209.5C 85.7495,207.743 86.9162,205.743 87.5,203.5 Z"/></g>
<g><path style="opacity:0.004" fill="#dd552b" d="M 56.5,231.5 C 55.8333,232.167 55.8333,232.167 56.5,231.5 Z"/></g>
<g><path style="opacity:0.004" fill="#dd552b" d="M 59.5,235.5 C 58.8333,236.167 58.8333,236.167 59.5,235.5 Z"/></g>
<g><path style="opacity:1" fill="#da9c88" d="M 78.5,230.5 C 79.4716,232.493 80.8049,232.826 82.5,231.5C 81.9717,232.847 81.805,234.181 82,235.5C 84.7338,237.397 86.9005,239.73 88.5,242.5C 83.4691,239.104 79.4691,235.438 76.5,231.5C 77.1667,231.167 77.8333,230.833 78.5,230.5 Z"/></g>
<g><path style="opacity:0.004" fill="#dd552b" d="M 263.5,236.5 C 263.833,236.5 264.167,236.5 264.5,236.5C 264.315,237.17 263.981,237.17 263.5,236.5 Z"/></g>
<g><path style="opacity:0.004" fill="#dd552b" d="M 262.5,238.5 C 263.833,239.167 263.833,239.167 262.5,238.5 Z"/></g>
<g><path style="opacity:0.004" fill="#dd552b" d="M 257.5,242.5 C 258.833,243.167 258.833,243.167 257.5,242.5 Z"/></g>
<g><path style="opacity:0.004" fill="#dd552b" d="M 65.5,243.5 C 64.8333,244.167 64.8333,244.167 65.5,243.5 Z"/></g>
<g><path style="opacity:1" fill="#595047" d="M 177.5,213.5 C 178.167,213.5 178.833,213.5 179.5,213.5C 182.176,220.516 185.676,227.182 190,233.5C 191.03,238.943 190.03,243.943 187,248.5C 183.604,252.065 180.104,255.398 176.5,258.5C 173.396,260.09 170.229,261.757 167,263.5C 166.333,262.833 166.333,262.167 167,261.5C 170.094,260.292 171.26,258.292 170.5,255.5C 174.464,251.532 178.63,247.865 183,244.5C 182.85,242.494 182.35,240.494 181.5,238.5C 182.473,239.791 183.473,239.791 184.5,238.5C 185.251,239.376 185.751,240.376 186,241.5C 186.97,239.726 187.804,237.893 188.5,236C 186.682,233.119 185.015,229.619 183.5,225.5C 181.02,224.585 180.353,223.085 181.5,221C 180.747,219.513 179.914,219.346 179,220.5C 178.727,218.671 177.893,217.171 176.5,216C 177.252,215.329 177.586,214.496 177.5,213.5 Z"/></g>
<g><path style="opacity:0.004" fill="#dd552b" d="M 252.5,246.5 C 252.833,246.5 253.167,246.5 253.5,246.5C 253.315,247.17 252.981,247.17 252.5,246.5 Z"/></g>
<g><path style="opacity:1" fill="#ed9d85" d="M 89.5,243.5 C 91.7726,244.767 93.7726,246.433 95.5,248.5C 92.4744,248.163 90.4744,246.496 89.5,243.5 Z"/></g>
<g><path style="opacity:1" fill="#e1643f" d="M 227.5,240.5 C 228.931,241.082 230.264,241.915 231.5,243C 230.359,243.741 230.359,244.575 231.5,245.5C 225.391,247.815 224.725,250.649 229.5,254C 223.874,258.09 217.874,261.423 211.5,264C 209.203,262.489 205.869,261.989 201.5,262.5C 209.399,258.545 217.066,254.045 224.5,249C 228.214,247.021 229.214,244.188 227.5,240.5 Z"/></g>
<g><path style="opacity:0.004" fill="#dd552b" d="M 249.5,250.5 C 250.833,251.167 250.833,251.167 249.5,250.5 Z"/></g>
<g><path style="opacity:1" fill="#eb957b" d="M 97.5,250.5 C 100.424,250.898 102.758,252.231 104.5,254.5C 101.674,254.002 99.3403,252.669 97.5,250.5 Z"/></g>
<g><path style="opacity:0.004" fill="#dd552b" d="M 245.5,253.5 C 246.833,254.167 246.833,254.167 245.5,253.5 Z"/></g>
<g><path style="opacity:1" fill="#ec977e" d="M 227.5,240.5 C 229.214,244.188 228.214,247.021 224.5,249C 217.066,254.045 209.399,258.545 201.5,262.5C 200.167,262.5 198.833,262.5 197.5,262.5C 197.36,260.876 198.027,259.71 199.5,259C 199,258.833 198.5,258.667 198,258.5C 195.79,260.111 193.29,260.778 190.5,260.5C 202.62,255.117 214.286,248.783 225.5,241.5C 225.808,237.483 223.974,234.483 220,232.5C 219.59,231.099 219.09,229.766 218.5,228.5C 220.496,226.083 221.496,226.75 221.5,230.5C 222.552,230.351 223.552,230.517 224.5,231C 225.794,233.087 226.961,235.254 228,237.5C 228.333,237.167 228.667,236.833 229,236.5C 228.857,237.865 228.357,239.198 227.5,240.5 Z"/></g>
<g><path style="opacity:0.004" fill="#dd552b" d="M 77.5,255.5 C 76.8333,256.167 76.8333,256.167 77.5,255.5 Z"/></g>
<g><path style="opacity:0.004" fill="#dd552b" d="M 239.5,257.5 C 240.833,258.167 240.833,258.167 239.5,257.5 Z"/></g>
<g><path style="opacity:0.004" fill="#dd552b" d="M 81.5,259.5 C 80.8333,258.167 80.8333,258.167 81.5,259.5 Z"/></g>
<g><path style="opacity:0.004" fill="#dd552b" d="M 81.5,259.5 C 81.8333,259.5 82.1667,259.5 82.5,259.5C 82.3147,260.17 81.9813,260.17 81.5,259.5 Z"/></g>
<g><path style="opacity:0.004" fill="#dd552b" d="M 233.5,261.5 C 233.833,261.5 234.167,261.5 234.5,261.5C 234.315,262.17 233.981,262.17 233.5,261.5 Z"/></g>
<g><path style="opacity:1" fill="#f0af9c" d="M 197.5,262.5 C 196.514,264.408 194.848,265.408 192.5,265.5C 193.486,263.592 195.152,262.592 197.5,262.5 Z"/></g>
<g><path style="opacity:1" fill="#807971" d="M 170.5,255.5 C 171.26,258.292 170.094,260.292 167,261.5C 166.333,262.167 166.333,262.833 167,263.5C 170.229,261.757 173.396,260.09 176.5,258.5C 175.797,260.873 174.464,262.873 172.5,264.5C 171.833,264.5 171.5,264.833 171.5,265.5C 169.167,265.5 166.833,265.5 164.5,265.5C 162.313,265.983 160.313,265.983 158.5,265.5C 162.096,261.585 166.096,258.252 170.5,255.5 Z"/></g>
<g><path style="opacity:1" fill="#e67b5b" d="M 197.5,262.5 C 195.152,262.592 193.486,263.592 192.5,265.5C 188.921,266.525 185.254,267.691 181.5,269C 179.288,269.789 177.288,269.622 175.5,268.5C 175.775,266.158 176.608,266.158 178,268.5C 179.707,266.963 181.207,265.296 182.5,263.5C 183.542,262.209 184.708,262.209 186,263.5C 187.129,261.859 188.629,260.859 190.5,260.5C 193.29,260.778 195.79,260.111 198,258.5C 198.5,258.667 199,258.833 199.5,259C 198.027,259.71 197.36,260.876 197.5,262.5 Z"/></g>
<g><path style="opacity:0.004" fill="#dd552b" d="M 223.5,265.5 C 224.833,266.167 224.833,266.167 223.5,265.5 Z"/></g>
<g><path style="opacity:0.004" fill="#dd552b" d="M 98.5,268.5 C 97.8333,269.167 97.8333,269.167 98.5,268.5 Z"/></g>
<g><path style="opacity:1" fill="#df5e38" d="M 70.5,222.5 C 70.087,225.32 71.087,227.32 73.5,228.5C 74.3065,229.728 75.3065,230.728 76.5,231.5C 79.4691,235.438 83.4691,239.104 88.5,242.5C 89.1667,242.5 89.5,242.833 89.5,243.5C 90.4744,246.496 92.4744,248.163 95.5,248.5C 96.1667,249.167 96.8333,249.833 97.5,250.5C 99.3403,252.669 101.674,254.002 104.5,254.5C 118.045,261.138 132.378,265.138 147.5,266.5C 148.374,267.525 149.541,268.192 151,268.5C 154.045,267.526 157.379,267.859 161,269.5C 162.627,268.468 163.793,267.134 164.5,265.5C 166.833,265.5 169.167,265.5 171.5,265.5C 174.553,265.889 177.22,265.223 179.5,263.5C 180.5,263.5 181.5,263.5 182.5,263.5C 181.207,265.296 179.707,266.963 178,268.5C 176.608,266.158 175.775,266.158 175.5,268.5C 171.245,269.8 167.245,271.467 163.5,273.5C 163.808,274.308 164.308,274.975 165,275.5C 167.25,275.695 169.584,275.361 172,274.5C 172.833,274.833 173.667,275.167 174.5,275.5C 168.946,277.262 162.946,278.762 156.5,280C 152.167,280.667 147.833,280.667 143.5,280C 141.273,279.879 139.44,279.046 138,277.5C 136.769,278.108 135.436,278.441 134,278.5C 129.133,277.574 124.299,276.574 119.5,275.5C 113.66,272.192 107.66,269.025 101.5,266C 98.8424,260.982 94.8424,257.316 89.5,255C 88.2986,254.097 87.4652,252.931 87,251.5C 86.6667,252.167 86.3333,252.833 86,253.5C 82.355,249.689 78.5217,246.023 74.5,242.5C 77.4361,242.866 80.4361,242.366 83.5,241C 82.0001,239.885 80.3334,239.052 78.5,238.5C 76.78,234.899 74.4467,231.732 71.5,229C 70.5509,228.383 69.7175,228.549 69,229.5C 69.7925,227.5 69.6259,225.5 68.5,223.5C 69.1667,223.167 69.8333,222.833 70.5,222.5 Z"/></g>
<g><path style="opacity:1" fill="#d57b60" d="M 158.5,265.5 C 160.313,265.983 162.313,265.983 164.5,265.5C 163.793,267.134 162.627,268.468 161,269.5C 157.379,267.859 154.045,267.526 151,268.5C 149.541,268.192 148.374,267.525 147.5,266.5C 151.269,266.756 154.936,266.423 158.5,265.5 Z"/></g>
<g><path style="opacity:1" fill="#f0b29f" d="M 179.5,263.5 C 177.22,265.223 174.553,265.889 171.5,265.5C 171.5,264.833 171.833,264.5 172.5,264.5C 174.861,264.326 177.194,263.993 179.5,263.5 Z"/></g>
<g><path style="opacity:0.004" fill="#dd552b" d="M 215.5,271.5 C 216.833,272.167 216.833,272.167 215.5,271.5 Z"/></g>
<g><path style="opacity:0.004" fill="#dd552b" d="M 205.5,275.5 C 206.833,276.167 206.833,276.167 205.5,275.5 Z"/></g>
<g><path style="opacity:0.004" fill="#dd552b" d="M 193.5,279.5 C 194.833,280.167 194.833,280.167 193.5,279.5 Z"/></g>
<g><path style="opacity:0.004" fill="#dd552b" d="M 132.5,281.5 C 133.833,282.167 133.833,282.167 132.5,281.5 Z"/></g>
<g><path style="opacity:0.004" fill="#dd552b" d="M 175.5,284.5 C 175.897,283.475 176.563,283.308 177.5,284C 176.906,284.464 176.239,284.631 175.5,284.5 Z"/></g>
</svg>
