<?xml version="1.0" encoding="UTF-8"?>
<!DOCTYPE svg PUBLIC "-//W3C//DTD SVG 1.1//EN" "http://www.w3.org/Graphics/SVG/1.1/DTD/svg11.dtd">
<svg xmlns="http://www.w3.org/2000/svg" version="1.1" width="328px" height="313px" style="shape-rendering:geometricPrecision; text-rendering:geometricPrecision; image-rendering:optimizeQuality; fill-rule:evenodd; clip-rule:evenodd" xmlns:xlink="http://www.w3.org/1999/xlink">
<g><path style="opacity:0.586" fill="#2e4428" d="M 210.5,30.5 C 214.046,38.4887 217.38,46.4887 220.5,54.5C 221.266,58.0816 221.266,61.5816 220.5,65C 222.689,65.677 223.022,66.8437 221.5,68.5C 223.148,72.6727 224.481,77.0061 225.5,81.5C 225.783,84.7318 225.783,88.0651 225.5,91.5C 225.846,92.6956 226.346,92.6956 227,91.5C 228.798,87.578 230.298,83.578 231.5,79.5C 232.552,79.6495 233.552,79.4828 234.5,79C 233.483,77.9505 233.316,76.7839 234,75.5C 234.667,74.1667 235.333,74.1667 236,75.5C 238.047,72.8339 239.547,69.8339 240.5,66.5C 241.583,66.4606 242.583,66.1272 243.5,65.5C 244.629,62.5372 246.629,60.3706 249.5,59C 249.043,58.586 248.709,58.086 248.5,57.5C 249.993,56.8589 250.993,55.8589 251.5,54.5C 252.5,54.5 253.5,54.5 254.5,54.5C 254.527,52.8007 255.194,51.4674 256.5,50.5C 257.93,50.5792 259.264,50.2458 260.5,49.5C 262.62,50.4033 262.954,51.7367 261.5,53.5C 262.325,54.3857 263.325,54.719 264.5,54.5C 264.799,56.604 264.466,58.604 263.5,60.5C 259.302,63.8456 255.969,67.3456 253.5,71C 250.826,75.8897 247.493,80.8897 243.5,86C 244.451,86.7175 244.617,87.5509 244,88.5C 243.333,89.8333 242.667,89.8333 242,88.5C 240.311,94.408 237.811,99.408 234.5,103.5C 233.347,102.687 233.347,101.687 234.5,100.5C 233.833,100.167 233.167,99.8333 232.5,99.5C 235.824,98.8408 237.157,96.8408 236.5,93.5C 235.448,93.6495 234.448,93.4828 233.5,93C 234.522,90.4552 235.688,87.9552 237,85.5C 237.914,86.6537 238.747,86.487 239.5,85C 238.167,84.6667 236.833,84.3333 235.5,84C 236.609,82.187 235.942,81.3537 233.5,81.5C 233.421,82.9305 233.754,84.2638 234.5,85.5C 233.253,87.323 232.586,89.323 232.5,91.5C 231.624,91.3691 230.957,91.7025 230.5,92.5C 226.493,99.5087 223.327,106.842 221,114.5C 220.829,106.656 220.329,98.989 219.5,91.5C 218.734,84.014 217.734,76.6806 216.5,69.5C 215.853,62.9398 214.353,56.6065 212,50.5C 212.5,57.1763 213.333,63.843 214.5,70.5C 215.217,82.8201 215.551,95.1534 215.5,107.5C 214.162,117.032 212.995,126.699 212,136.5C 209.157,146.201 206.157,155.868 203,165.5C 202.235,167.066 202.402,168.399 203.5,169.5C 207.099,171.197 209.933,170.197 212,166.5C 212.737,162.13 213.57,157.796 214.5,153.5C 215.63,148.777 216.963,144.11 218.5,139.5C 219.5,139.5 220.5,139.5 221.5,139.5C 221.5,141.5 221.5,143.5 221.5,145.5C 220.566,146.568 220.232,147.901 220.5,149.5C 226.358,149.822 232.025,149.489 237.5,148.5C 241.21,146.302 241.21,144.136 237.5,142C 234.849,141.847 232.516,141.013 230.5,139.5C 227.795,136.136 224.462,135.136 220.5,136.5C 220.54,131.807 220.873,127.141 221.5,122.5C 221.5,122.167 221.5,121.833 221.5,121.5C 222.927,119.852 223.76,117.852 224,115.5C 223.637,119.53 223.804,123.53 224.5,127.5C 225.325,125.64 226.325,123.974 227.5,122.5C 227.923,123.265 228.257,124.098 228.5,125C 226.916,126.835 225.583,128.835 224.5,131C 228.125,131.876 231.791,132.71 235.5,133.5C 238.557,134.141 241.39,135.474 244,137.5C 244.333,137.167 244.667,136.833 245,136.5C 245.282,131.534 245.115,126.534 244.5,121.5C 245.117,121.611 245.617,121.944 246,122.5C 246.651,120.765 246.485,119.098 245.5,117.5C 247.455,115.57 249.121,113.403 250.5,111C 250.167,110.667 249.833,110.333 249.5,110C 252.066,107.928 254.4,105.761 256.5,103.5C 261.795,102.186 266.462,99.8524 270.5,96.5C 274.567,93.7882 278.901,91.4548 283.5,89.5C 284.425,88.6431 285.092,87.6431 285.5,86.5C 286.833,86.5 288.167,86.5 289.5,86.5C 292.562,84.8695 294.229,85.8695 294.5,89.5C 284.173,96.1579 273.839,102.825 263.5,109.5C 262.577,108.697 261.577,108.53 260.5,109C 258.954,111.257 257.288,113.424 255.5,115.5C 253.499,121.504 251.499,127.504 249.5,133.5C 251.828,135.574 251.161,136.574 247.5,136.5C 248.687,141.533 247.354,145.867 243.5,149.5C 248.572,150.433 250.906,148.1 250.5,142.5C 253.532,142.505 256.532,142.838 259.5,143.5C 262.213,143.025 264.213,141.692 265.5,139.5C 269.139,138.347 272.472,136.681 275.5,134.5C 278.74,132.361 280.74,129.361 281.5,125.5C 281.5,124.833 281.833,124.5 282.5,124.5C 284.505,125.124 286.172,124.29 287.5,122C 286.724,120.23 286.89,118.397 288,116.5C 292.147,114.726 294.147,111.726 294,107.5C 293.5,106.333 292.667,105.5 291.5,105C 292.308,104.692 292.975,104.192 293.5,103.5C 295.491,99.9237 296.158,96.2571 295.5,92.5C 296.186,91.1516 297.186,89.985 298.5,89C 297.62,86.7415 296.62,84.5748 295.5,82.5C 295.5,82.1667 295.5,81.8333 295.5,81.5C 300.756,81.2539 303.756,83.7539 304.5,89C 303.374,92.3002 302.374,95.6336 301.5,99C 302.727,100.587 302.394,101.921 300.5,103C 301.925,104.714 301.592,106.047 299.5,107C 299.957,107.414 300.291,107.914 300.5,108.5C 297.899,117.21 294.565,125.544 290.5,133.5C 289.448,133.351 288.448,133.517 287.5,134C 285.533,136.436 283.866,138.936 282.5,141.5C 278.967,141.676 275.967,143.009 273.5,145.5C 273.624,146.107 273.957,146.44 274.5,146.5C 276.302,147.458 278.302,148.125 280.5,148.5C 280.318,150.591 280.652,152.591 281.5,154.5C 267.959,155.149 254.959,155.483 242.5,155.5C 238.097,157.733 234.097,160.566 230.5,164C 229.588,166.205 228.255,168.038 226.5,169.5C 222.768,169.623 221.435,171.29 222.5,174.5C 226.774,177.368 231.441,179.035 236.5,179.5C 238.835,182.165 241.835,183.498 245.5,183.5C 255.709,188.736 266.709,193.403 278.5,197.5C 280.915,199.585 283.582,201.251 286.5,202.5C 285.289,203.72 285.289,204.887 286.5,206C 284.493,207.217 282.326,208.051 280,208.5C 278.342,208.325 277.009,207.658 276,206.5C 275.692,207.308 275.192,207.975 274.5,208.5C 272.132,206.777 269.466,206.11 266.5,206.5C 266.678,205.305 267.011,204.138 267.5,203C 266.224,199.736 264.724,196.569 263,193.5C 262.29,194.973 261.124,195.64 259.5,195.5C 259.649,194.448 259.483,193.448 259,192.5C 256.599,193.602 254.099,193.769 251.5,193C 246.178,191.337 240.844,189.671 235.5,188C 235.833,187.667 236.167,187.333 236.5,187C 232.809,186.58 229.142,186.08 225.5,185.5C 224.609,184.89 223.609,184.557 222.5,184.5C 222.586,183.504 222.252,182.671 221.5,182C 219.527,181.505 217.527,181.338 215.5,181.5C 213.156,181.06 211.156,180.06 209.5,178.5C 205.232,175.005 200.232,173.671 194.5,174.5C 192.59,173.316 192.257,171.816 193.5,170C 190.778,171.07 188.612,170.237 187,167.5C 186.275,168.059 185.442,168.392 184.5,168.5C 182.167,166.5 179.833,164.5 177.5,162.5C 175.603,162.728 174.27,163.728 173.5,165.5C 172.186,164.687 171.019,163.687 170,162.5C 169.586,162.957 169.086,163.291 168.5,163.5C 165.015,162.269 162.681,159.935 161.5,156.5C 157.563,155.114 157.563,153.78 161.5,152.5C 161.833,152.5 162.167,152.5 162.5,152.5C 163.261,153.391 164.261,154.058 165.5,154.5C 173.57,152.296 181.737,151.63 190,152.5C 193.116,151.091 196.282,150.091 199.5,149.5C 200.6,148.395 201.267,147.062 201.5,145.5C 203.13,143.974 203.963,141.974 204,139.5C 204.796,136.961 204.629,134.628 203.5,132.5C 202.833,132.5 202.5,132.167 202.5,131.5C 202.804,130.85 203.137,130.183 203.5,129.5C 202.478,128.646 201.645,127.646 201,126.5C 196.269,126.657 191.435,126.824 186.5,127C 182.277,128.472 177.943,129.472 173.5,130C 168.037,132.733 162.37,134.899 156.5,136.5C 159.177,133.831 162.177,131.498 165.5,129.5C 168.384,128.791 171.051,127.791 173.5,126.5C 176.843,125.632 180.176,124.632 183.5,123.5C 184.967,124.695 186.467,124.695 188,123.5C 188.945,123.905 189.612,124.572 190,125.5C 191.333,122.833 192.667,122.833 194,125.5C 194.388,124.572 195.055,123.905 196,123.5C 197.235,124.615 198.402,124.615 199.5,123.5C 200.324,125.748 201.324,125.914 202.5,124C 200.807,120.784 198.973,117.617 197,114.5C 197.077,115.738 196.911,116.738 196.5,117.5C 195.692,117.192 195.025,116.692 194.5,116C 195.38,114.644 195.714,113.144 195.5,111.5C 193.167,111.5 190.833,111.5 188.5,111.5C 188.559,109.235 187.726,108.902 186,110.5C 182.064,107.897 177.897,106.897 173.5,107.5C 173.167,106.167 172.833,106.167 172.5,107.5C 171.292,106.766 169.959,106.433 168.5,106.5C 166.763,104.117 164.43,102.451 161.5,101.5C 158.452,97.5813 155.786,93.9146 153.5,90.5C 151.286,84.8567 149.286,79.19 147.5,73.5C 147.031,66.0178 147.698,58.3511 149.5,50.5C 149.273,48.329 148.94,46.1623 148.5,44C 149.423,41.515 150.423,39.015 151.5,36.5C 151.291,35.914 150.957,35.414 150.5,35C 156.132,33.8226 160.799,35.3226 164.5,39.5C 164.369,40.2389 164.536,40.9056 165,41.5C 165.741,40.3595 166.575,40.3595 167.5,41.5C 171.232,45.7629 175.232,49.7629 179.5,53.5C 179.5,55.5 180.5,56.5 182.5,56.5C 185.997,63.7326 189.997,70.2326 194.5,76C 193.078,79.7357 194.078,82.7357 197.5,85C 196.426,85.7387 195.759,86.7387 195.5,88C 196.961,90.3185 197.961,92.8185 198.5,95.5C 198.575,98.3164 198.575,101.15 198.5,104C 198.639,105.301 199.305,106.134 200.5,106.5C 202.462,109.185 203.962,112.185 205,115.5C 205.072,111.469 205.906,107.636 207.5,104C 206.385,102.765 206.385,101.598 207.5,100.5C 204.88,98.535 205.214,97.035 208.5,96C 205.522,94.1523 205.188,92.1523 207.5,90C 206.932,88.7044 206.932,87.2044 207.5,85.5C 207.36,83.9704 206.693,82.9704 205.5,82.5C 207.07,80.4713 208.07,78.138 208.5,75.5C 206.375,73.4512 205.042,71.2846 204.5,69C 205.167,68.3333 205.833,67.6667 206.5,67C 205.727,61.0359 204.727,55.2026 203.5,49.5C 203.664,46.8127 203.497,44.146 203,41.5C 202.667,42.5 202.333,43.5 202,44.5C 200.068,41.4358 199.401,38.1024 200,34.5C 201.307,33.2283 202.807,32.2283 204.5,31.5C 203.41,30.3914 203.41,29.3914 204.5,28.5C 206.53,29.1717 208.53,29.8384 210.5,30.5 Z M 217.5,165.5 C 218.083,162.173 219.416,159.173 221.5,156.5C 224.167,155.167 226.833,155.167 229.5,156.5C 227.61,157.424 226.11,158.757 225,160.5C 224.667,160.167 224.333,159.833 224,159.5C 223.517,160.448 223.351,161.448 223.5,162.5C 221.328,163.206 219.328,164.206 217.5,165.5 Z M 183.5,158.5 C 186.519,158.622 189.686,158.289 193,157.5C 194.399,158.227 195.899,158.727 197.5,159C 195.617,161.261 194.284,163.428 193.5,165.5C 188.682,163.459 184.348,161.459 180.5,159.5C 177.203,160.423 173.536,160.256 169.5,159C 174.155,158.501 178.821,158.334 183.5,158.5 Z"/></g>
<g><path style="opacity:0.004" fill="#2c4326" d="M 210.5,29.5 C 211.833,30.1667 211.833,30.1667 210.5,29.5 Z"/></g>
<g><path style="opacity:0.004" fill="#2c4326" d="M 151.5,32.5 C 152.833,33.1667 152.833,33.1667 151.5,32.5 Z"/></g>
<g><path style="opacity:0.004" fill="#2c4326" d="M 158.5,33.5 C 159.833,34.1667 159.833,34.1667 158.5,33.5 Z"/></g>
<g><path style="opacity:0.004" fill="#2c4326" d="M 214.5,34.5 C 215.525,34.8966 215.692,35.5632 215,36.5C 214.536,35.9056 214.369,35.2389 214.5,34.5 Z"/></g>
<g><path style="opacity:0.004" fill="#2c4326" d="M 197.5,37.5 C 198.833,38.1667 198.833,38.1667 197.5,37.5 Z"/></g>
<g><path style="opacity:0.007" fill="#2c4326" d="M 215.5,38.5 C 216.743,37.2625 217.743,37.5959 218.5,39.5C 218.167,39.8333 217.833,40.1667 217.5,40.5C 216.818,39.7573 216.151,39.0906 215.5,38.5 Z"/></g>
<g><path style="opacity:0.004" fill="#2c4326" d="M 164.5,38.5 C 165.833,39.1667 165.833,39.1667 164.5,38.5 Z"/></g>
<g><path style="opacity:0.004" fill="#2c4326" d="M 147.5,39.5 C 148.833,40.1667 148.833,40.1667 147.5,39.5 Z"/></g>
<g><path style="opacity:0.904" fill="#3e5737" d="M 162.5,46.5 C 161.193,45.8466 159.86,45.1799 158.5,44.5C 156.041,51.2648 154.708,58.2648 154.5,65.5C 153.799,62.4371 153.132,59.2704 152.5,56C 154.059,54.0042 154.726,51.6709 154.5,49C 154.435,46.7746 154.102,44.6079 153.5,42.5C 154.167,42.1667 154.833,41.8333 155.5,41.5C 157.762,42.4669 160.095,43.1336 162.5,43.5C 162.5,44.5 162.5,45.5 162.5,46.5 Z"/></g>
<g><path style="opacity:0.595" fill="#709467" d="M 162.5,46.5 C 170.602,54.1092 177.435,62.7759 183,72.5C 184.303,77.7583 186.137,82.7583 188.5,87.5C 188.55,92.3655 189.55,97.0322 191.5,101.5C 188.627,101.876 185.627,101.876 182.5,101.5C 176.309,101.196 170.642,99.1958 165.5,95.5C 159.062,86.6044 155.395,76.6044 154.5,65.5C 154.708,58.2648 156.041,51.2648 158.5,44.5C 159.86,45.1799 161.193,45.8466 162.5,46.5 Z"/></g>
<g><path style="opacity:0.004" fill="#2c4326" d="M 201.5,46.5 C 202.833,47.1667 202.833,47.1667 201.5,46.5 Z"/></g>
<g><path style="opacity:0.013" fill="#2c4326" d="M 203.5,49.5 C 203.663,51.8568 203.497,54.1902 203,56.5C 202.425,54.0276 201.592,52.3609 200.5,51.5C 200.547,48.7614 201.547,48.0947 203.5,49.5 Z"/></g>
<g><path style="opacity:0.004" fill="#2c4326" d="M 256.5,50.5 C 255.761,50.631 255.094,50.4643 254.5,50C 255.437,49.3083 256.103,49.475 256.5,50.5 Z"/></g>
<g><path style="opacity:0.004" fill="#2c4326" d="M 179.5,51.5 C 178.833,50.1667 178.833,50.1667 179.5,51.5 Z"/></g>
<g><path style="opacity:0.004" fill="#2c4326" d="M 179.5,51.5 C 180.833,52.1667 180.833,52.8333 179.5,53.5C 179.5,52.8333 179.5,52.1667 179.5,51.5 Z"/></g>
<g><path style="opacity:0.004" fill="#2c4326" d="M 220.5,53.5 C 221.833,54.1667 221.833,54.1667 220.5,53.5 Z"/></g>
<g><path style="opacity:0.004" fill="#2c4326" d="M 251.5,54.5 C 250.833,53.1667 250.833,53.1667 251.5,54.5 Z"/></g>
<g><path style="opacity:0.004" fill="#2c4326" d="M 182.5,55.5 C 181.833,54.1667 181.833,54.1667 182.5,55.5 Z"/></g>
<g><path style="opacity:0.004" fill="#2c4326" d="M 250.5,54.5 C 249.833,55.1667 249.833,55.1667 250.5,54.5 Z"/></g>
<g><path style="opacity:0.005" fill="#2c4326" d="M 182.5,56.5 C 182.5,56.1667 182.5,55.8333 182.5,55.5C 183.376,55.3691 184.043,55.7025 184.5,56.5C 184.03,57.463 183.363,57.463 182.5,56.5 Z"/></g>
<g><path style="opacity:0.004" fill="#2c4326" d="M 245.5,58.5 C 246.833,59.1667 246.833,59.1667 245.5,58.5 Z"/></g>
<g><path style="opacity:0.004" fill="#2c4326" d="M 185.5,59.5 C 186.833,60.1667 186.833,60.1667 185.5,59.5 Z"/></g>
<g><path style="opacity:0.004" fill="#2c4326" d="M 245.5,59.5 C 244.833,60.1667 244.833,60.1667 245.5,59.5 Z"/></g>
<g><path style="opacity:0.004" fill="#2c4326" d="M 55.5,60.5 C 56.8333,61.1667 56.8333,61.1667 55.5,60.5 Z"/></g>
<g><path style="opacity:0.004" fill="#2c4326" d="M 50.5,64.5 C 49.8333,63.1667 49.8333,63.1667 50.5,64.5 Z"/></g>
<g><path style="opacity:0.004" fill="#2c4326" d="M 69.5,63.5 C 70.8333,64.1667 70.8333,64.1667 69.5,63.5 Z"/></g>
<g><path style="opacity:0.005" fill="#2c4326" d="M 202.5,63.5 C 205.001,63.5109 205.168,64.1776 203,65.5C 202.536,64.9056 202.369,64.2389 202.5,63.5 Z"/></g>
<g><path style="opacity:0.004" fill="#2c4326" d="M 240.5,66.5 C 239.227,65.9232 239.227,65.2565 240.5,64.5C 241.463,64.9698 241.463,65.6365 240.5,66.5 Z"/></g>
<g><path style="opacity:0.004" fill="#2c4326" d="M 260.5,64.5 C 261.833,65.1667 261.833,65.1667 260.5,64.5 Z"/></g>
<g><path style="opacity:0.004" fill="#2c4326" d="M 146.5,66.5 C 147.833,67.1667 147.833,67.1667 146.5,66.5 Z"/></g>
<g><path style="opacity:0.008" fill="#2c4326" d="M 189.5,66.5 C 190.833,67.1667 190.833,67.1667 189.5,66.5 Z"/></g>
<g><path style="opacity:0.651" fill="#5c6b58" d="M 102.5,100.5 C 102.318,102.591 102.652,104.591 103.5,106.5C 99.5317,108.634 96.3651,111.634 94,115.5C 93.3603,117.265 93.5269,118.932 94.5,120.5C 87.8654,120.688 82.1988,118.354 77.5,113.5C 74.5324,110.674 71.5324,107.84 68.5,105C 67.255,104.209 65.9217,103.709 64.5,103.5C 61.2151,99.8508 57.2151,97.1841 52.5,95.5C 48.6638,91.6237 47.4972,86.957 49,81.5C 50.2818,74.9259 53.9485,70.2592 60,67.5C 63.2605,69.7533 66.7605,71.5866 70.5,73C 80.5271,81.0047 90.8604,88.5047 101.5,95.5C 102.452,97.0453 102.785,98.712 102.5,100.5 Z"/></g>
<g><path style="opacity:0.004" fill="#2c4326" d="M 257.5,67.5 C 258.833,68.1667 258.833,68.1667 257.5,67.5 Z"/></g>
<g><path style="opacity:0.004" fill="#2c4326" d="M 76.5,68.5 C 77.8333,69.1667 77.8333,69.1667 76.5,68.5 Z"/></g>
<g><path style="opacity:0.529" fill="#57774f" d="M 216.5,69.5 C 215.833,69.5 215.5,69.8333 215.5,70.5C 215.167,70.5 214.833,70.5 214.5,70.5C 213.333,63.843 212.5,57.1763 212,50.5C 214.353,56.6065 215.853,62.9398 216.5,69.5 Z"/></g>
<g><path style="opacity:0.004" fill="#2c4326" d="M 79.5,69.5 C 80.8333,70.1667 80.8333,70.1667 79.5,69.5 Z"/></g>
<g><path style="opacity:0.004" fill="#2c4326" d="M 44.5,70.5 C 45.8333,71.1667 45.8333,71.1667 44.5,70.5 Z"/></g>
<g><path style="opacity:0.004" fill="#2c4326" d="M 81.5,70.5 C 82.8333,71.1667 82.8333,71.1667 81.5,70.5 Z"/></g>
<g><path style="opacity:0.004" fill="#2c4326" d="M 147.5,73.5 C 147.631,74.2389 147.464,74.9056 147,75.5C 146.308,74.5632 146.475,73.8966 147.5,73.5 Z"/></g>
<g><path style="opacity:0.004" fill="#2c4326" d="M 205.5,73.5 C 206.833,74.1667 206.833,74.1667 205.5,73.5 Z"/></g>
<g><path style="opacity:0.004" fill="#2c4326" d="M 85.5,74.5 C 86.8333,75.1667 86.8333,75.1667 85.5,74.5 Z"/></g>
<g><path style="opacity:0.004" fill="#2c4326" d="M 225.5,75.5 C 224.833,74.1667 224.833,74.1667 225.5,75.5 Z"/></g>
<g><path style="opacity:0.004" fill="#2c4326" d="M 225.5,75.5 C 226.833,76.1667 226.833,76.1667 225.5,75.5 Z"/></g>
<g><path style="opacity:0.004" fill="#2c4326" d="M 146.5,76.5 C 147.833,77.1667 147.833,77.1667 146.5,76.5 Z"/></g>
<g><path style="opacity:0.004" fill="#2c4326" d="M 251.5,76.5 C 252.833,77.1667 252.833,77.1667 251.5,76.5 Z"/></g>
<g><path style="opacity:0.004" fill="#2c4326" d="M 195.5,79.5 C 194.475,79.1034 194.308,78.4368 195,77.5C 195.464,78.0944 195.631,78.7611 195.5,79.5 Z"/></g>
<g><path style="opacity:0.715" fill="#6d9165" d="M 216.5,69.5 C 217.734,76.6806 218.734,84.014 219.5,91.5C 218.956,100.694 219.623,109.694 221.5,118.5C 221.5,119.5 221.5,120.5 221.5,121.5C 221.5,121.833 221.5,122.167 221.5,122.5C 219.678,127.893 218.678,133.559 218.5,139.5C 216.963,144.11 215.63,148.777 214.5,153.5C 211.846,158.157 209.679,163.157 208,168.5C 206.644,169.38 205.144,169.714 203.5,169.5C 202.402,168.399 202.235,167.066 203,165.5C 206.157,155.868 209.157,146.201 212,136.5C 212.995,126.699 214.162,117.032 215.5,107.5C 216.598,95.3275 216.598,82.9942 215.5,70.5C 215.5,69.8333 215.833,69.5 216.5,69.5 Z"/></g>
<g><path style="opacity:0.004" fill="#2c4326" d="M 225.5,78.5 C 226.833,79.1667 226.833,79.1667 225.5,78.5 Z"/></g>
<g><path style="opacity:0.004" fill="#2c4326" d="M 40.5,80.5 C 39.8333,79.1667 39.8333,79.1667 40.5,80.5 Z"/></g>
<g><path style="opacity:0.004" fill="#2c4326" d="M 92.5,79.5 C 93.8333,80.1667 93.8333,80.1667 92.5,79.5 Z"/></g>
<g><path style="opacity:0.008" fill="#2c4326" d="M 195.5,79.5 C 196.833,80.1667 196.833,80.1667 195.5,79.5 Z"/></g>
<g><path style="opacity:0.004" fill="#2c4326" d="M 95.5,81.5 C 94.8333,80.1667 94.8333,80.1667 95.5,81.5 Z"/></g>
<g><path style="opacity:0.004" fill="#2c4326" d="M 295.5,81.5 C 294.833,80.1667 294.833,80.1667 295.5,81.5 Z"/></g>
<g><path style="opacity:0.004" fill="#2c4326" d="M 95.5,81.5 C 96.8333,82.1667 96.8333,82.1667 95.5,81.5 Z"/></g>
<g><path style="opacity:0.004" fill="#719768" d="M 291.5,82.5 C 290.833,81.1667 290.833,81.1667 291.5,82.5 Z"/></g>
<g><path style="opacity:0.004" fill="#2c4326" d="M 205.5,82.5 C 204.833,83.1667 204.833,83.1667 205.5,82.5 Z"/></g>
<g><path style="opacity:0.856" fill="#46623f" d="M 214.5,70.5 C 214.833,70.5 215.167,70.5 215.5,70.5C 216.598,82.9942 216.598,95.3275 215.5,107.5C 215.551,95.1534 215.217,82.8201 214.5,70.5 Z"/></g>
<g><path style="opacity:0.004" fill="#719768" d="M 290.5,84.5 C 289.833,83.1667 289.833,83.1667 290.5,84.5 Z"/></g>
<g><path style="opacity:0.008" fill="#2c4326" d="M 97.5,84.5 C 98.8333,85.1667 98.8333,85.1667 97.5,84.5 Z"/></g>
<g><path style="opacity:0.004" fill="#719768" d="M 287.5,84.5 C 288.833,85.1667 288.833,85.1667 287.5,84.5 Z"/></g>
<g><path style="opacity:0.004" fill="#2c4326" d="M 100.5,85.5 C 101.833,86.1667 101.833,86.1667 100.5,85.5 Z"/></g>
<g><path style="opacity:0.004" fill="#2c4326" d="M 285.5,86.5 C 284.833,85.1667 284.833,85.1667 285.5,86.5 Z"/></g>
<g><path style="opacity:0.663" fill="#4d6945" d="M 295.5,82.5 C 296.62,84.5748 297.62,86.7415 298.5,89C 297.186,89.985 296.186,91.1516 295.5,92.5C 295.737,91.209 295.404,90.209 294.5,89.5C 294.229,85.8695 292.562,84.8695 289.5,86.5C 289.833,85.8333 290.167,85.1667 290.5,84.5C 291.338,84.1583 291.672,83.4916 291.5,82.5C 292.702,81.5946 294.036,81.5946 295.5,82.5 Z"/></g>
<g><path style="opacity:0.004" fill="#2c4326" d="M 279.5,89.5 C 279.897,88.475 280.563,88.3083 281.5,89C 280.906,89.4643 280.239,89.631 279.5,89.5 Z"/></g>
<g><path style="opacity:0.004" fill="#2c4326" d="M 105.5,89.5 C 106.833,90.1667 106.833,90.1667 105.5,89.5 Z"/></g>
<g><path style="opacity:0.005" fill="#2c4326" d="M 153.5,90.5 C 153.253,92.9752 152.587,92.9752 151.5,90.5C 151.97,89.537 152.637,89.537 153.5,90.5 Z"/></g>
<g><path style="opacity:0.004" fill="#2c4326" d="M 198.5,89.5 C 199.833,90.1667 199.833,90.1667 198.5,89.5 Z"/></g>
<g><path style="opacity:0.709" fill="#709567" d="M 294.5,89.5 C 295.404,90.209 295.737,91.209 295.5,92.5C 291.64,99.2521 289.14,106.585 288,114.5C 286.423,117.989 284.589,121.323 282.5,124.5C 281.833,124.5 281.5,124.833 281.5,125.5C 279.255,128.32 277.255,131.32 275.5,134.5C 272.472,136.681 269.139,138.347 265.5,139.5C 261.907,139.641 258.407,140.308 255,141.5C 254.167,141.167 253.333,140.833 252.5,140.5C 253.814,132.753 255.647,125.086 258,117.5C 259.596,114.631 261.43,111.964 263.5,109.5C 273.839,102.825 284.173,96.1579 294.5,89.5 Z"/></g>
<g><path style="opacity:0.004" fill="#2c4326" d="M 198.5,91.5 C 199.833,92.1667 199.833,92.1667 198.5,91.5 Z"/></g>
<g><path style="opacity:0.004" fill="#2c4326" d="M 274.5,91.5 C 275.833,92.1667 275.833,92.1667 274.5,91.5 Z"/></g>
<g><path style="opacity:0.004" fill="#2c4326" d="M 39.5,92.5 C 38.8333,93.1667 38.8333,93.1667 39.5,92.5 Z"/></g>
<g><path style="opacity:0.008" fill="#2c4326" d="M 270.5,96.5 C 268.025,96.2533 268.025,95.5866 270.5,94.5C 271.463,94.9698 271.463,95.6365 270.5,96.5 Z"/></g>
<g><path style="opacity:0.004" fill="#2c4326" d="M 43.5,96.5 C 43.5,96.8333 43.5,97.1667 43.5,97.5C 42.8299,97.0187 42.8299,96.6853 43.5,96.5 Z"/></g>
<g><path style="opacity:0.004" fill="#2c4326" d="M 155.5,96.5 C 156.833,97.1667 156.833,97.1667 155.5,96.5 Z"/></g>
<g><path style="opacity:0.004" fill="#2c4326" d="M 43.5,97.5 C 44.8333,98.1667 44.8333,98.1667 43.5,97.5 Z"/></g>
<g><path style="opacity:0.004" fill="#2c4326" d="M 264.5,97.5 C 265.833,98.1667 265.833,98.1667 264.5,97.5 Z"/></g>
<g><path style="opacity:0.894" fill="#3c5636" d="M 188.5,87.5 C 189.434,88.5676 189.768,89.901 189.5,91.5C 190.5,91.5 191.5,91.5 192.5,91.5C 192.339,94.5279 193.006,97.3612 194.5,100C 194.05,101.285 193.383,102.452 192.5,103.5C 193.818,107.692 192.818,108.359 189.5,105.5C 185.744,106.777 183.41,105.443 182.5,101.5C 185.627,101.876 188.627,101.876 191.5,101.5C 189.55,97.0322 188.55,92.3655 188.5,87.5 Z"/></g>
<g><path style="opacity:0.004" fill="#2c4326" d="M 260.5,100.5 C 260.897,99.475 261.563,99.3083 262.5,100C 261.906,100.464 261.239,100.631 260.5,100.5 Z"/></g>
<g><path style="opacity:0.004" fill="#2c4326" d="M 260.5,100.5 C 259.833,101.167 259.833,101.167 260.5,100.5 Z"/></g>
<g><path style="opacity:0.008" fill="#2c4326" d="M 161.5,101.5 C 160.833,102.167 160.833,102.167 161.5,101.5 Z"/></g>
<g><path style="opacity:0.004" fill="#2c4326" d="M 256.5,103.5 C 255.227,102.923 255.227,102.257 256.5,101.5C 257.463,101.97 257.463,102.637 256.5,103.5 Z"/></g>
<g><path style="opacity:0.004" fill="#2c4326" d="M 236.5,102.5 C 237.833,103.167 237.833,103.167 236.5,102.5 Z"/></g>
<g><path style="opacity:0.004" fill="#2c4326" d="M 202.5,106.5 C 201.833,106.5 201.167,106.5 200.5,106.5C 200.786,104.067 201.452,104.067 202.5,106.5 Z"/></g>
<g><path style="opacity:0.004" fill="#2c4326" d="M 250.5,105.5 C 251.833,106.167 251.833,106.167 250.5,105.5 Z"/></g>
<g><path style="opacity:0.004" fill="#2c4326" d="M 168.5,106.5 C 167.833,107.167 167.833,107.167 168.5,106.5 Z"/></g>
<g><path style="opacity:0.004" fill="#2c4326" d="M 202.5,106.5 C 203.833,107.167 203.833,107.167 202.5,106.5 Z"/></g>
<g><path style="opacity:0.995" fill="#354c2e" d="M 234.5,103.5 C 232.626,108.079 230.626,112.579 228.5,117C 230.917,119.153 230.584,120.986 227.5,122.5C 226.325,123.974 225.325,125.64 224.5,127.5C 223.804,123.53 223.637,119.53 224,115.5C 223.76,117.852 222.927,119.852 221.5,121.5C 221.5,120.5 221.5,119.5 221.5,118.5C 224.951,109.495 228.618,100.495 232.5,91.5C 232.586,89.323 233.253,87.323 234.5,85.5C 233.754,84.2638 233.421,82.9305 233.5,81.5C 235.942,81.3537 236.609,82.187 235.5,84C 236.833,84.3333 238.167,84.6667 239.5,85C 238.747,86.487 237.914,86.6537 237,85.5C 235.688,87.9552 234.522,90.4552 233.5,93C 234.448,93.4828 235.448,93.6495 236.5,93.5C 237.157,96.8408 235.824,98.8408 232.5,99.5C 233.167,99.8333 233.833,100.167 234.5,100.5C 233.347,101.687 233.347,102.687 234.5,103.5 Z"/></g>
<g><path style="opacity:0.004" fill="#2c4326" d="M 55.5,107.5 C 56.8333,108.167 56.8333,108.167 55.5,107.5 Z"/></g>
<g><path style="opacity:0.749" fill="#465841" d="M 64.5,103.5 C 65.9217,103.709 67.255,104.209 68.5,105C 71.5324,107.84 74.5324,110.674 77.5,113.5C 72.2379,111.222 67.9046,107.888 64.5,103.5 Z"/></g>
<g><path style="opacity:0.004" fill="#2c4326" d="M 172.5,107.5 C 172.833,107.5 173.167,107.5 173.5,107.5C 173.315,108.17 172.981,108.17 172.5,107.5 Z"/></g>
<g><path style="opacity:0.004" fill="#2c4326" d="M 111.5,109.5 C 112.833,110.167 112.833,110.167 111.5,109.5 Z"/></g>
<g><path style="opacity:0.004" fill="#2c4326" d="M 116.5,111.5 C 115.833,110.167 115.833,110.167 116.5,111.5 Z"/></g>
<g><path style="opacity:0.004" fill="#2c4326" d="M 61.5,111.5 C 60.8333,112.167 60.8333,112.167 61.5,111.5 Z"/></g>
<g><path style="opacity:0.619" fill="#30452a" d="M 128.5,121.5 C 130.118,122.451 131.451,123.784 132.5,125.5C 134.022,126.562 135.688,127.229 137.5,127.5C 137.5,128.833 137.5,130.167 137.5,131.5C 139.216,131.629 140.883,131.962 142.5,132.5C 143.945,134.063 145.611,135.396 147.5,136.5C 150.327,137.368 153.327,137.368 156.5,136.5C 156.267,138.062 155.6,139.395 154.5,140.5C 153.167,141.5 153.167,142.5 154.5,143.5C 154.5,144.833 154.5,146.167 154.5,147.5C 153.167,147.5 151.833,147.5 150.5,147.5C 148.167,145.167 145.833,142.833 143.5,140.5C 140.527,138.853 137.86,136.853 135.5,134.5C 134.07,133.463 132.403,132.796 130.5,132.5C 130.672,131.508 130.338,130.842 129.5,130.5C 121.775,125.452 114.109,120.119 106.5,114.5C 104.392,113.265 102.392,111.765 100.5,110C 102.5,109.667 104.5,109.333 106.5,109C 107.252,108.329 107.586,107.496 107.5,106.5C 108.117,106.389 108.617,106.056 109,105.5C 110.14,107.078 110.64,108.744 110.5,110.5C 116.047,115.076 122.047,118.742 128.5,121.5 Z"/></g>
<g><path style="opacity:0.004" fill="#2c4326" d="M 116.5,111.5 C 117.167,111.5 117.5,111.833 117.5,112.5C 117.167,112.167 116.833,111.833 116.5,111.5 Z"/></g>
<g><path style="opacity:0.004" fill="#2c4326" d="M 188.5,111.5 C 187.833,112.167 187.833,112.167 188.5,111.5 Z"/></g>
<g><path style="opacity:0.004" fill="#2c4326" d="M 117.5,112.5 C 118.833,113.167 118.833,113.167 117.5,112.5 Z"/></g>
<g><path style="opacity:0.004" fill="#2c4326" d="M 190.5,112.5 C 191.833,113.167 191.833,113.167 190.5,112.5 Z"/></g>
<g><path style="opacity:0.749" fill="#435e3c" d="M 295.5,92.5 C 296.158,96.2571 295.491,99.9237 293.5,103.5C 292.975,104.192 292.308,104.692 291.5,105C 292.667,105.5 293.5,106.333 294,107.5C 294.147,111.726 292.147,114.726 288,116.5C 286.89,118.397 286.724,120.23 287.5,122C 286.172,124.29 284.505,125.124 282.5,124.5C 284.589,121.323 286.423,117.989 288,114.5C 289.14,106.585 291.64,99.2521 295.5,92.5 Z"/></g>
<g><path style="opacity:0.71" fill="#5b6957" d="M 106.5,114.5 C 114.109,120.119 121.775,125.452 129.5,130.5C 126.167,130.5 124.5,132.167 124.5,135.5C 118.414,133.281 113.081,129.781 108.5,125C 104.091,124.624 101.091,122.457 99.5,118.5C 100.319,114.167 102.653,112.833 106.5,114.5 Z"/></g>
<g><path style="opacity:0.008" fill="#2c4326" d="M 120.5,115.5 C 121.833,116.167 121.833,116.167 120.5,115.5 Z"/></g>
<g><path style="opacity:0.533" fill="#608158" d="M 219.5,91.5 C 220.329,98.989 220.829,106.656 221,114.5C 223.327,106.842 226.493,99.5087 230.5,92.5C 230.957,91.7025 231.624,91.3691 232.5,91.5C 228.618,100.495 224.951,109.495 221.5,118.5C 219.623,109.694 218.956,100.694 219.5,91.5 Z"/></g>
<g><path style="opacity:0.743" fill="#425c3b" d="M 263.5,109.5 C 261.43,111.964 259.596,114.631 258,117.5C 255.647,125.086 253.814,132.753 252.5,140.5C 253.333,140.833 254.167,141.167 255,141.5C 258.407,140.308 261.907,139.641 265.5,139.5C 264.213,141.692 262.213,143.025 259.5,143.5C 256.532,142.838 253.532,142.505 250.5,142.5C 250.906,148.1 248.572,150.433 243.5,149.5C 247.354,145.867 248.687,141.533 247.5,136.5C 251.161,136.574 251.828,135.574 249.5,133.5C 251.499,127.504 253.499,121.504 255.5,115.5C 257.288,113.424 258.954,111.257 260.5,109C 261.577,108.53 262.577,108.697 263.5,109.5 Z"/></g>
<g><path style="opacity:0.004" fill="#2c4326" d="M 230.5,116.5 C 231.833,117.167 231.833,117.167 230.5,116.5 Z"/></g>
<g><path style="opacity:0.004" fill="#2c4326" d="M 126.5,117.5 C 127.833,118.167 127.833,118.167 126.5,117.5 Z"/></g>
<g><path style="opacity:0.006" fill="#2c4326" d="M 197.5,119.5 C 198.525,119.897 198.692,120.563 198,121.5C 197.536,120.906 197.369,120.239 197.5,119.5 Z"/></g>
<g><path style="opacity:0.004" fill="#2c4326" d="M 128.5,120.5 C 129.833,121.167 129.833,121.167 128.5,120.5 Z"/></g>
<g><path style="opacity:0.004" fill="#2c4326" d="M 244.5,121.5 C 243.833,120.167 243.833,120.167 244.5,121.5 Z"/></g>
<g><path style="opacity:0.004" fill="#2c4326" d="M 74.5,121.5 C 75.8333,122.167 75.8333,122.167 74.5,121.5 Z"/></g>
<g><path style="opacity:0.004" fill="#2c4326" d="M 132.5,122.5 C 131.833,121.167 131.833,121.167 132.5,122.5 Z"/></g>
<g><path style="opacity:0.004" fill="#2c4326" d="M 76.5,122.5 C 77.8333,123.167 77.8333,123.167 76.5,122.5 Z"/></g>
<g><path style="opacity:0.004" fill="#2c4326" d="M 132.5,122.5 C 133.833,123.167 133.833,123.167 132.5,122.5 Z"/></g>
<g><path style="opacity:0.004" fill="#2c4326" d="M 79.5,123.5 C 78.8333,124.167 78.8333,124.167 79.5,123.5 Z"/></g>
<g><path style="opacity:0.004" fill="#2c4326" d="M 173.5,126.5 C 172.833,125.167 172.833,125.167 173.5,126.5 Z"/></g>
<g><path style="opacity:0.008" fill="#2c4326" d="M 137.5,126.5 C 138.833,127.167 138.833,127.167 137.5,126.5 Z"/></g>
<g><path style="opacity:0.004" fill="#2c4326" d="M 168.5,126.5 C 169.833,127.167 169.833,127.167 168.5,126.5 Z"/></g>
<g><path style="opacity:0.004" fill="#2c4326" d="M 85.5,127.5 C 84.8333,128.167 84.8333,128.167 85.5,127.5 Z"/></g>
<g><path style="opacity:0.012" fill="#2c4326" d="M 96.5,127.5 C 97.8333,128.167 97.8333,128.167 96.5,127.5 Z"/></g>
<g><path style="opacity:0.804" fill="#50604b" d="M 202.5,131.5 C 195.604,130.539 188.77,130.206 182,130.5C 172.619,133.348 163.452,136.682 154.5,140.5C 155.6,139.395 156.267,138.062 156.5,136.5C 162.37,134.899 168.037,132.733 173.5,130C 177.943,129.472 182.277,128.472 186.5,127C 191.435,126.824 196.269,126.657 201,126.5C 201.645,127.646 202.478,128.646 203.5,129.5C 203.137,130.183 202.804,130.85 202.5,131.5 Z"/></g>
<g><path style="opacity:0.004" fill="#2c4326" d="M 142.5,131.5 C 141.833,130.167 141.833,130.167 142.5,131.5 Z"/></g>
<g><path style="opacity:0.712" fill="#9c9f9a" d="M 202.5,131.5 C 202.5,132.167 202.833,132.5 203.5,132.5C 202.993,136.86 202.327,141.193 201.5,145.5C 201.267,147.062 200.6,148.395 199.5,149.5C 186.946,150.352 174.612,151.352 162.5,152.5C 162.167,152.5 161.833,152.5 161.5,152.5C 159.883,148.928 157.55,145.928 154.5,143.5C 153.167,142.5 153.167,141.5 154.5,140.5C 163.452,136.682 172.619,133.348 182,130.5C 188.77,130.206 195.604,130.539 202.5,131.5 Z"/></g>
<g><path style="opacity:0.925" fill="#4b6743" d="M 281.5,125.5 C 280.74,129.361 278.74,132.361 275.5,134.5C 277.255,131.32 279.255,128.32 281.5,125.5 Z"/></g>
<g><path style="opacity:0.568" fill="#30452a" d="M 76.5,69.5 C 79.5573,71.0444 82.2239,73.2111 84.5,76C 86.9739,76.1129 88.9739,77.1129 90.5,79C 90.1667,79.3333 89.8333,79.6667 89.5,80C 90.448,80.4828 91.448,80.6495 92.5,80.5C 93.8818,82.5486 95.5484,84.2153 97.5,85.5C 98.7804,86.9313 100.447,87.5979 102.5,87.5C 102.5,88.5 102.5,89.5 102.5,90.5C 103.5,90.5 104.5,90.5 105.5,90.5C 105.369,91.2389 105.536,91.9056 106,92.5C 108.129,91.1373 108.629,91.4706 107.5,93.5C 108.167,94.5 108.833,95.5 109.5,96.5C 108.831,99.5299 108.165,102.53 107.5,105.5C 104.8,104.8 103.133,103.134 102.5,100.5C 102.785,98.712 102.452,97.0453 101.5,95.5C 90.8604,88.5047 80.5271,81.0047 70.5,73C 66.7605,71.5866 63.2605,69.7533 60,67.5C 53.9485,70.2592 50.2818,74.9259 49,81.5C 47.4972,86.957 48.6638,91.6237 52.5,95.5C 57.2151,97.1841 61.2151,99.8508 64.5,103.5C 67.9046,107.888 72.2379,111.222 77.5,113.5C 82.1988,118.354 87.8654,120.688 94.5,120.5C 95.7206,119.972 96.8873,119.305 98,118.5C 98.6172,119.449 98.4506,120.282 97.5,121C 99.5,121.667 100.833,123 101.5,125C 102.448,125.483 103.448,125.649 104.5,125.5C 105.677,128.038 107.344,130.371 109.5,132.5C 114.965,135.32 120.631,137.32 126.5,138.5C 128.716,141.037 129.883,144.037 130,147.5C 131.743,150.297 133.91,152.63 136.5,154.5C 142.204,166.254 149.537,176.92 158.5,186.5C 160.255,189.09 159.588,190.757 156.5,191.5C 155.292,190.766 153.959,190.433 152.5,190.5C 151.946,186.945 149.946,184.612 146.5,183.5C 143.571,179.394 140.404,175.394 137,171.5C 130.905,172.728 125.071,174.728 119.5,177.5C 117.117,176.538 116.117,177.538 116.5,180.5C 114.801,180.34 113.134,180.506 111.5,181C 103.832,184.751 95.8316,187.584 87.5,189.5C 89.2756,201.527 84.2756,206.694 72.5,205C 69.7948,206.764 67.4615,208.264 65.5,209.5C 63.083,208.848 60.7497,209.348 58.5,211C 55.5,211.333 52.5,211.667 49.5,212C 50.6956,212.654 50.6956,213.154 49.5,213.5C 48.0615,212.937 46.5615,212.603 45,212.5C 41.5171,213.606 38.0171,214.606 34.5,215.5C 33.5745,214.359 32.7412,214.359 32,215.5C 30.2228,213.21 28.0562,211.543 25.5,210.5C 25.7678,208.901 25.4345,207.568 24.5,206.5C 23.5901,202.381 23.2567,198.381 23.5,194.5C 24.0639,192.181 24.5639,189.847 25,187.5C 26.7134,186.122 28.0467,184.455 29,182.5C 39.2611,176.953 49.7611,171.953 60.5,167.5C 62.4832,167.843 63.8166,167.176 64.5,165.5C 68.5546,165.176 72.5546,165.509 76.5,166.5C 77.3481,167.991 78.6814,168.658 80.5,168.5C 84.8285,167.337 89.1618,166.17 93.5,165C 94.5707,164.148 95.5707,163.315 96.5,162.5C 100.183,162.053 103.85,161.387 107.5,160.5C 109.824,160.729 111.991,161.396 114,162.5C 116.347,162.093 118.514,160.76 120.5,158.5C 123.891,158.496 126.891,156.996 129.5,154C 128.906,153.536 128.239,153.369 127.5,153.5C 127.657,152.127 127.49,150.793 127,149.5C 124.923,147.924 123.423,145.924 122.5,143.5C 121.15,142.05 119.484,141.383 117.5,141.5C 117.5,140.5 117.5,139.5 117.5,138.5C 113.896,137.745 110.563,136.412 107.5,134.5C 107.591,132.302 106.925,131.969 105.5,133.5C 103.471,130.473 100.804,128.14 97.5,126.5C 96.8933,126.624 96.56,126.957 96.5,127.5C 92.8333,127.5 89.1667,127.5 85.5,127.5C 84.4324,126.566 83.099,126.232 81.5,126.5C 81.7148,124.821 81.0481,123.821 79.5,123.5C 74.8994,119.951 70.3994,116.284 66,112.5C 65.586,112.957 65.086,113.291 64.5,113.5C 63.7348,112.388 62.7348,111.721 61.5,111.5C 60.6411,108.548 58.6411,106.715 55.5,106C 52.7091,103.471 50.0424,100.804 47.5,98C 46.255,97.2086 44.9217,96.7086 43.5,96.5C 43.5,95.5 43.5,94.5 43.5,93.5C 42.0413,93.5674 40.7079,93.2341 39.5,92.5C 39.3225,91.3052 38.9891,90.1385 38.5,89C 39.3839,87.902 40.3839,87.402 41.5,87.5C 41.6907,85.1958 41.3573,82.8625 40.5,80.5C 42.6477,80.6106 42.981,79.944 41.5,78.5C 44.122,74.7062 46.9553,71.0395 50,67.5C 50.4828,66.552 50.6495,65.552 50.5,64.5C 53.5146,63.2477 56.5146,62.2477 59.5,61.5C 60.6473,61.8178 61.4806,62.4844 62,63.5C 62.3333,62.8333 62.6667,62.1667 63,61.5C 65.7623,62.9806 68.429,64.6473 71,66.5C 71.3333,66.1667 71.6667,65.8333 72,65.5C 72.4505,68.1059 73.9505,69.4392 76.5,69.5 Z"/></g>
<g><path style="opacity:0.008" fill="#2c4326" d="M 142.5,131.5 C 143.833,132.167 143.833,132.167 142.5,131.5 Z"/></g>
<g><path style="opacity:0.004" fill="#2c4326" d="M 158.5,131.5 C 159.833,132.167 159.833,132.167 158.5,131.5 Z"/></g>
<g><path style="opacity:0.867" fill="#394d33" d="M 102.5,100.5 C 103.133,103.134 104.8,104.8 107.5,105.5C 107.5,105.833 107.5,106.167 107.5,106.5C 107.586,107.496 107.252,108.329 106.5,109C 104.5,109.333 102.5,109.667 100.5,110C 102.392,111.765 104.392,113.265 106.5,114.5C 102.653,112.833 100.319,114.167 99.5,118.5C 101.091,122.457 104.091,124.624 108.5,125C 113.081,129.781 118.414,133.281 124.5,135.5C 124.5,132.167 126.167,130.5 129.5,130.5C 130.338,130.842 130.672,131.508 130.5,132.5C 128.626,134.115 127.292,136.115 126.5,138.5C 120.631,137.32 114.965,135.32 109.5,132.5C 107.344,130.371 105.677,128.038 104.5,125.5C 103.448,125.649 102.448,125.483 101.5,125C 100.833,123 99.5,121.667 97.5,121C 98.4506,120.282 98.6172,119.449 98,118.5C 96.8873,119.305 95.7206,119.972 94.5,120.5C 93.5269,118.932 93.3603,117.265 94,115.5C 96.3651,111.634 99.5317,108.634 103.5,106.5C 102.652,104.591 102.318,102.591 102.5,100.5 Z"/></g>
<g><path style="opacity:0.004" fill="#2c4326" d="M 156.5,132.5 C 157.833,133.167 157.833,133.167 156.5,132.5 Z"/></g>
<g><path style="opacity:0.004" fill="#2c4326" d="M 235.5,132.5 C 236.833,133.167 236.833,133.167 235.5,132.5 Z"/></g>
<g><path style="opacity:0.004" fill="#2c4326" d="M 105.5,133.5 C 104.833,134.167 104.833,134.167 105.5,133.5 Z"/></g>
<g><path style="opacity:0.004" fill="#2c4326" d="M 146.5,133.5 C 147.833,134.167 147.833,134.167 146.5,133.5 Z"/></g>
<g><path style="opacity:0.004" fill="#2c4326" d="M 290.5,133.5 C 291.833,134.167 291.833,134.167 290.5,133.5 Z"/></g>
<g><path style="opacity:0.004" fill="#2c4326" d="M 107.5,134.5 C 106.833,135.167 106.833,135.167 107.5,134.5 Z"/></g>
<g><path style="opacity:0.004" fill="#2c4326" d="M 147.5,135.5 C 148.833,136.167 148.833,136.167 147.5,135.5 Z"/></g>
<g><path style="opacity:0.635" fill="#5a6856" d="M 203.5,132.5 C 204.629,134.628 204.796,136.961 204,139.5C 203.963,141.974 203.13,143.974 201.5,145.5C 202.327,141.193 202.993,136.86 203.5,132.5 Z"/></g>
<g><path style="opacity:0.004" fill="#2c4326" d="M 110.5,137.5 C 111.833,138.167 111.833,138.167 110.5,137.5 Z"/></g>
<g><path style="opacity:0.949" fill="#495e43" d="M 221.5,122.5 C 220.873,127.141 220.54,131.807 220.5,136.5C 224.462,135.136 227.795,136.136 230.5,139.5C 228.069,140.148 225.736,139.482 223.5,137.5C 222.832,140.306 222.166,142.972 221.5,145.5C 221.5,143.5 221.5,141.5 221.5,139.5C 220.5,139.5 219.5,139.5 218.5,139.5C 218.678,133.559 219.678,127.893 221.5,122.5 Z"/></g>
<g><path style="opacity:0.734" fill="#9a9e99" d="M 230.5,139.5 C 232.516,141.013 234.849,141.847 237.5,142C 241.21,144.136 241.21,146.302 237.5,148.5C 232.167,148.5 226.833,148.5 221.5,148.5C 221.5,147.5 221.5,146.5 221.5,145.5C 222.166,142.972 222.832,140.306 223.5,137.5C 225.736,139.482 228.069,140.148 230.5,139.5 Z"/></g>
<g><path style="opacity:0.004" fill="#2c4326" d="M 117.5,141.5 C 116.833,142.167 116.833,142.167 117.5,141.5 Z"/></g>
<g><path style="opacity:0.959" fill="#4e5e49" d="M 130.5,132.5 C 132.403,132.796 134.07,133.463 135.5,134.5C 133.059,135.557 130.725,136.89 128.5,138.5C 132.112,143.32 134.779,148.653 136.5,154.5C 133.91,152.63 131.743,150.297 130,147.5C 129.883,144.037 128.716,141.037 126.5,138.5C 127.292,136.115 128.626,134.115 130.5,132.5 Z"/></g>
<g><path style="opacity:0.004" fill="#2c4326" d="M 277.5,143.5 C 278.833,144.167 278.833,144.167 277.5,143.5 Z"/></g>
<g><path style="opacity:0.004" fill="#2c4326" d="M 277.5,144.5 C 276.833,145.167 276.833,145.167 277.5,144.5 Z"/></g>
<g><path style="opacity:0.004" fill="#2c4326" d="M 274.5,145.5 C 275.833,146.167 275.833,146.167 274.5,145.5 Z"/></g>
<g><path style="opacity:0.004" fill="#2c4326" d="M 280.5,147.5 C 281.833,148.167 281.833,148.167 280.5,147.5 Z"/></g>
<g><path style="opacity:0.682" fill="#707b6d" d="M 221.5,145.5 C 221.5,146.5 221.5,147.5 221.5,148.5C 226.833,148.5 232.167,148.5 237.5,148.5C 232.025,149.489 226.358,149.822 220.5,149.5C 220.232,147.901 220.566,146.568 221.5,145.5 Z"/></g>
<g><path style="opacity:0.608" fill="#9ca09b" d="M 135.5,134.5 C 137.86,136.853 140.527,138.853 143.5,140.5C 142.594,141.965 141.261,142.965 139.5,143.5C 137.744,149.407 139.577,153.741 145,156.5C 145.833,156.333 146.667,156.167 147.5,156C 148.967,153.622 149.967,151.122 150.5,148.5C 151.675,148.281 152.675,148.614 153.5,149.5C 156.522,158.005 162.188,164.172 170.5,168C 178.425,170.464 186.425,172.631 194.5,174.5C 199.05,177.084 204.05,178.417 209.5,178.5C 211.156,180.06 213.156,181.06 215.5,181.5C 216.008,183.233 216.841,183.566 218,182.5C 219.049,184.107 220.549,184.773 222.5,184.5C 223.609,184.557 224.609,184.89 225.5,185.5C 236.819,191.01 248.819,195.01 261.5,197.5C 263.167,197.833 264.167,198.833 264.5,200.5C 252.151,201.585 239.817,202.918 227.5,204.5C 206.242,206.945 186.242,203.278 167.5,193.5C 164.81,190.815 161.81,188.482 158.5,186.5C 149.537,176.92 142.204,166.254 136.5,154.5C 134.779,148.653 132.112,143.32 128.5,138.5C 130.725,136.89 133.059,135.557 135.5,134.5 Z"/></g>
<g><path style="opacity:0.809" fill="#556451" d="M 143.5,140.5 C 145.833,142.833 148.167,145.167 150.5,147.5C 150.5,147.833 150.5,148.167 150.5,148.5C 149.967,151.122 148.967,153.622 147.5,156C 146.667,156.167 145.833,156.333 145,156.5C 139.577,153.741 137.744,149.407 139.5,143.5C 141.261,142.965 142.594,141.965 143.5,140.5 Z"/></g>
<g><path style="opacity:0.633" fill="#91968f" d="M 143.5,147.5 C 145.185,148.184 146.185,149.517 146.5,151.5C 146.167,151.833 145.833,152.167 145.5,152.5C 144.05,151.15 143.383,149.484 143.5,147.5 Z"/></g>
<g><path style="opacity:0.945" fill="#485a44" d="M 199.5,149.5 C 196.282,150.091 193.116,151.091 190,152.5C 181.737,151.63 173.57,152.296 165.5,154.5C 164.261,154.058 163.261,153.391 162.5,152.5C 174.612,151.352 186.946,150.352 199.5,149.5 Z"/></g>
<g><path style="opacity:0.008" fill="#2c4326" d="M 127.5,153.5 C 126.833,154.167 126.833,154.167 127.5,153.5 Z"/></g>
<g><path style="opacity:0.004" fill="#2c4326" d="M 242.5,155.5 C 243.833,156.167 243.833,156.167 242.5,155.5 Z"/></g>
<g><path style="opacity:0.004" fill="#2c4326" d="M 121.5,156.5 C 122.833,157.167 122.833,157.167 121.5,156.5 Z"/></g>
<g><path style="opacity:0.004" fill="#2c4326" d="M 120.5,158.5 C 119.833,157.167 119.833,157.167 120.5,158.5 Z"/></g>
<g><path style="opacity:0.004" fill="#2c4326" d="M 116.5,158.5 C 117.833,159.167 117.833,159.167 116.5,158.5 Z"/></g>
<g><path style="opacity:0.004" fill="#2c4326" d="M 96.5,162.5 C 95.8333,161.167 95.8333,161.167 96.5,162.5 Z"/></g>
<g><path style="opacity:0.64" fill="#969a95" d="M 133.5,165.5 C 128.002,167.866 122.335,169.699 116.5,171C 115.253,169.506 115.253,168.006 116.5,166.5C 117.086,166.709 117.586,167.043 118,167.5C 121.393,165.061 124.893,163.061 128.5,161.5C 132.053,160.029 133.719,161.363 133.5,165.5 Z"/></g>
<g><path style="opacity:0.776" fill="#626f5f" d="M 133.5,165.5 C 133.719,161.363 132.053,160.029 128.5,161.5C 129.751,159.439 131.418,159.106 133.5,160.5C 134.167,161.833 134.833,163.167 135.5,164.5C 135.043,165.298 134.376,165.631 133.5,165.5 Z"/></g>
<g><path style="opacity:0.004" fill="#2c4326" d="M 233.5,163.5 C 234.833,164.167 234.833,164.167 233.5,163.5 Z"/></g>
<g><path style="opacity:0.004" fill="#2c4326" d="M 64.5,165.5 C 63.8333,164.167 63.8333,164.167 64.5,165.5 Z"/></g>
<g><path style="opacity:0.004" fill="#2c4326" d="M 231.5,164.5 C 232.833,165.167 232.833,165.167 231.5,164.5 Z"/></g>
<g><path style="opacity:0.947" fill="#3c4f36" d="M 154.5,143.5 C 157.55,145.928 159.883,148.928 161.5,152.5C 157.563,153.78 157.563,155.114 161.5,156.5C 162.681,159.935 165.015,162.269 168.5,163.5C 169.086,163.291 169.586,162.957 170,162.5C 171.019,163.687 172.186,164.687 173.5,165.5C 174.27,163.728 175.603,162.728 177.5,162.5C 179.833,164.5 182.167,166.5 184.5,168.5C 185.442,168.392 186.275,168.059 187,167.5C 188.612,170.237 190.778,171.07 193.5,170C 192.257,171.816 192.59,173.316 194.5,174.5C 186.425,172.631 178.425,170.464 170.5,168C 162.188,164.172 156.522,158.005 153.5,149.5C 152.675,148.614 151.675,148.281 150.5,148.5C 150.5,148.167 150.5,147.833 150.5,147.5C 151.833,147.5 153.167,147.5 154.5,147.5C 154.5,146.167 154.5,144.833 154.5,143.5 Z"/></g>
<g><path style="opacity:0.941" fill="#445f3d" d="M 214.5,153.5 C 213.57,157.796 212.737,162.13 212,166.5C 209.933,170.197 207.099,171.197 203.5,169.5C 205.144,169.714 206.644,169.38 208,168.5C 209.679,163.157 211.846,158.157 214.5,153.5 Z"/></g>
<g><path style="opacity:0.004" fill="#2c4326" d="M 60.5,167.5 C 59.8333,166.167 59.8333,166.167 60.5,167.5 Z"/></g>
<g><path style="opacity:0.004" fill="#2c4326" d="M 55.5,167.5 C 56.8333,168.167 56.8333,168.167 55.5,167.5 Z"/></g>
<g><path style="opacity:0.622" fill="#5b6a57" d="M 83.5,185.5 C 78.9116,183.96 76.9116,180.96 77.5,176.5C 87.8489,172.397 98.3489,168.73 109,165.5C 109.256,168.557 109.756,171.557 110.5,174.5C 101.568,178.366 92.5676,182.032 83.5,185.5 Z"/></g>
<g><path style="opacity:0.004" fill="#2c4326" d="M 49.5,169.5 C 50.8333,170.167 50.8333,170.167 49.5,169.5 Z"/></g>
<g><path style="opacity:0.004" fill="#2c4326" d="M 226.5,169.5 C 227.525,169.897 227.692,170.563 227,171.5C 226.536,170.906 226.369,170.239 226.5,169.5 Z"/></g>
<g><path style="opacity:0.614" fill="#5d6b58" d="M 79.5,194.5 C 70.0112,197.701 60.6779,201.201 51.5,205C 47.1547,205.024 43.1547,206.191 39.5,208.5C 38.8165,208.137 38.1499,207.804 37.5,207.5C 36.7273,204.484 35.0606,202.15 32.5,200.5C 31.2354,196.454 31.2354,192.454 32.5,188.5C 33.3077,186.78 34.3077,185.113 35.5,183.5C 46.8631,180.293 58.1964,176.96 69.5,173.5C 70.8333,173.833 72.1667,174.167 73.5,174.5C 73.1667,175.167 72.8333,175.833 72.5,176.5C 73.0093,182.19 75.5093,186.857 80,190.5C 80.195,191.819 80.0283,193.153 79.5,194.5 Z"/></g>
<g><path style="opacity:0.004" fill="#2c4326" d="M 137.5,174.5 C 136.833,173.167 136.833,173.167 137.5,174.5 Z"/></g>
<g><path style="opacity:0.004" fill="#2c4326" d="M 137.5,174.5 C 138.833,175.167 138.833,175.167 137.5,174.5 Z"/></g>
<g><path style="opacity:0.894" fill="#495a44" d="M 194.5,174.5 C 200.232,173.671 205.232,175.005 209.5,178.5C 204.05,178.417 199.05,177.084 194.5,174.5 Z"/></g>
<g><path style="opacity:0.004" fill="#2c4326" d="M 34.5,177.5 C 35.8333,178.167 35.8333,178.167 34.5,177.5 Z"/></g>
<g><path style="opacity:0.004" fill="#2c4326" d="M 117.5,178.5 C 118.833,179.167 118.833,179.167 117.5,178.5 Z"/></g>
<g><path style="opacity:0.004" fill="#2c4326" d="M 236.5,178.5 C 237.833,179.167 237.833,179.167 236.5,178.5 Z"/></g>
<g><path style="opacity:0.004" fill="#2c4326" d="M 28.5,179.5 C 29.8333,180.167 29.8333,180.167 28.5,179.5 Z"/></g>
<g><path style="opacity:0.004" fill="#2c4326" d="M 142.5,180.5 C 141.833,179.167 141.833,179.167 142.5,180.5 Z"/></g>
<g><path style="opacity:0.004" fill="#2c4326" d="M 116.5,180.5 C 117.833,181.167 117.833,181.167 116.5,180.5 Z"/></g>
<g><path style="opacity:0.004" fill="#2c4326" d="M 142.5,180.5 C 143.833,181.167 143.833,181.167 142.5,180.5 Z"/></g>
<g><path style="opacity:0.867" fill="#5a6956" d="M 215.5,181.5 C 217.527,181.338 219.527,181.505 221.5,182C 222.252,182.671 222.586,183.504 222.5,184.5C 220.549,184.773 219.049,184.107 218,182.5C 216.841,183.566 216.008,183.233 215.5,181.5 Z"/></g>
<g><path style="opacity:0.004" fill="#2c4326" d="M 245.5,182.5 C 246.833,183.167 246.833,183.167 245.5,182.5 Z"/></g>
<g><path style="opacity:0.004" fill="#2c4326" d="M 146.5,183.5 C 146.5,183.833 146.5,184.167 146.5,184.5C 145.83,184.019 145.83,183.685 146.5,183.5 Z"/></g>
<g><path style="opacity:0.004" fill="#2c4326" d="M 249.5,183.5 C 250.833,184.167 250.833,184.167 249.5,183.5 Z"/></g>
<g><path style="opacity:0.004" fill="#2c4326" d="M 24.5,184.5 C 25.8333,185.167 25.8333,185.167 24.5,184.5 Z"/></g>
<g><path style="opacity:0.004" fill="#2c4326" d="M 107.5,184.5 C 108.833,185.167 108.833,185.167 107.5,184.5 Z"/></g>
<g><path style="opacity:0.012" fill="#2c4326" d="M 146.5,184.5 C 147.167,184.5 147.5,184.833 147.5,185.5C 147.167,185.167 146.833,184.833 146.5,184.5 Z"/></g>
<g><path style="opacity:0.004" fill="#2c4326" d="M 251.5,184.5 C 252.833,185.167 252.833,185.167 251.5,184.5 Z"/></g>
<g><path style="opacity:0.004" fill="#2c4326" d="M 147.5,185.5 C 148.833,186.167 148.833,186.167 147.5,185.5 Z"/></g>
<g><path style="opacity:0.858" fill="#40533b" d="M 77.5,176.5 C 76.9116,180.96 78.9116,183.96 83.5,185.5C 82.8153,187.414 82.3153,189.414 82,191.5C 81.6232,192.942 80.7899,193.942 79.5,194.5C 80.0283,193.153 80.195,191.819 80,190.5C 75.5093,186.857 73.0093,182.19 72.5,176.5C 72.8333,175.833 73.1667,175.167 73.5,174.5C 72.1667,174.167 70.8333,173.833 69.5,173.5C 58.1964,176.96 46.8631,180.293 35.5,183.5C 38.8318,181.072 42.3318,178.739 46,176.5C 46.9454,176.905 47.6121,177.572 48,178.5C 49.3561,177.62 50.8561,177.286 52.5,177.5C 52.3287,174.203 52.9954,173.869 54.5,176.5C 60.6767,172.918 67.3434,171.751 74.5,173C 75.7101,174.039 76.7101,175.206 77.5,176.5 Z"/></g>
<g><path style="opacity:0.004" fill="#2c4326" d="M 150.5,188.5 C 151.833,189.167 151.833,189.167 150.5,188.5 Z"/></g>
<g><path style="opacity:0.004" fill="#2c4326" d="M 260.5,188.5 C 261.833,189.167 261.833,189.167 260.5,188.5 Z"/></g>
<g><path style="opacity:0.963" fill="#3d5138" d="M 158.5,186.5 C 161.81,188.482 164.81,190.815 167.5,193.5C 165.952,193.821 165.285,194.821 165.5,196.5C 164.5,196.5 163.5,196.5 162.5,196.5C 161.609,195.89 160.609,195.557 159.5,195.5C 159.158,194.662 158.492,194.328 157.5,194.5C 156.89,193.609 156.557,192.609 156.5,191.5C 159.588,190.757 160.255,189.09 158.5,186.5 Z"/></g>
<g><path style="opacity:0.004" fill="#2c4326" d="M 152.5,190.5 C 151.833,191.167 151.833,191.167 152.5,190.5 Z"/></g>
<g><path style="opacity:0.004" fill="#2c4326" d="M 157.5,194.5 C 156.833,195.167 156.833,195.167 157.5,194.5 Z"/></g>
<g><path style="opacity:0.008" fill="#2c4326" d="M 159.5,195.5 C 158.833,196.167 158.833,196.167 159.5,195.5 Z"/></g>
<g><path style="opacity:0.008" fill="#2c4326" d="M 163.5,199.5 C 162.833,200.167 162.833,200.167 163.5,199.5 Z"/></g>
<g><path style="opacity:0.004" fill="#2c4326" d="M 166.5,200.5 C 166.5,200.833 166.5,201.167 166.5,201.5C 165.83,201.019 165.83,200.685 166.5,200.5 Z"/></g>
<g><path style="opacity:0.004" fill="#2c4326" d="M 166.5,201.5 C 167.833,202.167 167.833,202.167 166.5,201.5 Z"/></g>
<g><path style="opacity:0.855" fill="#576653" d="M 225.5,185.5 C 229.142,186.08 232.809,186.58 236.5,187C 236.167,187.333 235.833,187.667 235.5,188C 240.844,189.671 246.178,191.337 251.5,193C 254.099,193.769 256.599,193.602 259,192.5C 259.483,193.448 259.649,194.448 259.5,195.5C 261.124,195.64 262.29,194.973 263,193.5C 264.724,196.569 266.224,199.736 267.5,203C 267.011,204.138 266.678,205.305 266.5,206.5C 265.5,206.5 264.5,206.5 263.5,206.5C 261.901,206.232 260.568,206.566 259.5,207.5C 258.85,207.804 258.183,208.137 257.5,208.5C 256.304,208.154 256.304,207.654 257.5,207C 256.906,206.536 256.239,206.369 255.5,206.5C 253.887,206.056 252.72,205.056 252,203.5C 247.199,204.192 242.365,204.858 237.5,205.5C 235.356,204.047 233.523,204.38 232,206.5C 230.378,205.901 228.878,205.234 227.5,204.5C 239.817,202.918 252.151,201.585 264.5,200.5C 264.167,198.833 263.167,197.833 261.5,197.5C 248.819,195.01 236.819,191.01 225.5,185.5 Z"/></g>
<g><path style="opacity:0.004" fill="#2c4326" d="M 169.5,204.5 C 168.833,205.167 168.833,205.167 169.5,204.5 Z"/></g>
<g><path style="opacity:0.652" fill="#30462a" d="M 167.5,193.5 C 186.242,203.278 206.242,206.945 227.5,204.5C 228.878,205.234 230.378,205.901 232,206.5C 233.523,204.38 235.356,204.047 237.5,205.5C 242.365,204.858 247.199,204.192 252,203.5C 252.72,205.056 253.887,206.056 255.5,206.5C 254.666,207.748 253.333,208.415 251.5,208.5C 234.36,209.767 217.36,210.767 200.5,211.5C 199.833,211.5 199.167,211.5 198.5,211.5C 197.614,210.224 196.614,210.224 195.5,211.5C 194.376,212.914 193.376,214.414 192.5,216C 192.833,216.333 193.167,216.667 193.5,217C 192.376,217.249 191.376,217.749 190.5,218.5C 188.051,223.06 185.051,227.226 181.5,231C 181.833,231.333 182.167,231.667 182.5,232C 179.385,232.493 177.719,234.326 177.5,237.5C 176.883,237.389 176.383,237.056 176,236.5C 174.991,238.025 174.491,239.692 174.5,241.5C 173.833,241.5 173.5,241.833 173.5,242.5C 172.069,242.881 171.236,243.881 171,245.5C 170.667,245.167 170.333,244.833 170,244.5C 169.517,245.448 169.351,246.448 169.5,247.5C 163.758,253.067 157.758,258.567 151.5,264C 152.956,264.423 153.456,265.256 153,266.5C 149.942,266.237 146.775,266.07 143.5,266C 141.261,264.582 138.928,263.415 136.5,262.5C 136.557,260.116 136.223,257.782 135.5,255.5C 136.187,253.823 136.854,252.156 137.5,250.5C 138.922,250.25 139.922,249.417 140.5,248C 139.327,244.89 139.827,244.723 142,247.5C 144.059,244.918 146.392,242.585 149,240.5C 152.341,235.809 155.675,231.142 159,226.5C 159.667,225.167 160.333,225.167 161,226.5C 162.789,223.709 164.122,220.709 165,217.5C 165.853,215.875 166.853,215.542 168,216.5C 168.609,212.146 170.775,208.312 174.5,205C 172.866,204.506 171.199,204.34 169.5,204.5C 169.912,202.027 168.912,200.694 166.5,200.5C 165.791,199.596 164.791,199.263 163.5,199.5C 163.443,198.391 163.11,197.391 162.5,196.5C 163.5,196.5 164.5,196.5 165.5,196.5C 165.285,194.821 165.952,193.821 167.5,193.5 Z"/></g>
<g><path style="opacity:0.004" fill="#2c4326" d="M 24.5,206.5 C 23.8333,207.167 23.8333,207.167 24.5,206.5 Z"/></g>
<g><path style="opacity:0.004" fill="#2c4326" d="M 71.5,206.5 C 72.8333,207.167 72.8333,207.167 71.5,206.5 Z"/></g>
<g><path style="opacity:0.037" fill="#9da19c" d="M 263.5,206.5 C 263.38,207.586 262.713,208.253 261.5,208.5C 260.584,208.457 259.917,208.124 259.5,207.5C 260.568,206.566 261.901,206.232 263.5,206.5 Z"/></g>
<g><path style="opacity:0.783" fill="#3d5037" d="M 32.5,188.5 C 31.2354,192.454 31.2354,196.454 32.5,200.5C 35.0606,202.15 36.7273,204.484 37.5,207.5C 35.8632,206.782 34.1966,206.616 32.5,207C 35.3333,208.833 35.1667,210.333 32,211.5C 31.3828,210.551 31.5494,209.718 32.5,209C 31.5509,208.383 30.7175,208.549 30,209.5C 29.5,208.5 29,207.5 28.5,206.5C 29.1826,200.384 30.5159,194.384 32.5,188.5 Z"/></g>
<g><path style="opacity:0.662" fill="#6e9265" d="M 170.5,236.5 C 166.82,240.183 163.486,244.183 160.5,248.5C 158.956,248.703 157.622,249.37 156.5,250.5C 154.381,255.947 150.381,258.614 144.5,258.5C 144.144,255.436 144.977,252.769 147,250.5C 152.105,246.306 156.772,241.64 161,236.5C 168.531,227.269 175.698,217.769 182.5,208C 184.5,207.333 186.5,207.333 188.5,208C 187.941,208.725 187.608,209.558 187.5,210.5C 181.781,219.202 176.114,227.869 170.5,236.5 Z"/></g>
<g><path style="opacity:0.004" fill="#2c4326" d="M 270.5,208.5 C 270.897,207.475 271.563,207.308 272.5,208C 271.906,208.464 271.239,208.631 270.5,208.5 Z"/></g>
<g><path style="opacity:0.004" fill="#2c4326" d="M 25.5,210.5 C 24.8333,211.167 24.8333,211.167 25.5,210.5 Z"/></g>
<g><path style="opacity:0.004" fill="#2c4326" d="M 60.5,210.5 C 61.8333,211.167 61.8333,211.167 60.5,210.5 Z"/></g>
<g><path style="opacity:0.004" fill="#2c4326" d="M 60.5,211.5 C 59.8333,212.167 59.8333,212.167 60.5,211.5 Z"/></g>
<g><path style="opacity:0.004" fill="#2c4326" d="M 198.5,211.5 C 197.833,212.167 197.833,212.167 198.5,211.5 Z"/></g>
<g><path style="opacity:0.004" fill="#2c4326" d="M 200.5,211.5 C 201.833,212.167 201.833,212.167 200.5,211.5 Z"/></g>
<g><path style="opacity:0.004" fill="#2c4326" d="M 203.5,211.5 C 204.833,212.167 204.833,212.167 203.5,211.5 Z"/></g>
<g><path style="opacity:0.004" fill="#2c4326" d="M 206.5,211.5 C 207.833,212.167 207.833,212.167 206.5,211.5 Z"/></g>
<g><path style="opacity:0.004" fill="#2c4326" d="M 189.5,221.5 C 190.833,222.167 190.833,222.167 189.5,221.5 Z"/></g>
<g><path style="opacity:0.004" fill="#2c4326" d="M 179.5,234.5 C 180.833,235.167 180.833,235.167 179.5,234.5 Z"/></g>
<g><path style="opacity:0.004" fill="#2c4326" d="M 177.5,237.5 C 178.833,238.167 178.833,238.167 177.5,237.5 Z"/></g>
<g><path style="opacity:0.004" fill="#2c4326" d="M 145.5,239.5 C 146.525,239.897 146.692,240.563 146,241.5C 145.536,240.906 145.369,240.239 145.5,239.5 Z"/></g>
<g><path style="opacity:0.004" fill="#2c4326" d="M 174.5,241.5 C 175.833,242.167 175.833,242.167 174.5,241.5 Z"/></g>
<g><path style="opacity:0.004" fill="#2c4326" d="M 173.5,242.5 C 173.833,242.5 174.167,242.5 174.5,242.5C 174.315,243.17 173.981,243.17 173.5,242.5 Z"/></g>
<g><path style="opacity:0.8" fill="#3f5938" d="M 170.5,236.5 C 171.301,238.042 171.634,239.708 171.5,241.5C 170.448,241.351 169.448,241.517 168.5,242C 167.464,246.205 164.797,248.371 160.5,248.5C 163.486,244.183 166.82,240.183 170.5,236.5 Z"/></g>
<g><path style="opacity:0.004" fill="#2c4326" d="M 169.5,247.5 C 170.833,248.167 170.833,248.167 169.5,247.5 Z"/></g>
<g><path style="opacity:0.004" fill="#2c4326" d="M 137.5,250.5 C 137.167,250.5 136.833,250.5 136.5,250.5C 136.833,247.833 137.167,247.833 137.5,250.5 Z"/></g>
<g><path style="opacity:0.004" fill="#2c4326" d="M 136.5,250.5 C 135.833,251.167 135.833,251.167 136.5,250.5 Z"/></g>
<g><path style="opacity:0.004" fill="#2c4326" d="M 157.5,260.5 C 158.833,261.167 158.833,261.167 157.5,260.5 Z"/></g>
<g><path style="opacity:0.004" fill="#2c4326" d="M 136.5,262.5 C 135.923,263.773 135.257,263.773 134.5,262.5C 134.97,261.537 135.637,261.537 136.5,262.5 Z"/></g>
<g><path style="opacity:0.004" fill="#2c4326" d="M 157.5,261.5 C 156.833,262.167 156.833,262.167 157.5,261.5 Z"/></g>
<g><path style="opacity:0.004" fill="#2c4326" d="M 154.5,262.5 C 155.833,263.167 155.833,263.167 154.5,262.5 Z"/></g>
</svg>
