<?xml version="1.0" encoding="UTF-8"?>
<!DOCTYPE svg PUBLIC "-//W3C//DTD SVG 1.1//EN" "http://www.w3.org/Graphics/SVG/1.1/DTD/svg11.dtd">
<svg xmlns="http://www.w3.org/2000/svg" version="1.1" width="301px" height="298px" style="shape-rendering:geometricPrecision; text-rendering:geometricPrecision; image-rendering:optimizeQuality; fill-rule:evenodd; clip-rule:evenodd" xmlns:xlink="http://www.w3.org/1999/xlink">
<g><path style="opacity:0.655" fill="#1f3d19" d="M 141.5,51.5 C 147.944,52.0181 154.444,52.0181 161,51.5C 171.384,53.0054 181.051,56.3388 190,61.5C 190.333,61.1667 190.667,60.8333 191,60.5C 198.005,65.1736 204.005,70.8403 209,77.5C 216.182,94.0017 217.015,110.835 211.5,128C 211.052,133.928 209.385,139.761 206.5,145.5C 201.146,150.854 196.146,156.521 191.5,162.5C 204.601,182.428 218.267,201.928 232.5,221C 236.787,228.217 240.121,235.551 242.5,243C 241.833,247.333 241.167,251.667 240.5,256C 240.833,256.333 241.167,256.667 241.5,257C 238.468,261.554 235.301,266.054 232,270.5C 231.586,270.043 231.086,269.709 230.5,269.5C 219.664,274.947 209.498,274.614 200,268.5C 199.667,268.833 199.333,269.167 199,269.5C 194.582,265.753 190.916,261.42 188,256.5C 176.521,235.377 167.688,213.877 161.5,192C 160.128,189.275 159.128,186.609 158.5,184C 158.966,182.701 158.966,181.201 158.5,179.5C 151.52,180.877 144.187,181.877 136.5,182.5C 131.271,182.323 126.104,181.656 121,180.5C 118.44,182.005 116.44,181.338 115,178.5C 114.667,178.833 114.333,179.167 114,179.5C 109.434,178.074 104.934,176.408 100.5,174.5C 99.7492,173.624 99.2492,172.624 99,171.5C 98,171.833 97,172.167 96,172.5C 93.1616,169.637 90.495,166.637 88,163.5C 82.2848,151.607 77.4514,139.774 73.5,128C 71.2947,121.725 71.2947,115.225 73.5,108.5C 72.6527,106.939 72.9861,105.439 74.5,104C 74.1667,103.667 73.8333,103.333 73.5,103C 78.1984,93.7675 83.5317,84.9342 89.5,76.5C 97.5332,68.7377 106.367,62.071 116,56.5C 117,56.8333 118,57.1667 119,57.5C 122.855,55.5751 126.855,53.9084 131,52.5C 131.333,52.8333 131.667,53.1667 132,53.5C 135.27,52.868 138.437,52.2014 141.5,51.5 Z"/></g>
<g><path style="opacity:0.808" fill="#5e7845" d="M 162.5,68.5 C 161.167,68.5 159.833,68.5 158.5,68.5C 155.873,67.9084 153.206,67.5751 150.5,67.5C 152.593,66.0061 154.759,65.3394 157,65.5C 159.209,65.9892 161.042,66.9892 162.5,68.5 Z"/></g>
<g><path style="opacity:0.592" fill="#7b9358" d="M 147.5,67.5 C 145.039,68.531 142.373,69.1977 139.5,69.5C 139.611,68.8826 139.944,68.3826 140.5,68C 142.81,67.5034 145.143,67.3367 147.5,67.5 Z"/></g>
<g><path style="opacity:0.378" fill="#bbd084" d="M 147.5,67.5 C 148.5,67.5 149.5,67.5 150.5,67.5C 153.206,67.5751 155.873,67.9084 158.5,68.5C 148.125,84.9242 139.125,101.758 131.5,119C 129.014,123.48 126.347,127.813 123.5,132C 123.833,132.333 124.167,132.667 124.5,133C 120.43,139.612 116.43,146.112 112.5,152.5C 111.609,151.89 110.609,151.557 109.5,151.5C 108.167,150.167 106.833,148.833 105.5,147.5C 105.291,146.078 104.791,144.745 104,143.5C 101.371,141.556 99.2039,139.223 97.5,136.5C 96.0581,132.326 94.8914,127.992 94,123.5C 93.2832,118.78 93.4498,114.114 94.5,109.5C 96.3213,101.524 99.988,94.5237 105.5,88.5C 114.889,80.9072 125.056,74.5738 136,69.5C 136.986,70.1712 138.153,70.1712 139.5,69.5C 142.373,69.1977 145.039,68.531 147.5,67.5 Z"/></g>
<g><path style="opacity:0.914" fill="#4f6a3c" d="M 172.5,71.5 C 171.202,70.8843 170.202,70.8843 169.5,71.5C 166.873,71.2097 165.206,69.8764 164.5,67.5C 165.251,66.4265 166.251,66.2599 167.5,67C 169.358,67.7731 171.025,69.2731 172.5,71.5 Z"/></g>
<g><path style="opacity:0.505" fill="#bbd084" d="M 172.5,71.5 C 175.504,74.6514 179.004,77.3181 183,79.5C 186.421,84.0141 189.588,88.6807 192.5,93.5C 192.216,95.4147 192.549,97.0813 193.5,98.5C 193.461,99.7562 193.961,100.756 195,101.5C 195.266,105.974 195.433,110.307 195.5,114.5C 194.754,118.015 193.754,121.682 192.5,125.5C 191.964,128.555 191.131,131.555 190,134.5C 188.214,137.08 186.714,139.747 185.5,142.5C 183.594,144.753 181.594,147.086 179.5,149.5C 177.115,150.661 174.781,151.661 172.5,152.5C 172.167,152.5 171.833,152.5 171.5,152.5C 167.086,151.687 163.086,152.854 159.5,156C 156.258,156.406 153.258,157.239 150.5,158.5C 149.609,159.11 148.609,159.443 147.5,159.5C 145.897,158.323 144.564,158.489 143.5,160C 140.183,160.498 136.85,160.665 133.5,160.5C 132.142,160.178 130.475,160.178 128.5,160.5C 129.531,159.751 130.698,159.085 132,158.5C 139.603,140.085 148.436,121.918 158.5,104C 158.167,103.667 157.833,103.333 157.5,103C 159.604,100.958 160.771,98.4576 161,95.5C 164.892,88.8833 168.392,82.05 171.5,75C 171.138,73.5657 170.472,72.3991 169.5,71.5C 170.202,70.8843 171.202,70.8843 172.5,71.5 Z"/></g>
<g><path style="opacity:0.775" fill="#415d30" d="M 172.5,71.5 C 173.688,72.6843 174.855,72.6843 176,71.5C 178.465,73.7196 181.298,75.3862 184.5,76.5C 185.086,76.2907 185.586,75.9574 186,75.5C 186.12,78.6753 187.62,80.1753 190.5,80C 187.408,75.8284 188.074,74.8284 192.5,77C 192.96,82.4126 192.96,87.9126 192.5,93.5C 189.588,88.6807 186.421,84.0141 183,79.5C 179.004,77.3181 175.504,74.6514 172.5,71.5 Z"/></g>
<g><path style="opacity:0.627" fill="#57723f" d="M 195.5,114.5 C 195.318,116.591 195.652,118.591 196.5,120.5C 195.511,122.586 194.178,124.253 192.5,125.5C 193.754,121.682 194.754,118.015 195.5,114.5 Z"/></g>
<g><path style="opacity:0.721" fill="#d0e49c" d="M 164.5,67.5 C 165.206,69.8764 166.873,71.2097 169.5,71.5C 170.472,72.3991 171.138,73.5657 171.5,75C 168.392,82.05 164.892,88.8833 161,95.5C 160.771,98.4576 159.604,100.958 157.5,103C 157.833,103.333 158.167,103.667 158.5,104C 148.436,121.918 139.603,140.085 132,158.5C 130.698,159.085 129.531,159.751 128.5,160.5C 122.225,159.531 116.892,156.865 112.5,152.5C 116.43,146.112 120.43,139.612 124.5,133C 124.167,132.667 123.833,132.333 123.5,132C 126.347,127.813 129.014,123.48 131.5,119C 139.125,101.758 148.125,84.9242 158.5,68.5C 159.833,68.5 161.167,68.5 162.5,68.5C 163.167,68.1667 163.833,67.8333 164.5,67.5 Z"/></g>
<g><path style="opacity:0.969" fill="#2c4922" d="M 94.5,109.5 C 93.4498,114.114 93.2832,118.78 94,123.5C 94.8914,127.992 96.0581,132.326 97.5,136.5C 97.1788,138.048 96.1788,138.715 94.5,138.5C 91.5994,137.208 89.2661,135.208 87.5,132.5C 87.5427,130.439 88.2094,128.272 89.5,126C 88.4464,124.612 88.2797,123.112 89,121.5C 91.5031,118.966 92.3365,116.132 91.5,113C 91.9778,111.358 92.9778,110.191 94.5,109.5 Z"/></g>
<g><path style="opacity:0.788" fill="#466133" d="M 97.5,136.5 C 99.2039,139.223 101.371,141.556 104,143.5C 104.791,144.745 105.291,146.078 105.5,147.5C 104.566,150.115 102.899,150.782 100.5,149.5C 97.1905,146.548 95.1905,142.881 94.5,138.5C 96.1788,138.715 97.1788,138.048 97.5,136.5 Z"/></g>
<g><path style="opacity:0.925" fill="#324f26" d="M 185.5,142.5 C 182.953,145.616 181.453,149.283 181,153.5C 179.667,154.167 178.333,154.833 177,155.5C 176.222,158.184 174.889,160.517 173,162.5C 169.865,159.341 169.698,156.008 172.5,152.5C 174.781,151.661 177.115,150.661 179.5,149.5C 181.594,147.086 183.594,144.753 185.5,142.5 Z"/></g>
<g><path style="opacity:0.763" fill="#526d3e" d="M 109.5,151.5 C 110.609,151.557 111.609,151.89 112.5,152.5C 116.892,156.865 122.225,159.531 128.5,160.5C 128.038,161.88 127.038,162.547 125.5,162.5C 122.789,161.986 120.289,160.986 118,159.5C 114.416,159.083 111.25,157.25 108.5,154C 109.252,153.329 109.586,152.496 109.5,151.5 Z"/></g>
<g><path style="opacity:0.867" fill="#5c7642" d="M 171.5,152.5 C 170.833,153.167 170.167,153.833 169.5,154.5C 167.91,156.424 166.076,156.757 164,155.5C 163.395,157.481 162.395,157.815 161,156.5C 159.075,158.213 156.908,159.547 154.5,160.5C 156.925,161.649 156.925,162.316 154.5,162.5C 153.566,161.432 153.232,160.099 153.5,158.5C 152.5,158.5 151.5,158.5 150.5,158.5C 153.258,157.239 156.258,156.406 159.5,156C 163.086,152.854 167.086,151.687 171.5,152.5 Z"/></g>
<g><path style="opacity:0.799" fill="#304d25" d="M 169.5,154.5 C 168.602,158.181 166.935,161.514 164.5,164.5C 163.522,164.023 162.689,163.357 162,162.5C 159.393,166.441 156.893,166.441 154.5,162.5C 156.925,162.316 156.925,161.649 154.5,160.5C 156.908,159.547 159.075,158.213 161,156.5C 162.395,157.815 163.395,157.481 164,155.5C 166.076,156.757 167.91,156.424 169.5,154.5 Z"/></g>
<g><path style="opacity:0.908" fill="#3c582d" d="M 147.5,159.5 C 146.359,164.402 143.859,167.736 140,169.5C 139.085,168.672 138.419,167.672 138,166.5C 136.167,169.333 134.667,169.167 133.5,166C 134.308,165.692 134.975,165.192 135.5,164.5C 134.82,163.14 134.153,161.807 133.5,160.5C 136.85,160.665 140.183,160.498 143.5,160C 144.564,158.489 145.897,158.323 147.5,159.5 Z"/></g>
</svg>
