<?xml version="1.0" encoding="UTF-8"?>
<!DOCTYPE svg PUBLIC "-//W3C//DTD SVG 1.1//EN" "http://www.w3.org/Graphics/SVG/1.1/DTD/svg11.dtd">
<svg xmlns="http://www.w3.org/2000/svg" version="1.1" width="328px" height="313px" style="shape-rendering:geometricPrecision; text-rendering:geometricPrecision; image-rendering:optimizeQuality; fill-rule:evenodd; clip-rule:evenodd" xmlns:xlink="http://www.w3.org/1999/xlink">
<g><path style="opacity:0.51" fill="#214a28" d="M 197.5,55.5 C 197.369,56.2389 197.536,56.9056 198,57.5C 199.729,57.0257 200.895,56.0257 201.5,54.5C 206.103,53.0627 210.436,53.7294 214.5,56.5C 215.518,60.2086 216.184,63.7086 216.5,67C 213.951,75.3788 210.284,83.2122 205.5,90.5C 202.984,91.7261 200.651,93.2261 198.5,95C 191.653,95.9448 184.82,97.4448 178,99.5C 176.667,98.1667 175.333,96.8333 174,95.5C 173.287,99.6758 171.454,103.176 168.5,106C 170.066,109.242 171.066,112.409 171.5,115.5C 171.33,119.318 171.33,123.318 171.5,127.5C 171.5,127.833 171.5,128.167 171.5,128.5C 169.1,128.843 166.767,128.176 164.5,126.5C 164.5,125.833 164.167,125.5 163.5,125.5C 165.06,123.871 164.727,122.704 162.5,122C 163.167,121 163.833,120 164.5,119C 163.505,114.411 162.338,109.578 161,104.5C 158.683,100.518 155.683,97.1849 152,94.5C 151.617,95.056 151.117,95.3893 150.5,95.5C 150.167,94.1667 149.833,94.1667 149.5,95.5C 147.864,94.7545 146.197,95.0878 144.5,96.5C 142.958,95.2532 141.458,95.2532 140,96.5C 139.333,95.8333 138.667,95.1667 138,94.5C 135.812,95.4467 133.478,95.4467 131,94.5C 130.092,92.5614 128.592,91.5614 126.5,91.5C 124.745,88.153 123.079,84.653 121.5,81C 121.5,75.6667 121.5,70.3333 121.5,65C 123.253,61.8538 123.92,58.6871 123.5,55.5C 124.174,53.4835 125.341,51.8168 127,50.5C 139.148,51.4911 148.815,57.4911 156,68.5C 156.49,69.7932 156.657,71.1266 156.5,72.5C 158.942,72.1192 159.609,72.7859 158.5,74.5C 159.923,79.7249 160.757,85.0583 161,90.5C 161.855,93.6014 163.355,96.2681 165.5,98.5C 166.711,97.7261 166.711,96.8928 165.5,96C 166.448,95.5172 167.448,95.3505 168.5,95.5C 168.5,94.5 168.5,93.5 168.5,92.5C 169.5,92.5 170.5,92.5 171.5,92.5C 171.994,74.5358 180.661,62.2025 197.5,55.5 Z"/></g>
<g><path style="opacity:0.776" fill="#3b8145" d="M 201.5,54.5 C 200.895,56.0257 199.729,57.0257 198,57.5C 197.536,56.9056 197.369,56.2389 197.5,55.5C 198.708,54.7659 200.041,54.4326 201.5,54.5 Z"/></g>
<g><path style="opacity:0.562" fill="#479953" d="M 139.5,88.5 C 137.48,88.6899 135.48,87.8565 133.5,86C 132.301,84.3057 130.968,82.8057 129.5,81.5C 127.96,73.3941 128.46,65.3941 131,57.5C 136.661,59.5085 141.828,62.3419 146.5,66C 146.043,66.414 145.709,66.914 145.5,67.5C 150.272,72.9106 152.438,79.2439 152,86.5C 148.156,89.0573 143.989,89.7239 139.5,88.5 Z"/></g>
<g><path style="opacity:0.603" fill="#479953" d="M 208.5,72.5 C 206.246,76.0066 204.246,79.6733 202.5,83.5C 198.33,86.2758 193.997,88.6092 189.5,90.5C 186.119,90.4595 182.786,90.7929 179.5,91.5C 178.539,89.7354 178.205,87.7354 178.5,85.5C 180.125,78.8624 183.125,73.5291 187.5,69.5C 192.02,66.6481 196.02,63.9814 199.5,61.5C 203.131,60.588 206.797,60.4213 210.5,61C 209.836,64.5673 209.169,68.4007 208.5,72.5 Z"/></g>
<g><path style="opacity:0.826" fill="#2a5c31" d="M 199.5,61.5 C 196.02,63.9814 192.02,66.6481 187.5,69.5C 187.201,67.396 187.534,65.396 188.5,63.5C 192.028,62.0787 195.694,61.412 199.5,61.5 Z"/></g>
<g><path style="opacity:0.918" fill="#2d6335" d="M 208.5,72.5 C 209.239,72.369 209.906,72.5357 210.5,73C 209.167,74 209.167,75 210.5,76C 209.5,77 208.5,78 207.5,79C 208.574,81.9696 207.407,83.8029 204,84.5C 203.617,83.944 203.117,83.6107 202.5,83.5C 204.246,79.6733 206.246,76.0066 208.5,72.5 Z"/></g>
<g><path style="opacity:0.769" fill="#2d6335" d="M 202.5,83.5 C 202.423,84.7498 201.756,85.5831 200.5,86C 200.833,86.3333 201.167,86.6667 201.5,87C 197.571,88.4771 193.571,89.6438 189.5,90.5C 193.997,88.6092 198.33,86.2758 202.5,83.5 Z"/></g>
<g><path style="opacity:0.854" fill="#28592f" d="M 129.5,81.5 C 130.968,82.8057 132.301,84.3057 133.5,86C 135.48,87.8565 137.48,88.6899 139.5,88.5C 136.676,88.449 134.009,88.949 131.5,90C 130.287,87.3135 129.62,84.4802 129.5,81.5 Z"/></g>
<g><path style="opacity:0.42" fill="#34723d" d="M 178.5,85.5 C 178.205,87.7354 178.539,89.7354 179.5,91.5C 179.44,92.0431 179.107,92.3764 178.5,92.5C 177.203,90.0268 177.203,87.6934 178.5,85.5 Z"/></g>
<g><path style="opacity:0.004" fill="#214926" d="M 149.5,95.5 C 149.833,95.5 150.167,95.5 150.5,95.5C 150.315,96.1701 149.981,96.1701 149.5,95.5 Z"/></g>
<g><path style="opacity:0.941" fill="#3a2020" d="M 206.5,150.5 C 204.339,150.826 202.506,151.826 201,153.5C 199.628,152.09 198.795,150.423 198.5,148.5C 200.867,144.427 202.867,140.094 204.5,135.5C 205.641,133.579 205.808,131.579 205,129.5C 202.636,131.363 200.136,133.029 197.5,134.5C 196.5,133.167 195.5,133.167 194.5,134.5C 191.566,133.533 188.9,132.2 186.5,130.5C 181.625,132.235 176.625,133.568 171.5,134.5C 170.584,134.457 169.917,134.124 169.5,133.5C 171.213,132.365 171.88,130.698 171.5,128.5C 171.5,128.167 171.5,127.833 171.5,127.5C 177.964,125.051 184.631,124.217 191.5,125C 192.333,125.833 193.167,126.667 194,127.5C 196.912,126.26 199.579,124.594 202,122.5C 206.355,123.507 210.855,125.007 215.5,127C 213.677,132.479 211.011,137.479 207.5,142C 207.833,142.333 208.167,142.667 208.5,143C 207.133,145.301 206.466,147.801 206.5,150.5 Z"/></g>
<g><path style="opacity:0.69" fill="#593939" d="M 198.5,148.5 C 196.649,148.649 194.816,148.649 193,148.5C 190.546,149.198 188.213,150.198 186,151.5C 185.617,150.944 185.117,150.611 184.5,150.5C 184.565,150.062 184.399,149.728 184,149.5C 181.393,150.123 178.893,150.79 176.5,151.5C 168.816,150.483 161.15,150.483 153.5,151.5C 150.545,150.841 147.545,150.508 144.5,150.5C 142.278,150.822 140.444,150.155 139,148.5C 136.932,142.51 135.099,136.843 133.5,131.5C 139.373,132.68 145.039,133.68 150.5,134.5C 152.167,133.5 153.833,132.5 155.5,131.5C 158.612,130.756 161.945,130.756 165.5,131.5C 166.287,133.104 167.62,133.771 169.5,133.5C 169.917,134.124 170.584,134.457 171.5,134.5C 176.625,133.568 181.625,132.235 186.5,130.5C 188.9,132.2 191.566,133.533 194.5,134.5C 195.5,133.167 196.5,133.167 197.5,134.5C 200.136,133.029 202.636,131.363 205,129.5C 205.808,131.579 205.641,133.579 204.5,135.5C 202.867,140.094 200.867,144.427 198.5,148.5 Z"/></g>
<g><path style="opacity:0.914" fill="#2d3925" d="M 164.5,126.5 C 166.767,128.176 169.1,128.843 171.5,128.5C 171.88,130.698 171.213,132.365 169.5,133.5C 167.62,133.771 166.287,133.104 165.5,131.5C 165.634,129.708 165.301,128.042 164.5,126.5 Z"/></g>
<g><path style="opacity:0.98" fill="#4e342c" d="M 184.5,150.5 C 184.586,151.496 184.252,152.329 183.5,153C 184.416,153.374 185.25,153.874 186,154.5C 189.601,153.18 193.101,153.18 196.5,154.5C 192.15,154.23 187.983,154.897 184,156.5C 180.746,154.957 177.413,155.29 174,157.5C 164.578,156.349 155.078,156.182 145.5,157C 146,157.5 146.5,158 147,158.5C 148.583,158.507 150.249,158.174 152,157.5C 153.444,159.155 155.278,159.822 157.5,159.5C 156.526,161.085 155.026,162.085 153,162.5C 152.667,161.833 152.333,161.167 152,160.5C 149.714,159.747 147.214,159.747 144.5,160.5C 143.735,159.388 142.735,158.721 141.5,158.5C 140.035,157.594 139.035,156.261 138.5,154.5C 140.486,152.397 142.486,151.064 144.5,150.5C 147.545,150.508 150.545,150.841 153.5,151.5C 153.97,152.693 154.97,153.36 156.5,153.5C 160.379,153.105 164.213,153.772 168,155.5C 171.79,154.864 175.623,154.197 179.5,153.5C 178.995,152.081 177.995,151.415 176.5,151.5C 178.893,150.79 181.393,150.123 184,149.5C 184.399,149.728 184.565,150.062 184.5,150.5 Z"/></g>
<g><path style="opacity:0.906" fill="#402525" d="M 176.5,151.5 C 177.995,151.415 178.995,152.081 179.5,153.5C 175.623,154.197 171.79,154.864 168,155.5C 164.213,153.772 160.379,153.105 156.5,153.5C 154.97,153.36 153.97,152.693 153.5,151.5C 161.15,150.483 168.816,150.483 176.5,151.5 Z"/></g>
<g><path style="opacity:0.494" fill="#361e1e" d="M 163.5,125.5 C 164.167,125.5 164.5,125.833 164.5,126.5C 165.301,128.042 165.634,129.708 165.5,131.5C 161.945,130.756 158.612,130.756 155.5,131.5C 153.833,132.5 152.167,133.5 150.5,134.5C 145.039,133.68 139.373,132.68 133.5,131.5C 135.099,136.843 136.932,142.51 139,148.5C 140.444,150.155 142.278,150.822 144.5,150.5C 142.486,151.064 140.486,152.397 138.5,154.5C 139.035,156.261 140.035,157.594 141.5,158.5C 141.715,160.179 141.048,161.179 139.5,161.5C 134.581,164.249 130.414,167.916 127,172.5C 122.661,180.512 118.328,188.512 114,196.5C 111.858,203.091 110.025,209.757 108.5,216.5C 108.169,221.04 108.836,225.54 110.5,230C 110.167,230.333 109.833,230.667 109.5,231C 115.333,245.334 124.666,256.834 137.5,265.5C 138.5,266.833 139.5,266.833 140.5,265.5C 141.287,266.242 141.953,267.075 142.5,268C 147.663,268.453 152.663,270.119 157.5,273C 164.334,273.378 171.334,273.378 178.5,273C 182.092,271.242 185.758,270.742 189.5,271.5C 191.274,271.113 192.941,270.447 194.5,269.5C 198.251,270.141 201.584,269.141 204.5,266.5C 209.494,267.709 212.66,265.709 214,260.5C 218.116,259.384 220.449,256.718 221,252.5C 221.333,252.833 221.667,253.167 222,253.5C 224.881,250.621 227.381,247.454 229.5,244C 227.416,242.573 227.416,240.907 229.5,239C 228.923,236.863 228.59,234.696 228.5,232.5C 229.983,222.9 230.649,213.4 230.5,204C 230.068,198.457 228.568,192.957 226,187.5C 220.354,178.729 213.521,170.896 205.5,164C 203.922,162.906 202.255,162.072 200.5,161.5C 200.918,160.778 201.584,160.278 202.5,160C 201.327,156.89 201.827,156.723 204,159.5C 204.232,158.263 204.732,157.263 205.5,156.5C 210.585,159.396 215.585,162.563 220.5,166C 222.037,167.11 222.703,168.61 222.5,170.5C 224.867,171.164 226.867,172.497 228.5,174.5C 230.671,178.159 233.004,181.659 235.5,185C 235.207,187.308 236.041,189.474 238,191.5C 238.241,194.289 238.908,196.956 240,199.5C 241.09,206.782 241.923,213.615 242.5,220C 242.005,224.138 241.005,228.138 239.5,232C 239.833,233 240.167,234 240.5,235C 239.218,237.658 237.385,240.158 235,242.5C 235.785,245.502 234.618,247.835 231.5,249.5C 226.642,259.947 219.475,267.28 210,271.5C 208.779,272.272 207.779,273.272 207,274.5C 204.593,274.327 202.26,274.327 200,274.5C 199.047,276.592 197.714,276.925 196,275.5C 194.806,276.43 193.473,277.097 192,277.5C 189.26,277.239 186.594,277.239 184,277.5C 182.433,279.168 180.766,279.502 179,278.5C 178.055,278.905 177.388,279.572 177,280.5C 171.668,280.168 166.334,280.168 161,280.5C 160.333,279.833 159.667,279.167 159,278.5C 156.14,278.112 153.14,278.112 150,278.5C 148.54,276.578 146.873,275.911 145,276.5C 144.085,275.672 143.419,274.672 143,273.5C 141.333,273.5 139.667,273.5 138,273.5C 124.569,265.04 113.903,253.373 106,238.5C 104.416,234.461 103.249,230.628 102.5,227C 102.888,224.14 102.888,221.14 102.5,218C 106.005,194.85 115.672,175.017 131.5,158.5C 131.136,156.267 130.136,154.434 128.5,153C 133.079,149.92 133.412,146.586 129.5,143C 129.581,139.856 128.748,136.689 127,133.5C 126.333,131.833 126.333,130.167 127,128.5C 133.002,125.006 139.169,125.006 145.5,128.5C 150.743,128.53 155.576,126.864 160,123.5C 161.113,124.305 162.279,124.972 163.5,125.5 Z"/></g>
<g><path style="opacity:0.953" fill="#876a4c" d="M 196.5,154.5 C 200.005,154.694 200.338,155.694 197.5,157.5C 187.38,158.241 177.047,158.908 166.5,159.5C 163.29,159.751 160.29,159.751 157.5,159.5C 155.278,159.822 153.444,159.155 152,157.5C 150.249,158.174 148.583,158.507 147,158.5C 146.5,158 146,157.5 145.5,157C 155.078,156.182 164.578,156.349 174,157.5C 177.413,155.29 180.746,154.957 184,156.5C 187.983,154.897 192.15,154.23 196.5,154.5 Z"/></g>
<g><path style="opacity:0.958" fill="#51372d" d="M 197.5,157.5 C 197.577,158.75 198.244,159.583 199.5,160C 196.685,161.582 194.185,161.415 192,159.5C 190.684,162.028 189.517,162.028 188.5,159.5C 185.092,160.235 181.592,161.568 178,163.5C 174.897,163.217 171.73,162.217 168.5,160.5C 166.463,162.794 165.796,162.461 166.5,159.5C 177.047,158.908 187.38,158.241 197.5,157.5 Z"/></g>
<g><path style="opacity:0.63" fill="#593939" d="M 139.5,161.5 C 142.296,162.307 145.13,163.307 148,164.5C 149.243,163.664 150.41,163.997 151.5,165.5C 151.137,166.183 150.804,166.85 150.5,167.5C 150.918,168.222 151.584,168.722 152.5,169C 151.207,169.49 149.873,169.657 148.5,169.5C 148.5,170.5 148.5,171.5 148.5,172.5C 147.5,172.5 146.5,172.5 145.5,172.5C 145.5,173.5 145.5,174.5 145.5,175.5C 143.807,176.475 142.307,177.808 141,179.5C 139.543,184.174 137.709,188.674 135.5,193C 135.871,198.054 138.037,202.22 142,205.5C 146.936,205.367 151.769,204.034 156.5,201.5C 155.841,204.455 155.508,207.455 155.5,210.5C 154.593,212.657 153.927,214.99 153.5,217.5C 153.557,221.503 152.89,225.67 151.5,230C 152.535,230.253 153.535,231.086 154.5,232.5C 154.109,231.109 154.942,230.109 157,229.5C 157.483,230.448 157.649,231.448 157.5,232.5C 158.083,229.759 159.083,227.092 160.5,224.5C 159.754,223.264 159.421,221.93 159.5,220.5C 160.548,217.214 161.548,213.881 162.5,210.5C 162.5,209.833 162.5,209.167 162.5,208.5C 163.249,207.469 163.915,206.302 164.5,205C 164.167,204.667 163.833,204.333 163.5,204C 164.872,201.275 165.872,198.609 166.5,196C 166.167,195.667 165.833,195.333 165.5,195C 166.488,192.833 167.821,191 169.5,189.5C 169.5,190.167 169.5,190.833 169.5,191.5C 168.766,192.878 168.099,194.378 167.5,196C 168.727,197.587 168.394,198.921 166.5,200C 167.059,200.725 167.392,201.558 167.5,202.5C 167.267,206.334 166.267,209.834 164.5,213C 165.059,213.725 165.392,214.558 165.5,215.5C 164.303,222.099 162.97,228.932 161.5,236C 161.461,237.245 161.795,238.578 162.5,240C 161.768,244.65 161.101,249.316 160.5,254C 160.387,255.699 161.053,256.866 162.5,257.5C 163.348,258.625 164.348,258.625 165.5,257.5C 166.189,258.774 167.023,258.774 168,257.5C 169.896,252.969 171.396,248.636 172.5,244.5C 171.81,241.932 171.477,239.432 171.5,237C 173.891,234.267 173.891,231.6 171.5,229C 172.944,227.237 173.944,225.237 174.5,223C 173.821,218.76 173.488,214.594 173.5,210.5C 173.5,210.167 173.5,209.833 173.5,209.5C 174.552,208.47 175.886,207.803 177.5,207.5C 199.303,211.203 207.137,202.536 201,181.5C 200.583,180.244 199.75,179.577 198.5,179.5C 200.078,177.625 199.745,176.292 197.5,175.5C 195.968,171.74 193.968,168.24 191.5,165C 194.647,164.044 197.647,162.877 200.5,161.5C 202.255,162.072 203.922,162.906 205.5,164C 213.521,170.896 220.354,178.729 226,187.5C 228.568,192.957 230.068,198.457 230.5,204C 230.649,213.4 229.983,222.9 228.5,232.5C 226.333,239.029 223.499,245.362 220,251.5C 214.043,255.72 208.877,260.72 204.5,266.5C 201.584,269.141 198.251,270.141 194.5,269.5C 192.941,270.447 191.274,271.113 189.5,271.5C 185.758,270.742 182.092,271.242 178.5,273C 171.334,273.378 164.334,273.378 157.5,273C 152.663,270.119 147.663,268.453 142.5,268C 141.953,267.075 141.287,266.242 140.5,265.5C 139.5,266.833 138.5,266.833 137.5,265.5C 124.666,256.834 115.333,245.334 109.5,231C 109.833,230.667 110.167,230.333 110.5,230C 108.836,225.54 108.169,221.04 108.5,216.5C 110.025,209.757 111.858,203.091 114,196.5C 118.328,188.512 122.661,180.512 127,172.5C 130.414,167.916 134.581,164.249 139.5,161.5 Z"/></g>
<g><path style="opacity:0.851" fill="#402624" d="M 198.5,148.5 C 198.795,150.423 199.628,152.09 201,153.5C 202.506,151.826 204.339,150.826 206.5,150.5C 204.069,152.068 204.069,153.568 206.5,155C 205.944,155.383 205.611,155.883 205.5,156.5C 204.732,157.263 204.232,158.263 204,159.5C 201.827,156.723 201.327,156.89 202.5,160C 201.584,160.278 200.918,160.778 200.5,161.5C 197.647,162.877 194.647,164.044 191.5,165C 193.968,168.24 195.968,171.74 197.5,175.5C 193.895,172.95 190.728,169.95 188,166.5C 187.5,166.833 187,167.167 186.5,167.5C 187.337,170.507 188.67,173.174 190.5,175.5C 190.5,175.833 190.5,176.167 190.5,176.5C 192.54,183.066 192.873,189.733 191.5,196.5C 189.382,197.946 187.049,198.613 184.5,198.5C 187.118,196.548 189.452,194.215 191.5,191.5C 190.77,188.891 190.27,186.224 190,183.5C 187.524,178.69 185.524,173.69 184,168.5C 183.5,169 183,169.5 182.5,170C 183.051,171.398 183.384,172.732 183.5,174C 182.833,176.667 182.167,179.333 181.5,182C 181.908,185.946 181.908,189.946 181.5,194C 183.107,195.049 183.773,196.549 183.5,198.5C 180.459,197.625 178.625,195.625 178,192.5C 177.913,187.512 178.08,182.512 178.5,177.5C 178.342,174.455 179.009,171.621 180.5,169C 179.62,167.644 179.286,166.144 179.5,164.5C 177.027,164.088 175.694,165.088 175.5,167.5C 174.711,167.783 174.044,168.283 173.5,169C 174.774,169.977 174.774,170.811 173.5,171.5C 171.58,170.721 169.747,170.387 168,170.5C 167.5,171.667 166.667,172.5 165.5,173C 166.253,174.487 167.086,174.654 168,173.5C 170.022,177.643 169.189,178.31 165.5,175.5C 164.255,176.955 164.422,178.289 166,179.5C 166.333,179.167 166.667,178.833 167,178.5C 167.21,180.058 167.71,181.391 168.5,182.5C 168.123,184.258 167.456,185.925 166.5,187.5C 167.902,188.842 167.569,189.676 165.5,190C 165.833,190.333 166.167,190.667 166.5,191C 163.986,193.356 162.152,196.189 161,199.5C 159.53,200.267 158.03,200.933 156.5,201.5C 151.769,204.034 146.936,205.367 142,205.5C 138.037,202.22 135.871,198.054 135.5,193C 137.709,188.674 139.543,184.174 141,179.5C 142.307,177.808 143.807,176.475 145.5,175.5C 144.624,177.98 143.291,180.147 141.5,182C 141.799,183.32 141.966,184.82 142,186.5C 143.159,185.434 143.992,185.767 144.5,187.5C 141.926,190.191 141.259,193.191 142.5,196.5C 141.909,197.151 141.243,197.818 140.5,198.5C 141.891,198.109 142.891,198.942 143.5,201C 143.167,201.333 142.833,201.667 142.5,202C 147.757,203.426 152.257,202.259 156,198.5C 157.769,195.71 159.602,192.877 161.5,190C 159.364,187.888 157.364,188.055 155.5,190.5C 155.167,190.167 154.833,189.833 154.5,189.5C 156.079,186.006 157.913,182.673 160,179.5C 160.749,178.365 160.583,177.365 159.5,176.5C 157.238,179.73 154.571,182.563 151.5,185C 151.833,185.333 152.167,185.667 152.5,186C 150.955,187.688 149.955,189.688 149.5,192C 150.5,192.333 151.5,192.667 152.5,193C 151.23,193.9 150.23,195.066 149.5,196.5C 148.833,196.167 148.167,195.833 147.5,195.5C 146.546,192.888 146.546,190.221 147.5,187.5C 147.61,185.626 146.944,184.126 145.5,183C 149.596,182.635 151.929,180.468 152.5,176.5C 152.833,175.5 153.5,174.833 154.5,174.5C 156.08,171.737 157.913,169.07 160,166.5C 161.297,167.784 162.464,167.617 163.5,166C 160.869,165.893 158.369,165.727 156,165.5C 154.599,167.192 152.766,167.859 150.5,167.5C 150.804,166.85 151.137,166.183 151.5,165.5C 150.41,163.997 149.243,163.664 148,164.5C 145.13,163.307 142.296,162.307 139.5,161.5C 141.048,161.179 141.715,160.179 141.5,158.5C 142.735,158.721 143.735,159.388 144.5,160.5C 147.214,159.747 149.714,159.747 152,160.5C 152.333,161.167 152.667,161.833 153,162.5C 155.026,162.085 156.526,161.085 157.5,159.5C 160.29,159.751 163.29,159.751 166.5,159.5C 165.796,162.461 166.463,162.794 168.5,160.5C 171.73,162.217 174.897,163.217 178,163.5C 181.592,161.568 185.092,160.235 188.5,159.5C 189.517,162.028 190.684,162.028 192,159.5C 194.185,161.415 196.685,161.582 199.5,160C 198.244,159.583 197.577,158.75 197.5,157.5C 200.338,155.694 200.005,154.694 196.5,154.5C 193.101,153.18 189.601,153.18 186,154.5C 185.25,153.874 184.416,153.374 183.5,153C 184.252,152.329 184.586,151.496 184.5,150.5C 185.117,150.611 185.617,150.944 186,151.5C 188.213,150.198 190.546,149.198 193,148.5C 194.816,148.649 196.649,148.649 198.5,148.5 Z"/></g>
<g><path style="opacity:0.591" fill="#593939" d="M 184.5,198.5 C 184.167,198.5 183.833,198.5 183.5,198.5C 183.773,196.549 183.107,195.049 181.5,194C 181.908,189.946 181.908,185.946 181.5,182C 182.167,179.333 182.833,176.667 183.5,174C 183.384,172.732 183.051,171.398 182.5,170C 183,169.5 183.5,169 184,168.5C 185.524,173.69 187.524,178.69 190,183.5C 190.27,186.224 190.77,188.891 191.5,191.5C 189.452,194.215 187.118,196.548 184.5,198.5 Z"/></g>
<g><path style="opacity:0.965" fill="#7c5f46" d="M 178.5,177.5 C 178.119,173.881 177.119,170.548 175.5,167.5C 175.694,165.088 177.027,164.088 179.5,164.5C 179.286,166.144 179.62,167.644 180.5,169C 179.009,171.621 178.342,174.455 178.5,177.5 Z"/></g>
<g><path style="opacity:0.941" fill="#51372e" d="M 197.5,175.5 C 199.745,176.292 200.078,177.625 198.5,179.5C 196.737,182.712 197.404,185.212 200.5,187C 199.167,188 199.167,189 200.5,190C 200.05,192.533 199.05,194.7 197.5,196.5C 197.216,191.943 196.882,187.61 196.5,183.5C 195.267,179.253 193.433,175.253 191,171.5C 190.938,173.115 190.771,174.448 190.5,175.5C 188.67,173.174 187.337,170.507 186.5,167.5C 187,167.167 187.5,166.833 188,166.5C 190.728,169.95 193.895,172.95 197.5,175.5 Z"/></g>
<g><path style="opacity:0.949" fill="#876b4c" d="M 154.5,174.5 C 153.5,174.833 152.833,175.5 152.5,176.5C 151.542,176.953 150.708,177.619 150,178.5C 149.333,177.5 149.333,176.5 150,175.5C 151.314,174.687 152.481,173.687 153.5,172.5C 154.298,172.957 154.631,173.624 154.5,174.5 Z"/></g>
<g><path style="opacity:0.908" fill="#775b43" d="M 196.5,183.5 C 196.167,183.5 195.833,183.5 195.5,183.5C 194.691,182.531 193.691,181.698 192.5,181C 193.641,178.776 192.974,177.276 190.5,176.5C 190.5,176.167 190.5,175.833 190.5,175.5C 190.771,174.448 190.938,173.115 191,171.5C 193.433,175.253 195.267,179.253 196.5,183.5 Z"/></g>
<g><path style="opacity:0.991" fill="#493028" d="M 173.5,171.5 C 174.209,172.404 175.209,172.737 176.5,172.5C 176.863,174.911 175.863,176.411 173.5,177C 175.18,177.347 176.18,178.347 176.5,180C 176.654,183.432 176.321,186.932 175.5,190.5C 174.833,190.833 174.167,191.167 173.5,191.5C 171.073,190.721 171.073,189.554 173.5,188C 173.272,187.601 172.938,187.435 172.5,187.5C 172.063,185.926 171.063,184.759 169.5,184C 170.842,181.985 171.342,179.818 171,177.5C 170.153,179.193 169.32,180.86 168.5,182.5C 167.71,181.391 167.21,180.058 167,178.5C 166.667,178.833 166.333,179.167 166,179.5C 164.422,178.289 164.255,176.955 165.5,175.5C 169.189,178.31 170.022,177.643 168,173.5C 167.086,174.654 166.253,174.487 165.5,173C 166.667,172.5 167.5,171.667 168,170.5C 169.747,170.387 171.58,170.721 173.5,171.5 Z"/></g>
<g><path style="opacity:0.929" fill="#694d3b" d="M 172.5,187.5 C 171.29,187.932 170.29,188.599 169.5,189.5C 167.821,191 166.488,192.833 165.5,195C 165.833,195.333 166.167,195.667 166.5,196C 165.872,198.609 164.872,201.275 163.5,204C 163.833,204.333 164.167,204.667 164.5,205C 163.915,206.302 163.249,207.469 162.5,208.5C 160.353,207.068 160.02,205.235 161.5,203C 160.975,202.308 160.308,201.808 159.5,201.5C 158.079,202.752 157.079,205.252 156.5,209C 157.712,210.107 157.379,210.607 155.5,210.5C 155.508,207.455 155.841,204.455 156.5,201.5C 158.03,200.933 159.53,200.267 161,199.5C 162.152,196.189 163.986,193.356 166.5,191C 166.167,190.667 165.833,190.333 165.5,190C 167.569,189.676 167.902,188.842 166.5,187.5C 167.456,185.925 168.123,184.258 168.5,182.5C 169.32,180.86 170.153,179.193 171,177.5C 171.342,179.818 170.842,181.985 169.5,184C 171.063,184.759 172.063,185.926 172.5,187.5 Z"/></g>
<g><path style="opacity:0.976" fill="#52372f" d="M 154.5,174.5 C 154.631,173.624 154.298,172.957 153.5,172.5C 152.481,173.687 151.314,174.687 150,175.5C 149.333,176.5 149.333,177.5 150,178.5C 150.708,177.619 151.542,176.953 152.5,176.5C 151.929,180.468 149.596,182.635 145.5,183C 146.944,184.126 147.61,185.626 147.5,187.5C 146.546,190.221 146.546,192.888 147.5,195.5C 148.167,195.833 148.833,196.167 149.5,196.5C 150.23,195.066 151.23,193.9 152.5,193C 151.5,192.667 150.5,192.333 149.5,192C 149.955,189.688 150.955,187.688 152.5,186C 152.167,185.667 151.833,185.333 151.5,185C 154.571,182.563 157.238,179.73 159.5,176.5C 160.583,177.365 160.749,178.365 160,179.5C 157.913,182.673 156.079,186.006 154.5,189.5C 154.833,189.833 155.167,190.167 155.5,190.5C 157.364,188.055 159.364,187.888 161.5,190C 159.602,192.877 157.769,195.71 156,198.5C 152.257,202.259 147.757,203.426 142.5,202C 142.833,201.667 143.167,201.333 143.5,201C 142.891,198.942 141.891,198.109 140.5,198.5C 141.243,197.818 141.909,197.151 142.5,196.5C 143.315,197.429 144.148,198.429 145,199.5C 145.692,198.975 146.192,198.308 146.5,197.5C 144.816,194.388 144.15,191.054 144.5,187.5C 143.992,185.767 143.159,185.434 142,186.5C 141.966,184.82 141.799,183.32 141.5,182C 143.291,180.147 144.624,177.98 145.5,175.5C 145.5,174.5 145.5,173.5 145.5,172.5C 146.5,172.5 147.5,172.5 148.5,172.5C 148.5,171.5 148.5,170.5 148.5,169.5C 149.873,169.657 151.207,169.49 152.5,169C 151.584,168.722 150.918,168.222 150.5,167.5C 152.766,167.859 154.599,167.192 156,165.5C 158.369,165.727 160.869,165.893 163.5,166C 162.464,167.617 161.297,167.784 160,166.5C 157.913,169.07 156.08,171.737 154.5,174.5 Z"/></g>
<g><path style="opacity:0.932" fill="#8f7250" d="M 144.5,187.5 C 144.15,191.054 144.816,194.388 146.5,197.5C 146.192,198.308 145.692,198.975 145,199.5C 144.148,198.429 143.315,197.429 142.5,196.5C 141.259,193.191 141.926,190.191 144.5,187.5 Z"/></g>
<g><path style="opacity:0.984" fill="#5e4334" d="M 175.5,167.5 C 177.119,170.548 178.119,173.881 178.5,177.5C 178.08,182.512 177.913,187.512 178,192.5C 178.625,195.625 180.459,197.625 183.5,198.5C 183.833,198.5 184.167,198.5 184.5,198.5C 187.049,198.613 189.382,197.946 191.5,196.5C 192.873,189.733 192.54,183.066 190.5,176.5C 192.974,177.276 193.641,178.776 192.5,181C 193.691,181.698 194.691,182.531 195.5,183.5C 195.342,187.212 195.342,190.712 195.5,194C 192.919,196.65 190.252,199.316 187.5,202C 187.728,202.399 188.062,202.565 188.5,202.5C 188.209,203.649 187.376,204.316 186,204.5C 184.93,204.472 184.097,204.139 183.5,203.5C 181.167,201.5 178.833,199.5 176.5,197.5C 175.98,195.051 175.647,192.718 175.5,190.5C 176.321,186.932 176.654,183.432 176.5,180C 176.18,178.347 175.18,177.347 173.5,177C 175.863,176.411 176.863,174.911 176.5,172.5C 175.209,172.737 174.209,172.404 173.5,171.5C 174.774,170.811 174.774,169.977 173.5,169C 174.044,168.283 174.711,167.783 175.5,167.5 Z"/></g>
<g><path style="opacity:0.931" fill="#907350" d="M 195.5,183.5 C 195.833,183.5 196.167,183.5 196.5,183.5C 196.882,187.61 197.216,191.943 197.5,196.5C 197.703,198.39 197.037,199.89 195.5,201C 193.134,201.44 190.801,201.94 188.5,202.5C 188.062,202.565 187.728,202.399 187.5,202C 190.252,199.316 192.919,196.65 195.5,194C 195.342,190.712 195.342,187.212 195.5,183.5 Z"/></g>
<g><path style="opacity:0.868" fill="#422826" d="M 198.5,179.5 C 199.75,179.577 200.583,180.244 201,181.5C 207.137,202.536 199.303,211.203 177.5,207.5C 175.886,207.803 174.552,208.47 173.5,209.5C 173.466,206.415 173.466,203.249 173.5,200C 172.372,198.532 171.706,196.865 171.5,195C 171.873,193.45 172.54,192.283 173.5,191.5C 174.167,191.167 174.833,190.833 175.5,190.5C 175.647,192.718 175.98,195.051 176.5,197.5C 176.526,201.892 178.859,203.892 183.5,203.5C 184.097,204.139 184.93,204.472 186,204.5C 187.376,204.316 188.209,203.649 188.5,202.5C 190.801,201.94 193.134,201.44 195.5,201C 197.037,199.89 197.703,198.39 197.5,196.5C 199.05,194.7 200.05,192.533 200.5,190C 199.167,189 199.167,188 200.5,187C 197.404,185.212 196.737,182.712 198.5,179.5 Z"/></g>
<g><path style="opacity:0.906" fill="#8e714f" d="M 176.5,197.5 C 178.833,199.5 181.167,201.5 183.5,203.5C 178.859,203.892 176.526,201.892 176.5,197.5 Z"/></g>
<g><path style="opacity:0.929" fill="#50372c" d="M 162.5,208.5 C 162.5,209.167 162.5,209.833 162.5,210.5C 160.515,210.859 159.849,211.692 160.5,213C 159.929,214.205 159.262,215.372 158.5,216.5C 157.741,214.738 156.741,212.738 155.5,210.5C 157.379,210.607 157.712,210.107 156.5,209C 157.079,205.252 158.079,202.752 159.5,201.5C 160.308,201.808 160.975,202.308 161.5,203C 160.02,205.235 160.353,207.068 162.5,208.5 Z"/></g>
<g><path style="opacity:0.973" fill="#53392e" d="M 172.5,187.5 C 172.938,187.435 173.272,187.601 173.5,188C 171.073,189.554 171.073,190.721 173.5,191.5C 172.54,192.283 171.873,193.45 171.5,195C 171.706,196.865 172.372,198.532 173.5,200C 173.466,203.249 173.466,206.415 173.5,209.5C 173.5,209.833 173.5,210.167 173.5,210.5C 172.631,212.984 171.964,215.651 171.5,218.5C 171.608,219.442 171.941,220.275 172.5,221C 171.685,222.943 170.685,224.943 169.5,227C 170.136,229.394 170.136,231.894 169.5,234.5C 168.5,234.5 167.5,234.5 166.5,234.5C 166.141,236.766 166.808,238.599 168.5,240C 167.473,240.513 166.473,241.013 165.5,241.5C 164.827,236.164 165.494,230.83 167.5,225.5C 166.713,222.256 166.379,219.089 166.5,216C 168.043,209.603 169.376,203.103 170.5,196.5C 169.691,194.929 169.357,193.262 169.5,191.5C 169.5,190.833 169.5,190.167 169.5,189.5C 170.29,188.599 171.29,187.932 172.5,187.5 Z"/></g>
<g><path style="opacity:0.901" fill="#6b4f3c" d="M 155.5,210.5 C 156.741,212.738 157.741,214.738 158.5,216.5C 159.262,215.372 159.929,214.205 160.5,213C 159.849,211.692 160.515,210.859 162.5,210.5C 161.548,213.881 160.548,217.214 159.5,220.5C 159.5,219.5 159.5,218.5 159.5,217.5C 157.388,216.725 155.388,216.725 153.5,217.5C 153.927,214.99 154.593,212.657 155.5,210.5 Z"/></g>
<g><path style="opacity:0.804" fill="#86694c" d="M 169.5,191.5 C 169.357,193.262 169.691,194.929 170.5,196.5C 169.376,203.103 168.043,209.603 166.5,216C 166.379,219.089 166.713,222.256 167.5,225.5C 165.494,230.83 164.827,236.164 165.5,241.5C 165.5,242.167 165.5,242.833 165.5,243.5C 163.927,248.289 162.927,252.955 162.5,257.5C 161.053,256.866 160.387,255.699 160.5,254C 161.101,249.316 161.768,244.65 162.5,240C 161.795,238.578 161.461,237.245 161.5,236C 162.97,228.932 164.303,222.099 165.5,215.5C 165.392,214.558 165.059,213.725 164.5,213C 166.267,209.834 167.267,206.334 167.5,202.5C 167.392,201.558 167.059,200.725 166.5,200C 168.394,198.921 168.727,197.587 167.5,196C 168.099,194.378 168.766,192.878 169.5,191.5 Z"/></g>
<g><path style="opacity:0.963" fill="#583d31" d="M 159.5,220.5 C 159.421,221.93 159.754,223.264 160.5,224.5C 159.083,227.092 158.083,229.759 157.5,232.5C 157.649,231.448 157.483,230.448 157,229.5C 154.942,230.109 154.109,231.109 154.5,232.5C 153.535,231.086 152.535,230.253 151.5,230C 152.89,225.67 153.557,221.503 153.5,217.5C 155.388,216.725 157.388,216.725 159.5,217.5C 159.5,218.5 159.5,219.5 159.5,220.5 Z"/></g>
<g><path style="opacity:0.984" fill="#5a4032" d="M 157.5,232.5 C 156.781,235.889 156.447,239.222 156.5,242.5C 156.27,244.514 155.77,246.847 155,249.5C 152.933,252.014 151.433,251.848 150.5,249C 150.603,246.375 150.936,243.541 151.5,240.5C 151.511,238.983 152.177,237.816 153.5,237C 152.663,235.989 152.33,234.822 152.5,233.5C 153.822,233.33 154.989,233.663 156,234.5C 156.278,233.584 156.778,232.918 157.5,232.5 Z"/></g>
<g><path style="opacity:0.984" fill="#583e30" d="M 165.5,243.5 C 169.236,243.66 169.236,244.493 165.5,246C 166.167,246.667 166.833,247.333 167.5,248C 165.968,248.7 164.968,249.866 164.5,251.5C 165.758,250.984 166.758,251.65 167.5,253.5C 166.82,254.86 166.153,256.193 165.5,257.5C 164.348,258.625 163.348,258.625 162.5,257.5C 162.927,252.955 163.927,248.289 165.5,243.5 Z"/></g>
<g><path style="opacity:0.915" fill="#412725" d="M 173.5,210.5 C 173.488,214.594 173.821,218.76 174.5,223C 173.944,225.237 172.944,227.237 171.5,229C 173.891,231.6 173.891,234.267 171.5,237C 171.477,239.432 171.81,241.932 172.5,244.5C 171.396,248.636 169.896,252.969 168,257.5C 167.023,258.774 166.189,258.774 165.5,257.5C 166.153,256.193 166.82,254.86 167.5,253.5C 166.758,251.65 165.758,250.984 164.5,251.5C 164.968,249.866 165.968,248.7 167.5,248C 166.833,247.333 166.167,246.667 165.5,246C 169.236,244.493 169.236,243.66 165.5,243.5C 165.5,242.833 165.5,242.167 165.5,241.5C 166.473,241.013 167.473,240.513 168.5,240C 166.808,238.599 166.141,236.766 166.5,234.5C 167.5,234.5 168.5,234.5 169.5,234.5C 170.136,231.894 170.136,229.394 169.5,227C 170.685,224.943 171.685,222.943 172.5,221C 171.941,220.275 171.608,219.442 171.5,218.5C 171.964,215.651 172.631,212.984 173.5,210.5 Z"/></g>
<g><path style="opacity:0.894" fill="#725541" d="M 151.5,240.5 C 150.936,243.541 150.603,246.375 150.5,249C 151.433,251.848 152.933,252.014 155,249.5C 155.77,246.847 156.27,244.514 156.5,242.5C 157.964,247.084 156.797,251.417 153,255.5C 150.136,253.849 148.97,251.349 149.5,248C 149.991,245.794 149.991,243.794 149.5,242C 150.044,241.283 150.711,240.783 151.5,240.5 Z"/></g>
<g><path style="opacity:0.867" fill="#402525" d="M 228.5,232.5 C 228.59,234.696 228.923,236.863 229.5,239C 227.416,240.907 227.416,242.573 229.5,244C 227.381,247.454 224.881,250.621 222,253.5C 221.667,253.167 221.333,252.833 221,252.5C 220.449,256.718 218.116,259.384 214,260.5C 212.66,265.709 209.494,267.709 204.5,266.5C 208.877,260.72 214.043,255.72 220,251.5C 223.499,245.362 226.333,239.029 228.5,232.5 Z"/></g>
</svg>
