<?xml version="1.0" encoding="UTF-8"?>
<!DOCTYPE svg PUBLIC "-//W3C//DTD SVG 1.1//EN" "http://www.w3.org/Graphics/SVG/1.1/DTD/svg11.dtd">
<svg xmlns="http://www.w3.org/2000/svg" version="1.1" width="328px" height="313px" style="shape-rendering:geometricPrecision; text-rendering:geometricPrecision; image-rendering:optimizeQuality; fill-rule:evenodd; clip-rule:evenodd" xmlns:xlink="http://www.w3.org/1999/xlink">
<g><path style="opacity:0.406" fill="#212d5d" d="M 264.5,61.5 C 258.805,57.9926 253.472,53.8259 248.5,49C 245.443,48.7435 242.443,48.2435 239.5,47.5C 237.664,48.0276 235.997,48.6942 234.5,49.5C 227.874,50.1828 221.207,50.1828 214.5,49.5C 216.744,48.0702 219.244,47.0702 222,46.5C 222.414,46.9574 222.914,47.2907 223.5,47.5C 228.919,45.8559 234.086,44.5226 239,43.5C 240.958,44.952 242.958,45.2854 245,44.5C 247.736,45.7272 250.569,46.7272 253.5,47.5C 257.596,51.9173 261.262,56.584 264.5,61.5 Z"/></g>
<g><path style="opacity:0.315" fill="#92b4cc" d="M 213.5,49.5 C 208.033,52.3978 202.367,55.0644 196.5,57.5C 196.5,56.8333 196.167,56.5 195.5,56.5C 198.222,54.9202 200.889,53.0869 203.5,51C 206.659,50.1778 209.659,49.3444 212.5,48.5C 213.107,48.6236 213.44,48.9569 213.5,49.5 Z"/></g>
<g><path style="opacity:0.181" fill="#212e5e" d="M 195.5,56.5 C 196.167,56.5 196.5,56.8333 196.5,57.5C 191.875,60.2679 186.875,62.2679 181.5,63.5C 185.813,60.5767 190.48,58.2434 195.5,56.5 Z"/></g>
<g><path style="opacity:0.969" fill="#45688d" d="M 213.5,49.5 C 213.833,49.5 214.167,49.5 214.5,49.5C 221.207,50.1828 227.874,50.1828 234.5,49.5C 234.5,49.8333 234.5,50.1667 234.5,50.5C 218.4,53.22 203.067,58.22 188.5,65.5C 187.353,65.1822 186.519,64.5156 186,63.5C 185.667,64.5 185.333,65.5 185,66.5C 181.98,69.5162 178.646,72.1829 175,74.5C 172.666,78.5705 170.5,81.9038 168.5,84.5C 168.5,83.8333 168.5,83.1667 168.5,82.5C 168.963,79.5176 169.296,76.5176 169.5,73.5C 170.5,72.1667 171.5,70.8333 172.5,69.5C 174.199,69.6602 175.866,69.4935 177.5,69C 178.488,66.833 179.821,64.9997 181.5,63.5C 186.875,62.2679 191.875,60.2679 196.5,57.5C 202.367,55.0644 208.033,52.3978 213.5,49.5 Z"/></g>
<g><path style="opacity:0.291" fill="#212c5d" d="M 181.5,63.5 C 179.821,64.9997 178.488,66.833 177.5,69C 175.866,69.4935 174.199,69.6602 172.5,69.5C 174.371,68.1462 176.037,66.4795 177.5,64.5C 178.689,63.5713 180.022,63.238 181.5,63.5 Z"/></g>
<g><path style="opacity:0.477" fill="#263262" d="M 232.5,61.5 C 236.132,61.753 239.466,62.753 242.5,64.5C 234.005,65.9354 225.505,68.6021 217,72.5C 216.667,72.1667 216.333,71.8333 216,71.5C 208.112,74.1946 200.279,77.0279 192.5,80C 190.373,82.2533 189.04,84.92 188.5,88C 189.2,91.3902 189.7,94.8902 190,98.5C 190.414,98.9574 190.914,99.2907 191.5,99.5C 194.603,97.6876 197.936,96.6876 201.5,96.5C 198.135,98.4623 194.468,99.9623 190.5,101C 189.167,102 189.167,103 190.5,104C 189.5,104.333 188.5,104.667 187.5,105C 188.696,105.654 188.696,106.154 187.5,106.5C 185.38,105.597 185.046,104.263 186.5,102.5C 186.043,101.702 185.376,101.369 184.5,101.5C 183.766,100.292 183.433,98.9587 183.5,97.5C 183.254,91.4406 183.587,85.4406 184.5,79.5C 187.035,76.4971 189.701,74.3305 192.5,73C 198.565,70.8237 204.565,68.6571 210.5,66.5C 211.641,68.0876 213.141,69.4209 215,70.5C 216.617,69.1487 217.784,67.482 218.5,65.5C 223.283,64.1603 227.95,62.827 232.5,61.5 Z"/></g>
<g><path style="opacity:0.214" fill="#95b7cf" d="M 267.5,64.5 C 270.754,66.6774 272.754,69.6774 273.5,73.5C 271.124,72.2739 269.624,70.2739 269,67.5C 268.667,67.8333 268.333,68.1667 268,68.5C 267.51,67.2068 267.343,65.8734 267.5,64.5 Z"/></g>
<g><path style="opacity:0.419" fill="#222e5f" d="M 245.5,66.5 C 252.032,70.5352 257.032,76.0352 260.5,83C 260.167,83.3333 259.833,83.6667 259.5,84C 263.443,91.72 265.609,99.8867 266,108.5C 265.323,106.311 264.156,105.978 262.5,107.5C 259.816,105.271 256.816,103.605 253.5,102.5C 252.5,101.833 251.5,101.167 250.5,100.5C 250.421,99.0695 250.754,97.7362 251.5,96.5C 249.271,93.4462 247.271,90.2796 245.5,87C 237.56,87.4434 229.726,88.61 222,90.5C 221.283,89.9558 220.783,89.2891 220.5,88.5C 224.316,88.004 227.816,86.6707 231,84.5C 231.561,85.0219 232.228,85.3552 233,85.5C 236.386,84.9127 239.72,84.2461 243,83.5C 244.171,84.8932 245.671,85.7265 247.5,86C 252.116,90.7381 256.616,95.5715 261,100.5C 260.033,93.9271 258.033,87.5938 255,81.5C 251.978,76.3314 248.811,71.3314 245.5,66.5 Z M 260.5,101.5 C 262.028,101.517 262.528,102.184 262,103.5C 261.283,102.956 260.783,102.289 260.5,101.5 Z"/></g>
<g><path style="opacity:0.876" fill="#435780" d="M 232.5,61.5 C 227.95,62.827 223.283,64.1603 218.5,65.5C 217.784,67.482 216.617,69.1487 215,70.5C 213.141,69.4209 211.641,68.0876 210.5,66.5C 216.461,64.7354 222.461,62.7354 228.5,60.5C 229.736,61.2458 231.07,61.5792 232.5,61.5 Z"/></g>
<g><path style="opacity:0.996" fill="#3d6188" d="M 246.5,59.5 C 247.552,59.3505 248.552,59.5172 249.5,60C 251.513,62.3792 253.346,64.8792 255,67.5C 261.015,78.1251 265.849,88.7918 269.5,99.5C 269.508,103.863 269.508,108.196 269.5,112.5C 268.864,115.106 268.864,117.606 269.5,120C 268.956,120.717 268.289,121.217 267.5,121.5C 266.242,119.699 264.576,118.199 262.5,117C 262.833,116.667 263.167,116.333 263.5,116C 259.678,111.76 256.345,107.26 253.5,102.5C 256.816,103.605 259.816,105.271 262.5,107.5C 264.156,105.978 265.323,106.311 266,108.5C 265.609,99.8867 263.443,91.72 259.5,84C 259.833,83.6667 260.167,83.3333 260.5,83C 257.032,76.0352 252.032,70.5352 245.5,66.5C 244.5,65.8333 243.5,65.1667 242.5,64.5C 239.466,62.753 236.132,61.753 232.5,61.5C 236.881,59.7895 241.547,59.1228 246.5,59.5 Z"/></g>
<g><path style="opacity:0.996" fill="#82bed4" d="M 234.5,50.5 C 233.942,51.7899 232.942,52.6232 231.5,53C 232.624,53.2492 233.624,53.7492 234.5,54.5C 233.41,55.6086 233.41,56.6086 234.5,57.5C 235.517,54.972 236.684,54.972 238,57.5C 239.188,56.4366 239.688,55.1033 239.5,53.5C 240.552,53.3505 241.552,53.5172 242.5,54C 241.483,55.0495 241.316,56.2161 242,57.5C 243.622,58.0989 245.122,58.7656 246.5,59.5C 241.547,59.1228 236.881,59.7895 232.5,61.5C 231.07,61.5792 229.736,61.2458 228.5,60.5C 222.461,62.7354 216.461,64.7354 210.5,66.5C 204.565,68.6571 198.565,70.8237 192.5,73C 189.701,74.3305 187.035,76.4971 184.5,79.5C 183.163,80.3149 182.163,81.4815 181.5,83C 181.737,87.0675 181.903,91.2342 182,95.5C 182.278,96.4158 182.778,97.0825 183.5,97.5C 183.433,98.9587 183.766,100.292 184.5,101.5C 184.719,102.675 184.386,103.675 183.5,104.5C 180.036,106.317 176.702,108.317 173.5,110.5C 171.96,106.216 170.627,101.882 169.5,97.5C 169.709,96.914 170.043,96.414 170.5,96C 169.352,92.2813 168.686,88.448 168.5,84.5C 170.5,81.9038 172.666,78.5705 175,74.5C 178.646,72.1829 181.98,69.5162 185,66.5C 185.333,65.5 185.667,64.5 186,63.5C 186.519,64.5156 187.353,65.1822 188.5,65.5C 203.067,58.22 218.4,53.22 234.5,50.5 Z"/></g>
<g><path style="opacity:0.504" fill="#212d5d" d="M 169.5,73.5 C 169.296,76.5176 168.963,79.5176 168.5,82.5C 167.577,92.8294 168.577,103.163 171.5,113.5C 169.174,118.87 169.841,123.87 173.5,128.5C 173.737,129.791 173.404,130.791 172.5,131.5C 170.254,132.455 167.921,133.122 165.5,133.5C 166.369,130.22 167.036,126.887 167.5,123.5C 166.866,119.517 166.866,115.351 167.5,111C 166.833,110 166.167,109 165.5,108C 165.501,106.601 165.835,105.101 166.5,103.5C 164.469,101.751 164.135,99.7508 165.5,97.5C 164.907,95.6183 164.24,93.7849 163.5,92C 164.296,89.2602 164.296,86.4269 163.5,83.5C 163.667,82.1667 163.833,80.8333 164,79.5C 166.091,77.5721 167.924,75.5721 169.5,73.5 Z"/></g>
<g><path style="opacity:0.103" fill="#222d5e" d="M 275.5,77.5 C 278.667,81.0035 281,85.0035 282.5,89.5C 279.507,86.4988 276.841,83.1654 274.5,79.5C 274.863,78.8165 275.196,78.1499 275.5,77.5 Z"/></g>
<g><path style="opacity:0.973" fill="#4c6c91" d="M 184.5,79.5 C 183.587,85.4406 183.254,91.4406 183.5,97.5C 182.778,97.0825 182.278,96.4158 182,95.5C 181.903,91.2342 181.737,87.0675 181.5,83C 182.163,81.4815 183.163,80.3149 184.5,79.5 Z"/></g>
<g><path style="opacity:0.953" fill="#314975" d="M 168.5,82.5 C 168.5,83.1667 168.5,83.8333 168.5,84.5C 168.686,88.448 169.352,92.2813 170.5,96C 170.043,96.414 169.709,96.914 169.5,97.5C 170.627,101.882 171.96,106.216 173.5,110.5C 176.702,108.317 180.036,106.317 183.5,104.5C 184.386,103.675 184.719,102.675 184.5,101.5C 185.376,101.369 186.043,101.702 186.5,102.5C 185.046,104.263 185.38,105.597 187.5,106.5C 188.696,106.154 188.696,105.654 187.5,105C 188.5,104.667 189.5,104.333 190.5,104C 189.167,103 189.167,102 190.5,101C 194.468,99.9623 198.135,98.4623 201.5,96.5C 207.525,93.3926 213.858,90.7259 220.5,88.5C 220.783,89.2891 221.283,89.9558 222,90.5C 229.726,88.61 237.56,87.4434 245.5,87C 247.271,90.2796 249.271,93.4462 251.5,96.5C 250.754,97.7362 250.421,99.0695 250.5,100.5C 248.529,98.1918 246.529,95.8585 244.5,93.5C 244.459,91.2547 243.625,90.5881 242,91.5C 241,90.8333 240,90.1667 239,89.5C 235.208,90.5599 231.374,91.5599 227.5,92.5C 226.914,92.2907 226.414,91.9574 226,91.5C 224.189,93.5433 222.022,95.0433 219.5,96C 213.239,98.198 206.905,100.198 200.5,102C 199.944,102.383 199.611,102.883 199.5,103.5C 198.167,103.833 196.833,104.167 195.5,104.5C 188.573,107.802 181.573,111.468 174.5,115.5C 173.515,119.634 173.182,123.968 173.5,128.5C 169.841,123.87 169.174,118.87 171.5,113.5C 168.577,103.163 167.577,92.8294 168.5,82.5 Z"/></g>
<g><path style="opacity:0.99" fill="#436d92" d="M 264.5,61.5 C 266.144,61.8102 267.144,62.8102 267.5,64.5C 267.343,65.8734 267.51,67.2068 268,68.5C 268.333,68.1667 268.667,67.8333 269,67.5C 269.624,70.2739 271.124,72.2739 273.5,73.5C 274.167,74.8333 274.833,76.1667 275.5,77.5C 275.196,78.1499 274.863,78.8165 274.5,79.5C 276.841,83.1654 279.507,86.4988 282.5,89.5C 283.228,91.7346 284.561,93.5679 286.5,95C 286.043,95.414 285.709,95.914 285.5,96.5C 286.63,97.6223 287.297,98.9557 287.5,100.5C 290.121,110.844 290.121,121.177 287.5,131.5C 288.246,132.736 288.579,134.07 288.5,135.5C 288.011,136.995 287.345,138.329 286.5,139.5C 285.391,139.557 284.391,139.89 283.5,140.5C 282.54,139.717 281.873,138.55 281.5,137C 283.212,131.36 285.212,125.86 287.5,120.5C 286.586,114.971 285.252,109.638 283.5,104.5C 281.421,100.672 279.588,96.6717 278,92.5C 271.662,82.1296 265.329,71.7962 259,61.5C 255.492,57.6595 251.659,54.1595 247.5,51C 243.21,50.0775 238.877,49.5775 234.5,49.5C 235.997,48.6942 237.664,48.0276 239.5,47.5C 242.443,48.2435 245.443,48.7435 248.5,49C 253.472,53.8259 258.805,57.9926 264.5,61.5 Z"/></g>
<g><path style="opacity:1" fill="#81c1d7" d="M 234.5,49.5 C 238.877,49.5775 243.21,50.0775 247.5,51C 251.659,54.1595 255.492,57.6595 259,61.5C 265.329,71.7962 271.662,82.1296 278,92.5C 279.588,96.6717 281.421,100.672 283.5,104.5C 281.198,105.86 279.532,105.193 278.5,102.5C 276.689,104.162 275.022,104.328 273.5,103C 273.833,102.667 274.167,102.333 274.5,102C 273,100.5 271.5,99 270,97.5C 269.536,98.0944 269.369,98.7611 269.5,99.5C 265.849,88.7918 261.015,78.1251 255,67.5C 253.346,64.8792 251.513,62.3792 249.5,60C 248.552,59.5172 247.552,59.3505 246.5,59.5C 245.122,58.7656 243.622,58.0989 242,57.5C 241.316,56.2161 241.483,55.0495 242.5,54C 241.552,53.5172 240.552,53.3505 239.5,53.5C 239.688,55.1033 239.188,56.4366 238,57.5C 236.684,54.972 235.517,54.972 234.5,57.5C 233.41,56.6086 233.41,55.6086 234.5,54.5C 233.624,53.7492 232.624,53.2492 231.5,53C 232.942,52.6232 233.942,51.7899 234.5,50.5C 234.5,50.1667 234.5,49.8333 234.5,49.5 Z"/></g>
<g><path style="opacity:1" fill="#7fc3d8" d="M 244.5,93.5 C 242.1,92.0728 241.433,92.5728 242.5,95C 241.692,95.3076 241.025,95.8076 240.5,96.5C 241.785,99.0205 242.452,101.687 242.5,104.5C 236.769,104.221 236.103,105.221 240.5,107.5C 239.675,108.386 238.675,108.719 237.5,108.5C 234.482,108.335 231.482,108.502 228.5,109C 225.988,111.237 223.821,113.737 222,116.5C 217.983,114.294 213.817,113.961 209.5,115.5C 209.719,114.325 209.386,113.325 208.5,112.5C 207.604,113.506 206.938,113.506 206.5,112.5C 207.5,111.667 208.5,110.833 209.5,110C 209.018,108.992 208.852,107.825 209,106.5C 206.076,108.442 203.409,107.775 201,104.5C 199.893,105.712 199.393,105.379 199.5,103.5C 199.611,102.883 199.944,102.383 200.5,102C 206.905,100.198 213.239,98.198 219.5,96C 222.022,95.0433 224.189,93.5433 226,91.5C 226.414,91.9574 226.914,92.2907 227.5,92.5C 231.374,91.5599 235.208,90.5599 239,89.5C 240,90.1667 241,90.8333 242,91.5C 243.625,90.5881 244.459,91.2547 244.5,93.5 Z"/></g>
<g><path style="opacity:0.276" fill="#222e5f" d="M 287.5,100.5 C 289.686,104.873 291.686,109.373 293.5,114C 292.794,117.131 292.127,120.298 291.5,123.5C 291.709,124.086 292.043,124.586 292.5,125C 291.042,128.554 289.708,132.054 288.5,135.5C 288.579,134.07 288.246,132.736 287.5,131.5C 290.121,121.177 290.121,110.844 287.5,100.5 Z"/></g>
<g><path style="opacity:0.81" fill="#5ecfe0" d="M 81.5,100.5 C 84.8116,100.149 87.145,101.482 88.5,104.5C 85.917,103.579 83.5837,102.246 81.5,100.5 Z"/></g>
<g><path style="opacity:1" fill="#263967" d="M 81.5,100.5 C 80.9569,100.56 80.6236,100.893 80.5,101.5C 83.5412,108.271 82.7078,108.937 78,103.5C 77.51,104.793 77.3433,106.127 77.5,107.5C 74.4718,105.661 73.9718,103.328 76,100.5C 77.9435,99.193 79.7768,99.193 81.5,100.5 Z"/></g>
<g><path style="opacity:1" fill="#80c5d9" d="M 199.5,103.5 C 199.393,105.379 199.893,105.712 201,104.5C 203.409,107.775 206.076,108.442 209,106.5C 208.852,107.825 209.018,108.992 209.5,110C 208.5,110.833 207.5,111.667 206.5,112.5C 206.938,113.506 207.604,113.506 208.5,112.5C 209.386,113.325 209.719,114.325 209.5,115.5C 207.629,116.881 206.296,118.715 205.5,121C 206.004,124.214 207.004,127.214 208.5,130C 207.355,131.402 206.022,132.569 204.5,133.5C 200.925,134.893 199.925,133.726 201.5,130C 199.928,126.583 198.761,126.749 198,130.5C 197.108,127.547 197.608,124.881 199.5,122.5C 199.167,122.167 198.833,121.833 198.5,121.5C 197.268,122.145 195.935,122.311 194.5,122C 194.324,123.66 194.991,125.326 196.5,127C 194.983,128.779 194.149,128.279 194,125.5C 193.167,126.5 192.333,127.5 191.5,128.5C 190.289,127.726 190.289,126.893 191.5,126C 189.541,122.766 187.707,122.933 186,126.5C 182.667,125.5 182.667,124.5 186,123.5C 186.595,122.101 186.428,120.768 185.5,119.5C 187.071,117.118 187.904,114.451 188,111.5C 188.69,114.196 190.19,116.363 192.5,118C 192.167,118.333 191.833,118.667 191.5,119C 193.187,118.807 194.521,117.807 195.5,116C 195.738,113.438 194.738,111.104 192.5,109C 194.863,108.411 195.863,106.911 195.5,104.5C 196.833,104.167 198.167,103.833 199.5,103.5 Z"/></g>
<g><path style="opacity:0.321" fill="#212d5d" d="M 91.5,107.5 C 93.1379,108.159 94.8045,108.826 96.5,109.5C 101.379,114.209 106.713,118.375 112.5,122C 114.577,122.192 116.577,122.692 118.5,123.5C 122.134,125.073 125.634,127.073 129,129.5C 133.852,131.504 138.519,134.504 143,138.5C 143.333,138.167 143.667,137.833 144,137.5C 147.354,139.016 150.688,140.683 154,142.5C 155.4,141.252 156.9,140.252 158.5,139.5C 157.913,141.755 156.58,143.421 154.5,144.5C 149.88,143.407 145.546,141.741 141.5,139.5C 140.312,138.636 139.145,137.636 138,136.5C 137.667,136.833 137.333,137.167 137,137.5C 136.626,136.584 136.126,135.75 135.5,135C 126.063,130.825 116.729,126.658 107.5,122.5C 105.4,119.198 102.566,118.198 99,119.5C 98.5439,118.256 99.0439,117.423 100.5,117C 98.4834,114.139 95.8167,112.305 92.5,111.5C 92.5,111.167 92.5,110.833 92.5,110.5C 91.8902,109.609 91.5569,108.609 91.5,107.5 Z"/></g>
<g><path style="opacity:1" fill="#7d8c69" d="M 92.5,110.5 C 92.5,110.833 92.5,111.167 92.5,111.5C 90.1759,111.877 89.5092,112.877 90.5,114.5C 89.2502,114.423 88.4169,113.756 88,112.5C 87.8333,113 87.6667,113.5 87.5,114C 88.3195,115.8 88.9862,117.634 89.5,119.5C 87.9124,118.359 86.5791,116.859 85.5,115C 85.6256,113.026 85.7922,110.859 86,108.5C 87.487,109.253 87.6537,110.086 86.5,111C 88.5454,111.49 90.5454,111.323 92.5,110.5 Z"/></g>
<g><path style="opacity:1" fill="#7ac2d7" d="M 283.5,104.5 C 285.252,109.638 286.586,114.971 287.5,120.5C 285.212,125.86 283.212,131.36 281.5,137C 281.873,138.55 282.54,139.717 283.5,140.5C 284.036,143.698 283.369,146.365 281.5,148.5C 282.974,146.039 282.807,143.706 281,141.5C 280.333,142.167 279.667,142.833 279,143.5C 278.23,142.402 277.397,142.402 276.5,143.5C 275.68,141.86 274.847,140.193 274,138.5C 273.667,138.833 273.333,139.167 273,139.5C 271.89,137.603 271.724,135.77 272.5,134C 268.815,133.086 269.148,132.419 273.5,132C 273,131.5 272.5,131 272,130.5C 270.817,131.731 269.651,131.731 268.5,130.5C 269.993,129.859 270.993,128.859 271.5,127.5C 274.22,130.06 276.386,133.06 278,136.5C 278.448,134.776 279.282,134.109 280.5,134.5C 278.239,129.908 275.572,125.575 272.5,121.5C 271.365,118.418 270.365,115.418 269.5,112.5C 269.508,108.196 269.508,103.863 269.5,99.5C 269.369,98.7611 269.536,98.0944 270,97.5C 271.5,99 273,100.5 274.5,102C 274.167,102.333 273.833,102.667 273.5,103C 275.022,104.328 276.689,104.162 278.5,102.5C 279.532,105.193 281.198,105.86 283.5,104.5 Z"/></g>
<g><path style="opacity:0.404" fill="#232f5f" d="M 81.5,117.5 C 85.774,123.3 89.9406,129.3 94,135.5C 94.6691,139.085 96.5024,141.752 99.5,143.5C 100.626,149.152 103.126,149.819 107,145.5C 107.483,144.552 107.649,143.552 107.5,142.5C 111.628,141.146 115.461,141.813 119,144.5C 119.561,143.978 120.228,143.645 121,143.5C 123.154,144.274 125.321,144.941 127.5,145.5C 127.833,145.5 128.167,145.5 128.5,145.5C 130.23,147.079 132.064,148.746 134,150.5C 136.399,150.028 138.399,151.028 140,153.5C 141.488,152.804 142.988,153.138 144.5,154.5C 146.335,155.428 146.668,156.594 145.5,158C 147.148,159.462 148.148,161.295 148.5,163.5C 145.758,161.745 142.924,160.078 140,158.5C 138.636,159.258 137.469,158.758 136.5,157C 134.899,156.727 133.399,156.227 132,155.5C 131.667,155.833 131.333,156.167 131,156.5C 130.626,155.584 130.126,154.75 129.5,154C 126.211,152.751 123.044,151.251 120,149.5C 119.667,149.833 119.333,150.167 119,150.5C 117.369,149.52 115.536,148.02 113.5,146C 112.833,145.833 112.167,145.667 111.5,145.5C 108.996,147.624 106.163,149.29 103,150.5C 100.588,149.044 98.0884,147.71 95.5,146.5C 91.4398,138.942 87.6065,131.275 84,123.5C 83.2496,122.874 82.4162,122.374 81.5,122C 81.9662,120.701 81.9662,119.201 81.5,117.5 Z"/></g>
<g><path style="opacity:0.984" fill="#406785" d="M 81.5,100.5 C 83.5837,102.246 85.917,103.579 88.5,104.5C 90.1898,104.856 91.1898,105.856 91.5,107.5C 91.5569,108.609 91.8902,109.609 92.5,110.5C 90.5454,111.323 88.5454,111.49 86.5,111C 87.6537,110.086 87.487,109.253 86,108.5C 85.7922,110.859 85.6256,113.026 85.5,115C 86.5791,116.859 87.9124,118.359 89.5,119.5C 89.5,120.167 89.8333,120.5 90.5,120.5C 90.0825,121.222 89.4158,121.722 88.5,122C 90.7221,127.097 93.7221,131.764 97.5,136C 97.0426,136.414 96.7093,136.914 96.5,137.5C 97.3481,139.611 98.3481,141.611 99.5,143.5C 96.5024,141.752 94.6691,139.085 94,135.5C 89.9406,129.3 85.774,123.3 81.5,117.5C 79.2227,117.137 78.5561,116.137 79.5,114.5C 78.4229,112.271 77.7563,109.937 77.5,107.5C 77.3433,106.127 77.51,104.793 78,103.5C 82.7078,108.937 83.5412,108.271 80.5,101.5C 80.6236,100.893 80.9569,100.56 81.5,100.5 Z"/></g>
<g><path style="opacity:0.965" fill="#3e526d" d="M 92.5,111.5 C 95.8167,112.305 98.4834,114.139 100.5,117C 99.0439,117.423 98.5439,118.256 99,119.5C 102.566,118.198 105.4,119.198 107.5,122.5C 106.261,123.212 105.761,124.212 106,125.5C 108.635,126.312 110.469,127.312 111.5,128.5C 110.85,128.804 110.183,129.137 109.5,129.5C 107.664,128.081 105.664,126.914 103.5,126C 103.833,125.667 104.167,125.333 104.5,125C 101.503,123.673 98.5032,122.339 95.5,121C 95.8333,120.667 96.1667,120.333 96.5,120C 94.8012,117.691 92.8012,115.858 90.5,114.5C 89.5092,112.877 90.1759,111.877 92.5,111.5 Z"/></g>
<g><path style="opacity:0.966" fill="#273d6b" d="M 55.5,121.5 C 57.7949,120.072 59.7949,120.572 61.5,123C 60.7476,123.671 60.4142,124.504 60.5,125.5C 58.8008,125.34 57.1341,125.506 55.5,126C 56.1667,126.333 56.8333,126.667 57.5,127C 55.1956,129.49 52.5289,131.323 49.5,132.5C 48.1854,131.105 48.5188,130.105 50.5,129.5C 50.4346,129.938 50.6012,130.272 51,130.5C 51.3333,129.167 51.6667,127.833 52,126.5C 52.3333,126.833 52.6667,127.167 53,127.5C 54.1667,125.667 55.3333,123.833 56.5,122C 56.2716,121.601 55.9382,121.435 55.5,121.5 Z"/></g>
<g><path style="opacity:0.976" fill="#3c7296" d="M 55.5,121.5 C 55.9382,121.435 56.2716,121.601 56.5,122C 55.3333,123.833 54.1667,125.667 53,127.5C 52.6667,127.167 52.3333,126.833 52,126.5C 51.6667,127.833 51.3333,129.167 51,130.5C 50.6012,130.272 50.4346,129.938 50.5,129.5C 49.8902,128.609 49.5569,127.609 49.5,126.5C 50.6385,123.914 52.6385,122.247 55.5,121.5 Z"/></g>
<g><path style="opacity:1" fill="#7ac7db" d="M 244.5,93.5 C 246.529,95.8585 248.529,98.1918 250.5,100.5C 251.5,101.167 252.5,101.833 253.5,102.5C 256.345,107.26 259.678,111.76 263.5,116C 263.167,116.333 262.833,116.667 262.5,117C 264.576,118.199 266.242,119.699 267.5,121.5C 268.415,123.754 269.748,125.754 271.5,127.5C 270.993,128.859 269.993,129.859 268.5,130.5C 269.651,131.731 270.817,131.731 272,130.5C 272.5,131 273,131.5 273.5,132C 269.148,132.419 268.815,133.086 272.5,134C 271.724,135.77 271.89,137.603 273,139.5C 273.333,139.167 273.667,138.833 274,138.5C 274.847,140.193 275.68,141.86 276.5,143.5C 276.389,144.117 276.056,144.617 275.5,145C 277.116,145.615 278.449,146.615 279.5,148C 278.004,148.507 276.837,148.007 276,146.5C 275.667,147.5 275.333,148.5 275,149.5C 272.512,148.353 270.512,146.686 269,144.5C 268.5,145.667 267.667,146.5 266.5,147C 268.211,148.133 268.711,149.633 268,151.5C 267.131,148.237 265.797,147.904 264,150.5C 263.082,147.937 263.582,145.77 265.5,144C 262.966,143.484 260.8,142.317 259,140.5C 258.577,141.956 257.744,142.456 256.5,142C 259.265,138.986 258.765,136.486 255,134.5C 254.329,135.252 253.496,135.586 252.5,135.5C 252.684,132.827 253.851,132.16 256,133.5C 256.167,133 256.333,132.5 256.5,132C 255.616,130.902 254.616,130.402 253.5,130.5C 256.18,127.853 255.513,126.52 251.5,126.5C 251.5,125.5 251.5,124.5 251.5,123.5C 249.712,123.785 248.045,123.452 246.5,122.5C 247.262,122.089 248.262,121.923 249.5,122C 248.896,119.532 247.562,117.532 245.5,116C 246.451,115.282 246.617,114.449 246,113.5C 244.51,114.728 243.01,114.728 241.5,113.5C 240.7,111.427 239.367,109.76 237.5,108.5C 238.675,108.719 239.675,108.386 240.5,107.5C 236.103,105.221 236.769,104.221 242.5,104.5C 242.452,101.687 241.785,99.0205 240.5,96.5C 241.025,95.8076 241.692,95.3076 242.5,95C 241.433,92.5728 242.1,92.0728 244.5,93.5 Z"/></g>
<g><path style="opacity:1" fill="#83c2d7" d="M 195.5,104.5 C 195.863,106.911 194.863,108.411 192.5,109C 194.738,111.104 195.738,113.438 195.5,116C 194.521,117.807 193.187,118.807 191.5,119C 191.833,118.667 192.167,118.333 192.5,118C 190.19,116.363 188.69,114.196 188,111.5C 187.904,114.451 187.071,117.118 185.5,119.5C 186.428,120.768 186.595,122.101 186,123.5C 182.667,124.5 182.667,125.5 186,126.5C 187.707,122.933 189.541,122.766 191.5,126C 190.289,126.893 190.289,127.726 191.5,128.5C 192.333,127.5 193.167,126.5 194,125.5C 194.149,128.279 194.983,128.779 196.5,127C 194.991,125.326 194.324,123.66 194.5,122C 195.935,122.311 197.268,122.145 198.5,121.5C 198.833,121.833 199.167,122.167 199.5,122.5C 197.608,124.881 197.108,127.547 198,130.5C 198.761,126.749 199.928,126.583 201.5,130C 199.925,133.726 200.925,134.893 204.5,133.5C 203.302,136.062 201.969,138.562 200.5,141C 201.71,142.039 202.71,143.206 203.5,144.5C 202.71,145.609 202.21,146.942 202,148.5C 201.722,147.584 201.222,146.918 200.5,146.5C 201.687,143.373 200.687,142.707 197.5,144.5C 196.263,144.444 195.263,143.944 194.5,143C 195.374,141.273 195.207,139.44 194,137.5C 192.702,138.56 191.535,139.726 190.5,141C 190.645,141.772 190.978,142.439 191.5,143C 189.892,143.658 188.725,143.158 188,141.5C 186.333,142.167 184.667,142.833 183,143.5C 182.549,141.071 181.715,140.904 180.5,143C 184.421,146.1 184.087,147.766 179.5,148C 180.554,149.388 180.72,150.888 180,152.5C 178.701,152.034 177.201,152.034 175.5,152.5C 175.073,140.486 174.74,128.153 174.5,115.5C 181.573,111.468 188.573,107.802 195.5,104.5 Z"/></g>
<g><path style="opacity:1" fill="#5a8fad" d="M 269.5,112.5 C 270.365,115.418 271.365,118.418 272.5,121.5C 275.572,125.575 278.239,129.908 280.5,134.5C 279.282,134.109 278.448,134.776 278,136.5C 276.386,133.06 274.22,130.06 271.5,127.5C 269.748,125.754 268.415,123.754 267.5,121.5C 268.289,121.217 268.956,120.717 269.5,120C 268.864,117.606 268.864,115.106 269.5,112.5 Z"/></g>
<g><path style="opacity:0.129" fill="#212c5d" d="M 46.5,130.5 C 46.366,132.292 46.6993,133.958 47.5,135.5C 46.5,135.5 45.5,135.5 44.5,135.5C 44.4021,133.447 45.0687,131.78 46.5,130.5 Z"/></g>
<g><path style="opacity:0.992" fill="#38688e" d="M 60.5,125.5 C 59.1743,130.16 56.8409,134.16 53.5,137.5C 52.5313,136.691 51.6979,135.691 51,134.5C 50.6667,134.833 50.3333,135.167 50,135.5C 49.5172,134.552 49.3505,133.552 49.5,132.5C 52.5289,131.323 55.1956,129.49 57.5,127C 56.8333,126.667 56.1667,126.333 55.5,126C 57.1341,125.506 58.8008,125.34 60.5,125.5 Z"/></g>
<g><path style="opacity:0.933" fill="#4da0bb" d="M 49.5,126.5 C 49.5569,127.609 49.8902,128.609 50.5,129.5C 48.5188,130.105 48.1854,131.105 49.5,132.5C 49.3505,133.552 49.5172,134.552 50,135.5C 50.3333,135.167 50.6667,134.833 51,134.5C 51.6979,135.691 52.5313,136.691 53.5,137.5C 51.1016,137.741 49.1016,137.074 47.5,135.5C 46.6993,133.958 46.366,132.292 46.5,130.5C 46.7376,128.596 47.7376,127.262 49.5,126.5 Z"/></g>
<g><path style="opacity:0.983" fill="#4e7a9c" d="M 77.5,122.5 C 77.8333,127.167 78.1667,131.833 78.5,136.5C 77.1147,135.386 75.6147,134.386 74,133.5C 74.1484,134.825 73.9817,135.992 73.5,137C 75.9913,137.626 75.9913,138.459 73.5,139.5C 74.6034,139.998 75.6034,140.331 76.5,140.5C 75.8169,143.461 74.9836,143.795 74,141.5C 73.8784,143.437 73.045,144.77 71.5,145.5C 72.7878,140.784 72.7878,136.784 71.5,133.5C 70.9569,133.44 70.6236,133.107 70.5,132.5C 71.376,131.749 72.376,131.249 73.5,131C 70.9858,128.933 71.1525,127.433 74,126.5C 74.3333,127.5 74.6667,128.5 75,129.5C 75.9023,127.073 76.7356,124.74 77.5,122.5 Z"/></g>
<g><path style="opacity:1" fill="#d2e7cd" d="M 237.5,108.5 C 239.367,109.76 240.7,111.427 241.5,113.5C 242.046,115.236 242.046,117.236 241.5,119.5C 242.167,119.833 242.833,120.167 243.5,120.5C 241.358,122.57 240.024,125.07 239.5,128C 241.651,128.191 243.651,129.358 245.5,131.5C 250.091,138.406 249.425,144.572 243.5,150C 239.495,151.098 235.995,150.265 233,147.5C 229.788,157.676 223.454,160.009 214,154.5C 213.503,152.19 213.337,149.857 213.5,147.5C 211.326,147.08 209.326,147.08 207.5,147.5C 205.84,146.828 204.507,145.828 203.5,144.5C 202.71,143.206 201.71,142.039 200.5,141C 201.969,138.562 203.302,136.062 204.5,133.5C 206.022,132.569 207.355,131.402 208.5,130C 207.004,127.214 206.004,124.214 205.5,121C 206.296,118.715 207.629,116.881 209.5,115.5C 213.817,113.961 217.983,114.294 222,116.5C 223.821,113.737 225.988,111.237 228.5,109C 231.482,108.502 234.482,108.335 237.5,108.5 Z"/></g>
<g><path style="opacity:1" fill="#cad45a" d="M 223.5,126.5 C 225.527,126.338 227.527,126.505 229.5,127C 231.429,130.256 231.929,133.756 231,137.5C 228.86,138.728 227.193,140.395 226,142.5C 224.026,142.374 221.859,142.208 219.5,142C 218.167,141.333 217.167,140.333 216.5,139C 216.41,136.632 216.743,134.132 217.5,131.5C 219.722,129.998 221.722,128.332 223.5,126.5 Z"/></g>
<g><path style="opacity:1" fill="#7fc3d8" d="M 276.5,143.5 C 277.397,142.402 278.23,142.402 279,143.5C 279.667,142.833 280.333,142.167 281,141.5C 282.807,143.706 282.974,146.039 281.5,148.5C 275.602,152.021 269.602,155.355 263.5,158.5C 254.649,162.036 245.649,165.036 236.5,167.5C 238.591,164.537 240.091,161.204 241,157.5C 241.915,158.328 242.581,159.328 243,160.5C 243.308,159.692 243.808,159.025 244.5,158.5C 245.736,159.246 247.07,159.579 248.5,159.5C 248.5,157.5 248.5,155.5 248.5,153.5C 249.552,153.649 250.552,153.483 251.5,153C 250.24,151.186 250.24,149.353 251.5,147.5C 252.833,146.5 254.167,145.5 255.5,144.5C 253.988,143.138 252.488,142.804 251,143.5C 250.46,141.865 250.96,140.532 252.5,139.5C 249.924,138.117 250.258,137.283 253.5,137C 252.944,136.617 252.611,136.117 252.5,135.5C 253.496,135.586 254.329,135.252 255,134.5C 258.765,136.486 259.265,138.986 256.5,142C 257.744,142.456 258.577,141.956 259,140.5C 260.8,142.317 262.966,143.484 265.5,144C 263.582,145.77 263.082,147.937 264,150.5C 265.797,147.904 267.131,148.237 268,151.5C 268.711,149.633 268.211,148.133 266.5,147C 267.667,146.5 268.5,145.667 269,144.5C 270.512,146.686 272.512,148.353 275,149.5C 275.333,148.5 275.667,147.5 276,146.5C 276.837,148.007 278.004,148.507 279.5,148C 278.449,146.615 277.116,145.615 275.5,145C 276.056,144.617 276.389,144.117 276.5,143.5 Z"/></g>
<g><path style="opacity:1" fill="#314a72" d="M 107.5,122.5 C 116.729,126.658 126.063,130.825 135.5,135C 136.126,135.75 136.626,136.584 137,137.5C 137.333,137.167 137.667,136.833 138,136.5C 139.145,137.636 140.312,138.636 141.5,139.5C 138.833,139.5 136.167,139.5 133.5,139.5C 130.253,138.911 126.92,137.578 123.5,135.5C 119.434,133.06 115.434,130.727 111.5,128.5C 110.469,127.312 108.635,126.312 106,125.5C 105.761,124.212 106.261,123.212 107.5,122.5 Z"/></g>
<g><path style="opacity:1" fill="#d9e267" d="M 90.5,114.5 C 92.8012,115.858 94.8012,117.691 96.5,120C 96.1667,120.333 95.8333,120.667 95.5,121C 98.5032,122.339 101.503,123.673 104.5,125C 104.167,125.333 103.833,125.667 103.5,126C 105.664,126.914 107.664,128.081 109.5,129.5C 110.183,129.137 110.85,128.804 111.5,128.5C 115.434,130.727 119.434,133.06 123.5,135.5C 123.13,138.267 121.796,140.267 119.5,141.5C 116.061,140.232 112.561,138.899 109,137.5C 107.519,138.471 106.685,139.804 106.5,141.5C 104.449,144.119 102.449,143.952 100.5,141C 100.833,140.667 101.167,140.333 101.5,140C 97.733,133.505 94.0663,127.005 90.5,120.5C 89.8333,120.5 89.5,120.167 89.5,119.5C 88.9862,117.634 88.3195,115.8 87.5,114C 87.6667,113.5 87.8333,113 88,112.5C 88.4169,113.756 89.2502,114.423 90.5,114.5 Z"/></g>
<g><path style="opacity:1" fill="#41688d" d="M 172.5,131.5 C 173.093,136.167 173.76,140.834 174.5,145.5C 174.176,147.569 173.342,147.902 172,146.5C 170.965,142.439 170.632,138.439 171,134.5C 168.929,135.103 167.762,136.436 167.5,138.5C 165.103,140.583 163.103,143.083 161.5,146C 158.635,146.837 155.802,147.67 153,148.5C 146.147,146.165 139.647,143.165 133.5,139.5C 136.167,139.5 138.833,139.5 141.5,139.5C 145.546,141.741 149.88,143.407 154.5,144.5C 156.58,143.421 157.913,141.755 158.5,139.5C 160.833,137.5 163.167,135.5 165.5,133.5C 167.921,133.122 170.254,132.455 172.5,131.5 Z"/></g>
<g><path style="opacity:0.444" fill="#212d5e" d="M 286.5,139.5 C 287.737,142.08 288.404,144.58 288.5,147C 287.749,149.912 286.082,152.079 283.5,153.5C 282.498,151.989 281.831,150.322 281.5,148.5C 283.369,146.365 284.036,143.698 283.5,140.5C 284.391,139.89 285.391,139.557 286.5,139.5 Z"/></g>
<g><path style="opacity:0.208" fill="#223060" d="M 78.5,139.5 C 79.0456,142.078 78.3789,144.578 76.5,147C 76.8333,147.333 77.1667,147.667 77.5,148C 76.1667,148.667 75.1667,149.667 74.5,151C 72.2884,151.789 70.2884,151.622 68.5,150.5C 73.8689,148.793 77.2022,145.127 78.5,139.5 Z"/></g>
<g><path style="opacity:0.957" fill="#68796b" d="M 119.5,141.5 C 119.167,141.5 118.833,141.5 118.5,141.5C 114.484,140.257 110.484,140.257 106.5,141.5C 106.685,139.804 107.519,138.471 109,137.5C 112.561,138.899 116.061,140.232 119.5,141.5 Z"/></g>
<g><path style="opacity:0.997" fill="#395e85" d="M 77.5,122.5 C 76.7356,124.74 75.9023,127.073 75,129.5C 74.6667,128.5 74.3333,127.5 74,126.5C 71.1525,127.433 70.9858,128.933 73.5,131C 72.376,131.249 71.376,131.749 70.5,132.5C 70.6236,133.107 70.9569,133.44 71.5,133.5C 71.4687,136.959 70.802,140.292 69.5,143.5C 69.8555,144.522 70.5222,145.189 71.5,145.5C 73.045,144.77 73.8784,143.437 74,141.5C 74.9836,143.795 75.8169,143.461 76.5,140.5C 75.6034,140.331 74.6034,139.998 73.5,139.5C 75.9913,138.459 75.9913,137.626 73.5,137C 73.9817,135.992 74.1484,134.825 74,133.5C 75.6147,134.386 77.1147,135.386 78.5,136.5C 79.625,137.348 79.625,138.348 78.5,139.5C 77.2022,145.127 73.8689,148.793 68.5,150.5C 65.0139,149.117 63.3472,146.451 63.5,142.5C 65.0588,133.738 68.0588,125.571 72.5,118C 75.5062,117.832 77.1728,119.332 77.5,122.5 Z"/></g>
<g><path style="opacity:1" fill="#95d9e7" d="M 71.5,145.5 C 70.5222,145.189 69.8555,144.522 69.5,143.5C 70.802,140.292 71.4687,136.959 71.5,133.5C 72.7878,136.784 72.7878,140.784 71.5,145.5 Z"/></g>
<g><path style="opacity:0.941" fill="#3b587c" d="M 118.5,141.5 C 120.631,142.314 122.964,142.814 125.5,143C 126.381,143.708 127.047,144.542 127.5,145.5C 125.321,144.941 123.154,144.274 121,143.5C 120.228,143.645 119.561,143.978 119,144.5C 115.461,141.813 111.628,141.146 107.5,142.5C 106.833,142.5 106.5,142.167 106.5,141.5C 110.484,140.257 114.484,140.257 118.5,141.5 Z"/></g>
<g><path style="opacity:1" fill="#5d97b4" d="M 174.5,115.5 C 174.74,128.153 175.073,140.486 175.5,152.5C 176.822,161.187 177.822,170.187 178.5,179.5C 178.377,180.925 178.043,182.258 177.5,183.5C 175.091,182.299 173.091,180.633 171.5,178.5C 172.496,178.414 173.329,178.748 174,179.5C 174.25,175.862 174.417,172.362 174.5,169C 172.961,166.96 172.127,164.794 172,162.5C 171.283,158.955 171.45,155.455 172.5,152C 170.646,147.404 169.479,142.57 169,137.5C 168.617,138.056 168.117,138.389 167.5,138.5C 167.762,136.436 168.929,135.103 171,134.5C 170.632,138.439 170.965,142.439 172,146.5C 173.342,147.902 174.176,147.569 174.5,145.5C 173.76,140.834 173.093,136.167 172.5,131.5C 173.404,130.791 173.737,129.791 173.5,128.5C 173.182,123.968 173.515,119.634 174.5,115.5 Z"/></g>
<g><path style="opacity:0.937" fill="#657063" d="M 90.5,120.5 C 94.0663,127.005 97.733,133.505 101.5,140C 101.167,140.333 100.833,140.667 100.5,141C 102.449,143.952 104.449,144.119 106.5,141.5C 106.5,142.167 106.833,142.5 107.5,142.5C 107.649,143.552 107.483,144.552 107,145.5C 103.126,149.819 100.626,149.152 99.5,143.5C 98.3481,141.611 97.3481,139.611 96.5,137.5C 96.7093,136.914 97.0426,136.414 97.5,136C 93.7221,131.764 90.7221,127.097 88.5,122C 89.4158,121.722 90.0825,121.222 90.5,120.5 Z"/></g>
<g><path style="opacity:1" fill="#7fc4d9" d="M 200.5,146.5 C 197.203,145.145 196.87,145.645 199.5,148C 198.167,148.333 196.833,148.667 195.5,149C 197.727,149.704 198.06,150.871 196.5,152.5C 195.722,154.664 195.388,156.83 195.5,159C 196.357,159.689 197.023,160.522 197.5,161.5C 196.26,161.478 194.927,162.144 193.5,163.5C 192.353,163.182 191.519,162.516 191,161.5C 189.872,163.345 189.372,165.345 189.5,167.5C 188.5,167.5 187.5,167.5 186.5,167.5C 187.875,171.687 190.541,172.52 194.5,170C 193.483,168.951 193.316,167.784 194,166.5C 195.193,168.605 196.86,170.272 199,171.5C 199.343,168.807 200.676,166.807 203,165.5C 203.948,167.57 205.448,169.07 207.5,170C 206.833,170.333 206.167,170.667 205.5,171C 206.45,173.59 208.116,175.59 210.5,177C 208.553,177.991 206.553,178.325 204.5,178C 205.451,177.282 205.617,176.449 205,175.5C 203.43,174.386 202.097,173.053 201,171.5C 200.691,172.766 200.191,173.933 199.5,175C 201.192,176.401 201.859,178.234 201.5,180.5C 199.588,181.799 197.588,182.799 195.5,183.5C 195.167,183.5 194.833,183.5 194.5,183.5C 189.846,185.053 185.179,186.387 180.5,187.5C 179.5,186.833 178.5,186.167 177.5,185.5C 177.5,184.833 177.5,184.167 177.5,183.5C 178.043,182.258 178.377,180.925 178.5,179.5C 177.822,170.187 176.822,161.187 175.5,152.5C 177.201,152.034 178.701,152.034 180,152.5C 180.72,150.888 180.554,149.388 179.5,148C 184.087,147.766 184.421,146.1 180.5,143C 181.715,140.904 182.549,141.071 183,143.5C 184.667,142.833 186.333,142.167 188,141.5C 188.725,143.158 189.892,143.658 191.5,143C 190.978,142.439 190.645,141.772 190.5,141C 191.535,139.726 192.702,138.56 194,137.5C 195.207,139.44 195.374,141.273 194.5,143C 195.263,143.944 196.263,144.444 197.5,144.5C 200.687,142.707 201.687,143.373 200.5,146.5 Z"/></g>
<g><path style="opacity:0.882" fill="#2a4470" d="M 46.5,150.5 C 44.5154,150.859 43.8487,151.692 44.5,153C 42.5612,154.432 41.2279,156.265 40.5,158.5C 39.1052,160.3 37.4385,160.634 35.5,159.5C 34.5547,156.708 34.5547,154.208 35.5,152C 38.0048,150.247 40.6714,148.747 43.5,147.5C 45.2131,147.879 46.2131,148.879 46.5,150.5 Z"/></g>
<g><path style="opacity:0.914" fill="#334975" d="M 281.5,148.5 C 281.831,150.322 282.498,151.989 283.5,153.5C 283.5,154.167 283.167,154.5 282.5,154.5C 281.07,154.579 279.736,154.246 278.5,153.5C 273.813,154.754 269.48,156.754 265.5,159.5C 264.817,159.137 264.15,158.804 263.5,158.5C 269.602,155.355 275.602,152.021 281.5,148.5 Z"/></g>
<g><path style="opacity:1" fill="#7fc1d6" d="M 123.5,135.5 C 126.92,137.578 130.253,138.911 133.5,139.5C 139.647,143.165 146.147,146.165 153,148.5C 155.802,147.67 158.635,146.837 161.5,146C 163.103,143.083 165.103,140.583 167.5,138.5C 168.117,138.389 168.617,138.056 169,137.5C 169.479,142.57 170.646,147.404 172.5,152C 171.45,155.455 171.283,158.955 172,162.5C 172.127,164.794 172.961,166.96 174.5,169C 174.417,172.362 174.25,175.862 174,179.5C 173.329,178.748 172.496,178.414 171.5,178.5C 169.073,174.895 166.407,171.395 163.5,168C 162.167,167.667 160.833,167.333 159.5,167C 160.167,166.667 160.833,166.333 161.5,166C 152.214,156.575 141.214,149.742 128.5,145.5C 128.167,145.5 127.833,145.5 127.5,145.5C 127.047,144.542 126.381,143.708 125.5,143C 122.964,142.814 120.631,142.314 118.5,141.5C 118.833,141.5 119.167,141.5 119.5,141.5C 121.796,140.267 123.13,138.267 123.5,135.5 Z"/></g>
<g><path style="opacity:0.505" fill="#222d5e" d="M 282.5,154.5 C 280.351,156.746 277.684,158.246 274.5,159C 274.833,159.333 275.167,159.667 275.5,160C 265.476,163.572 255.809,167.739 246.5,172.5C 245.094,171.332 243.928,171.665 243,173.5C 239.353,174.236 235.52,175.57 231.5,177.5C 230.914,177.291 230.414,176.957 230,176.5C 227.472,177.955 224.805,179.622 222,181.5C 221.586,181.043 221.086,180.709 220.5,180.5C 214.562,182.101 208.728,184.768 203,188.5C 202.667,188.167 202.333,187.833 202,187.5C 199.123,189.404 195.956,190.404 192.5,190.5C 192.4,187.892 193.067,185.558 194.5,183.5C 194.833,183.5 195.167,183.5 195.5,183.5C 197.119,187.379 198.785,187.379 200.5,183.5C 205.442,182.863 210.109,181.363 214.5,179C 216.544,178.502 217.878,177.335 218.5,175.5C 223.778,174.148 229.111,172.148 234.5,169.5C 237.178,168.382 239.845,168.382 242.5,169.5C 245.07,168.383 247.737,167.55 250.5,167C 252.333,165.833 253.833,164.333 255,162.5C 255.333,162.833 255.667,163.167 256,163.5C 258.976,162.324 261.476,160.658 263.5,158.5C 264.15,158.804 264.817,159.137 265.5,159.5C 269.48,156.754 273.813,154.754 278.5,153.5C 279.736,154.246 281.07,154.579 282.5,154.5 Z"/></g>
<g><path style="opacity:0.188" fill="#56b6cc" d="M 46.5,150.5 C 46.6862,154.374 44.6862,157.04 40.5,158.5C 41.2279,156.265 42.5612,154.432 44.5,153C 43.8487,151.692 44.5154,150.859 46.5,150.5 Z"/></g>
<g><path style="opacity:0.281" fill="#222f5f" d="M 92.5,163.5 C 89.8633,162.37 87.1967,162.37 84.5,163.5C 86.2373,154.562 88.9039,154.562 92.5,163.5 Z"/></g>
<g><path style="opacity:1" fill="#81c6d9" d="M 241.5,113.5 C 243.01,114.728 244.51,114.728 246,113.5C 246.617,114.449 246.451,115.282 245.5,116C 247.562,117.532 248.896,119.532 249.5,122C 248.262,121.923 247.262,122.089 246.5,122.5C 248.045,123.452 249.712,123.785 251.5,123.5C 251.5,124.5 251.5,125.5 251.5,126.5C 255.513,126.52 256.18,127.853 253.5,130.5C 254.616,130.402 255.616,130.902 256.5,132C 256.333,132.5 256.167,133 256,133.5C 253.851,132.16 252.684,132.827 252.5,135.5C 252.611,136.117 252.944,136.617 253.5,137C 250.258,137.283 249.924,138.117 252.5,139.5C 250.96,140.532 250.46,141.865 251,143.5C 252.488,142.804 253.988,143.138 255.5,144.5C 254.167,145.5 252.833,146.5 251.5,147.5C 250.24,149.353 250.24,151.186 251.5,153C 250.552,153.483 249.552,153.649 248.5,153.5C 248.5,155.5 248.5,157.5 248.5,159.5C 247.07,159.579 245.736,159.246 244.5,158.5C 243.808,159.025 243.308,159.692 243,160.5C 242.581,159.328 241.915,158.328 241,157.5C 240.091,161.204 238.591,164.537 236.5,167.5C 236.158,168.338 235.492,168.672 234.5,168.5C 231.341,164.116 231.841,163.116 236,165.5C 236.5,165.167 237,164.833 237.5,164.5C 236.674,163.549 236.508,162.549 237,161.5C 237.654,162.696 238.154,162.696 238.5,161.5C 237.5,160.667 236.5,159.833 235.5,159C 236.654,158.086 236.487,157.253 235,156.5C 232.176,156.747 229.676,158.247 227.5,161C 228.5,162 229.5,163 230.5,164C 229.833,164.333 229.167,164.667 228.5,165C 229.667,165.5 230.5,166.333 231,167.5C 232.281,166.353 232.614,166.687 232,168.5C 231.147,170.125 230.147,170.458 229,169.5C 226.879,171.457 224.379,171.957 221.5,171C 219.585,168.815 219.418,166.315 221,163.5C 222.135,163.273 223.302,162.94 224.5,162.5C 224,161.5 223.5,160.5 223,159.5C 219.916,160.095 217.249,161.428 215,163.5C 214.333,162.167 213.667,160.833 213,159.5C 212.576,163.19 211.742,163.357 210.5,160C 213.088,157.232 212.755,155.232 209.5,154C 209.833,153.667 210.167,153.333 210.5,153C 208.29,151.491 206.457,149.658 205,147.5C 203.89,149.037 202.39,149.703 200.5,149.5C 200.543,153.893 200.043,154.226 199,150.5C 198.751,151.624 198.251,152.624 197.5,153.5C 196.893,153.376 196.56,153.043 196.5,152.5C 198.06,150.871 197.727,149.704 195.5,149C 196.833,148.667 198.167,148.333 199.5,148C 196.87,145.645 197.203,145.145 200.5,146.5C 201.222,146.918 201.722,147.584 202,148.5C 202.21,146.942 202.71,145.609 203.5,144.5C 204.507,145.828 205.84,146.828 207.5,147.5C 209.326,147.08 211.326,147.08 213.5,147.5C 213.337,149.857 213.503,152.19 214,154.5C 223.454,160.009 229.788,157.676 233,147.5C 235.995,150.265 239.495,151.098 243.5,150C 249.425,144.572 250.091,138.406 245.5,131.5C 243.651,129.358 241.651,128.191 239.5,128C 240.024,125.07 241.358,122.57 243.5,120.5C 242.833,120.167 242.167,119.833 241.5,119.5C 242.046,117.236 242.046,115.236 241.5,113.5 Z"/></g>
<g><path style="opacity:0.233" fill="#233262" d="M 56.5,161.5 C 56.6882,159.897 56.1882,158.563 55,157.5C 53.3333,157.5 51.6667,157.5 50,157.5C 48.6395,162.472 47.4728,167.472 46.5,172.5C 44.9493,174.913 44.2826,177.579 44.5,180.5C 43.895,176.372 43.5616,172.539 43.5,169C 45.2029,163.477 47.7029,157.977 51,152.5C 52.851,150.219 54.5177,150.219 56,152.5C 56.4361,154.847 56.9361,157.181 57.5,159.5C 57.4573,160.416 57.1239,161.083 56.5,161.5 Z"/></g>
<g><path style="opacity:0.421" fill="#212d5d" d="M 177.5,185.5 C 178.5,186.167 179.5,186.833 180.5,187.5C 182.281,187.442 184.281,187.775 186.5,188.5C 186.291,189.086 185.957,189.586 185.5,190C 186.71,191.039 187.71,192.206 188.5,193.5C 186.738,193.357 185.071,193.691 183.5,194.5C 178.772,192.426 174.105,190.259 169.5,188C 167.791,186.084 166.457,183.918 165.5,181.5C 161.824,179.429 159.324,176.429 158,172.5C 157.586,172.957 157.086,173.291 156.5,173.5C 155.191,171.024 153.358,169.024 151,167.5C 150.209,166.255 149.709,164.922 149.5,163.5C 150.251,162.427 151.251,162.26 152.5,163C 153.617,165.128 154.95,167.628 156.5,170.5C 159.637,170.579 162.303,172.079 164.5,175C 164.043,175.414 163.709,175.914 163.5,176.5C 165.733,177.742 167.899,179.076 170,180.5C 170.471,182.246 171.138,183.913 172,185.5C 173.558,184.655 174.558,185.321 175,187.5C 175.708,186.619 176.542,185.953 177.5,185.5 Z"/></g>
<g><path style="opacity:1" fill="#81c1d6" d="M 234.5,168.5 C 234.5,168.833 234.5,169.167 234.5,169.5C 229.111,172.148 223.778,174.148 218.5,175.5C 213.018,177.701 207.351,179.368 201.5,180.5C 201.859,178.234 201.192,176.401 199.5,175C 200.191,173.933 200.691,172.766 201,171.5C 202.097,173.053 203.43,174.386 205,175.5C 205.617,176.449 205.451,177.282 204.5,178C 206.553,178.325 208.553,177.991 210.5,177C 208.116,175.59 206.45,173.59 205.5,171C 206.167,170.667 206.833,170.333 207.5,170C 205.448,169.07 203.948,167.57 203,165.5C 200.676,166.807 199.343,168.807 199,171.5C 196.86,170.272 195.193,168.605 194,166.5C 193.316,167.784 193.483,168.951 194.5,170C 190.541,172.52 187.875,171.687 186.5,167.5C 187.5,167.5 188.5,167.5 189.5,167.5C 189.372,165.345 189.872,163.345 191,161.5C 191.519,162.516 192.353,163.182 193.5,163.5C 194.927,162.144 196.26,161.478 197.5,161.5C 197.023,160.522 196.357,159.689 195.5,159C 195.388,156.83 195.722,154.664 196.5,152.5C 196.56,153.043 196.893,153.376 197.5,153.5C 198.251,152.624 198.751,151.624 199,150.5C 200.043,154.226 200.543,153.893 200.5,149.5C 202.39,149.703 203.89,149.037 205,147.5C 206.457,149.658 208.29,151.491 210.5,153C 210.167,153.333 209.833,153.667 209.5,154C 212.755,155.232 213.088,157.232 210.5,160C 211.742,163.357 212.576,163.19 213,159.5C 213.667,160.833 214.333,162.167 215,163.5C 217.249,161.428 219.916,160.095 223,159.5C 223.5,160.5 224,161.5 224.5,162.5C 223.302,162.94 222.135,163.273 221,163.5C 219.418,166.315 219.585,168.815 221.5,171C 224.379,171.957 226.879,171.457 229,169.5C 230.147,170.458 231.147,170.125 232,168.5C 232.614,166.687 232.281,166.353 231,167.5C 230.5,166.333 229.667,165.5 228.5,165C 229.167,164.667 229.833,164.333 230.5,164C 229.5,163 228.5,162 227.5,161C 229.676,158.247 232.176,156.747 235,156.5C 236.487,157.253 236.654,158.086 235.5,159C 236.5,159.833 237.5,160.667 238.5,161.5C 238.154,162.696 237.654,162.696 237,161.5C 236.508,162.549 236.674,163.549 237.5,164.5C 237,164.833 236.5,165.167 236,165.5C 231.841,163.116 231.341,164.116 234.5,168.5 Z"/></g>
<g><path style="opacity:0.894" fill="#325981" d="M 56.5,161.5 C 56.5,162.167 56.5,162.833 56.5,163.5C 55.7784,163.918 55.2784,164.584 55,165.5C 54.6667,170.167 54.3333,174.833 54,179.5C 51.3435,182.942 48.5102,183.276 45.5,180.5C 47.8008,179.94 50.1341,179.44 52.5,179C 51.8803,176.527 51.2136,174.027 50.5,171.5C 49.2638,172.246 47.9305,172.579 46.5,172.5C 47.4728,167.472 48.6395,162.472 50,157.5C 51.6667,157.5 53.3333,157.5 55,157.5C 56.1882,158.563 56.6882,159.897 56.5,161.5 Z"/></g>
<g><path style="opacity:0.257" fill="#222e5f" d="M 56.5,163.5 C 57.747,166.931 57.747,170.098 56.5,173C 57.1667,173.667 57.8333,174.333 58.5,175C 57.9662,178.495 56.6328,181.662 54.5,184.5C 51.8938,185.652 49.2272,185.818 46.5,185C 44.9632,183.89 44.2965,182.39 44.5,180.5C 44.8333,180.5 45.1667,180.5 45.5,180.5C 48.5102,183.276 51.3435,182.942 54,179.5C 54.3333,174.833 54.6667,170.167 55,165.5C 55.2784,164.584 55.7784,163.918 56.5,163.5 Z"/></g>
<g><path style="opacity:0.996" fill="#374b76" d="M 128.5,145.5 C 141.214,149.742 152.214,156.575 161.5,166C 160.833,166.333 160.167,166.667 159.5,167C 160.833,167.333 162.167,167.667 163.5,168C 166.407,171.395 169.073,174.895 171.5,178.5C 173.091,180.633 175.091,182.299 177.5,183.5C 177.5,184.167 177.5,184.833 177.5,185.5C 176.542,185.953 175.708,186.619 175,187.5C 174.558,185.321 173.558,184.655 172,185.5C 171.138,183.913 170.471,182.246 170,180.5C 167.899,179.076 165.733,177.742 163.5,176.5C 163.709,175.914 164.043,175.414 164.5,175C 162.303,172.079 159.637,170.579 156.5,170.5C 154.95,167.628 153.617,165.128 152.5,163C 151.251,162.26 150.251,162.427 149.5,163.5C 149.167,163.5 148.833,163.5 148.5,163.5C 148.148,161.295 147.148,159.462 145.5,158C 146.668,156.594 146.335,155.428 144.5,154.5C 142.988,153.138 141.488,152.804 140,153.5C 138.399,151.028 136.399,150.028 134,150.5C 132.064,148.746 130.23,147.079 128.5,145.5 Z"/></g>
<g><path style="opacity:0.932" fill="#334975" d="M 263.5,158.5 C 261.476,160.658 258.976,162.324 256,163.5C 255.667,163.167 255.333,162.833 255,162.5C 253.833,164.333 252.333,165.833 250.5,167C 247.737,167.55 245.07,168.383 242.5,169.5C 239.845,168.382 237.178,168.382 234.5,169.5C 234.5,169.167 234.5,168.833 234.5,168.5C 235.492,168.672 236.158,168.338 236.5,167.5C 245.649,165.036 254.649,162.036 263.5,158.5 Z"/></g>
<g><path style="opacity:0.337" fill="#212c5d" d="M 104.5,160.5 C 106.5,160.5 108.5,160.5 110.5,160.5C 112.837,166.537 114.504,172.537 115.5,178.5C 115.167,179.5 114.5,180.167 113.5,180.5C 107.177,177.998 104.844,173.831 106.5,168C 103.853,165.91 103.186,163.41 104.5,160.5 Z"/></g>
<g><path style="opacity:0.745" fill="#273d6a" d="M 84.5,164.5 C 84.665,167.85 84.4983,171.183 84,174.5C 83.8442,177.191 83.0109,179.524 81.5,181.5C 81.319,179.971 80.9857,178.304 80.5,176.5C 82.1558,172.201 83.4892,168.201 84.5,164.5 Z"/></g>
<g><path style="opacity:0.358" fill="#222f5f" d="M 71.5,190.5 C 71.0679,189.29 70.4013,188.29 69.5,187.5C 70.5366,185.262 70.7033,182.929 70,180.5C 69.2588,179.359 68.4255,179.359 67.5,180.5C 65.426,185.721 63.7593,191.055 62.5,196.5C 61.8614,195.903 61.528,195.07 61.5,194C 62.6815,187.16 64.0148,180.66 65.5,174.5C 67.5969,173.252 69.2635,173.752 70.5,176C 71.1667,180.333 71.8333,184.667 72.5,189C 72.4301,189.765 72.0967,190.265 71.5,190.5 Z"/></g>
<g><path style="opacity:0.975" fill="#407ea0" d="M 45.5,180.5 C 45.1667,180.5 44.8333,180.5 44.5,180.5C 44.2826,177.579 44.9493,174.913 46.5,172.5C 47.9305,172.579 49.2638,172.246 50.5,171.5C 51.2136,174.027 51.8803,176.527 52.5,179C 50.1341,179.44 47.8008,179.94 45.5,180.5 Z"/></g>
<g><path style="opacity:0.994" fill="#324c77" d="M 218.5,175.5 C 217.878,177.335 216.544,178.502 214.5,179C 210.109,181.363 205.442,182.863 200.5,183.5C 198.785,187.379 197.119,187.379 195.5,183.5C 197.588,182.799 199.588,181.799 201.5,180.5C 207.351,179.368 213.018,177.701 218.5,175.5 Z"/></g>
<g><path style="opacity:0.206" fill="#212c5d" d="M 94.5,176.5 C 95.2674,177.172 95.9341,178.005 96.5,179C 96.421,181.305 96.2543,183.805 96,186.5C 95.0022,189.337 93.0022,191.003 90,191.5C 89.6012,191.272 89.4346,190.938 89.5,190.5C 91.2501,189.527 92.7501,188.193 94,186.5C 94.4983,183.183 94.665,179.85 94.5,176.5 Z"/></g>
<g><path style="opacity:0.651" fill="#2f507a" d="M 69.5,187.5 C 68.5041,187.414 67.6708,187.748 67,188.5C 65.9094,190.718 64.7427,192.884 63.5,195C 64.985,196.756 64.6516,197.923 62.5,198.5C 62.5,197.833 62.5,197.167 62.5,196.5C 63.7593,191.055 65.426,185.721 67.5,180.5C 68.4255,179.359 69.2588,179.359 70,180.5C 70.7033,182.929 70.5366,185.262 69.5,187.5 Z"/></g>
<g><path style="opacity:1" fill="#467698" d="M 92.5,163.5 C 93.5629,167.639 94.2296,171.972 94.5,176.5C 94.665,179.85 94.4983,183.183 94,186.5C 92.7501,188.193 91.2501,189.527 89.5,190.5C 84.7536,189.417 82.0869,186.417 81.5,181.5C 83.0109,179.524 83.8442,177.191 84,174.5C 84.4983,171.183 84.665,167.85 84.5,164.5C 84.5,164.167 84.5,163.833 84.5,163.5C 87.1967,162.37 89.8633,162.37 92.5,163.5 Z"/></g>
<g><path style="opacity:1" fill="#8dd8e6" d="M 87.5,176.5 C 90.318,178.581 90.9846,181.248 89.5,184.5C 86.5601,182.355 85.8934,179.689 87.5,176.5 Z"/></g>
<g><path style="opacity:0.929" fill="#435881" d="M 194.5,183.5 C 193.067,185.558 192.4,187.892 192.5,190.5C 191.965,192.446 190.632,193.446 188.5,193.5C 187.71,192.206 186.71,191.039 185.5,190C 185.957,189.586 186.291,189.086 186.5,188.5C 184.281,187.775 182.281,187.442 180.5,187.5C 185.179,186.387 189.846,185.053 194.5,183.5 Z"/></g>
<g><path style="opacity:0.403" fill="#212c5d" d="M 44.5,191.5 C 46.5,191.5 48.5,191.5 50.5,191.5C 51.4485,197.153 49.4485,201.153 44.5,203.5C 42.976,202.473 42.3094,200.973 42.5,199C 42.668,196.335 43.3347,193.835 44.5,191.5 Z"/></g>
<g><path style="opacity:0.696" fill="#446d91" d="M 69.5,187.5 C 70.4013,188.29 71.0679,189.29 71.5,190.5C 72.348,194.227 73.348,197.893 74.5,201.5C 72.368,201.554 71.0347,202.554 70.5,204.5C 68.5392,201.551 67.3726,198.218 67,194.5C 66.8333,195.5 66.6667,196.5 66.5,197.5C 66.0671,203.086 66.5671,208.752 68,214.5C 68.6708,215.252 69.5041,215.586 70.5,215.5C 68.9229,218.017 67.0896,218.017 65,215.5C 64.3744,213.287 64.5411,211.12 65.5,209C 63.3348,205.84 62.3348,202.34 62.5,198.5C 64.6516,197.923 64.985,196.756 63.5,195C 64.7427,192.884 65.9094,190.718 67,188.5C 67.6708,187.748 68.5041,187.414 69.5,187.5 Z"/></g>
<g><path style="opacity:0.193" fill="#212d5e" d="M 109.5,201.5 C 107.901,201.232 106.568,201.566 105.5,202.5C 105.167,202.5 104.833,202.5 104.5,202.5C 104.741,194.924 106.407,194.591 109.5,201.5 Z"/></g>
<g><path style="opacity:0.835" fill="#283f6d" d="M 123.5,206.5 C 123.5,205.833 123.5,205.167 123.5,204.5C 126.352,203.206 126.686,201.706 124.5,200C 125.34,198.334 124.84,198.167 123,199.5C 121.165,197.551 119.999,195.217 119.5,192.5C 118.817,192.137 118.15,191.804 117.5,191.5C 118.876,186.589 121.376,186.256 125,190.5C 125.163,192.676 125.996,194.509 127.5,196C 127.237,199.058 127.07,202.225 127,205.5C 126.667,206.167 126.333,206.833 126,207.5C 125.329,206.748 124.496,206.414 123.5,206.5 Z"/></g>
<g><path style="opacity:0.16" fill="#5fd0e1" d="M 117.5,194.5 C 119.313,197.928 121.313,201.261 123.5,204.5C 123.5,205.167 123.5,205.833 123.5,206.5C 121.629,206.141 120.129,205.141 119,203.5C 118.498,200.487 117.998,197.487 117.5,194.5 Z"/></g>
<g><path style="opacity:0.847" fill="#38678d" d="M 117.5,191.5 C 118.15,191.804 118.817,192.137 119.5,192.5C 119.999,195.217 121.165,197.551 123,199.5C 124.84,198.167 125.34,198.334 124.5,200C 126.686,201.706 126.352,203.206 123.5,204.5C 121.313,201.261 119.313,197.928 117.5,194.5C 116.375,193.348 116.375,192.348 117.5,191.5 Z"/></g>
<g><path style="opacity:0.272" fill="#243363" d="M 57.5,211.5 C 57.189,212.478 56.5223,213.145 55.5,213.5C 54.4937,213.062 54.4937,212.396 55.5,211.5C 54.6431,210.575 53.6431,209.908 52.5,209.5C 52.5,208.5 52.5,207.5 52.5,206.5C 54.9165,201.173 56.9165,201.506 58.5,207.5C 58.1543,208.849 57.821,210.183 57.5,211.5 Z"/></g>
<g><path style="opacity:0.266" fill="#253665" d="M 62.5,198.5 C 62.3348,202.34 63.3348,205.84 65.5,209C 64.5411,211.12 64.3744,213.287 65,215.5C 67.0896,218.017 68.9229,218.017 70.5,215.5C 71.7146,211.967 71.7146,208.301 70.5,204.5C 71.0347,202.554 72.368,201.554 74.5,201.5C 79.4982,210.009 77.6649,216.676 69,221.5C 67.8904,219.963 66.3904,219.297 64.5,219.5C 64.6399,217.876 63.9733,216.71 62.5,216C 62.8333,215.667 63.1667,215.333 63.5,215C 62.7295,212.393 62.0629,209.727 61.5,207C 61.4413,204.131 61.7747,201.298 62.5,198.5 Z"/></g>
<g><path style="opacity:0.171" fill="#60d4e4" d="M 109.5,201.5 C 111.942,203.121 113.275,205.454 113.5,208.5C 111.801,206.434 110.468,204.1 109.5,201.5 Z"/></g>
<g><path style="opacity:0.827" fill="#273a68" d="M 90.5,197.5 C 92.5952,198.412 94.5952,199.579 96.5,201C 95.5209,202.779 95.8542,204.445 97.5,206C 96.3498,208.212 95.3498,210.379 94.5,212.5C 88.2747,208.812 86.9413,203.812 90.5,197.5 Z"/></g>
<g><path style="opacity:0.868" fill="#8ed3e2" d="M 70.5,204.5 C 71.7146,208.301 71.7146,211.967 70.5,215.5C 69.5041,215.586 68.6708,215.252 68,214.5C 66.5671,208.752 66.0671,203.086 66.5,197.5C 66.6667,196.5 66.8333,195.5 67,194.5C 67.3726,198.218 68.5392,201.551 70.5,204.5 Z"/></g>
<g><path style="opacity:0.145" fill="#5ac4d7" d="M 104.5,202.5 C 104.833,202.5 105.167,202.5 105.5,202.5C 105.736,204.049 105.736,205.549 105.5,207C 106.167,208.333 107.167,209.333 108.5,210C 107.883,212.277 107.216,214.444 106.5,216.5C 105.372,211.938 104.705,207.272 104.5,202.5 Z"/></g>
<g><path style="opacity:0.914" fill="#355f86" d="M 109.5,201.5 C 110.468,204.1 111.801,206.434 113.5,208.5C 114.167,208.5 114.5,208.833 114.5,209.5C 113.317,210.504 111.984,211.338 110.5,212C 111.464,213.725 112.131,215.559 112.5,217.5C 110.301,220.132 108.301,219.799 106.5,216.5C 107.216,214.444 107.883,212.277 108.5,210C 107.167,209.333 106.167,208.333 105.5,207C 105.736,205.549 105.736,204.049 105.5,202.5C 106.568,201.566 107.901,201.232 109.5,201.5 Z"/></g>
<g><path style="opacity:0.834" fill="#4892af" d="M 114.5,209.5 C 114.889,212.553 114.223,215.22 112.5,217.5C 112.131,215.559 111.464,213.725 110.5,212C 111.984,211.338 113.317,210.504 114.5,209.5 Z"/></g>
<g><path style="opacity:0.323" fill="#233362" d="M 88.5,225.5 C 86.6944,227.089 85.3611,229.089 84.5,231.5C 83.8589,230.007 82.8589,229.007 81.5,228.5C 81.1816,224.206 82.0149,220.206 84,216.5C 86.0462,219.206 87.5462,222.206 88.5,225.5 Z"/></g>
<g><path style="opacity:0.093" fill="#5dcbdd" d="M 52.5,206.5 C 52.5,207.5 52.5,208.5 52.5,209.5C 52.0584,216.258 51.0584,222.925 49.5,229.5C 50.2305,232.109 50.7305,234.776 51,237.5C 51.8333,238.333 52.6667,239.167 53.5,240C 52.6634,241.011 52.33,242.178 52.5,243.5C 49.7295,239.192 48.3962,234.359 48.5,229C 49,223.5 49.5,218 50,212.5C 50.0367,210.026 50.87,208.026 52.5,206.5 Z"/></g>
<g><path style="opacity:0.224" fill="#233161" d="M 58.5,222.5 C 60.5099,227.408 62.5099,232.741 64.5,238.5C 63.7945,246.242 60.1278,248.576 53.5,245.5C 58.4292,246.695 61.4292,244.862 62.5,240C 60.7436,235.232 59.077,230.399 57.5,225.5C 57.5195,224.274 57.8529,223.274 58.5,222.5 Z"/></g>
<g><path style="opacity:0.837" fill="#2c4874" d="M 106.5,231.5 C 105.929,232.973 105.929,234.64 106.5,236.5C 104.515,237.047 102.849,238.047 101.5,239.5C 101.5,238.833 101.167,238.5 100.5,238.5C 99.2078,235.07 99.3745,231.403 101,227.5C 102.441,228.26 103.941,228.926 105.5,229.5C 106.298,229.957 106.631,230.624 106.5,231.5 Z"/></g>
<g><path style="opacity:0.166" fill="#5fcfe0" d="M 106.5,231.5 C 107.969,235.425 108.969,239.591 109.5,244C 109.387,246.399 108.387,248.232 106.5,249.5C 106.423,248.25 105.756,247.417 104.5,247C 105.5,246 106.5,245 107.5,244C 106.565,241.619 106.232,239.119 106.5,236.5C 105.929,234.64 105.929,232.973 106.5,231.5 Z"/></g>
<g><path style="opacity:0.989" fill="#446f92" d="M 52.5,209.5 C 53.6431,209.908 54.6431,210.575 55.5,211.5C 54.4937,212.396 54.4937,213.062 55.5,213.5C 56.5223,213.145 57.189,212.478 57.5,211.5C 58.4816,214.962 58.815,218.629 58.5,222.5C 57.8529,223.274 57.5195,224.274 57.5,225.5C 59.077,230.399 60.7436,235.232 62.5,240C 61.4292,244.862 58.4292,246.695 53.5,245.5C 52.6618,245.158 52.3284,244.492 52.5,243.5C 52.33,242.178 52.6634,241.011 53.5,240C 52.6667,239.167 51.8333,238.333 51,237.5C 50.7305,234.776 50.2305,232.109 49.5,229.5C 51.0584,222.925 52.0584,216.258 52.5,209.5 Z"/></g>
<g><path style="opacity:0.922" fill="#87ccdd" d="M 54.5,229.5 C 56.1344,230.207 57.4677,231.373 58.5,233C 58.421,235.305 58.2543,237.805 58,240.5C 55.6498,237.291 54.4831,233.624 54.5,229.5 Z"/></g>
<g><path style="opacity:0.139" fill="#222e5f" d="M 81.5,240.5 C 81.6282,244.881 81.2949,249.215 80.5,253.5C 79.0575,257.51 80.0575,260.844 83.5,263.5C 82.5272,264.791 81.5272,264.791 80.5,263.5C 79.5595,261.457 78.5595,259.457 77.5,257.5C 78.6881,251.663 80.0214,245.997 81.5,240.5 Z"/></g>
<g><path style="opacity:0.681" fill="#3a6f93" d="M 106.5,236.5 C 106.232,239.119 106.565,241.619 107.5,244C 106.5,245 105.5,246 104.5,247C 105.756,247.417 106.423,248.25 106.5,249.5C 104.999,250.443 103.665,250.109 102.5,248.5C 102.037,245.518 101.704,242.518 101.5,239.5C 102.849,238.047 104.515,237.047 106.5,236.5 Z"/></g>
<g><path style="opacity:0.028" fill="#5fd1e2" d="M 100.5,238.5 C 101.167,238.5 101.5,238.833 101.5,239.5C 101.704,242.518 102.037,245.518 102.5,248.5C 100.825,245.493 100.159,242.16 100.5,238.5 Z"/></g>
<g><path style="opacity:0.851" fill="#34567f" d="M 88.5,225.5 C 90.428,227.601 91.0947,229.934 90.5,232.5C 91.5705,237.118 92.9038,241.618 94.5,246C 93.6802,249.313 92.6802,252.479 91.5,255.5C 91.3285,254.121 91.1618,252.454 91,250.5C 90.6827,252.301 90.016,252.634 89,251.5C 88.654,249.782 88.154,248.115 87.5,246.5C 88.2878,244.671 87.7878,243.004 86,241.5C 84.4542,242.503 84.2875,243.503 85.5,244.5C 85.1667,245.167 84.8333,245.833 84.5,246.5C 84.2639,249.621 82.9305,251.954 80.5,253.5C 81.2949,249.215 81.6282,244.881 81.5,240.5C 81.3243,236.711 81.3243,232.711 81.5,228.5C 82.8589,229.007 83.8589,230.007 84.5,231.5C 85.3611,229.089 86.6944,227.089 88.5,225.5 Z"/></g>
<g><path style="opacity:0.978" fill="#7fc8d9" d="M 85.5,244.5 C 86.4699,248.108 86.4699,251.608 85.5,255C 84.5165,255.591 83.8499,255.257 83.5,254C 84.1667,252 84.8333,250 85.5,248C 85.4301,247.235 85.0967,246.735 84.5,246.5C 84.8333,245.833 85.1667,245.167 85.5,244.5 Z"/></g>
<g><path style="opacity:0.975" fill="#427194" d="M 91.5,255.5 C 90.441,259.893 87.7744,262.559 83.5,263.5C 80.0575,260.844 79.0575,257.51 80.5,253.5C 82.9305,251.954 84.2639,249.621 84.5,246.5C 85.0967,246.735 85.4301,247.235 85.5,248C 84.8333,250 84.1667,252 83.5,254C 83.8499,255.257 84.5165,255.591 85.5,255C 86.4699,251.608 86.4699,248.108 85.5,244.5C 84.2875,243.503 84.4542,242.503 86,241.5C 87.7878,243.004 88.2878,244.671 87.5,246.5C 88.154,248.115 88.654,249.782 89,251.5C 90.016,252.634 90.6827,252.301 91,250.5C 91.1618,252.454 91.3285,254.121 91.5,255.5 Z"/></g>
</svg>
