<?xml version="1.0" encoding="UTF-8"?>
<!DOCTYPE svg PUBLIC "-//W3C//DTD SVG 1.1//EN" "http://www.w3.org/Graphics/SVG/1.1/DTD/svg11.dtd">
<svg xmlns="http://www.w3.org/2000/svg" version="1.1" width="328px" height="313px" style="shape-rendering:geometricPrecision; text-rendering:geometricPrecision; image-rendering:optimizeQuality; fill-rule:evenodd; clip-rule:evenodd" xmlns:xlink="http://www.w3.org/1999/xlink">
<g><path style="opacity:0.515" fill="#60432a" d="M 112.5,85.5 C 114.233,84.9924 114.566,84.159 113.5,83C 120.55,80.9756 126.883,77.6422 132.5,73C 143.535,71.3205 154.368,68.8205 165,65.5C 169.068,64.9554 173.068,65.6221 177,67.5C 177.414,67.0426 177.914,66.7093 178.5,66.5C 179.333,67.5 180.167,68.5 181,69.5C 188.798,65.3846 196.632,64.2179 204.5,66C 207.617,67.4725 210.451,69.3058 213,71.5C 214.779,70.5209 216.445,70.8542 218,72.5C 227.233,68.5859 233.067,71.4192 235.5,81C 234.167,82.6667 234.167,84.3333 235.5,86C 234.308,87.9124 233.308,89.9124 232.5,92C 232.811,94.5881 233.311,97.4214 234,100.5C 240.641,115.762 246.974,131.096 253,146.5C 254.507,153.335 256.007,159.835 257.5,166C 257.167,167 256.833,168 256.5,169C 256.995,173.138 257.995,177.138 259.5,181C 259.167,181.333 258.833,181.667 258.5,182C 262.598,190.692 264.598,199.692 264.5,209C 265.357,209.689 266.023,210.522 266.5,211.5C 265.869,215.034 265.202,218.534 264.5,222C 265.167,223 265.833,224 266.5,225C 265.529,231.986 263.862,238.819 261.5,245.5C 256.999,245.475 252.166,246.475 247,248.5C 244.858,247.794 242.691,248.128 240.5,249.5C 236.392,249.626 232.225,249.626 228,249.5C 221.251,251.116 214.417,252.45 207.5,253.5C 206.914,253.291 206.414,252.957 206,252.5C 202.458,254.611 198.791,255.278 195,254.5C 187.909,255.549 180.575,256.549 173,257.5C 171.318,257.193 169.652,256.86 168,256.5C 165.981,258.31 163.648,258.31 161,256.5C 159.559,257.26 158.059,257.926 156.5,258.5C 154.899,257.835 153.399,257.501 152,257.5C 151.395,259.481 150.395,259.815 149,258.5C 147.667,259.167 146.333,259.833 145,260.5C 142.63,259.872 140.297,259.539 138,259.5C 137.667,260.167 137.333,260.833 137,261.5C 134.888,259.078 132.888,259.078 131,261.5C 128.615,259.461 126.448,259.461 124.5,261.5C 116.794,260.716 108.961,260.716 101,261.5C 100.311,260.643 99.4776,259.977 98.5,259.5C 96.7648,260.057 95.0982,260.39 93.5,260.5C 92.8027,258.615 91.8027,258.282 90.5,259.5C 89.7836,258.689 88.9503,258.022 88,257.5C 86.0786,258.19 84.2453,258.524 82.5,258.5C 76.8153,255.975 71.1486,254.475 65.5,254C 61.9338,253.3 59.1005,251.467 57,248.5C 54.9047,245.398 53.4047,242.398 52.5,239.5C 52.9079,232.593 52.9079,225.093 52.5,217C 53.9566,213.806 54.9566,210.473 55.5,207C 55.1667,206.667 54.8333,206.333 54.5,206C 55.7014,205.097 56.5348,203.931 57,202.5C 57.2501,199.15 58.0835,195.983 59.5,193C 59.092,185.495 60.4254,178.161 63.5,171C 63.5529,163.769 64.8862,155.936 67.5,147.5C 66.1413,145.694 66.4746,144.194 68.5,143C 68.1558,139.539 68.8224,136.039 70.5,132.5C 68.3602,130.86 67.3602,128.693 67.5,126C 69.5191,115.629 74.1858,106.629 81.5,99C 85.2678,98.0229 88.7678,96.5229 92,94.5C 95.818,93.7565 99.818,93.7565 104,94.5C 106.025,90.6443 108.858,87.6443 112.5,85.5 Z"/></g>
<g><path style="opacity:0.823" fill="#42311f" d="M 168.5,72.5 C 172.608,72.785 176.441,74.4517 180,77.5C 185.681,75.8231 191.347,74.1564 197,72.5C 199.39,73.2779 201.557,74.4445 203.5,76C 188.019,78.3443 172.353,81.0109 156.5,84C 153.67,84.869 151.003,86.0357 148.5,87.5C 147.158,86.0977 146.324,86.4311 146,88.5C 142.435,86.9465 139.101,87.2799 136,89.5C 130.546,89.6135 125.046,89.6135 119.5,89.5C 119.709,88.914 120.043,88.414 120.5,88C 123.559,87.3554 126.559,86.522 129.5,85.5C 132.714,82.1238 136.381,79.2905 140.5,77C 144.141,76.3562 147.641,76.8562 151,78.5C 156.956,76.2426 162.789,74.2426 168.5,72.5 Z"/></g>
<g><path style="opacity:0.656" fill="#725439" d="M 218.5,77.5 C 222.048,77.0949 225.381,77.5949 228.5,79C 228.551,82.806 228.218,86.806 227.5,91C 228.759,108.785 234.093,125.452 243.5,141C 243.167,141.333 242.833,141.667 242.5,142C 243.893,143.171 244.727,144.671 245,146.5C 245.946,160.39 248.113,174.057 251.5,187.5C 253.488,188.289 253.821,189.455 252.5,191C 254.894,192.448 256.394,194.614 257,197.5C 258.515,203.075 259.515,208.742 260,214.5C 260.5,215 261,215.5 261.5,216C 260.785,222.467 259.952,228.967 259,235.5C 258.426,237.492 257.259,238.992 255.5,240C 250.074,240.154 244.908,241.321 240,243.5C 239.586,243.043 239.086,242.709 238.5,242.5C 204.617,246.425 171.117,250.425 138,254.5C 127.173,254.422 115.673,254.255 103.5,254C 90.1916,252.549 77.1916,249.883 64.5,246C 62.6015,244.103 61.1015,241.936 60,239.5C 59.2652,234.464 58.7652,229.297 58.5,224C 62.1971,205.547 66.8637,187.214 72.5,169C 71.3281,167.132 71.4947,165.298 73,163.5C 74.3643,152.515 75.531,141.515 76.5,130.5C 96.9353,128.343 117.102,125.01 137,120.5C 138.274,119.465 139.44,118.298 140.5,117C 129.11,117.732 117.777,119.232 106.5,121.5C 105.353,121.182 104.519,120.516 104,119.5C 101.739,121.129 99.4052,121.462 97,120.5C 90.4906,122.004 83.6573,122.671 76.5,122.5C 76.7381,115.551 79.4048,109.718 84.5,105C 86.6864,103.691 88.8531,103.524 91,104.5C 97.7792,103.253 104.613,101.253 111.5,98.5C 112.167,98.8333 112.833,99.1667 113.5,99.5C 129.164,97.3062 144.664,94.3062 160,90.5C 160.772,90.6448 161.439,90.9781 162,91.5C 166.845,90.204 171.512,88.5374 176,86.5C 177.779,87.4791 179.445,87.1458 181,85.5C 184.459,86.4218 187.959,86.2551 191.5,85C 200.527,82.3768 209.527,79.8768 218.5,77.5 Z"/></g>
<g><path style="opacity:0.004" fill="#5e4228" d="M 112.5,85.5 C 111.833,84.1667 111.833,84.1667 112.5,85.5 Z"/></g>
<g><path style="opacity:0.768" fill="#64482f" d="M 193.5,124.5 C 192.681,126.772 192.015,129.106 191.5,131.5C 190.027,130.929 188.36,130.929 186.5,131.5C 183.03,130.285 179.53,128.951 176,127.5C 173.702,128.065 172.869,129.232 173.5,131C 173,131.5 172.5,132 172,132.5C 170.184,131.076 168.684,129.41 167.5,127.5C 176.041,126.737 184.375,125.403 192.5,123.5C 193.107,123.624 193.44,123.957 193.5,124.5 Z"/></g>
<g><path style="opacity:0.931" fill="#806650" d="M 203.5,124.5 C 205.597,125.879 205.93,127.545 204.5,129.5C 199.925,130.322 195.591,130.988 191.5,131.5C 192.015,129.106 192.681,126.772 193.5,124.5C 194.898,122.891 196.565,122.058 198.5,122C 199.641,124.702 198.641,126.369 195.5,127C 197.735,128.357 200.069,128.19 202.5,126.5C 203.298,126.043 203.631,125.376 203.5,124.5 Z"/></g>
<g><path style="opacity:0.629" fill="#e0d2c6" d="M 204.5,129.5 C 205.254,137.645 205.254,145.645 204.5,153.5C 203.8,157.798 203.467,162.131 203.5,166.5C 202.857,171.601 201.691,176.601 200,181.5C 196.485,189.859 192.985,198.192 189.5,206.5C 187.975,210.365 185.642,213.698 182.5,216.5C 180.5,216.5 178.5,216.5 176.5,216.5C 175.389,213.54 174.056,210.706 172.5,208C 172.833,207.667 173.167,207.333 173.5,207C 170.195,203.843 166.528,201.343 162.5,199.5C 161.833,199.167 161.167,198.833 160.5,198.5C 159.167,196.5 159.167,194.5 160.5,192.5C 163.106,188.878 165.772,185.212 168.5,181.5C 170.716,181.275 172.383,182.108 173.5,184C 175.859,184.208 178.026,184.374 180,184.5C 186.443,179.285 190.61,172.619 192.5,164.5C 191.855,163.354 191.022,162.354 190,161.5C 180.59,161.813 174.09,166.48 170.5,175.5C 168.236,176.581 166.069,177.915 164,179.5C 163.51,178.207 163.343,176.873 163.5,175.5C 164.398,173.373 166.064,172.206 168.5,172C 169.252,171.329 169.586,170.496 169.5,169.5C 171.384,166.776 172.717,163.61 173.5,160C 173.1,157.785 172.1,155.952 170.5,154.5C 170.791,152.177 170.291,149.844 169,147.5C 168.653,145.82 167.653,144.82 166,144.5C 161.334,148.169 157.334,152.502 154,157.5C 151.183,164.398 152.35,170.398 157.5,175.5C 156.332,179.851 155.165,184.185 154,188.5C 151.243,181.168 147.743,174.168 143.5,167.5C 141.751,165.469 139.751,165.135 137.5,166.5C 136.271,171.792 135.771,177.126 136,182.5C 136.465,183.931 137.299,185.097 138.5,186C 140.519,186.45 142.352,187.283 144,188.5C 145.147,187.542 146.147,187.875 147,189.5C 147.977,191.74 148.477,194.073 148.5,196.5C 147.833,196.5 147.167,196.5 146.5,196.5C 145.128,197.512 143.795,198.512 142.5,199.5C 140.549,199.227 139.049,199.893 138,201.5C 137.667,201.167 137.333,200.833 137,200.5C 135.474,203.578 132.974,205.412 129.5,206C 127.937,206.759 126.937,207.926 126.5,209.5C 125.29,209.932 124.29,210.599 123.5,211.5C 122.883,211.611 122.383,211.944 122,212.5C 122.619,217.934 120.285,220.934 115,221.5C 112.566,220.678 110.066,220.344 107.5,220.5C 115.065,202.593 121.565,184.26 127,165.5C 127.497,162.854 127.664,160.187 127.5,157.5C 128.589,152.833 129.923,147.833 131.5,142.5C 136.74,140.698 142.073,139.198 147.5,138C 160.656,135.903 173.656,133.736 186.5,131.5C 188.36,130.929 190.027,130.929 191.5,131.5C 195.591,130.988 199.925,130.322 204.5,129.5 Z"/></g>
<g><path style="opacity:0.871" fill="#816852" d="M 167.5,127.5 C 168.684,129.41 170.184,131.076 172,132.5C 172.5,132 173,131.5 173.5,131C 172.869,129.232 173.702,128.065 176,127.5C 179.53,128.951 183.03,130.285 186.5,131.5C 173.656,133.736 160.656,135.903 147.5,138C 142.073,139.198 136.74,140.698 131.5,142.5C 133.739,141.521 135.406,139.854 136.5,137.5C 137.803,138.718 138.803,138.385 139.5,136.5C 141.834,137.841 143.501,137.174 144.5,134.5C 144.291,133.914 143.957,133.414 143.5,133C 145.028,131.639 146.695,130.472 148.5,129.5C 149.647,129.818 150.481,130.484 151,131.5C 152.813,130.391 153.646,131.058 153.5,133.5C 155.144,133.286 156.644,133.62 158,134.5C 160.878,132.359 162.711,129.859 163.5,127C 165.066,126.235 166.399,126.402 167.5,127.5 Z"/></g>
<g><path style="opacity:0.839" fill="#63472e" d="M 189.5,206.5 C 192.985,198.192 196.485,189.859 200,181.5C 201.691,176.601 202.857,171.601 203.5,166.5C 204.911,163.204 205.911,159.704 206.5,156C 205.934,155.005 205.267,154.172 204.5,153.5C 205.254,145.645 205.254,137.645 204.5,129.5C 205.93,127.545 205.597,125.879 203.5,124.5C 203.5,123.5 203.5,122.5 203.5,121.5C 205.199,121.34 206.866,121.506 208.5,122C 209.167,124 209.833,126 210.5,128C 210.129,134.626 210.129,141.46 210.5,148.5C 210.461,155.336 209.794,162.003 208.5,168.5C 208.833,169.167 209.167,169.833 209.5,170.5C 205.106,182.176 200.606,193.843 196,205.5C 194.333,207.833 192.667,210.167 191,212.5C 190.08,212.07 189.247,211.736 188.5,211.5C 189.309,209.929 189.643,208.262 189.5,206.5 Z"/></g>
<g><path style="opacity:0.834" fill="#856c57" d="M 130.5,142.5 C 130.833,142.5 131.167,142.5 131.5,142.5C 129.923,147.833 128.589,152.833 127.5,157.5C 125.829,151.875 126.829,146.875 130.5,142.5 Z"/></g>
<g><path style="opacity:0.937" fill="#47643b" d="M 170.5,154.5 C 169.294,155.88 169.627,157.047 171.5,158C 170.833,159.333 170.167,160.667 169.5,162C 169.892,164.354 169.892,166.854 169.5,169.5C 169.586,170.496 169.252,171.329 168.5,172C 166.064,172.206 164.398,173.373 163.5,175.5C 162.833,175.5 162.167,175.5 161.5,175.5C 163.53,170.781 165.53,166.114 167.5,161.5C 167.485,157.585 166.652,153.918 165,150.5C 161.159,154.183 158.326,158.517 156.5,163.5C 157.266,166.475 158.6,169.142 160.5,171.5C 158.702,174.289 158.202,177.289 159,180.5C 159.852,179.429 160.685,178.429 161.5,177.5C 161.38,179.734 161.713,181.901 162.5,184C 161.453,186.146 160.787,187.979 160.5,189.5C 159.71,188.391 159.21,187.058 159,185.5C 155.97,189.695 152.47,193.361 148.5,196.5C 148.477,194.073 147.977,191.74 147,189.5C 146.147,187.875 145.147,187.542 144,188.5C 142.352,187.283 140.519,186.45 138.5,186C 137.299,185.097 136.465,183.931 136,182.5C 135.771,177.126 136.271,171.792 137.5,166.5C 139.751,165.135 141.751,165.469 143.5,167.5C 147.743,174.168 151.243,181.168 154,188.5C 155.165,184.185 156.332,179.851 157.5,175.5C 152.35,170.398 151.183,164.398 154,157.5C 157.334,152.502 161.334,148.169 166,144.5C 167.653,144.82 168.653,145.82 169,147.5C 170.291,149.844 170.791,152.177 170.5,154.5 Z"/></g>
<g><path style="opacity:0.849" fill="#637855" d="M 170.5,154.5 C 172.1,155.952 173.1,157.785 173.5,160C 172.717,163.61 171.384,166.776 169.5,169.5C 169.892,166.854 169.892,164.354 169.5,162C 170.167,160.667 170.833,159.333 171.5,158C 169.627,157.047 169.294,155.88 170.5,154.5 Z"/></g>
<g><path style="opacity:0.976" fill="#5a9b49" d="M 161.5,175.5 C 161.5,176.167 161.5,176.833 161.5,177.5C 160.685,178.429 159.852,179.429 159,180.5C 158.202,177.289 158.702,174.289 160.5,171.5C 158.6,169.142 157.266,166.475 156.5,163.5C 158.326,158.517 161.159,154.183 165,150.5C 166.652,153.918 167.485,157.585 167.5,161.5C 165.53,166.114 163.53,170.781 161.5,175.5 Z"/></g>
<g><path style="opacity:0.759" fill="#957e6b" d="M 204.5,153.5 C 205.267,154.172 205.934,155.005 206.5,156C 205.911,159.704 204.911,163.204 203.5,166.5C 203.467,162.131 203.8,157.798 204.5,153.5 Z"/></g>
<g><path style="opacity:0.997" fill="#60a44e" d="M 168.5,181.5 C 167.711,181.217 167.044,180.717 166.5,180C 168.093,179.051 169.426,177.885 170.5,176.5C 173.666,174.166 176.333,171.333 178.5,168C 181.417,165.569 184.75,164.402 188.5,164.5C 188.037,167.482 187.704,170.482 187.5,173.5C 186.5,173.5 185.5,173.5 184.5,173.5C 184.649,174.552 184.483,175.552 184,176.5C 181.589,178.578 178.922,180.245 176,181.5C 174.278,181.389 174.112,180.889 175.5,180C 174.5,179.833 173.5,179.667 172.5,179.5C 170.645,179.34 169.312,180.007 168.5,181.5 Z"/></g>
<g><path style="opacity:0.992" fill="#5a9b49" d="M 140.5,171.5 C 141.496,171.414 142.329,171.748 143,172.5C 145.114,178.174 147.614,183.674 150.5,189C 147.899,188.599 145.899,187.099 144.5,184.5C 143.311,183.571 141.978,183.238 140.5,183.5C 139.322,179.452 139.322,175.452 140.5,171.5 Z"/></g>
<g><path style="opacity:0.914" fill="#516c45" d="M 168.5,181.5 C 169.312,180.007 170.645,179.34 172.5,179.5C 173.5,179.667 174.5,179.833 175.5,180C 174.112,180.889 174.278,181.389 176,181.5C 178.922,180.245 181.589,178.578 184,176.5C 184.483,175.552 184.649,174.552 184.5,173.5C 185.5,173.5 186.5,173.5 187.5,173.5C 187.704,170.482 188.037,167.482 188.5,164.5C 184.75,164.402 181.417,165.569 178.5,168C 176.333,171.333 173.666,174.166 170.5,176.5C 170.5,176.167 170.5,175.833 170.5,175.5C 174.09,166.48 180.59,161.813 190,161.5C 191.022,162.354 191.855,163.354 192.5,164.5C 190.61,172.619 186.443,179.285 180,184.5C 178.026,184.374 175.859,184.208 173.5,184C 172.383,182.108 170.716,181.275 168.5,181.5 Z"/></g>
<g><path style="opacity:0.867" fill="#718561" d="M 161.5,175.5 C 162.167,175.5 162.833,175.5 163.5,175.5C 163.343,176.873 163.51,178.207 164,179.5C 166.069,177.915 168.236,176.581 170.5,175.5C 170.5,175.833 170.5,176.167 170.5,176.5C 169.426,177.885 168.093,179.051 166.5,180C 167.044,180.717 167.711,181.217 168.5,181.5C 165.772,185.212 163.106,188.878 160.5,192.5C 160.5,191.5 160.5,190.5 160.5,189.5C 160.787,187.979 161.453,186.146 162.5,184C 161.713,181.901 161.38,179.734 161.5,177.5C 161.5,176.833 161.5,176.167 161.5,175.5 Z"/></g>
<g><path style="opacity:0.748" fill="#2b4c20" d="M 160.5,189.5 C 160.5,190.5 160.5,191.5 160.5,192.5C 159.307,192.97 158.64,193.97 158.5,195.5C 158.52,196.726 158.853,197.726 159.5,198.5C 155.603,201.354 151.936,201.02 148.5,197.5C 148.5,197.167 148.5,196.833 148.5,196.5C 152.47,193.361 155.97,189.695 159,185.5C 159.21,187.058 159.71,188.391 160.5,189.5 Z"/></g>
<g><path style="opacity:0.769" fill="#747f61" d="M 160.5,192.5 C 159.167,194.5 159.167,196.5 160.5,198.5C 160.167,198.5 159.833,198.5 159.5,198.5C 158.853,197.726 158.52,196.726 158.5,195.5C 158.64,193.97 159.307,192.97 160.5,192.5 Z"/></g>
<g><path style="opacity:0.957" fill="#5a3f27" d="M 146.5,196.5 C 146.842,197.338 147.508,197.672 148.5,197.5C 151.936,201.02 155.603,201.354 159.5,198.5C 159.833,198.5 160.167,198.5 160.5,198.5C 161.167,198.833 161.833,199.167 162.5,199.5C 162.34,201.199 162.506,202.866 163,204.5C 164.908,205.079 166.575,205.079 168,204.5C 169.559,207.253 171.393,209.92 173.5,212.5C 173.137,213.183 172.804,213.85 172.5,214.5C 170.517,215.706 168.517,217.039 166.5,218.5C 162.835,218.459 158.835,218.126 154.5,217.5C 144.176,218.705 134.01,219.705 124,220.5C 124.109,219.231 123.942,218.231 123.5,217.5C 122.62,215.611 122.62,213.611 123.5,211.5C 124.29,210.599 125.29,209.932 126.5,209.5C 128.414,208.815 130.414,208.315 132.5,208C 136.198,205.489 139.532,202.655 142.5,199.5C 143.795,198.512 145.128,197.512 146.5,196.5 Z"/></g>
<g><path style="opacity:0.847" fill="#7a6049" d="M 142.5,199.5 C 139.532,202.655 136.198,205.489 132.5,208C 130.414,208.315 128.414,208.815 126.5,209.5C 126.937,207.926 127.937,206.759 129.5,206C 132.974,205.412 135.474,203.578 137,200.5C 137.333,200.833 137.667,201.167 138,201.5C 139.049,199.893 140.549,199.227 142.5,199.5 Z"/></g>
<g><path style="opacity:0.87" fill="#41311f" d="M 146.5,207.5 C 151.492,208.649 156.492,208.816 161.5,208C 163.976,209.309 165.976,211.142 167.5,213.5C 163.457,214.181 159.29,214.181 155,213.5C 146.61,214.021 138.61,215.354 131,217.5C 130.5,217.333 130,217.167 129.5,217C 131.349,215.907 133.016,214.574 134.5,213C 138.646,211.156 142.646,209.323 146.5,207.5 Z"/></g>
<g><path style="opacity:0.824" fill="#765c45" d="M 162.5,199.5 C 166.528,201.343 170.195,203.843 173.5,207C 173.167,207.333 172.833,207.667 172.5,208C 174.056,210.706 175.389,213.54 176.5,216.5C 174.908,217.602 174.075,216.935 174,214.5C 173.221,217.097 172.721,217.097 172.5,214.5C 172.804,213.85 173.137,213.183 173.5,212.5C 171.393,209.92 169.559,207.253 168,204.5C 166.575,205.079 164.908,205.079 163,204.5C 162.506,202.866 162.34,201.199 162.5,199.5 Z"/></g>
<g><path style="opacity:0.865" fill="#65482f" d="M 130.5,142.5 C 126.829,146.875 125.829,151.875 127.5,157.5C 127.664,160.187 127.497,162.854 127,165.5C 121.565,184.26 115.065,202.593 107.5,220.5C 108.871,221.787 110.705,222.453 113,222.5C 117.735,223.047 121.235,221.38 123.5,217.5C 123.942,218.231 124.109,219.231 124,220.5C 134.01,219.705 144.176,218.705 154.5,217.5C 158.835,218.126 162.835,218.459 166.5,218.5C 168.517,217.039 170.517,215.706 172.5,214.5C 172.721,217.097 173.221,217.097 174,214.5C 174.075,216.935 174.908,217.602 176.5,216.5C 178.5,216.5 180.5,216.5 182.5,216.5C 183.688,217.048 184.855,217.381 186,217.5C 186.583,215.998 187.416,214.665 188.5,213.5C 189.307,217.86 187.473,220.86 183,222.5C 173.538,221.967 164.204,221.967 155,222.5C 145.406,224.599 135.739,226.266 126,227.5C 120.825,226.646 115.492,226.646 110,227.5C 106.144,226.633 102.477,225.3 99,223.5C 99.5733,221.196 100.74,219.029 102.5,217C 102.167,216.667 101.833,216.333 101.5,216C 104.146,211.065 106.98,206.232 110,201.5C 112.986,190.524 116.486,179.357 120.5,168C 119.346,167.086 119.513,166.253 121,165.5C 122.712,155.231 124.212,145.231 125.5,135.5C 127.5,135.833 129.5,136.167 131.5,136.5C 131.167,138.5 130.833,140.5 130.5,142.5 Z"/></g>
<g><path style="opacity:0.769" fill="#846b56" d="M 123.5,211.5 C 122.62,213.611 122.62,215.611 123.5,217.5C 121.235,221.38 117.735,223.047 113,222.5C 110.705,222.453 108.871,221.787 107.5,220.5C 110.066,220.344 112.566,220.678 115,221.5C 120.285,220.934 122.619,217.934 122,212.5C 122.383,211.944 122.883,211.611 123.5,211.5 Z"/></g>
</svg>
